<svg id="Layer_2" data-name="Layer 2" xmlns="http://www.w3.org/2000/svg" viewBox="0 0 300 300"><defs><style>.cls-1{fill:#f8572b;}</style></defs><path class="cls-1" d="M150,275.59a3.2,3.2,0,0,1-3-2.18l-14.36-43L102,263.85a3.2,3.2,0,0,1-5.54-2.46l4.35-45.08L59.32,234.38a3.2,3.2,0,0,1-4.06-4.5l22.31-39.41-45.28-.39a3.19,3.19,0,0,1-1.88-5.76l36.41-26.93L25.61,138.62a3.2,3.2,0,0,1,.63-6l44.21-9.79-30-33.9a3.2,3.2,0,0,1,3-5.25l44.37,9L74.22,49.5a3.19,3.19,0,0,1,4.9-3.56L116,72.24l5.12-45A3.19,3.19,0,0,1,127,26l23,39,23-39a3.19,3.19,0,0,1,5.93,1.26l5.12,45,36.86-26.3a3.19,3.19,0,0,1,4.9,3.56L212.16,92.68l44.37-9a3.2,3.2,0,0,1,3,5.25l-30,33.9,44.21,9.79a3.2,3.2,0,0,1,.63,6l-41.21,18.77,36.41,26.93a3.19,3.19,0,0,1-1.88,5.76l-45.28.39,22.31,39.41a3.2,3.2,0,0,1-4.06,4.5l-41.52-18.07,4.35,45.08a3.2,3.2,0,0,1-5.54,2.46l-30.58-33.39-14.36,43A3.21,3.21,0,0,1,150,275.59ZM133.92,221.1a3.7,3.7,0,0,1,.66.07,3.21,3.21,0,0,1,2.37,2.11l13.05,39,13.05-39a3.2,3.2,0,0,1,5.39-1.14l27.79,30.35-3.95-41a3.19,3.19,0,0,1,4.45-3.23l37.74,16.42L214.2,188.89a3.19,3.19,0,0,1,2.75-4.77l41.15-.35L225,159.3a3.2,3.2,0,0,1,.57-5.48l37.45-17-40.18-8.9a3.2,3.2,0,0,1-1.7-5.24l27.28-30.81L208.11,100a3.19,3.19,0,0,1-3.68-4.09l12.38-39.25L183.31,80.6a3.2,3.2,0,0,1-5-2.24l-4.65-40.89L152.75,72.93a3.19,3.19,0,0,1-5.5,0L126.37,37.47l-4.65,40.89a3.2,3.2,0,0,1-5,2.24L83.19,56.69,95.57,95.94A3.19,3.19,0,0,1,91.89,100L51.56,91.82l27.28,30.81a3.2,3.2,0,0,1-1.7,5.24L37,136.77l37.45,17A3.2,3.2,0,0,1,75,159.3L41.9,183.77l41.15.35a3.19,3.19,0,0,1,2.75,4.77L65.53,224.71l37.74-16.42a3.19,3.19,0,0,1,4.45,3.23l-4,41,27.79-30.35A3.21,3.21,0,0,1,133.92,221.1Z"/></svg>