<svg id="Layer_2" data-name="Layer 2" xmlns="http://www.w3.org/2000/svg" viewBox="0 0 300 300"><defs><style>.cls-1{fill:#00b775;}</style></defs><path class="cls-1" d="M150,275.49a11,11,0,0,1-11.18-10.64A6.28,6.28,0,0,0,126.64,263a11.19,11.19,0,0,1-21.36-6.59,6.28,6.28,0,0,0-11.1-5.34,11.19,11.19,0,0,1-18.47-12.59,6.29,6.29,0,0,0-9-8.39,11.19,11.19,0,0,1-13.94-17.47A6.28,6.28,0,0,0,46.58,202a11.19,11.19,0,0,1-8.17-20.81,6.28,6.28,0,0,0-2.74-12A11.19,11.19,0,0,1,34,146.85a6.29,6.29,0,0,0,.92-12.29,11.19,11.19,0,0,1,5-21.79A6.29,6.29,0,0,0,44.4,101.3,11.19,11.19,0,0,1,55.57,81.94a6.29,6.29,0,0,0,7.69-9.64A11.19,11.19,0,0,1,79.64,57.1a6.28,6.28,0,0,0,10.18-6.94A11.19,11.19,0,0,1,110,40.46a6.29,6.29,0,0,0,11.78-3.63,11.19,11.19,0,0,1,22.1-3.33,6.28,6.28,0,0,0,12.32,0h0a11.19,11.19,0,0,1,22.1,3.33A6.29,6.29,0,0,0,190,40.46a11.19,11.19,0,0,1,20.14,9.7,6.28,6.28,0,0,0,10.18,6.94,11.19,11.19,0,0,1,16.39,15.2,6.29,6.29,0,0,0,7.68,9.64A11.19,11.19,0,0,1,255.6,101.3a6.29,6.29,0,0,0,4.5,11.47,11.19,11.19,0,0,1,5,21.79,6.29,6.29,0,0,0,.92,12.29,11.19,11.19,0,0,1-1.33,22.29h-.34a6.28,6.28,0,0,0-2.74,12A11.19,11.19,0,0,1,253.42,202a6.28,6.28,0,0,0-6.16,10.67,11.19,11.19,0,0,1-13.94,17.48,6.28,6.28,0,0,0-9,8.38,11.19,11.19,0,0,1-18.47,12.59,6.28,6.28,0,0,0-11.1,5.34A11.19,11.19,0,0,1,173.36,263a6.28,6.28,0,0,0-12.18,1.84A11,11,0,0,1,150,275.49ZM132.5,254a12,12,0,0,1,1.71.12,11,11,0,0,1,9.51,10.52,6.29,6.29,0,0,0,12.56,0A11.19,11.19,0,0,1,178,261.34a6.29,6.29,0,0,0,12-3.7,11.19,11.19,0,0,1,19.76-9.52,6.29,6.29,0,0,0,10.38-7.07,11.19,11.19,0,0,1,16.08-14.93,6.28,6.28,0,0,0,7.83-9.81,11.19,11.19,0,0,1,11-19,6.29,6.29,0,0,0,4.58-11.69,11.19,11.19,0,0,1,4.88-21.39,6.29,6.29,0,0,0,.94-12.52,11.19,11.19,0,0,1-1.64-21.87A6.28,6.28,0,0,0,261,117.6a11.19,11.19,0,0,1-8-20.43,6.28,6.28,0,0,0-6.27-10.87A11.19,11.19,0,0,1,233,69.15a6.28,6.28,0,0,0-9.2-8.54,11.19,11.19,0,0,1-18.13-12.36,6.29,6.29,0,0,0-11.31-5.45,11.19,11.19,0,0,1-21-6.46A6.28,6.28,0,0,0,161,34.47h0a11,11,0,0,1-11,9h0a11,11,0,0,1-11-9,6.28,6.28,0,0,0-12.41,1.87,11.19,11.19,0,0,1-21,6.46,6.29,6.29,0,0,0-11.31,5.45A11.19,11.19,0,0,1,76.21,60.61,6.28,6.28,0,0,0,67,69.15,11.19,11.19,0,0,1,53.33,86.3a6.28,6.28,0,0,0-6.27,10.87,11.19,11.19,0,0,1-8,20.43,6.28,6.28,0,0,0-2.79,12.24,11.19,11.19,0,0,1-1.64,21.87,6.29,6.29,0,0,0,.94,12.52h.33a11.19,11.19,0,0,1,4.55,21.39A6.29,6.29,0,0,0,45,197.31a11.19,11.19,0,0,1,11,19,6.28,6.28,0,0,0,7.83,9.81A11.19,11.19,0,0,1,79.89,241a6.29,6.29,0,0,0,10.38,7.08A11.19,11.19,0,0,1,110,257.64a6.29,6.29,0,0,0,12,3.7A10.87,10.87,0,0,1,132.5,254ZM158.57,34Z"/></svg>