<svg id="Layer_2" data-name="Layer 2" xmlns="http://www.w3.org/2000/svg" viewBox="0 0 300 300"><defs><style>.cls-1{fill:#00b775;}</style></defs><path class="cls-1" d="M163.93,271.36a9.9,9.9,0,0,1-9.32-6.46,4.94,4.94,0,0,0-9.22,0,10.07,10.07,0,0,1-19.4-2.45,4.93,4.93,0,0,0-8.92-2.29A10.07,10.07,0,0,1,98.89,253a4.93,4.93,0,0,0-8.07-4.43A10.07,10.07,0,0,1,75,237a4.93,4.93,0,0,0-6.71-6.3,10.07,10.07,0,0,1-12.47-15.07,4.94,4.94,0,0,0-4.93-7.78,10.07,10.07,0,0,1-8.33-17.69,4.94,4.94,0,0,0-2.85-8.76,10.07,10.07,0,0,1-3.66-19.21,4.93,4.93,0,0,0-.58-9.19,10.07,10.07,0,0,1,1.23-19.52,4.93,4.93,0,0,0,1.73-9,10.07,10.07,0,0,1,6-18.6,4.94,4.94,0,0,0,3.92-8.34A10.07,10.07,0,0,1,58.87,81a4.93,4.93,0,0,0,5.87-7.09A10.07,10.07,0,0,1,79,60.54a4.94,4.94,0,0,0,7.46-5.41,10.07,10.07,0,0,1,17.13-9.42,4.93,4.93,0,0,0,8.56-3.39,10.07,10.07,0,0,1,18.94-4.87,4.94,4.94,0,0,0,9.14-1.15A9.93,9.93,0,0,1,150,28.64h0a9.93,9.93,0,0,1,9.78,7.66h0a4.94,4.94,0,0,0,9.14,1.15,10.07,10.07,0,0,1,18.93,4.87,4.94,4.94,0,0,0,8.57,3.39,10.07,10.07,0,0,1,17.13,9.42A4.94,4.94,0,0,0,221,60.54a10.07,10.07,0,0,1,14.25,13.39A4.93,4.93,0,0,0,241.13,81a10.07,10.07,0,0,1,10.48,16.51,4.94,4.94,0,0,0,3.92,8.34,10.07,10.07,0,0,1,6,18.6,4.93,4.93,0,0,0,1.73,9A10.07,10.07,0,0,1,264.53,153a4.93,4.93,0,0,0-.58,9.19,10.07,10.07,0,0,1-3.66,19.21,4.94,4.94,0,0,0-2.85,8.76,10.07,10.07,0,0,1-8.33,17.69,4.94,4.94,0,0,0-4.93,7.78,10.07,10.07,0,0,1-12.47,15.07A4.93,4.93,0,0,0,225,237a10.07,10.07,0,0,1-15.82,11.5,4.93,4.93,0,0,0-8.07,4.43,10.07,10.07,0,0,1-18.18,7.2,4.94,4.94,0,0,0-8.93,2.29,9.92,9.92,0,0,1-8.74,8.83A11.87,11.87,0,0,1,163.93,271.36ZM150,256.61a10,10,0,0,1,9.4,6.45,4.94,4.94,0,0,0,9.51-1.2,10.07,10.07,0,0,1,18.2-4.68,4.93,4.93,0,0,0,8.91-3.52,10.07,10.07,0,0,1,16.47-9.06,4.93,4.93,0,0,0,7.75-5.63,10.07,10.07,0,0,1,13.7-12.87,4.93,4.93,0,0,0,6.11-7.38,10.07,10.07,0,0,1,10.07-15.87,4.93,4.93,0,0,0,4.08-8.67A10.07,10.07,0,0,1,260,176.3a4.93,4.93,0,0,0,1.8-9.41A10.07,10.07,0,0,1,263,148.13a4.93,4.93,0,0,0-.6-9.56,10.08,10.08,0,0,1-3.53-18.47,4.93,4.93,0,0,0-3-9.11,10.08,10.08,0,0,1-8-17,4.93,4.93,0,0,0-5.13-8.09,10.07,10.07,0,0,1-12-14.48,4.94,4.94,0,0,0-7-6.56,10.07,10.07,0,0,1-15.21-11,4.93,4.93,0,0,0-8.39-4.61,10.08,10.08,0,0,1-17.48-6.92,4.94,4.94,0,0,0-9.28-2.39,10.07,10.07,0,0,1-18.65-2.35h0a4.93,4.93,0,0,0-9.58,0,10.07,10.07,0,0,1-18.65,2.35,4.94,4.94,0,0,0-9.28,2.39A10.08,10.08,0,0,1,99.8,49.19a4.93,4.93,0,0,0-8.39,4.61,10.07,10.07,0,0,1-15.21,11,4.94,4.94,0,0,0-7,6.56,10.07,10.07,0,0,1-12,14.48A4.93,4.93,0,0,0,52.1,94a10.08,10.08,0,0,1-8,17,4.93,4.93,0,0,0-3,9.11,10.08,10.08,0,0,1-3.53,18.47,4.93,4.93,0,0,0-.6,9.56,10.07,10.07,0,0,1,1.18,18.76A4.93,4.93,0,0,0,40,176.3a10.07,10.07,0,0,1,5.81,17.88,4.93,4.93,0,0,0,4.08,8.67A10.07,10.07,0,0,1,60,218.72a4.93,4.93,0,0,0,6.11,7.38A10.07,10.07,0,0,1,79.76,239a4.93,4.93,0,0,0,7.75,5.63A10.07,10.07,0,0,1,104,253.66a4.93,4.93,0,0,0,8.91,3.52,10.07,10.07,0,0,1,18.2,4.68,4.94,4.94,0,0,0,9.51,1.2A10,10,0,0,1,150,256.61Z"/></svg>