<svg id="Layer_2" data-name="Layer 2" xmlns="http://www.w3.org/2000/svg" viewBox="0 0 300 300"><defs><style>.cls-1{fill:#780ae9;}</style></defs><path class="cls-1" d="M150,152.65h-.23L107,148.92A78.22,78.22,0,0,1,35.7,77.65L32,34.85A2.66,2.66,0,0,1,34.85,32l42.8,3.72A78.22,78.22,0,0,1,148.92,107l3.72,42.8a2.61,2.61,0,0,1-.77,2.1A2.64,2.64,0,0,1,150,152.65ZM37.53,37.53,41,77.19a72.91,72.91,0,0,0,66.45,66.45l39.66,3.45-3.45-39.66A72.91,72.91,0,0,0,77.19,41Z"/><path class="cls-1" d="M150,152.65a2.64,2.64,0,0,1-1.87-.78,2.61,2.61,0,0,1-.77-2.1l3.72-42.8A78.22,78.22,0,0,1,222.35,35.7L265.15,32A2.66,2.66,0,0,1,268,34.85l-3.72,42.8A78.22,78.22,0,0,1,193,148.92l-42.8,3.72ZM262.47,37.53,222.81,41a72.91,72.91,0,0,0-66.45,66.45l-3.45,39.66,39.66-3.45A72.91,72.91,0,0,0,259,77.19Z"/><path class="cls-1" d="M34.62,268a2.64,2.64,0,0,1-1.87-.78,2.61,2.61,0,0,1-.77-2.1l3.72-42.8A78.22,78.22,0,0,1,107,151.08l42.8-3.72a2.66,2.66,0,0,1,2.87,2.87L148.92,193A78.21,78.21,0,0,1,77.65,264.3L34.85,268ZM147.09,152.91l-39.66,3.45A72.91,72.91,0,0,0,41,222.81l-3.45,39.66L77.19,259a72.91,72.91,0,0,0,66.45-66.45Z"/><path class="cls-1" d="M265.38,268h-.23l-42.8-3.72A78.21,78.21,0,0,1,151.08,193l-3.72-42.8a2.66,2.66,0,0,1,2.87-2.87l42.8,3.72a78.22,78.22,0,0,1,71.27,71.27l3.72,42.8a2.61,2.61,0,0,1-.77,2.1A2.64,2.64,0,0,1,265.38,268ZM152.91,152.91l3.45,39.66A72.91,72.91,0,0,0,222.81,259l39.66,3.45L259,222.81a72.91,72.91,0,0,0-66.45-66.45Z"/></svg>