<svg id="Layer_2" data-name="Layer 2" xmlns="http://www.w3.org/2000/svg" viewBox="0 0 300 300"><defs><style>.cls-1{fill:#ffc803;}</style></defs><path class="cls-1" d="M144.77,269.83a4.37,4.37,0,0,1-2.93-1.13,4.42,4.42,0,0,1-1.44-3.42l2.52-70.47-28.55,49.73c-1.5,2.39-7.19,10.27-17.53,11.42a22.67,22.67,0,0,1-10.43-1.33,4.38,4.38,0,0,1-2.26-6.3l34.58-60.24L66.85,213.66c-1.83.81-11.45,4.64-20.92-.3A22.58,22.58,0,0,1,38,206.44a4.34,4.34,0,0,1-.7-3.61A4.41,4.41,0,0,1,39.65,200l69.12-34.06-56.25-.12c-2-.08-12.32-.92-18.61-9.55a22.48,22.48,0,0,1-4-9.72,4.33,4.33,0,0,1,1-3.54,4.41,4.41,0,0,1,3.35-1.55h0l67.38.14L55.83,110.72c-1.62-1.18-9.72-7.63-10.13-18.3a22.45,22.45,0,0,1,2.07-10.31,4.33,4.33,0,0,1,2.78-2.39,4.4,4.4,0,0,1,3.66.59l55.68,37.5L82.22,76.3c-1.47-2.4-6-11-2.41-20.77a22.49,22.49,0,0,1,5.83-8.75,4.36,4.36,0,0,1,3.49-1.16,4.43,4.43,0,0,1,3.16,1.94L128.56,102V52.9c.1-2.82,1.11-12.49,9.51-18.63a22.54,22.54,0,0,1,9.71-4,4.33,4.33,0,0,1,3.54,1,4.4,4.4,0,0,1,1.56,3.36v65.2L182.08,53.9c1.6-2.31,7.65-9.93,18-10.6a22.6,22.6,0,0,1,10.36,1.8,4.39,4.39,0,0,1,2,6.4l-36.75,57.73,48.13-27.49c1.78-.93,11.15-5.33,20.9-1A22.48,22.48,0,0,1,253,87.19a4.32,4.32,0,0,1,.91,3.56,4.38,4.38,0,0,1-2.14,3l-59.2,33.8,55,.54c2,.1,12.32,1,18.54,9.7h0a22.62,22.62,0,0,1,3.95,9.75,4.38,4.38,0,0,1-4.34,5.05h0L201.66,152l43.19,28.5c2.29,1.64,9.8,7.81,10.31,18.2a22.6,22.6,0,0,1-2,10.33,4.37,4.37,0,0,1-6.42,1.86l-61.63-40.66,27.6,54.71c1.17,2.56,4.62,11.65-.11,20.92a22.57,22.57,0,0,1-6.85,8,4.38,4.38,0,0,1-6.5-1.58L167.46,189.2l-2.1,58.63c-.21,2.81-1.56,12.44-10.17,18.27a22.67,22.67,0,0,1-9.85,3.7ZM149,173.75l-3.25,90.66a17.24,17.24,0,0,0,6.53-2.66c6.76-4.59,7.75-12.58,7.88-14.27l2.83-78.95,40.55,80.41a17.21,17.21,0,0,0,4.44-5.49c3.72-7.27.73-14.75,0-16.29l-36.43-72.22,77.24,51a17.31,17.31,0,0,0,1.13-7c-.4-8.15-6.71-13.15-8.08-14.15l-58-38.24,80.87.78a17.21,17.21,0,0,0-2.84-6.45h0c-4.76-6.64-12.77-7.41-14.46-7.5l-74.32-.72,75.17-42.93a17.28,17.28,0,0,0-5.71-4.15c-7.46-3.33-14.77,0-16.27.82l-66.48,38,47.61-74.79a17.3,17.3,0,0,0-7-1c-8.15.53-13,6.92-14,8.31l-38.81,61V35.62a17.31,17.31,0,0,0-6.43,2.9c-6.59,4.82-7.29,12.84-7.36,14.53v66.3l-45.34-68a17.22,17.22,0,0,0-3.74,6C81.94,65,85.81,72.07,86.69,73.51l42.37,63.55L52.15,85.27a16.91,16.91,0,0,0-1.19,7c.32,8.17,6.58,13.22,7.94,14.23l60,40.4-83.62-.17a17.39,17.39,0,0,0,2.88,6.44c4.82,6.6,12.83,7.31,14.53,7.39l78.58.16L42.93,204.2a17.22,17.22,0,0,0,5.44,4.49c7.25,3.79,14.74.86,16.29.18l67.24-33.13L89.24,250a17.14,17.14,0,0,0,7,.69c8.12-.9,12.72-7.51,13.62-8.94Z"/></svg>