<svg id="Layer_2" data-name="Layer 2" xmlns="http://www.w3.org/2000/svg" viewBox="0 0 300 300"><defs><style>.cls-1{fill:#f8572b;}</style></defs><path class="cls-1" d="M150,272.45a24.36,24.36,0,0,1-15.7-5.91c-13.64-11.44-20.69-39-4-82.41-23.4,28.93-45.61,39.62-62.12,39.62a33,33,0,0,1-11.25-1.88,23.83,23.83,0,0,1-15.7-27.2c3.1-17.53,23.43-37.41,69.37-44.67-45.94-7.25-66.27-27.14-69.37-44.67a23.83,23.83,0,0,1,15.7-27.2c16.73-6.08,44.12,1.58,73.37,37.74-16.68-43.42-9.63-71,4-82.41a23.81,23.81,0,0,1,31.4,0c13.64,11.45,20.69,39,4,82.41C199,79.71,226.35,72.05,243.08,78.13a23.83,23.83,0,0,1,15.7,27.2c-3.1,17.53-23.43,37.42-69.37,44.67,45.94,7.26,66.27,27.14,69.37,44.67a23.83,23.83,0,0,1-15.7,27.2c-16.73,6.09-44.12-1.58-73.37-37.74,16.68,43.42,9.63,71-4,82.41A24.36,24.36,0,0,1,150,272.45Zm0-116.69C135.43,182,127.27,206.19,126.34,226c-.76,16.18,3.47,29.38,11.61,36.21,7.32,6.14,16.78,6.14,24.1,0,8.14-6.83,12.37-20,11.61-36.21C172.73,206.19,164.57,182,150,155.76Zm5-2.88c15.43,25.73,32.3,44.9,49,55.6,13.64,8.75,27.18,11.68,37.16,8.05,9-3.27,13.71-11.46,12.05-20.87-1.84-10.46-11.16-20.73-25.55-28.16C210,158.41,185,153.38,155,152.88Zm-10,0c-30,.5-55,5.53-72.64,14.62C58,174.93,48.66,185.2,46.82,195.66c-1.66,9.41,3.07,17.6,12,20.87,10,3.63,23.52.7,37.16-8.05C112.71,197.78,129.58,178.61,145,152.88ZM232,82c-8.42,0-18.18,3.28-28,9.57-16.68,10.7-33.55,29.87-49,55.6,30-.5,55-5.53,72.64-14.62,14.39-7.43,23.71-17.7,25.55-28.16,1.66-9.41-3.07-17.6-12.05-20.87A26.75,26.75,0,0,0,232,82ZM68.05,82a26.75,26.75,0,0,0-9.18,1.52c-9,3.27-13.71,11.46-12,20.87C48.66,114.8,58,125.07,72.37,132.5,90,141.59,115,146.62,145,147.12c-15.43-25.73-32.3-44.9-49-55.6C86.23,85.23,76.47,82,68.05,82ZM150,33.2A18.7,18.7,0,0,0,138,37.81c-8.14,6.83-12.37,20-11.61,36.21.93,19.79,9.09,44,23.66,70.22C164.57,118,172.73,93.81,173.66,74c.76-16.18-3.47-29.38-11.61-36.21A18.7,18.7,0,0,0,150,33.2Z"/></svg>