<svg id="Layer_2" data-name="Layer 2" xmlns="http://www.w3.org/2000/svg" viewBox="0 0 300 300"><defs><style>.cls-1{fill:#00b775;}</style></defs><path class="cls-1" d="M138.61,264.67a5.77,5.77,0,0,1-4.11-1.88c-6.51-6.41-11-32.91-4.2-64.09-16.82,27.11-38.44,43.07-47.58,43.14h-.07c-3.47,0-4.84-2-5.35-3.2-2.28-5.39,3.55-15.79,12.14-27.07-9.57,7.55-18.53,13-24.3,13a6.75,6.75,0,0,1-2.56-.45c-1.22-.49-3.26-1.84-3.29-5.37-.08-9.14,15.52-31,42.34-48.29-31.06,7.28-57.63,3.28-64.15-3.13-2.51-2.47-2.06-4.88-1.57-6.1,2.2-5.42,13.68-8.65,27.73-10.55C49.56,149.05,38,146,35.74,140.62c-.51-1.21-1-3.61,1.47-6.12,6.41-6.51,32.91-11,64.09-4.2C74.19,113.48,58.23,91.86,58.16,82.72c0-3.52,2-4.91,3.2-5.42C66.75,75,77.15,80.85,88.43,89.44,79.65,78.31,73.64,68,75.84,62.58c.49-1.22,1.84-3.26,5.37-3.29h.06c9.18,0,31,15.58,48.22,42.34-7.27-31.06-3.27-57.63,3.14-64.14,2.47-2.52,4.88-2.07,6.1-1.58,5.42,2.2,8.65,13.68,10.55,27.73C151,49.56,154,38,159.38,35.74c1.21-.51,3.61-1,6.12,1.47,6.51,6.41,10.95,32.91,4.2,64.09,16.82-27.11,38.44-43.07,47.58-43.14h.07c3.47,0,4.84,2,5.35,3.2,2.28,5.39-3.55,15.79-12.14,27.07C221.7,79.65,232,73.64,237.42,75.84c1.22.49,3.26,1.84,3.29,5.37.08,9.14-15.52,31-42.34,48.29,31.06-7.28,57.63-3.28,64.14,3.13,2.52,2.47,2.07,4.88,1.58,6.1-2.2,5.42-13.68,8.65-27.73,10.55,14.08,1.67,25.61,4.71,27.9,10.1.51,1.21,1,3.61-1.47,6.12-6.41,6.52-32.91,11-64.09,4.2,27.11,16.82,43.07,38.44,43.14,47.58,0,3.52-2,4.91-3.2,5.42-5.39,2.28-15.79-3.55-27.07-12.14,8.78,11.13,14.79,21.44,12.59,26.86-.49,1.22-1.84,3.26-5.37,3.29h-.06c-9.18,0-31-15.58-48.22-42.34,7.27,31.06,3.27,57.63-3.14,64.15-2.47,2.51-4.88,2.06-6.1,1.57-5.42-2.2-8.65-13.68-10.55-27.73-1.67,14.08-4.71,25.61-10.1,27.9A5.16,5.16,0,0,1,138.61,264.67Zm3.68-90.07a2.1,2.1,0,0,1-.17.84c-15.94,39.42-10.94,77.8-4.48,84.16.75.74,1.09.6,1.23.54,3.38-1.44,9.66-17.42,9.25-67.67v0a2.24,2.24,0,0,1,2.21-2.24h0a2.24,2.24,0,0,1,2.24,2.22c.42,50.25,7,66.13,10.36,67.51.15.06.49.19,1.23-.56,6.35-6.46,10.72-44.92-5.88-84.08a2.23,2.23,0,0,1,1.18-2.93,2.25,2.25,0,0,1,2.94,1.18c16.57,39.09,47.18,62.69,56.29,62.69h0c1.06,0,1.19-.35,1.25-.49,1.38-3.41-5.49-19.15-41.31-54.39a2.23,2.23,0,0,1,0-3.16,2.24,2.24,0,0,1,3.16,0c35.83,35.24,51.69,41.83,55.07,40.41.14-.06.47-.2.47-1.26-.08-9.06-24.19-39.35-63.61-55.3a2.24,2.24,0,0,1-1.4-2.07,2.28,2.28,0,0,1,.16-.84,2.23,2.23,0,0,1,2.92-1.23c39.42,15.94,77.8,10.94,84.16,4.48.74-.75.6-1.09.54-1.23-1.44-3.38-17.43-9.66-67.67-9.25h0a2.23,2.23,0,0,1-2.24-2.21v0a2.24,2.24,0,0,1,2.22-2.23c50.25-.42,66.13-7,67.51-10.36.06-.15.19-.48-.56-1.23-6.46-6.35-44.93-10.72-84.08,5.88a2.24,2.24,0,0,1-1.75-4.12c39.16-16.6,62.76-47.28,62.69-56.34,0-1.06-.35-1.19-.49-1.25-3.4-1.38-19.15,5.48-54.39,41.31a2.23,2.23,0,0,1-3.83-1.57,2.2,2.2,0,0,1,.64-1.56C213.41,82.34,220,66.48,218.58,63.1c-.06-.14-.18-.47-1.26-.47-9.06.08-39.35,24.19-55.3,63.61a2.24,2.24,0,0,1-4.31-.84,2.1,2.1,0,0,1,.17-.84c15.94-39.42,10.94-77.8,4.48-84.16-.76-.74-1.09-.6-1.23-.54-3.38,1.44-9.66,17.42-9.25,67.67v0a2.24,2.24,0,0,1-2.21,2.24h0a2.24,2.24,0,0,1-2.24-2.22c-.42-50.25-7-66.13-10.36-67.51-.15-.06-.48-.19-1.23.56-6.35,6.46-10.72,44.92,5.88,84.08a2.23,2.23,0,0,1-1.18,2.93,2.25,2.25,0,0,1-2.94-1.18C121,87.36,90.4,63.76,81.29,63.76h-.05c-1.06,0-1.19.35-1.25.49-1.38,3.41,5.49,19.15,41.31,54.39a2.23,2.23,0,0,1,0,3.16,2.24,2.24,0,0,1-3.16,0C82.34,86.59,66.48,80,63.1,81.42c-.14.06-.48.2-.47,1.26.08,9.06,24.19,39.35,63.61,55.3a2.24,2.24,0,0,1,1.4,2.07,2.28,2.28,0,0,1-.16.84,2.23,2.23,0,0,1-2.92,1.23c-39.42-15.94-77.8-10.94-84.16-4.48-.74.75-.6,1.09-.54,1.23,1.44,3.38,17.42,9.65,67.67,9.25h0a2.23,2.23,0,0,1,2.24,2.21v0a2.24,2.24,0,0,1-2.22,2.23c-50.25.42-66.13,7-67.51,10.36-.06.15-.19.48.56,1.23,6.46,6.35,44.92,10.72,84.08-5.88a2.24,2.24,0,0,1,1.75,4.12C87.29,179,63.69,209.7,63.76,218.76c0,1.06.35,1.19.49,1.25,3.41,1.38,19.15-5.49,54.39-41.31a2.24,2.24,0,0,1,3.19,3.14C86.59,217.66,80,233.52,81.42,236.9c.06.14.2.47,1.22.47h0c9.06-.08,39.35-24.19,55.3-63.61a2.24,2.24,0,0,1,4.31.84Z"/></svg>