<svg id="Layer_2" data-name="Layer 2" xmlns="http://www.w3.org/2000/svg" viewBox="0 0 300 300"><defs><style>.cls-1{fill:#ea83ec;}</style></defs><path class="cls-1" d="M150,279A129,129,0,1,1,279,150,129.17,129.17,0,0,1,150,279Zm0-251.25A122.22,122.22,0,1,0,272.22,150,122.36,122.36,0,0,0,150,27.78Z"/><path class="cls-1" d="M150,256.45A106.45,106.45,0,1,1,256.45,150,106.57,106.57,0,0,1,150,256.45Zm0-206.1A99.65,99.65,0,1,0,249.65,150,99.76,99.76,0,0,0,150,50.35Z"/><path class="cls-1" d="M150,233.88A83.88,83.88,0,1,1,233.88,150,84,84,0,0,1,150,233.88Zm0-160.95A77.07,77.07,0,1,0,227.07,150,77.15,77.15,0,0,0,150,72.93Z"/><path class="cls-1" d="M150,211.3A61.3,61.3,0,1,1,211.3,150,61.37,61.37,0,0,1,150,211.3Zm0-115.79A54.49,54.49,0,1,0,204.49,150,54.55,54.55,0,0,0,150,95.51Z"/><path class="cls-1" d="M150,188.72A38.72,38.72,0,1,1,188.72,150,38.76,38.76,0,0,1,150,188.72Zm0-70.64A31.92,31.92,0,1,0,181.92,150,32,32,0,0,0,150,118.08Z"/></svg>