<svg id="Layer_2" data-name="Layer 2" xmlns="http://www.w3.org/2000/svg" viewBox="0 0 300 300"><defs><style>.cls-1{fill:#ffc803;}</style></defs><path class="cls-1" d="M186.92,271.17H113.08V28.83h73.84Zm-68.28-5.56h62.72V34.39H118.64Z"/><path class="cls-1" d="M271.17,186.92H28.83V113.08H271.17ZM34.39,181.36H265.61V118.64H34.39Z"/><path class="cls-1" d="M209.57,261.79l-2-2L38.21,90.43,90.43,38.21l2,2,169.4,169.39ZM46.07,90.43l163.5,163.5,44.36-44.36L90.43,46.07Z"/><path class="cls-1" d="M90.43,261.79,38.21,209.57l2-2L209.57,38.21l52.22,52.22-2,2ZM46.07,209.57l44.36,44.36,163.5-163.5L209.57,46.07Z"/></svg>