<svg id="Layer_2" data-name="Layer 2" xmlns="http://www.w3.org/2000/svg" viewBox="0 0 300 300"><defs><style>.cls-1{fill:#f8572b;}</style></defs><path class="cls-1" d="M150,265.36c-14,0-27-4.88-35.46-13.38-7-7-14.3-19.73-9.14-40.38q3.88-15.54,16.24-33.23a119.52,119.52,0,0,1-23.24,13c-14.62,5.92-27.58,6.62-38.52,2.09C44.56,187.08,34.66,170,34.66,150s9.9-37.06,25.22-43.41c10.94-4.53,23.9-3.82,38.52,2.09a119.52,119.52,0,0,1,23.24,13C113.42,109.9,108,98.79,105.4,88.44c-5.16-20.66,2.12-33.36,9.14-40.38,17.89-17.9,53-17.9,70.92,0,7,7,14.3,19.72,9.14,40.38-2.59,10.35-8,21.46-16.24,33.22a119.52,119.52,0,0,1,23.24-13c14.62-5.91,27.58-6.62,38.52-2.09C255.44,113,265.34,130,265.34,150s-9.9,37.06-25.22,43.4c-10.94,4.53-23.9,3.83-38.52-2.09a119.52,119.52,0,0,1-23.24-13Q190.69,196,194.6,211.6c5.16,20.65-2.12,33.36-9.14,40.38C177,260.48,164,265.36,150,265.36Zm0-110.89c-21.26,21.69-34.21,41.41-38.52,58.65-3.52,14.1-.93,26,7.49,34.42,15.37,15.37,46.69,15.37,62.06,0,8.42-8.42,11-20.32,7.49-34.42C184.21,195.88,171.26,176.16,150,154.47Zm4.45-4.45c44.94,44,71.41,42.53,83.27,37.61,13-5.37,21.36-20.14,21.36-37.61s-8.39-32.24-21.36-37.62C225.86,107.49,199.39,106,154.45,150ZM75.16,110a33.52,33.52,0,0,0-12.88,2.4c-13,5.38-21.36,20.14-21.36,37.62s8.39,32.24,21.36,37.61c11.87,4.92,38.33,6.42,83.27-37.61C112.75,117.88,89.79,110,75.16,110ZM150,41c-11.67,0-23.35,3.84-31,11.52-8.42,8.43-11,20.33-7.49,34.43,4.31,17.23,17.26,37,38.52,58.64,21.26-21.69,34.21-41.41,38.52-58.64,3.52-14.1.93-26-7.49-34.43C173.35,44.81,161.67,41,150,41Z"/></svg>