<svg id="Layer_2" data-name="Layer 2" xmlns="http://www.w3.org/2000/svg" viewBox="0 0 300 300"><defs><style>.cls-1{fill:#ea83ec;}</style></defs><path class="cls-1" d="M237.49,270.67c-10.25,0-21.91-3.33-34.28-9.84-17.6-9.26-35.49-24.24-53.21-44.55-17.72,20.31-35.61,35.29-53.21,44.55-16.46,8.66-31.66,11.69-44,8.74-11.65-2.79-19.61-10.74-22.4-22.4-2.95-12.29.07-27.5,8.74-44,9.26-17.6,24.24-35.49,44.55-53.21-20.31-17.72-35.29-35.61-44.55-53.21-8.67-16.46-11.69-31.66-8.74-44,2.79-11.65,10.75-19.61,22.4-22.4,12.3-2.95,27.5.08,44,8.74,17.6,9.26,35.49,24.24,53.21,44.55,17.72-20.31,35.61-35.29,53.21-44.55,16.46-8.66,31.66-11.69,44-8.74,11.65,2.79,19.61,10.75,22.4,22.4,2.95,12.3-.07,27.5-8.74,44-9.26,17.6-24.24,35.49-44.55,53.21,20.31,17.72,35.29,35.61,44.55,53.21,8.67,16.46,11.69,31.67,8.74,44-2.79,11.66-10.75,19.61-22.4,22.4A41,41,0,0,1,237.49,270.67ZM150,208.25a3.19,3.19,0,0,1,2.42,1.12c39.82,46.77,74.29,58.58,93.27,54,9.35-2.23,15.47-8.36,17.71-17.71,4.55-19-7.26-53.45-54-93.27a3.21,3.21,0,0,1-1.11-2.42,3.18,3.18,0,0,1,1.11-2.41c46.78-39.83,58.59-74.3,54-93.28C261.16,45,255,38.84,245.69,36.6c-19-4.55-53.45,7.26-93.27,54a3.19,3.19,0,0,1-4.84,0c-39.82-46.78-74.29-58.59-93.27-54C45,38.84,38.84,45,36.6,54.31c-4.55,19,7.26,53.45,54,93.28A3.18,3.18,0,0,1,91.75,150a3.21,3.21,0,0,1-1.11,2.42c-46.78,39.82-58.59,74.29-54,93.27C38.84,255,45,261.17,54.31,263.4c19,4.55,53.45-7.26,93.27-54A3.19,3.19,0,0,1,150,208.25Z"/></svg>