<svg id="Layer_2" data-name="Layer 2" xmlns="http://www.w3.org/2000/svg" viewBox="0 0 300 300"><defs><style>.cls-1{fill:#f8572b;}</style></defs><path class="cls-1" d="M192.82,269.83H107.18v-6s5.37-1.71,10.1-32.64c3.33-21.8,5.17-50.62,5.17-81.15s-1.84-59.35-5.17-81.15c-4.73-30.93-10.06-32.63-10.11-32.64v-6h85.64v6s-5.37,1.71-10.1,32.64c-3.33,21.8-5.17,50.62-5.17,81.15s1.84,59.35,5.17,81.15c4.73,30.93,10.06,32.63,10.11,32.64Zm-78-6h70.3c-2.79-5.08-5.67-14.27-8.25-30.72-3.48-22.22-5.39-51.72-5.39-83.07s1.91-60.85,5.39-83.07c2.58-16.45,5.46-25.64,8.25-30.72h-70.3c2.79,5.08,5.67,14.27,8.25,30.72,3.48,22.22,5.39,51.72,5.39,83.07s-1.91,60.85-5.39,83.07C120.52,249.52,117.64,258.71,114.85,263.79Z"/></svg>