<svg id="Layer_2" data-name="Layer 2" xmlns="http://www.w3.org/2000/svg" viewBox="0 0 300 300"><defs><style>.cls-1{fill:#780ae9;}</style></defs><path class="cls-1" d="M265.19,268H34.81A2.84,2.84,0,0,1,32,265.19a118,118,0,0,1,236.06,0A2.84,2.84,0,0,1,265.19,268ZM37.68,262.36H262.32a112.36,112.36,0,0,0-224.64,0Z"/><path class="cls-1" d="M150,152.84a118.17,118.17,0,0,1-118-118A2.84,2.84,0,0,1,34.81,32H265.19A2.84,2.84,0,0,1,268,34.81,118.17,118.17,0,0,1,150,152.84ZM37.68,37.64a112.36,112.36,0,0,0,224.64,0Z"/></svg>