<svg id="Layer_2" data-name="Layer 2" xmlns="http://www.w3.org/2000/svg" viewBox="0 0 300 300"><defs><style>.cls-1{fill:#ffc803;}</style></defs><path class="cls-1" d="M56.13,81.88A25.76,25.76,0,1,1,81.88,56.13,25.78,25.78,0,0,1,56.13,81.88Zm0-46.2A20.45,20.45,0,1,0,76.57,56.13,20.47,20.47,0,0,0,56.13,35.68Z"/><path class="cls-1" d="M181.29,81.88a25.76,25.76,0,1,1,25.76-25.75A25.78,25.78,0,0,1,181.29,81.88Zm0-46.2a20.45,20.45,0,1,0,20.44,20.45A20.47,20.47,0,0,0,181.29,35.68Z"/><path class="cls-1" d="M56.13,207.05a25.76,25.76,0,1,1,25.75-25.76A25.79,25.79,0,0,1,56.13,207.05Zm0-46.2a20.44,20.44,0,1,0,20.44,20.44A20.47,20.47,0,0,0,56.13,160.85Z"/><path class="cls-1" d="M181.29,207.05a25.76,25.76,0,1,1,25.76-25.76A25.79,25.79,0,0,1,181.29,207.05Zm0-46.2a20.44,20.44,0,1,0,20.44,20.44A20.46,20.46,0,0,0,181.29,160.85Z"/><path class="cls-1" d="M118.71,144.46a25.76,25.76,0,1,1,25.75-25.75A25.79,25.79,0,0,1,118.71,144.46Zm0-46.19a20.44,20.44,0,1,0,20.44,20.44A20.46,20.46,0,0,0,118.71,98.27Z"/><path class="cls-1" d="M243.87,144.46a25.76,25.76,0,1,1,25.76-25.75A25.78,25.78,0,0,1,243.87,144.46Zm0-46.19a20.44,20.44,0,1,0,20.45,20.44A20.46,20.46,0,0,0,243.87,98.27Z"/><path class="cls-1" d="M118.71,269.63a25.76,25.76,0,1,1,25.75-25.76A25.79,25.79,0,0,1,118.71,269.63Zm0-46.2a20.45,20.45,0,1,0,20.44,20.44A20.46,20.46,0,0,0,118.71,223.43Z"/><path class="cls-1" d="M243.87,269.63a25.76,25.76,0,1,1,25.76-25.76A25.78,25.78,0,0,1,243.87,269.63Zm0-46.2a20.45,20.45,0,1,0,20.45,20.44A20.46,20.46,0,0,0,243.87,223.43Z"/></svg>