<svg id="Layer_2" data-name="Layer 2" xmlns="http://www.w3.org/2000/svg" viewBox="0 0 300 300"><defs><style>.cls-1{fill:#00b775;}</style></defs><path class="cls-1" d="M208.4,269.83c-20,0-39.86-8.34-59.34-16.52-33.95-14.26-66-27.72-98.56-.38l-4,3.36V47.8l.87-.73c34.82-29.26,69.77-14.58,103.57-.38s66,27.72,98.56.38l4-3.36V252.2l-.87.73C237.88,265.33,223.1,269.83,208.4,269.83ZM91.6,232.3c20,0,39.86,8.34,59.34,16.52,33.65,14.13,65.44,27.48,97.69,1.1V54C235.21,64,221.77,67.7,208.4,67.7c-20,0-39.86-8.34-59.34-16.52-33.65-14.13-65.44-27.48-97.69-1.1V246C64.79,236,78.23,232.3,91.6,232.3Z"/></svg>