<svg id="Layer_2" data-name="Layer 2" xmlns="http://www.w3.org/2000/svg" viewBox="0 0 300 300"><defs><style>.cls-1{fill:#ffc803;}</style></defs><path class="cls-1" d="M161.08,275.59H138.92V176.75L69,246.64,53.36,231l69.89-69.89H24.41V138.92h98.84L53.36,69,69,53.36l69.89,69.89V24.41h22.16v98.84L231,53.36,246.64,69l-69.89,69.89h98.84v22.16H176.75L246.64,231,231,246.64l-69.89-69.89Zm-17-5.16h11.86V164.31l75,75,8.38-8.38-75-75H270.43V144.07H164.31l75-75L231,60.65l-75,75V29.57H144.07V135.69l-75-75L60.65,69l75,75H29.57v11.86H135.69l-75,75L69,239.35l75-75Z"/></svg>