<svg id="Layer_2" data-name="Layer 2" xmlns="http://www.w3.org/2000/svg" viewBox="0 0 300 300"><defs><style>.cls-1{fill:#ea83ec;}</style></defs><path class="cls-1" d="M268.54,114.17h-158a3.69,3.69,0,0,1-3.69-3.68,82.71,82.71,0,0,1,165.42,0A3.68,3.68,0,0,1,268.54,114.17ZM114.26,106.8H264.77a75.35,75.35,0,0,0-150.51,0Z"/><path class="cls-1" d="M189.51,272.22a3.68,3.68,0,0,1-3.68-3.68v-158a3.69,3.69,0,0,1,3.68-3.69,82.71,82.71,0,1,1,0,165.42Zm3.69-158V264.77a75.35,75.35,0,0,0,0-150.51Z"/><path class="cls-1" d="M110.49,272.22a82.8,82.8,0,0,1-82.71-82.71,3.68,3.68,0,0,1,3.68-3.68h158a3.69,3.69,0,0,1,3.69,3.68A82.81,82.81,0,0,1,110.49,272.22Zm-75.26-79a75.35,75.35,0,0,0,150.51,0Z"/><path class="cls-1" d="M110.49,193.2a82.71,82.71,0,0,1,0-165.42,3.68,3.68,0,0,1,3.68,3.68v158A3.69,3.69,0,0,1,110.49,193.2Zm-3.69-158a75.35,75.35,0,0,0,0,150.51Z"/></svg>