<svg id="Layer_2" data-name="Layer 2" xmlns="http://www.w3.org/2000/svg" viewBox="0 0 300 300"><defs><style>.cls-1{fill:#780ae9;}</style></defs><path class="cls-1" d="M265.37,268a2.59,2.59,0,0,1-1-.19L150,222.78,35.61,267.84a2.66,2.66,0,0,1-3.45-3.45L77.22,150,32.16,35.61a2.66,2.66,0,0,1,3.45-3.45L150,77.22,264.39,32.16a2.66,2.66,0,0,1,3.45,3.45L222.78,150l45.06,114.39a2.66,2.66,0,0,1-2.47,3.64ZM150,217.26a2.7,2.7,0,0,1,1,.19l109.68,43.2L217.45,151a2.6,2.6,0,0,1,0-1.94l43.2-109.68L151,82.55a2.6,2.6,0,0,1-1.94,0L39.35,39.35,82.55,149a2.6,2.6,0,0,1,0,1.94L39.35,260.65,149,217.45A2.7,2.7,0,0,1,150,217.26Z"/></svg>