<svg id="Layer_2" data-name="Layer 2" xmlns="http://www.w3.org/2000/svg" viewBox="0 0 300 300"><defs><style>.cls-1{fill:#ea83ec;}</style></defs><path class="cls-1" d="M150,249.14c-72,0-130.68-58.63-130.68-130.68v-.71c0-.24,0-.52,0-.85A66.88,66.88,0,0,1,150,97.6a66.87,66.87,0,0,1,130.63,19.3c0,.33,0,.61,0,.85v.71C280.67,190.51,222.05,249.14,150,249.14ZM86.22,57.07a60.85,60.85,0,0,0-60.66,60,2.09,2.09,0,0,1,0,.25c0,.15,0,.28,0,.42v.71a124.46,124.46,0,1,0,248.92,0v-.71c0-.14,0-.27,0-.42a2.09,2.09,0,0,1,0-.25,60.67,60.67,0,0,0-121.33.67,3.1,3.1,0,1,1-6.2,0A60.75,60.75,0,0,0,86.22,57.07Z"/></svg>