<svg id="Layer_2" data-name="Layer 2" xmlns="http://www.w3.org/2000/svg" viewBox="0 0 300 300"><defs><style>.cls-1{fill:#ffc803;}</style></defs><path class="cls-1" d="M150,278.89l-2-17.33c-1.52-13.33-3-25.36-4.34-36-3.84-30.81-6.4-51.36-4.49-64.79a74.65,74.65,0,0,1-10.56.65c-13,0-30.58-2.2-54.23-5.14-10.61-1.33-22.64-2.82-36-4.34l-17.33-2,17.33-2c13.33-1.52,25.36-3,36-4.34,30.81-3.84,51.36-6.4,64.79-4.49-1.91-13.43.65-34,4.49-64.79,1.33-10.61,2.82-22.64,4.34-36l2-17.33,2,17.33c1.52,13.33,3,25.36,4.34,36,3.84,30.81,6.4,51.36,4.49,64.79,13.43-1.91,34,.65,64.79,4.49,10.61,1.33,22.64,2.82,36,4.34l17.33,2-17.33,2c-13.33,1.52-25.36,3-36,4.34-30.81,3.84-51.36,6.4-64.79,4.49,1.91,13.43-.65,34-4.49,64.79-1.33,10.61-2.82,22.64-4.34,36ZM143.29,160c-2.2,12.56.36,33.16,4.34,65.07q1.11,9,2.37,19.24,1.25-10.28,2.37-19.24c4-31.91,6.54-52.51,4.34-65.07A27.07,27.07,0,0,1,150,157.5,27.07,27.07,0,0,1,143.29,160ZM55.66,150q10.28,1.25,19.24,2.37c31.91,4,52.51,6.54,65.07,4.34A27.07,27.07,0,0,1,142.5,150a27.07,27.07,0,0,1-2.53-6.71c-12.56-2.2-33.15.36-65.07,4.34Q65.95,148.74,55.66,150ZM160,156.71c12.56,2.21,33.16-.36,65.07-4.34q9-1.11,19.24-2.37-10.28-1.25-19.24-2.37c-31.91-4-52.51-6.55-65.07-4.34A27.07,27.07,0,0,1,157.5,150,27.07,27.07,0,0,1,160,156.71Zm-14.92-3.06c-.27.63-.52,1.3-.75,2,.69-.23,1.35-.48,2-.75l-.64-.6C145.51,154.08,145.3,153.87,145.11,153.65Zm8.54,1.24c.63.27,1.3.52,2,.75-.23-.69-.48-1.36-.75-2-.19.22-.4.43-.6.64S153.87,154.7,153.65,154.89ZM147.22,150a13.11,13.11,0,0,0,1.3,1.48,14.19,14.19,0,0,0,1.48,1.3,15.24,15.24,0,0,0,2.78-2.78,15.24,15.24,0,0,0-2.78-2.78,14.19,14.19,0,0,0-1.48,1.3A13.11,13.11,0,0,0,147.22,150Zm-2.86-5.64c.23.69.48,1.36.75,2,.19-.22.4-.43.6-.64s.42-.41.64-.6C145.72,144.84,145.05,144.59,144.36,144.36Zm9.29.75.64.6c.2.21.41.42.6.64.27-.63.52-1.3.75-2C155,144.59,154.29,144.84,153.65,145.11ZM143.29,140A27.07,27.07,0,0,1,150,142.5a27.07,27.07,0,0,1,6.71-2.53c2.2-12.56-.36-33.16-4.34-65.07q-1.11-9-2.37-19.24-1.25,10.28-2.37,19.24C143.65,106.81,141.09,127.41,143.29,140Z"/></svg>