<svg id="Layer_2" data-name="Layer 2" xmlns="http://www.w3.org/2000/svg" viewBox="0 0 300 300"><defs><style>.cls-1{fill:#f8572b;}</style></defs><path class="cls-1" d="M273.21,214.66a3.06,3.06,0,0,1-3-3,120.16,120.16,0,0,0-240.32,0,3,3,0,0,1-6.1,0,126.26,126.26,0,1,1,252.52,0A3,3,0,0,1,273.21,214.66Z"/><path class="cls-1" d="M254.93,214.66a3.06,3.06,0,0,1-3.06-3,101.87,101.87,0,1,0-203.74,0,3.06,3.06,0,0,1-6.11,0,108,108,0,0,1,216,0A3.06,3.06,0,0,1,254.93,214.66Z"/><path class="cls-1" d="M236.64,214.66a3.06,3.06,0,0,1-3-3,83.59,83.59,0,0,0-167.18,0,3,3,0,0,1-6.1,0,89.69,89.69,0,1,1,179.38,0A3,3,0,0,1,236.64,214.66Z"/><path class="cls-1" d="M218.36,214.66a3,3,0,0,1-3.05-3,65.31,65.31,0,0,0-130.62,0,3,3,0,0,1-6.1,0,71.41,71.41,0,1,1,142.82,0A3.06,3.06,0,0,1,218.36,214.66Z"/><path class="cls-1" d="M200.07,214.66a3.06,3.06,0,0,1-3-3,47,47,0,1,0-94,0,3,3,0,1,1-6.1,0,53.12,53.12,0,1,1,106.24,0A3,3,0,0,1,200.07,214.66Z"/></svg>