<svg id="Layer_2" data-name="Layer 2" xmlns="http://www.w3.org/2000/svg" viewBox="0 0 300 300"><defs><style>.cls-1{fill:#ffc803;}</style></defs><path class="cls-1" d="M150,275.59A125.59,125.59,0,1,1,275.59,150,125.73,125.73,0,0,1,150,275.59Zm0-246A120.43,120.43,0,1,0,270.43,150,120.56,120.56,0,0,0,150,29.57Z"/><ellipse class="cls-1" cx="112.32" cy="121.83" rx="8.53" ry="33.47"/><ellipse class="cls-1" cx="187.68" cy="121.83" rx="8.53" ry="33.47"/><path class="cls-1" d="M227.28,176.55a2.07,2.07,0,0,0-1.65.82,95,95,0,0,1-151.26,0,2.07,2.07,0,1,0-3.29,2.5,99.17,99.17,0,0,0,157.84,0,2.06,2.06,0,0,0-1.64-3.32Z"/></svg>