<svg id="Layer_2" data-name="Layer 2" xmlns="http://www.w3.org/2000/svg" viewBox="0 0 300 300"><defs><style>.cls-1{fill:#ffc803;}</style></defs><path class="cls-1" d="M230.44,264.32c-10.7,0-23.51-3.08-37.9-9.22-27.68-11.83-58.26-33.68-86.11-61.53s-49.7-58.43-61.53-86.11C32.71,78.92,32.61,56.6,44.6,44.6s34.32-11.89,62.86.3c27.68,11.83,58.26,33.68,86.11,61.53s49.7,58.43,61.53,86.11c12.19,28.54,12.29,50.86.3,62.86C249.45,261.34,241,264.32,230.44,264.32ZM69.61,41.72c-8.92,0-16,2.37-20.78,7.11-10,10-9.43,30.52,1.57,56.28,11.54,27,32.93,56.91,60.26,84.23s57.23,48.73,84.23,60.26c25.76,11,46.27,11.57,56.28,1.57s9.43-30.52-1.57-56.28c-11.54-27-32.93-56.91-60.26-84.23S132.1,61.93,105.11,50.4C91.57,44.62,79.48,41.72,69.61,41.72Z"/><path class="cls-1" d="M69.56,264.32c-10.52,0-19-3-25-8.92-12-12-11.89-34.32.3-62.86,11.83-27.68,33.68-58.26,61.53-86.11l2.11,2.11-2.11-2.11c27.85-27.85,58.43-49.7,86.11-61.53,28.54-12.19,50.86-12.29,62.86-.3s11.89,34.32-.3,62.86c-11.83,27.68-33.68,58.26-61.53,86.11s-58.43,49.7-86.11,61.53C93.07,261.24,80.26,264.32,69.56,264.32ZM230.39,41.72c-9.88,0-22,2.9-35.5,8.68-27,11.53-56.91,32.93-84.23,60.26S61.94,167.9,50.4,194.89c-11,25.76-11.57,46.27-1.57,56.28s30.52,9.43,56.28-1.57c27-11.53,56.91-32.93,84.23-60.26s48.72-57.24,60.26-84.23c11-25.76,11.57-46.27,1.57-56.28C246.42,44.09,239.31,41.72,230.39,41.72Z"/></svg>