<svg id="Layer_2" data-name="Layer 2" xmlns="http://www.w3.org/2000/svg" viewBox="0 0 300 300"><defs><style>.cls-1{fill:#00b775;}</style></defs><path class="cls-1" d="M150,268.13c-31.81,0-61.76-5.75-84.33-16.19-23.24-10.74-36-25.29-36-40.95s12.8-30.2,36-41c22.57-10.43,52.52-16.18,84.33-16.18s61.76,5.75,84.33,16.18c23.24,10.75,36,25.3,36,41s-12.8,30.21-36,40.95C211.76,262.38,181.81,268.13,150,268.13Zm0-108.8c-31,0-60.17,5.57-82,15.68-21.2,9.8-32.87,22.58-32.87,36S46.77,237.18,68,247c21.86,10.11,51,15.68,82,15.68s60.17-5.57,82-15.68c21.2-9.8,32.87-22.58,32.87-36S253.23,184.81,232,175C210.17,164.9,181,159.33,150,159.33Z"/><path class="cls-1" d="M150,208.4c-31.81,0-61.76-5.75-84.33-16.18-23.24-10.75-36-25.29-36-40.95s12.8-30.2,36-41C88.24,99.88,118.19,94.13,150,94.13s61.76,5.75,84.33,16.19c23.24,10.75,36,25.29,36,41s-12.8,30.2-36,40.95C211.76,202.65,181.81,208.4,150,208.4Zm0-108.8c-31,0-60.17,5.57-82,15.68-21.2,9.8-32.87,22.58-32.87,36s11.67,26.18,32.87,36c21.86,10.12,51,15.68,82,15.68s60.17-5.56,82-15.68c21.2-9.8,32.87-22.58,32.87-36s-11.67-26.19-32.87-36C210.17,105.17,181,99.6,150,99.6Z"/><path class="cls-1" d="M150,146.14c-31.81,0-61.76-5.75-84.33-16.19-23.24-10.74-36-25.29-36-40.94s12.8-30.21,36-40.95C88.24,37.62,118.19,31.87,150,31.87s61.76,5.75,84.33,16.19c23.24,10.74,36,25.29,36,41s-12.8,30.2-36,40.94C211.76,140.39,181.81,146.14,150,146.14Zm0-108.8c-31,0-60.17,5.57-82,15.68C46.77,62.82,35.1,75.6,35.1,89S46.77,115.19,68,125c21.86,10.11,51,15.68,82,15.68s60.17-5.57,82-15.68c21.2-9.8,32.87-22.58,32.87-36S253.23,62.82,232,53C210.17,42.91,181,37.34,150,37.34Z"/></svg>