<svg id="Layer_2" data-name="Layer 2" xmlns="http://www.w3.org/2000/svg" viewBox="0 0 300 300"><defs><style>.cls-1{fill:#780ae9;}</style></defs><path class="cls-1" d="M228.61,268c-10.83,0-23.47-2.76-37.47-8.28-28.95-11.42-60.57-33.39-89-61.85s-50.43-60.09-61.85-89c-11.73-29.74-11-53.34,2.15-66.46s36.72-13.89,66.46-2.15c29,11.42,60.57,33.39,89,61.85s50.43,60.09,61.85,89c11.73,29.74,11,53.34-2.15,66.46C250.66,264.55,240.78,268,228.61,268ZM71.39,37.82c-10.55,0-19,2.92-24.83,8.74C35.2,57.92,34.91,79.28,45.73,106.7c11.13,28.22,32.63,59.13,60.54,87s58.81,49.4,87,60.53c27.42,10.82,48.78,10.53,60.14-.83s11.65-32.72.83-60.14c-11.13-28.22-32.63-59.13-60.54-87s-58.81-49.4-87-60.53C93.34,40.45,81.42,37.82,71.39,37.82Z"/><path class="cls-1" d="M212.93,245.08c-8.75,0-18.94-2.22-30.21-6.67-23.25-9.17-48.64-26.8-71.48-49.65s-40.48-48.23-49.65-71.48c-9.49-24-8.83-43.16,1.85-53.84s29.8-11.34,53.84-1.85c23.25,9.17,48.64,26.8,71.48,49.65s40.48,48.23,49.65,71.48c9.49,24,8.83,43.16-1.85,53.84C230.89,242.23,222.84,245.08,212.93,245.08ZM87.15,60.87c-8.35,0-15.06,2.25-19.55,6.73-8.78,8.79-9,26.11-.53,47.52C76,137.64,93.12,162.31,115.4,184.6s47,39.45,69.48,48.33c21.41,8.45,38.73,8.26,47.52-.53s9-26.11.53-47.52c-8.88-22.52-26.05-47.19-48.33-69.48s-47-39.45-69.48-48.33C104.64,62.93,95.14,60.87,87.15,60.87Z"/><path class="cls-1" d="M198.06,223.3c-6.78,0-14.64-1.71-23.33-5.14-17.84-7-37.31-20.56-54.82-38.07s-31-37-38.07-54.82c-7.35-18.63-6.79-33.5,1.57-41.86,16.87-16.88,59.34-.84,96.68,36.5h0c37.34,37.34,53.38,79.81,36.5,96.68C212.13,221.06,205.81,223.3,198.06,223.3ZM101.89,82.58c-6,0-10.93,1.6-14.32,5-6.5,6.51-6.6,19.46-.25,35.54,6.75,17.11,19.8,35.87,36.75,52.82s35.71,30,52.82,36.75c16.08,6.35,29,6.26,35.54-.25,14-14.06-2.66-54.52-36.5-88.36C150.26,98.4,120.77,82.58,101.89,82.58Z"/><path class="cls-1" d="M183.18,201.52a45.66,45.66,0,0,1-16.44-3.61c-12.43-4.9-26-14.31-38.16-26.49S107,145.69,102.09,133.26c-5.22-13.22-4.76-23.84,1.29-29.88s16.66-6.51,29.88-1.29c12.43,4.91,26,14.31,38.16,26.49h0c26.15,26.14,37.22,56,25.2,68C193.37,199.88,188.78,201.52,183.18,201.52Zm-66.29-97.13c-4,0-7.25,1-9.35,3.15-4.22,4.22-4.21,12.81,0,23.56,4.61,11.7,13.55,24.54,25.17,36.16,25.4,25.4,51.39,33.53,59.72,25.2s.2-34.32-25.2-59.72C148.25,113.73,128.91,104.39,116.89,104.39Z"/><path class="cls-1" d="M168.9,180.67c-8.73,0-20.83-6.36-32-17.55C121.2,147.44,115,130,122.5,122.5s24.94-1.3,40.62,14.38h0C178.8,152.56,185,170,177.5,177.5A11.74,11.74,0,0,1,168.9,180.67ZM131,125.23a6,6,0,0,0-4.35,1.43c-4.23,4.23,1,18.94,14.38,32.3s28.07,18.61,32.3,14.38-1-18.94-14.38-32.3C148.63,130.71,137.49,125.23,131,125.23Z"/></svg>