<svg id="Layer_2" data-name="Layer 2" xmlns="http://www.w3.org/2000/svg" viewBox="0 0 300 300"><defs><style>.cls-1{fill:#780ae9;}</style></defs><path class="cls-1" d="M150,269.83c-23.94,0-46.4-12.56-63.24-35.37C70.08,211.87,60.9,181.87,60.9,150s9.18-61.87,25.86-84.46C103.6,42.73,126.06,30.17,150,30.17s46.4,12.56,63.24,35.37C229.92,88.13,239.1,118.13,239.1,150s-9.18,61.87-25.86,84.46C196.4,257.27,173.94,269.83,150,269.83Zm0-234.76c-46.43,0-84.2,51.56-84.2,114.93S103.57,264.93,150,264.93,234.2,213.37,234.2,150,196.43,35.07,150,35.07Z"/></svg>