<svg id="Layer_2" data-name="Layer 2" xmlns="http://www.w3.org/2000/svg" viewBox="0 0 300 300"><defs><style>.cls-1{fill:#780ae9;}</style></defs><path class="cls-1" d="M150,270.88a2.45,2.45,0,0,1-2.43-2.08l-7-44.89-17.9,41.74a2.46,2.46,0,0,1-4.72-1.21l4.42-45.2-27.72,36a2.47,2.47,0,0,1-4.27-2.35l15.52-42.69-35.8,28a2.46,2.46,0,0,1-3.55-3.33l25.65-37.49L50.61,215.49A2.46,2.46,0,0,1,48,211.38l34.16-29.93L37.33,188.7a2.46,2.46,0,0,1-1.51-4.63l40.54-20.49-45.24-4.13a2.46,2.46,0,0,1-.3-4.86l44.36-9.77L32.39,129.57a2.45,2.45,0,0,1-1.59-2.78,2.49,2.49,0,0,1,2.5-2l45.4,1.57L41.05,101a2.46,2.46,0,0,1,2.07-4.4L86.7,109.36l-30.15-34a2.47,2.47,0,0,1,3.11-3.75l39,23.25L77.93,54.48a2.47,2.47,0,0,1,3.94-2.87l32,32.22-10-44.29a2.46,2.46,0,0,1,4.53-1.79l23,39.17,1.28-45.41a2.46,2.46,0,0,1,4.83-.61L150,74.56,162.53,30.9a2.46,2.46,0,0,1,4.83.61l1.28,45.41,23-39.17a2.46,2.46,0,0,1,4.53,1.79l-10,44.29,32-32.22a2.47,2.47,0,0,1,3.94,2.87l-20.75,40.4,39-23.25a2.47,2.47,0,0,1,3.11,3.75l-30.15,34,43.58-12.81A2.46,2.46,0,0,1,259,101L221.3,126.36l45.4-1.57a2.49,2.49,0,0,1,2.5,2,2.45,2.45,0,0,1-1.59,2.78l-42.79,15.25,44.36,9.77a2.46,2.46,0,0,1-.3,4.86l-45.24,4.13,40.54,20.49a2.46,2.46,0,0,1-1.51,4.63l-44.83-7.25L252,211.38a2.46,2.46,0,0,1-2.61,4.11l-41.62-18.17,25.65,37.49a2.46,2.46,0,0,1-3.55,3.33l-35.8-28,15.52,42.69a2.47,2.47,0,0,1-4.27,2.35l-27.72-36,4.42,45.2a2.46,2.46,0,0,1-4.72,1.21l-17.9-41.74-7,44.89A2.45,2.45,0,0,1,150,270.88Zm-8.28-58.28a1.62,1.62,0,0,1,.31,0,2.46,2.46,0,0,1,2.13,2.06L150,252.36l5.84-37.68a2.47,2.47,0,0,1,4.7-.59l15,35-3.71-37.95a2.49,2.49,0,0,1,1.55-2.53,2.46,2.46,0,0,1,2.85.79l23.28,30.2-13-35.83a2.46,2.46,0,0,1,3.83-2.79l30,23.47L198.86,193a2.46,2.46,0,0,1,3-3.64l34.94,15.25-28.68-25.12a2.46,2.46,0,0,1,2-4.29l37.64,6.09-34-17.21a2.46,2.46,0,0,1,.88-4.64l38-3.47-37.23-8.2a2.47,2.47,0,0,1-.3-4.73L251,130.26l-38.1,1.32a2.5,2.5,0,0,1-2.43-1.7,2.46,2.46,0,0,1,1-2.8L243,105.75,206.46,116.5a2.46,2.46,0,0,1-2.54-4L229.23,84,196.47,103.5a2.46,2.46,0,0,1-3.45-3.24l17.42-33.92L183.57,93.39a2.46,2.46,0,0,1-4.15-2.28l8.43-37.18-19.3,32.88A2.47,2.47,0,0,1,164,85.63l-1.07-38.11L152.37,84.16a2.46,2.46,0,0,1-4.74,0L137.11,47.52,136,85.63a2.47,2.47,0,0,1-4.59,1.18l-19.3-32.88,8.43,37.18a2.46,2.46,0,0,1-4.15,2.28l-26.87-27L107,100.26a2.46,2.46,0,0,1-3.45,3.24L70.77,84l25.31,28.52a2.46,2.46,0,0,1-2.54,4L57,105.75l31.6,21.33a2.46,2.46,0,0,1,1,2.8,2.5,2.5,0,0,1-2.43,1.7L49,130.26l35.91,12.8a2.47,2.47,0,0,1-.3,4.73L47.38,156l38,3.47a2.46,2.46,0,0,1,.88,4.64l-34,17.21,37.64-6.09a2.46,2.46,0,0,1,2,4.29L63.18,204.63l34.94-15.25a2.46,2.46,0,0,1,3,3.64L79.61,224.49,109.66,201a2.46,2.46,0,0,1,3.83,2.79l-13,35.83,23.28-30.2a2.46,2.46,0,0,1,2.85-.79,2.49,2.49,0,0,1,1.55,2.53l-3.71,37.95,15-35A2.45,2.45,0,0,1,141.72,212.6Z"/></svg>