<svg id="Layer_2" data-name="Layer 2" xmlns="http://www.w3.org/2000/svg" viewBox="0 0 300 300"><defs><style>.cls-1{fill:#00b775;}</style></defs><path class="cls-1" d="M247.9,268c-22.15,0-59.15-24.15-97.9-80.73-41.93,61.23-81.81,84.48-103,80.24a17.52,17.52,0,0,1-14.49-14.49c-4.24-21.24,19-61.12,80.24-103C51.47,108.07,28.22,68.19,32.46,47A17.52,17.52,0,0,1,47,32.46c21.24-4.24,61.12,19,103.05,80.24,41.93-61.23,81.81-84.48,103.05-80.24A17.52,17.52,0,0,1,267.54,47c4.24,21.24-19,61.12-80.24,103.05,61.23,41.93,84.48,81.81,80.24,103.05a17.52,17.52,0,0,1-14.49,14.49A26.4,26.4,0,0,1,247.9,268ZM52.25,37.54a21.66,21.66,0,0,0-4.21.39A12.1,12.1,0,0,0,37.93,48c-3.82,19.17,20,58.52,81.3,99.64a2.79,2.79,0,0,1,0,4.64C57.92,193.44,34.11,232.79,37.93,252A12.1,12.1,0,0,0,48,262.07c19.17,3.82,58.52-20,99.64-81.3a2.79,2.79,0,0,1,4.64,0c41.12,61.31,80.47,85.12,99.64,81.3A12.1,12.1,0,0,0,262.07,252c3.82-19.17-20-58.52-81.3-99.64a2.79,2.79,0,0,1,0-4.64c61.31-41.12,85.12-80.47,81.3-99.64A12.1,12.1,0,0,0,252,37.93c-19.16-3.82-58.52,20-99.64,81.3a2.79,2.79,0,0,1-4.64,0C109.37,62.11,72.6,37.54,52.25,37.54Z"/></svg>