<svg id="Layer_2" data-name="Layer 2" xmlns="http://www.w3.org/2000/svg" viewBox="0 0 300 300"><defs><style>.cls-1{fill:#f8572b;}</style></defs><path class="cls-1" d="M172.78,274.68h-42A2.84,2.84,0,0,1,128,271.4l19.25-121.32a2.84,2.84,0,0,1,5.59-.07l22.77,121.31a2.82,2.82,0,0,1-2.79,3.36ZM134.09,269h35.27L150.25,167.17Z"/><path class="cls-1" d="M213.82,258.33l-.45,0a2.88,2.88,0,0,1-2-1.33L147.6,152a2.84,2.84,0,0,1,4.22-3.68l95.83,77.79a2.84,2.84,0,0,1,0,4.37l-32,27.18A2.84,2.84,0,0,1,213.82,258.33ZM161,163.07l53.55,88.11,26.89-22.81Z"/><path class="cls-1" d="M266.16,193.26a2.66,2.66,0,0,1-.92-.16L149.08,153.18a2.84,2.84,0,0,1,.89-5.52l123.42-1.46a2.83,2.83,0,0,1,2.83,3.33L269,190.91a2.85,2.85,0,0,1-2.8,2.35Zm-99.73-40.12,97.51,33.51,6.1-34.73Z"/><path class="cls-1" d="M150,153.32a2.85,2.85,0,0,1-1.87-5l92.92-81.25a2.83,2.83,0,0,1,4.31.69L266.71,104a2.84,2.84,0,0,1-1.4,4.08L151,153.12A2.91,2.91,0,0,1,150,153.32Zm92.21-79.71-78,68.21L260.13,104Z"/><path class="cls-1" d="M150,153.32a2.87,2.87,0,0,1-2.81-3.22L163.72,27.78a2.82,2.82,0,0,1,1.31-2,2.86,2.86,0,0,1,2.4-.29l39.88,13.21a2.84,2.84,0,0,1,1.63,4L152.52,151.78A2.85,2.85,0,0,1,150,153.32ZM168.89,31.93,155,134.61,202.37,43Z"/><path class="cls-1" d="M86.21,258.33a2.84,2.84,0,0,1-1.84-.67l-32-27.18a2.84,2.84,0,0,1,.05-4.37l95.83-77.79a2.84,2.84,0,0,1,4.22,3.68L88.63,257a2.86,2.86,0,0,1-2,1.33Zm-27.6-30,26.9,22.81,53.55-88.11Z"/><path class="cls-1" d="M33.84,193.26a2.85,2.85,0,0,1-2.8-2.35l-7.26-41.38a2.83,2.83,0,0,1,2.83-3.33L150,147.66a2.84,2.84,0,0,1,.89,5.52L34.76,193.1A2.66,2.66,0,0,1,33.84,193.26ZM30,151.92l6.1,34.73,97.51-33.51Z"/><path class="cls-1" d="M150,153.32a2.91,2.91,0,0,1-1-.2L34.69,108.05a2.84,2.84,0,0,1-1.4-4.08L54.64,67.78A2.83,2.83,0,0,1,59,67.09l92.92,81.25a2.85,2.85,0,0,1-1.87,5ZM39.87,104l95.92,37.83-78-68.21Z"/><path class="cls-1" d="M150,153.32a2.85,2.85,0,0,1-2.52-1.54L91.06,42.67a2.84,2.84,0,0,1,1.63-4l39.88-13.21a2.86,2.86,0,0,1,2.4.29,2.82,2.82,0,0,1,1.31,2L152.81,150.1a2.87,2.87,0,0,1-2.81,3.22ZM97.63,43,145,134.61,131.11,31.93Z"/></svg>