<svg id="Layer_2" data-name="Layer 2" xmlns="http://www.w3.org/2000/svg" viewBox="0 0 300 300"><defs><style>.cls-1{fill:#00b775;}</style></defs><path class="cls-1" d="M254.9,188.74H20.26A2.27,2.27,0,0,1,18,186.47V139a2.27,2.27,0,0,1,2.27-2.27H254.9a2.27,2.27,0,0,1,2.27,2.27v47.5A2.27,2.27,0,0,1,254.9,188.74ZM22.53,184.2h230.1v-43H22.53Z"/><path class="cls-1" d="M279.74,163.3H45.1A2.27,2.27,0,0,1,42.83,161v-47.5a2.27,2.27,0,0,1,2.27-2.27H279.74a2.27,2.27,0,0,1,2.27,2.27V161A2.27,2.27,0,0,1,279.74,163.3ZM47.37,158.76h230.1v-43H47.37Z"/></svg>