<svg id="Layer_2" data-name="Layer 2" xmlns="http://www.w3.org/2000/svg" viewBox="0 0 300 300"><defs><style>.cls-1{fill:#780ae9;}</style></defs><path class="cls-1" d="M212.16,268c-1.19,0-2.4,0-3.62-.09C190,267,169.78,259.14,150,245.16c-19.78,14-40,21.85-58.54,22.78-17.56.87-33.18-4.6-44-15.41s-16.28-26.43-15.41-44C33,190,40.86,169.77,54.84,150c-14-19.78-21.85-40-22.78-58.54-.87-17.56,4.6-33.18,15.41-44s26.43-16.28,44-15.41C110,33,130.23,40.86,150,54.84c19.77-14,40-21.85,58.54-22.78,17.55-.87,33.18,4.6,44,15.41s16.28,26.43,15.41,44C267,110,259.14,130.22,245.16,150c14,19.77,21.85,40,22.78,58.54.87,17.56-4.6,33.18-15.41,44C242.47,262.59,228.24,268,212.16,268ZM150,239.29a2.58,2.58,0,0,1,1.54.5c19.44,14.07,39.24,22,57.27,22.89,16,.8,30.25-4.13,40-13.87s14.67-23.95,13.87-40c-.9-18-8.82-37.83-22.89-57.27a2.63,2.63,0,0,1,0-3.09c14.07-19.43,22-39.23,22.89-57.26.8-16-4.13-30.25-13.87-40s-23.95-14.66-40-13.87c-18,.9-37.83,8.81-57.27,22.89a2.61,2.61,0,0,1-3.08,0c-19.44-14.08-39.24-22-57.27-22.89-16-.8-30.25,4.13-40,13.87s-14.67,24-13.87,40c.9,18,8.82,37.83,22.89,57.26a2.63,2.63,0,0,1,0,3.09c-14.07,19.44-22,39.24-22.89,57.27-.8,16.05,4.13,30.25,13.87,40s24,14.66,40,13.87c18-.9,37.83-8.82,57.27-22.89A2.58,2.58,0,0,1,150,239.29Z"/></svg>