<svg id="Layer_2" data-name="Layer 2" xmlns="http://www.w3.org/2000/svg" viewBox="0 0 300 300"><defs><style>.cls-1{fill:#00b775;}</style></defs><path class="cls-1" d="M239.83,262.47a22.51,22.51,0,0,1-16-6.64L44.17,76.19a22.65,22.65,0,1,1,32-32L255.84,223.81a22.65,22.65,0,0,1-16,38.66ZM60.19,43A17.19,17.19,0,0,0,48,72.34L227.67,252A17.19,17.19,0,0,0,252,227.66L72.34,48A17.1,17.1,0,0,0,60.19,43Z"/><path class="cls-1" d="M60.19,262.46a22.64,22.64,0,0,1-16-38.65L223.81,44.17a22.65,22.65,0,0,1,32,32L76.2,255.83A22.58,22.58,0,0,1,60.19,262.46ZM239.83,43a17.1,17.1,0,0,0-12.16,5L48,227.66A17.19,17.19,0,0,0,72.34,252L252,72.34A17.19,17.19,0,0,0,239.83,43Z"/></svg>