<svg id="Layer_2" data-name="Layer 2" xmlns="http://www.w3.org/2000/svg" viewBox="0 0 300 300"><defs><style>.cls-1{fill:#f8572b;}</style></defs><path class="cls-1" d="M150,276.26A126.26,126.26,0,1,1,276.26,150,126.4,126.4,0,0,1,150,276.26Zm0-246.08A119.82,119.82,0,1,0,269.82,150,120,120,0,0,0,150,30.18Z"/><ellipse class="cls-1" cx="112.31" cy="121.82" rx="8.54" ry="33.48"/><ellipse class="cls-1" cx="187.69" cy="121.82" rx="8.54" ry="33.48"/><path class="cls-1" d="M227.3,211.66a2.05,2.05,0,0,1-1.65-.82,95.06,95.06,0,0,0-151.3,0,2.07,2.07,0,1,1-3.29-2.51,99.19,99.19,0,0,1,157.88,0,2.07,2.07,0,0,1-.39,2.9A2,2,0,0,1,227.3,211.66Z"/></svg>