<svg id="Layer_2" data-name="Layer 2" xmlns="http://www.w3.org/2000/svg" viewBox="0 0 300 300"><defs><style>.cls-1{fill:#ea83ec;}</style></defs><path class="cls-1" d="M150,272c-14,0-27-12.85-36.66-36.2C103.83,212.88,98.59,182.4,98.59,150s5.24-62.87,14.75-85.82C123,40.83,136,28,150,28s27,12.85,36.66,36.2c9.51,22.95,14.75,53.42,14.75,85.82s-5.24,62.88-14.75,85.82C177,259.17,164,272,150,272Zm0-241.2c-12.74,0-24.83,12.23-34,34.45C106.59,87.88,101.43,118,101.43,150s5.16,62.12,14.53,84.74c9.21,22.21,21.3,34.44,34,34.44s24.83-12.23,34-34.44c9.37-22.62,14.53-52.71,14.53-84.74S193.41,87.88,184,65.27C174.83,43.05,162.74,30.82,150,30.82Z"/><path class="cls-1" d="M150,201.41c-32.4,0-62.88-5.23-85.82-14.75C40.83,177,28,164,28,150s12.85-27,36.2-36.66C87.12,103.82,117.6,98.59,150,98.59s62.88,5.23,85.82,14.75C259.17,123,272,136,272,150s-12.85,27-36.2,36.66C212.88,196.18,182.4,201.41,150,201.41Zm0-100c-32,0-62.12,5.16-84.73,14.53-22.22,9.21-34.45,21.3-34.45,34s12.23,24.83,34.45,34c22.61,9.37,52.7,14.53,84.73,14.53s62.12-5.16,84.73-14.53c22.22-9.21,34.45-21.3,34.45-34S257,125.17,234.73,116C212.12,106.59,182,101.43,150,101.43Z"/><path class="cls-1" d="M194.54,261.15c-10.87,0-23.94-6.15-38-18.06-18.94-16.07-37.52-40.79-52.31-69.61S80.21,115.15,78.2,90.39c-2-25.19,3.66-42.57,16.08-48.95s29.88-.88,49.15,15.47C162.37,73,181,97.7,195.74,126.52s24,58.33,26.06,83.09c2,25.19-3.66,42.57-16.08,48.95A24.24,24.24,0,0,1,194.54,261.15Zm-89-219.47A21.49,21.49,0,0,0,95.58,44C84.24,49.79,79.08,66.19,81,90.16c2,24.39,11.13,53.52,25.76,82s33,52.91,51.62,68.75c18.33,15.56,34.67,20.92,46,15.1s16.51-22.22,14.55-46.19c-2-24.39-11.13-53.52-25.76-82h0c-14.62-28.5-33-52.91-51.62-68.75C128.08,47.61,115.66,41.68,105.52,41.68Z"/><path class="cls-1" d="M220.41,225.67a111.78,111.78,0,0,1-14.42-1c-24.63-3.23-53.64-13.94-81.7-30.13s-51.83-36-66.95-55.69c-15.37-20-20-37.76-13-49.85S69,72.05,94,75.34c24.63,3.23,53.64,13.94,81.7,30.13s51.83,36,66.95,55.69c15.37,20.05,20,37.76,13,49.85C250.12,220.63,237.82,225.67,220.41,225.67ZM79.5,77.16c-16.29,0-27.69,4.55-32.71,13.25-6.38,11-1.83,27.62,12.81,46.7,14.89,19.42,38.37,38.94,66.11,55s56.39,26.59,80.65,29.78c23.84,3.13,40.48-1.22,46.86-12.26S255,182,240.4,162.89c-14.89-19.42-38.37-38.94-66.11-55h0c-27.74-16-56.38-26.59-80.65-29.78A109.59,109.59,0,0,0,79.5,77.16Z"/><path class="cls-1" d="M105.46,261.15a24.24,24.24,0,0,1-11.18-2.59c-12.42-6.38-18.13-23.76-16.08-48.95,2-24.76,11.27-54.26,26.06-83.09l1.26.65-1.26-.65C119.05,97.7,137.63,73,156.57,56.91c19.27-16.35,36.72-21.85,49.15-15.47s18.13,23.76,16.08,49c-2,24.76-11.27,54.26-26.06,83.09S162.37,227,143.43,243.09C129.4,255,116.33,261.15,105.46,261.15Zm89-219.47c-10.14,0-22.56,5.93-36.07,17.39-18.67,15.84-37,40.25-51.62,68.75h0C92.16,156.32,83,185.45,81,209.84c-2,24,3.21,40.37,14.55,46.19s27.68.46,46-15.1c18.67-15.84,37-40.25,51.62-68.75S217,114.55,219,90.16c2-24-3.21-40.37-14.55-46.19A21.52,21.52,0,0,0,194.48,41.68Z"/><path class="cls-1" d="M79.59,225.67c-17.41,0-29.71-5-35.26-14.66-7-12.09-2.36-29.8,13-49.85,15.12-19.71,38.9-39.49,67-55.69h0c28.06-16.19,57.07-26.9,81.7-30.13,25-3.29,42.7,1.55,49.68,13.65s2.36,29.8-13,49.85c-15.12,19.71-38.9,39.49-66.95,55.69s-57.07,26.9-81.7,30.13A111.78,111.78,0,0,1,79.59,225.67ZM220.5,77.16a109.59,109.59,0,0,0-14.14,1c-24.26,3.19-52.91,13.77-80.65,29.78h0c-27.74,16-51.22,35.54-66.11,55C45,182,40.41,198.56,46.79,209.59s23,15.39,46.85,12.26c24.27-3.19,52.91-13.77,80.65-29.78s51.22-35.54,66.11-55C255,118,259.59,101.44,253.22,90.41,248.19,81.71,236.79,77.16,220.5,77.16Z"/></svg>