<svg id="Layer_2" data-name="Layer 2" xmlns="http://www.w3.org/2000/svg" viewBox="0 0 300 300"><defs><style>.cls-1{fill:#780ae9;}</style></defs><path class="cls-1" d="M184.49,272.41h-69a2.8,2.8,0,0,1-2.81-2.8V240.05L91.8,261a2.81,2.81,0,0,1-4,0L39.05,212.17a2.8,2.8,0,0,1,0-4L97.25,150,39.05,91.8a2.8,2.8,0,0,1,0-4L87.83,39.05a2.81,2.81,0,0,1,4,0L112.7,60V30.39a2.8,2.8,0,0,1,2.81-2.8h69a2.8,2.8,0,0,1,2.81,2.8V60l20.9-20.9a2.78,2.78,0,0,1,2-.82h0a2.8,2.8,0,0,1,2,.82L261,87.83a2.8,2.8,0,0,1,0,4L202.75,150,261,208.2a2.8,2.8,0,0,1,0,4L212.17,261a2.8,2.8,0,0,1-2,.82h0a2.78,2.78,0,0,1-2-.82l-20.9-20.9v29.56A2.8,2.8,0,0,1,184.49,272.41Zm-66.17-5.61h63.36V233.27a2.81,2.81,0,0,1,4.8-2l23.7,23.7L255,210.18,196.79,152a2.83,2.83,0,0,1,0-4L255,89.82,210.18,45l-23.7,23.7a2.81,2.81,0,0,1-4.8-2V33.2H118.32V66.73a2.81,2.81,0,0,1-4.8,2L89.82,45,45,89.82,103.21,148a2.83,2.83,0,0,1,0,4L45,210.18,89.82,255l23.7-23.7a2.81,2.81,0,0,1,4.8,2Z"/></svg>