<svg id="Layer_2" data-name="Layer 2" xmlns="http://www.w3.org/2000/svg" viewBox="0 0 300 300"><defs><style>.cls-1{fill:#780ae9;}</style></defs><path class="cls-1" d="M150,283.18a2.27,2.27,0,0,1-2.25-2c-6.93-53.33-13.22-81.71-30.23-98.72s-45.39-23.3-98.72-30.23a2.27,2.27,0,0,1,0-4.5c53.33-6.93,81.71-13.22,98.72-30.23s23.3-45.39,30.23-98.72a2.27,2.27,0,0,1,4.5,0c6.93,53.33,13.22,81.71,30.23,98.72s45.39,23.3,98.72,30.23a2.27,2.27,0,0,1,0,4.5c-53.33,6.93-81.71,13.22-98.72,30.23s-23.3,45.39-30.23,98.72A2.27,2.27,0,0,1,150,283.18ZM35.91,150c43.9,6.33,68.79,13.24,84.82,29.27s22.94,40.92,29.27,84.82c6.33-43.9,13.24-68.79,29.27-84.82s40.92-22.94,84.82-29.27c-43.9-6.33-68.79-13.24-84.82-29.27S156.33,79.81,150,35.91c-6.33,43.9-13.24,68.79-29.27,84.82S79.81,143.67,35.91,150Z"/></svg>