<svg id="Layer_2" data-name="Layer 2" xmlns="http://www.w3.org/2000/svg" viewBox="0 0 300 300"><defs><style>.cls-1{fill:#ea83ec;}</style></defs><path class="cls-1" d="M268.85,272.22H31.15a3.37,3.37,0,0,1-3.37-3.37V31.15a3.37,3.37,0,0,1,3.37-3.37h79.23a3.37,3.37,0,0,1,3.38,3.37V107h75.86a3.37,3.37,0,0,1,3.37,3.37v75.86h75.86a3.37,3.37,0,0,1,3.37,3.38v79.23A3.37,3.37,0,0,1,268.85,272.22ZM34.52,265.48h231V193H189.62a3.37,3.37,0,0,1-3.38-3.37V113.76H110.38a3.37,3.37,0,0,1-3.37-3.38V34.52H34.52Z"/></svg>