<svg id="Layer_2" data-name="Layer 2" xmlns="http://www.w3.org/2000/svg" viewBox="0 0 300 300"><defs><style>.cls-1{fill:#00b775;}</style></defs><path class="cls-1" d="M267.83,270.37H257.15a2.54,2.54,0,0,1-2.54-2.54,10.2,10.2,0,0,0-20.4,0,2.54,2.54,0,0,1-2.54,2.54h-6a2.54,2.54,0,0,1-2.54-2.54,10.2,10.2,0,0,0-20.4,0,2.54,2.54,0,0,1-2.54,2.54h-6a2.54,2.54,0,0,1-2.54-2.54,10.2,10.2,0,0,0-20.4,0,2.54,2.54,0,0,1-2.54,2.54h-6a2.54,2.54,0,0,1-2.54-2.54,10.2,10.2,0,0,0-20.4,0,2.54,2.54,0,0,1-2.54,2.54h-6a2.54,2.54,0,0,1-2.54-2.54,10.2,10.2,0,1,0-20.4,0,2.54,2.54,0,0,1-2.54,2.54h-6a2.54,2.54,0,0,1-2.54-2.54,10.2,10.2,0,0,0-20.4,0,2.54,2.54,0,0,1-2.54,2.54h-6a2.54,2.54,0,0,1-2.54-2.54,10.2,10.2,0,0,0-20.4,0,2.54,2.54,0,0,1-2.54,2.54H32.17a2.54,2.54,0,0,1-2.54-2.54V257.15a2.54,2.54,0,0,1,2.54-2.54,10.2,10.2,0,0,0,0-20.4,2.54,2.54,0,0,1-2.54-2.54v-6a2.54,2.54,0,0,1,2.54-2.54,10.2,10.2,0,1,0,0-20.4,2.54,2.54,0,0,1-2.54-2.54v-6a2.54,2.54,0,0,1,2.54-2.54,10.2,10.2,0,1,0,0-20.4,2.54,2.54,0,0,1-2.54-2.54v-6a2.54,2.54,0,0,1,2.54-2.54,10.2,10.2,0,1,0,0-20.4,2.54,2.54,0,0,1-2.54-2.54v-6a2.54,2.54,0,0,1,2.54-2.54,10.2,10.2,0,0,0,0-20.4,2.54,2.54,0,0,1-2.54-2.54v-6a2.54,2.54,0,0,1,2.54-2.54,10.2,10.2,0,0,0,0-20.4,2.54,2.54,0,0,1-2.54-2.54v-6a2.54,2.54,0,0,1,2.54-2.54,10.2,10.2,0,0,0,0-20.4,2.54,2.54,0,0,1-2.54-2.54V32.17a2.54,2.54,0,0,1,2.54-2.54H42.85a2.54,2.54,0,0,1,2.54,2.54,10.2,10.2,0,0,0,20.4,0,2.54,2.54,0,0,1,2.54-2.54h6a2.54,2.54,0,0,1,2.54,2.54,10.2,10.2,0,0,0,20.4,0,2.54,2.54,0,0,1,2.54-2.54h6a2.54,2.54,0,0,1,2.54,2.54,10.2,10.2,0,1,0,20.4,0,2.54,2.54,0,0,1,2.54-2.54h6a2.54,2.54,0,0,1,2.54,2.54,10.2,10.2,0,1,0,20.4,0,2.54,2.54,0,0,1,2.54-2.54h6a2.54,2.54,0,0,1,2.54,2.54,10.2,10.2,0,0,0,20.4,0,2.54,2.54,0,0,1,2.54-2.54h6a2.54,2.54,0,0,1,2.54,2.54,10.2,10.2,0,0,0,20.4,0,2.54,2.54,0,0,1,2.54-2.54h6a2.54,2.54,0,0,1,2.54,2.54,10.2,10.2,0,0,0,20.4,0,2.54,2.54,0,0,1,2.54-2.54h10.68a2.54,2.54,0,0,1,2.54,2.54V42.85a2.54,2.54,0,0,1-2.54,2.54,10.2,10.2,0,1,0,0,20.4,2.54,2.54,0,0,1,2.54,2.54v6a2.54,2.54,0,0,1-2.54,2.54,10.2,10.2,0,1,0,0,20.4,2.54,2.54,0,0,1,2.54,2.54v6a2.54,2.54,0,0,1-2.54,2.54,10.2,10.2,0,1,0,0,20.4,2.54,2.54,0,0,1,2.54,2.54v6a2.54,2.54,0,0,1-2.54,2.54,10.2,10.2,0,0,0,0,20.4,2.54,2.54,0,0,1,2.54,2.54v6a2.54,2.54,0,0,1-2.54,2.54,10.2,10.2,0,0,0,0,20.4,2.54,2.54,0,0,1,2.54,2.54v6a2.54,2.54,0,0,1-2.54,2.54,10.2,10.2,0,0,0,0,20.4,2.54,2.54,0,0,1,2.54,2.54v6a2.54,2.54,0,0,1-2.54,2.54,10.2,10.2,0,1,0,0,20.4,2.54,2.54,0,0,1,2.54,2.54v10.68A2.54,2.54,0,0,1,267.83,270.37Zm-8.35-5.08h5.81v-5.81a15.28,15.28,0,0,1,0-30.14V228a15.28,15.28,0,0,1,0-30.14v-1.33a15.28,15.28,0,0,1,0-30.14v-1.33a15.28,15.28,0,0,1,0-30.14V133.6a15.28,15.28,0,0,1,0-30.14v-1.33a15.28,15.28,0,0,1,0-30.14V70.66a15.28,15.28,0,0,1,0-30.14V34.71h-5.81a15.28,15.28,0,0,1-30.14,0H228a15.28,15.28,0,0,1-30.14,0h-1.33a15.28,15.28,0,0,1-30.14,0h-1.33a15.28,15.28,0,0,1-30.14,0H133.6a15.28,15.28,0,0,1-30.14,0h-1.33a15.28,15.28,0,0,1-30.14,0H70.66a15.28,15.28,0,0,1-30.14,0H34.71v5.81a15.28,15.28,0,0,1,0,30.14V72a15.28,15.28,0,0,1,0,30.14v1.33a15.28,15.28,0,0,1,0,30.14v1.33a15.28,15.28,0,0,1,0,30.14v1.33a15.28,15.28,0,0,1,0,30.14v1.33a15.28,15.28,0,0,1,0,30.14v1.33a15.28,15.28,0,0,1,0,30.14v5.81h5.81a15.28,15.28,0,0,1,30.14,0H72a15.28,15.28,0,0,1,30.14,0h1.33a15.28,15.28,0,0,1,30.14,0h1.33a15.28,15.28,0,0,1,30.14,0h1.33a15.28,15.28,0,0,1,30.14,0h1.33a15.28,15.28,0,0,1,30.14,0h1.33a15.28,15.28,0,0,1,30.14,0Z"/></svg>