<svg id="Layer_2" data-name="Layer 2" xmlns="http://www.w3.org/2000/svg" viewBox="0 0 300 300"><defs><style>.cls-1{fill:#ea83ec;}</style></defs><path class="cls-1" d="M150,273.86h0a3.11,3.11,0,0,1-2.9-2c-27-70.83-48.13-92-119-119a3.1,3.1,0,0,1,0-5.8c70.83-27,92-48.13,119-119a3.1,3.1,0,0,1,5.8,0c27,70.83,48.13,92,119,119a3.1,3.1,0,0,1,0,5.8c-70.83,27-92,48.13-119,119A3.11,3.11,0,0,1,150,273.86ZM37.8,150c63.88,25.33,86.87,48.33,112.2,112.2,25.33-63.87,48.33-86.87,112.2-112.2C198.33,124.67,175.33,101.67,150,37.8,124.67,101.67,101.68,124.67,37.8,150Z"/></svg>