<svg id="Layer_2" data-name="Layer 2" xmlns="http://www.w3.org/2000/svg" viewBox="0 0 300 300"><defs><style>.cls-1{fill:#f8572b;}</style></defs><path class="cls-1" d="M131,268l-.32,0-7.74-1.61a1.57,1.57,0,0,1-1-.67,1.52,1.52,0,0,1-.22-1.17l16.89-81.38-40.16,72.2a1.55,1.55,0,0,1-.94.74,1.52,1.52,0,0,1-1.18-.13l-6.91-3.85A1.55,1.55,0,0,1,88.8,250l38.47-69.15-56,53.64a1.56,1.56,0,0,1-2.21,0l-5.47-5.71a1.59,1.59,0,0,1-.43-1.12,1.57,1.57,0,0,1,.48-1.09l56.2-53.85L50,208.17a1.58,1.58,0,0,1-1.19.1,1.54,1.54,0,0,1-.9-.78l-3.59-7.05a1.56,1.56,0,0,1,.69-2.1l70.31-35.74L36.13,176.78a1.55,1.55,0,0,1-1.16-.26,1.53,1.53,0,0,1-.64-1l-1.4-7.79a1.56,1.56,0,0,1,1.26-1.81l77.05-13.78-77.67-8.89a1.56,1.56,0,0,1-1.37-1.73l.9-7.85a1.56,1.56,0,0,1,1.72-1.38l77.45,8.87L41.49,109.51a1.54,1.54,0,0,1-.82-.86,1.61,1.61,0,0,1,0-1.2l3.23-7.22A1.56,1.56,0,0,1,46,99.45l71.25,31.85-59.72-50A1.62,1.62,0,0,1,57,80.25a1.58,1.58,0,0,1,.36-1.14L62.41,73a1.55,1.55,0,0,1,2.19-.19l60.68,50.8L82.62,58.82a1.63,1.63,0,0,1-.22-1.18,1.51,1.51,0,0,1,.67-1l6.61-4.35a1.57,1.57,0,0,1,2.16.44l42.75,65L111,42.65a1.59,1.59,0,0,1,.11-1.19,1.56,1.56,0,0,1,.91-.76l7.55-2.38a1.56,1.56,0,0,1,2,1L145,114V33.53A1.56,1.56,0,0,1,146.54,32h7.91A1.56,1.56,0,0,1,156,33.53v83l30.54-76.27a1.53,1.53,0,0,1,.83-.86,1.56,1.56,0,0,1,1.2,0l7.34,2.94a1.56,1.56,0,0,1,.87,2L167.52,117.4l47.57-61.54a1.57,1.57,0,0,1,2.19-.28l6.25,4.84a1.57,1.57,0,0,1,.6,1,1.53,1.53,0,0,1-.32,1.15L176.36,124l64.36-46a1.55,1.55,0,0,1,2.17.36l4.6,6.43a1.57,1.57,0,0,1-.36,2.18l-63.34,45.31,73.46-26.35a1.57,1.57,0,0,1,2,.94l2.67,7.45a1.56,1.56,0,0,1-.94,2l-73,26.18,77.89-3a1.55,1.55,0,0,1,1.62,1.5l.3,7.9a1.53,1.53,0,0,1-.41,1.12,1.51,1.51,0,0,1-1.09.5l-78.12,3L264,173.08a1.57,1.57,0,0,1,1.12,1.9l-2,7.66a1.57,1.57,0,0,1-1.9,1.12l-77.93-20.15,67.4,41a1.57,1.57,0,0,1,.53,2.15l-4.11,6.75a1.56,1.56,0,0,1-1,.71A1.58,1.58,0,0,1,245,214l-66.9-40.68,51.94,58a1.55,1.55,0,0,1-.12,2.2L224,238.77a1.55,1.55,0,0,1-1.12.4,1.59,1.59,0,0,1-1.08-.52L170,180.9l33.1,71.88a1.58,1.58,0,0,1,.05,1.19,1.63,1.63,0,0,1-.81.88l-7.19,3.31a1.57,1.57,0,0,1-2.07-.77l-32.73-71.07,9.94,76.82a1.56,1.56,0,0,1-1.35,1.75l-7.84,1a1.54,1.54,0,0,1-1.15-.32,1.57,1.57,0,0,1-.6-1l-10.14-78.4-16.73,80.63A1.58,1.58,0,0,1,131,268Zm-5.9-4.38,4.69,1,18.3-88.17a1.56,1.56,0,0,1,3.08.11l11.13,86L167,262,156,176.59a1.56,1.56,0,0,1,3-.86l36.35,78.94,4.35-2-36.77-79.86a1.56,1.56,0,0,1,2.57-1.7l57.62,64.3,3.57-3.2-57.94-64.65a1.57,1.57,0,0,1,0-2,1.56,1.56,0,0,1,2-.33l74.58,45.34,2.49-4.09-75.09-45.66a1.56,1.56,0,0,1,1.2-2.84l86.64,22.41,1.2-4.64-84.57-21.87a1.56,1.56,0,0,1,.33-3.07l87.2-3.31-.19-4.78L178,146a1.56,1.56,0,0,1-.59-3l81-29.06-1.62-4.51L174.3,139a1.57,1.57,0,0,1-1.91-.75,1.55,1.55,0,0,1,.48-2l71.18-50.92-2.79-3.9-71.72,51.31a1.56,1.56,0,0,1-2.14-2.22l53-68.57L216.6,59l-53.45,69.16a1.56,1.56,0,0,1-2.68-1.53l32.84-82-4.45-1.78-33,82.33a1.55,1.55,0,0,1-1.74,1,1.57,1.57,0,0,1-1.26-1.54V35.09H148.1v89.07a1.56,1.56,0,0,1-3,.47L119,41.76,114.4,43.2l26.52,84.26a1.56,1.56,0,0,1-2.79,1.33l-48-73-4,2.63,47.63,72.4a1.56,1.56,0,0,1-2.31,2L63.8,76.24l-3.08,3.67,67.11,56.19a1.54,1.54,0,0,1,.32,2,1.57,1.57,0,0,1-2,.6l-80-35.79-2,4.37,78.57,35.13a1.57,1.57,0,0,1,.87,1.84A1.54,1.54,0,0,1,122,145.4L36,135.57l-.55,4.76,86.7,9.92a1.56,1.56,0,0,1,.09,3.08l-86,15.39.84,4.71,88.09-15.76a1.56,1.56,0,0,1,1,2.93L47.85,200.42,50,204.69l77.81-39.55a1.55,1.55,0,0,1,1.78,2.51L66.93,227.71l3.32,3.46,62.33-59.73a1.56,1.56,0,0,1,2.44,1.89L92.28,250.16l4.19,2.33,44.37-79.77a1.56,1.56,0,0,1,2.89,1.08Z"/></svg>