<svg id="Layer_2" data-name="Layer 2" xmlns="http://www.w3.org/2000/svg" viewBox="0 0 300 300"><defs><style>.cls-1{fill:#ea83ec;}</style></defs><path class="cls-1" d="M244.19,275.59H55.81A3.77,3.77,0,0,1,52,271.82c0-46.86,43.94-85,98-85s98,38.13,98,85A3.77,3.77,0,0,1,244.19,275.59ZM59.69,268H240.31c-2.3-41-41.93-73.66-90.31-73.66S62,227.09,59.69,268Z"/><path class="cls-1" d="M244.19,194.38H55.81A3.77,3.77,0,0,1,52,190.61c0-46.86,43.94-85,98-85s98,38.13,98,85A3.77,3.77,0,0,1,244.19,194.38Zm-184.5-7.55H240.31c-2.3-41-41.93-73.66-90.31-73.66S62,145.88,59.69,186.83Z"/><path class="cls-1" d="M244.19,113.17H55.81A3.77,3.77,0,0,1,52,109.39c0-46.86,43.94-85,98-85s98,38.12,98,85A3.77,3.77,0,0,1,244.19,113.17Zm-184.5-7.55H240.31C238,64.67,198.38,32,150,32S62,64.67,59.69,105.62Z"/></svg>