<svg id="Layer_2" data-name="Layer 2" xmlns="http://www.w3.org/2000/svg" viewBox="0 0 300 300"><defs><style>.cls-1{fill:#780ae9;}</style></defs><path class="cls-1" d="M248.62,124.91c-9,0-13.66-5.69-17.74-10.71s-7.72-9.47-15.14-9.47-11.16,4.6-15.13,9.47-8.72,10.71-17.74,10.71-13.65-5.69-17.74-10.71-7.72-9.47-15.14-9.47-11.16,4.6-15.13,9.47-8.72,10.71-17.74,10.71-13.65-5.69-17.74-10.71-7.71-9.47-15.13-9.47-11.17,4.6-15.13,9.47-8.73,10.71-17.74,10.71-13.65-5.69-17.74-10.71-7.72-9.47-15.14-9.47a1.69,1.69,0,0,1,0-3.37c9,0,13.66,5.69,17.75,10.71s7.71,9.48,15.13,9.48,11.16-4.6,15.13-9.48,8.72-10.71,17.74-10.71S97.9,107.05,102,112.07s7.71,9.48,15.13,9.48,11.17-4.6,15.13-9.48S141,101.36,150,101.36s13.66,5.69,17.75,10.71,7.71,9.48,15.13,9.48S194,117,198,112.07s8.72-10.71,17.74-10.71,13.65,5.69,17.74,10.71,7.72,9.48,15.14,9.48,11.17-4.6,15.13-9.48,8.73-10.71,17.75-10.71a1.69,1.69,0,0,1,0,3.37c-7.42,0-11.17,4.6-15.14,9.47S257.64,124.91,248.62,124.91Z"/><path class="cls-1" d="M248.62,161.77c-9,0-13.66-5.69-17.74-10.71-4-4.87-7.72-9.47-15.14-9.47s-11.16,4.6-15.13,9.47c-4.09,5-8.72,10.71-17.74,10.71s-13.65-5.69-17.74-10.71c-4-4.87-7.72-9.47-15.14-9.47s-11.16,4.6-15.13,9.47c-4.09,5-8.72,10.71-17.74,10.71s-13.65-5.69-17.74-10.71c-4-4.87-7.71-9.47-15.13-9.47s-11.17,4.6-15.13,9.47c-4.09,5-8.73,10.71-17.74,10.71s-13.65-5.69-17.74-10.71c-4-4.87-7.72-9.47-15.14-9.47a1.68,1.68,0,1,1,0-3.36c9,0,13.66,5.69,17.75,10.71,4,4.87,7.71,9.47,15.13,9.47s11.16-4.6,15.13-9.47c4.09-5,8.72-10.71,17.74-10.71S97.9,143.92,102,148.94c4,4.87,7.71,9.47,15.13,9.47s11.17-4.6,15.13-9.47c4.09-5,8.73-10.71,17.74-10.71s13.66,5.69,17.75,10.71c4,4.87,7.71,9.47,15.13,9.47s11.16-4.6,15.13-9.47c4.09-5,8.72-10.71,17.74-10.71s13.65,5.69,17.74,10.71c4,4.87,7.72,9.47,15.14,9.47s11.17-4.6,15.13-9.47c4.09-5,8.73-10.71,17.75-10.71a1.68,1.68,0,0,1,0,3.36c-7.42,0-11.17,4.6-15.14,9.47C262.27,156.08,257.64,161.77,248.62,161.77Z"/><path class="cls-1" d="M248.62,198.64c-9,0-13.66-5.69-17.74-10.71s-7.72-9.48-15.14-9.48-11.16,4.6-15.13,9.48-8.72,10.71-17.74,10.71-13.65-5.69-17.74-10.71-7.72-9.48-15.14-9.48-11.16,4.6-15.13,9.48-8.72,10.71-17.74,10.71S103.47,193,99.38,187.93s-7.71-9.48-15.13-9.48-11.17,4.6-15.13,9.48-8.73,10.71-17.74,10.71S37.73,193,33.64,187.93s-7.72-9.48-15.14-9.48a1.68,1.68,0,0,1,0-3.36c9,0,13.66,5.69,17.75,10.71,4,4.87,7.71,9.47,15.13,9.47s11.16-4.6,15.13-9.47c4.09-5,8.72-10.71,17.74-10.71S97.9,180.78,102,185.8c4,4.87,7.71,9.47,15.13,9.47s11.17-4.6,15.13-9.47c4.09-5,8.73-10.71,17.74-10.71s13.66,5.69,17.75,10.71c4,4.87,7.71,9.47,15.13,9.47S194,190.67,198,185.8c4.09-5,8.72-10.71,17.74-10.71s13.65,5.69,17.74,10.71c4,4.87,7.72,9.47,15.14,9.47s11.17-4.6,15.13-9.47c4.09-5,8.73-10.71,17.75-10.71a1.68,1.68,0,1,1,0,3.36c-7.42,0-11.17,4.6-15.14,9.48S257.64,198.64,248.62,198.64Z"/></svg>