<svg id="Layer_2" data-name="Layer 2" xmlns="http://www.w3.org/2000/svg" viewBox="0 0 300 300"><defs><style>.cls-1{fill:#ffc803;}</style></defs><path class="cls-1" d="M182.17,120.19a3.24,3.24,0,0,1-1.7-.48L150,101.13l-30.47,18.58a3.25,3.25,0,0,1-3.4,0L85.65,101.13,55.18,119.71a3.27,3.27,0,0,1-3.41,0L19.6,100.09A3.27,3.27,0,0,1,23,94.51l30.47,18.58L83.94,94.51a3.27,3.27,0,0,1,3.41,0l30.47,18.58,30.47-18.58a3.27,3.27,0,0,1,3.41,0l30.47,18.58,30.47-18.58a3.27,3.27,0,0,1,3.41,0l30.47,18.58L277,94.51a3.27,3.27,0,0,1,3.4,5.58l-32.18,19.62a3.25,3.25,0,0,1-3.4,0l-30.48-18.58-30.47,18.58A3.24,3.24,0,0,1,182.17,120.19Z"/><path class="cls-1" d="M182.17,163.08a3.24,3.24,0,0,1-1.7-.48L150,144,119.52,162.6a3.25,3.25,0,0,1-3.4,0L85.65,144,55.18,162.6a3.27,3.27,0,0,1-3.41,0L19.6,143A3.27,3.27,0,0,1,23,137.4L53.47,156,83.94,137.4a3.27,3.27,0,0,1,3.41,0L117.82,156l30.47-18.58a3.27,3.27,0,0,1,3.41,0L182.17,156l30.47-18.58a3.27,3.27,0,0,1,3.41,0L246.52,156,277,137.4a3.27,3.27,0,0,1,3.4,5.58L248.22,162.6a3.25,3.25,0,0,1-3.4,0L214.34,144,183.87,162.6A3.24,3.24,0,0,1,182.17,163.08Z"/><path class="cls-1" d="M182.17,206a3.24,3.24,0,0,1-1.7-.48L150,186.91l-30.47,18.58a3.25,3.25,0,0,1-3.4,0L85.65,186.91,55.18,205.49a3.27,3.27,0,0,1-3.41,0L19.6,185.87a3.27,3.27,0,1,1,3.4-5.58l30.47,18.58,30.47-18.58a3.27,3.27,0,0,1,3.41,0l30.47,18.58,30.47-18.58a3.27,3.27,0,0,1,3.41,0l30.47,18.58,30.47-18.58a3.27,3.27,0,0,1,3.41,0l30.47,18.58L277,180.29a3.27,3.27,0,1,1,3.4,5.58l-32.18,19.62a3.25,3.25,0,0,1-3.4,0l-30.48-18.58-30.47,18.58A3.24,3.24,0,0,1,182.17,206Z"/></svg>