<svg id="Layer_2" data-name="Layer 2" xmlns="http://www.w3.org/2000/svg" viewBox="0 0 300 300"><defs><style>.cls-1{fill:#ffc803;}</style></defs><path class="cls-1" d="M117.93,153h64.14c.43,0,.86,0,1.28,0a21.34,21.34,0,0,0,2.13-.23l.93-.15a23.37,23.37,0,0,0,3.16-.84,23.9,23.9,0,0,0,2.36-1h0a23,23,0,0,0,0-41.5,22.61,22.61,0,0,0-9.85-2.23H117.93a17,17,0,1,1,0-33.93h64.14a24.25,24.25,0,0,0,2.56-.14c.46,0,.93-.12,1.39-.2a22.55,22.55,0,0,0,5.9-1.88,23,23,0,0,0-9.85-43.73H114.71a2,2,0,0,0-2,2v2a2,2,0,0,0,2,2h67.36a17,17,0,0,1,0,33.94H117.93a23.31,23.31,0,0,0-2.78.17,22.3,22.3,0,0,0-5.9,1.53c-.4.16-.79.34-1.17.52h0a23,23,0,0,0,0,41.5,22.79,22.79,0,0,0,9.86,2.22h64.14a17,17,0,1,1,0,33.94H117.93q-.65,0-1.29,0a24,24,0,0,0-3,.38,24.66,24.66,0,0,0-2.69.69,22.8,22.8,0,0,0-2.83,1.12h0a23,23,0,0,0,0,41.5,22.65,22.65,0,0,0,9.86,2.23h64.14a17,17,0,1,1,0,33.93H117.93a24.25,24.25,0,0,0-2.56.14c-.47,0-.93.12-1.39.2a22.64,22.64,0,0,0-5.91,1.89,23,23,0,0,0,9.86,43.72h65.64a2,2,0,0,0,2-2v-2a2,2,0,0,0-2-2H117.93a17,17,0,1,1,0-33.93h64.14a24.25,24.25,0,0,0,2.56-.14,22.56,22.56,0,0,0,7.29-2.09h0a23,23,0,0,0,0-41.5,22.79,22.79,0,0,0-9.86-2.22H117.93a17,17,0,0,1,0-33.94Z"/></svg>