<?xml version="1.0" encoding="utf-8"?>
<!-- Generator: Adobe Illustrator 24.0.0, SVG Export Plug-In . SVG Version: 6.00 Build 0)  -->
<svg version="1.1" id="Layer_1" xmlns="http://www.w3.org/2000/svg" xmlns:xlink="http://www.w3.org/1999/xlink" x="0px" y="0px"
	 viewBox="0 0 3000 5800" style="enable-background:new 0 0 3000 5800;" xml:space="preserve">
<style type="text/css">
	.st0{fill:#FFFFFF;}
	.st1{fill:#780AE9;}
	.st2{fill:#EA83EC;}
	.st3{fill:#F8572B;}
	.st4{fill:#00B775;}
	.st5{fill:#FFC803;}
</style>
<rect class="st0" width="3000" height="5800"/>
<g>
	<path class="st1" d="M371,656.3c-2,0-3.7-1.5-4-3.5c-12.2-93.9-23.3-143.9-53.2-173.8c-30-30-79.9-41-173.8-53.2
		c-2-0.3-3.5-2-3.5-4s1.5-3.7,3.5-4c93.9-12.2,143.9-23.3,173.8-53.2c30-30,41-79.9,53.2-173.8c0.3-2,2-3.5,4-3.5s3.7,1.5,4,3.5
		c12.2,93.9,23.3,143.9,53.2,173.8c30,30,79.9,41,173.8,53.2c2,0.3,3.5,2,3.5,4s-1.5,3.7-3.5,4C508.1,438,458.1,449,428.2,479
		c-30,30-41,79.9-53.2,173.8C374.7,654.8,373,656.3,371,656.3z M170,421.8c77.3,11.1,121.1,23.3,149.4,51.5
		c28.2,28.2,40.4,72.1,51.5,149.4c11.1-77.3,23.3-121.1,51.5-149.4c28.2-28.2,72.1-40.4,149.4-51.5
		c-77.3-11.1-121.1-23.3-149.4-51.5c-28.2-28.2-40.4-72.1-51.5-149.4c-11.1,77.3-23.3,121.1-51.5,149.4
		C291.2,398.5,247.4,410.6,170,421.8z"/>
</g>
<g>
	<path class="st2" d="M2047.2,621.6L2047.2,621.6c-2.1,0-3.9-1.3-4.7-3.2c-43.6-114.3-77.7-148.4-192-192c-1.9-0.7-3.2-2.6-3.2-4.7
		c0-2.1,1.3-3.9,3.2-4.7c114.3-43.6,148.4-77.7,192-192c0.7-1.9,2.6-3.2,4.7-3.2s3.9,1.3,4.7,3.2c43.6,114.3,77.7,148.4,192,192
		c1.9,0.7,3.2,2.6,3.2,4.7c0,2.1-1.3,3.9-3.2,4.7c-114.3,43.6-148.4,77.7-192,192C2051.1,620.4,2049.2,621.6,2047.2,621.6z
		 M1866.1,421.8c103.1,40.9,140.2,78,181.1,181.1c40.9-103.1,78-140.2,181.1-181.1c-103.1-40.9-140.2-78-181.1-181.1
		C2006.3,343.8,1969.2,380.9,1866.1,421.8z"/>
</g>
<g>
	<g>
		<path class="st3" d="M974.5,626.6h-74c-1.5,0-2.9-0.6-3.8-1.8c-1-1.1-1.4-2.6-1.1-4l33.9-213.6c0.4-2.4,2.4-4.2,4.9-4.2
			c2.4-0.1,4.5,1.7,5,4.1l40.1,213.6c0.3,1.5-0.1,3-1.1,4.1C977.4,626,976,626.6,974.5,626.6z M906.4,616.6h62.1l-33.7-179.3
			L906.4,616.6z"/>
	</g>
	<g>
		<path class="st3" d="M1046.8,597.9c-0.3,0-0.5,0-0.8-0.1c-1.4-0.2-2.7-1.1-3.5-2.3L930.2,410.6c-1.3-2.1-0.8-4.8,1-6.4
			c1.8-1.6,4.6-1.6,6.4-0.1l168.8,137c1.2,0.9,1.8,2.3,1.8,3.8s-0.6,2.9-1.8,3.9l-56.4,47.9C1049.1,597.4,1048,597.9,1046.8,597.9z
			 M953.7,430.1l94.3,155.2l47.4-40.2L953.7,430.1z"/>
	</g>
	<g>
		<path class="st3" d="M1139,483.3c-0.5,0-1.1-0.1-1.6-0.3l-204.6-70.3c-2.3-0.8-3.7-3.1-3.3-5.5c0.4-2.4,2.4-4.2,4.9-4.2l217.4-2.6
			c1.5,0,2.9,0.6,3.9,1.8c1,1.1,1.4,2.6,1.1,4.1l-12.8,72.9c-0.3,1.4-1.1,2.7-2.4,3.4C1140.8,483,1139.9,483.3,1139,483.3z
			 M963.4,412.6l171.7,59l10.7-61.2L963.4,412.6z"/>
	</g>
	<g>
		<path class="st3" d="M934.4,412.9c-1.7,0-3.3-0.9-4.3-2.4c-1.3-2.1-0.9-4.8,1-6.4l163.6-143.1c1.1-1,2.6-1.4,4.1-1.2
			c1.5,0.2,2.8,1.1,3.5,2.4L1140,326c0.7,1.3,0.9,2.8,0.4,4.2c-0.5,1.4-1.5,2.5-2.9,3l-201.2,79.4
			C935.7,412.8,935,412.9,934.4,412.9z M1096.8,272.6L959.5,392.7l168.9-66.6L1096.8,272.6z"/>
	</g>
	<g>
		<path class="st3" d="M934.4,412.9c-0.5,0-1-0.1-1.5-0.2c-2.3-0.7-3.8-3-3.4-5.4l29.1-215.4c0.2-1.5,1-2.8,2.3-3.6
			c1.3-0.8,2.8-1,4.2-0.5l70.2,23.3c1.4,0.5,2.5,1.5,3.1,2.9c0.6,1.4,0.5,2.9-0.2,4.2l-99.4,192.1
			C938,411.9,936.2,412.9,934.4,412.9z M967.7,199.1L943.2,380l83.4-161.3L967.7,199.1z"/>
	</g>
	<g>
		<path class="st3" d="M822.1,597.9c-1.2,0-2.3-0.4-3.2-1.2l-56.4-47.9c-1.1-1-1.8-2.4-1.8-3.9c0-1.5,0.7-2.9,1.8-3.8l168.8-137
			c1.9-1.5,4.6-1.5,6.4,0.1c1.8,1.6,2.2,4.3,1,6.4L826.3,595.5c-0.8,1.3-2,2.1-3.5,2.3C822.6,597.8,822.3,597.9,822.1,597.9z
			 M773.5,545.1l47.4,40.2l94.3-155.2L773.5,545.1z"/>
	</g>
	<g>
		<path class="st3" d="M729.9,483.3c-0.9,0-1.8-0.2-2.5-0.7c-1.3-0.7-2.1-2-2.4-3.4l-12.8-72.9c-0.3-1.5,0.2-3,1.1-4.1
			c1-1.1,2.4-1.8,3.9-1.8l217.4,2.6c2.4,0,4.5,1.8,4.9,4.2c0.4,2.4-1,4.7-3.3,5.5L731.5,483C730.9,483.2,730.4,483.3,729.9,483.3z
			 M723,410.4l10.7,61.2l171.7-59L723,410.4z"/>
	</g>
	<g>
		<path class="st3" d="M934.4,412.9c-0.6,0-1.2-0.1-1.8-0.3l-201.2-79.4c-1.4-0.5-2.4-1.6-2.9-3c-0.5-1.4-0.3-2.9,0.4-4.2l37.6-63.7
			c0.8-1.3,2-2.2,3.5-2.4c1.5-0.2,3,0.2,4.1,1.2l163.6,143.1c1.8,1.6,2.2,4.3,1,6.4C937.8,412,936.1,412.9,934.4,412.9z M740.5,326
			l168.9,66.6L772,272.6L740.5,326z"/>
	</g>
	<g>
		<path class="st3" d="M934.4,412.9c-1.8,0-3.6-1-4.4-2.7l-99.4-192.1c-0.7-1.3-0.7-2.8-0.2-4.2c0.6-1.4,1.7-2.4,3.1-2.9l70.2-23.3
			c1.4-0.5,3-0.3,4.2,0.5c1.3,0.8,2.1,2.1,2.3,3.6l29.1,215.4c0.3,2.4-1.1,4.7-3.4,5.4C935.4,412.8,934.9,412.9,934.4,412.9z
			 M842.2,218.7L925.6,380l-24.4-180.8L842.2,218.7z"/>
	</g>
</g>
<g>
	<path class="st4" d="M1539.7,604.4c-108.8,0-197.3-88.5-197.3-197.3s88.5-197.3,197.3-197.3c34.2,0,68,8.9,97.5,25.8
		c1.5,0.8,2.3,2.5,2,4.2c-0.3,1.7-1.7,3-3.3,3.2c-80.4,12.2-141,82.7-141,164.1s60.6,151.9,141,164.1c1.7,0.3,3,1.5,3.3,3.2
		c0.3,1.7-0.5,3.4-2,4.2C1607.6,595.5,1573.9,604.4,1539.7,604.4z M1539.7,217.8c-104.4,0-189.3,84.9-189.3,189.3
		s84.9,189.3,189.3,189.3c29,0,57.7-6.7,83.6-19.4c-36.2-8-69.2-27.6-93.9-56c-27.5-31.6-42.6-72.1-42.6-113.9s15.1-82.3,42.6-113.9
		c24.6-28.4,57.6-48,93.9-56C1597.4,224.5,1568.7,217.8,1539.7,217.8z"/>
</g>
<g>
	<path class="st5" d="M2734.5,581.3h-261.8V363.7c0-72.2,58.7-130.9,130.9-130.9s130.9,58.7,130.9,130.9V581.3z M2480.6,573.3h245.8
		V363.7c0-67.8-55.1-122.9-122.9-122.9s-122.9,55.1-122.9,122.9V573.3z"/>
</g>
<g>
	<g>
		<g>
			<path class="st1" d="M534.9,923.6c-14.3,0-21.7-9.1-28.2-17c-6.3-7.7-12.3-15.1-24.1-15.1c-11.8,0-17.8,7.3-24.1,15.1
				c-6.5,8-13.9,17-28.2,17c-14.3,0-21.7-9.1-28.2-17c-6.3-7.7-12.3-15.1-24.1-15.1c-11.8,0-17.8,7.3-24.1,15.1
				c-6.5,8-13.9,17-28.2,17c-14.3,0-21.7-9.1-28.2-17c-6.3-7.7-12.3-15.1-24.1-15.1c-11.8,0-17.8,7.3-24.1,15.1
				c-6.5,8-13.9,17-28.2,17c-14.3,0-21.7-9.1-28.2-17c-6.3-7.7-12.3-15.1-24.1-15.1c-1.5,0-2.7-1.2-2.7-2.7c0-1.5,1.2-2.7,2.7-2.7
				c14.3,0,21.7,9.1,28.2,17c6.3,7.7,12.3,15.1,24.1,15.1c11.8,0,17.8-7.3,24.1-15.1c6.5-8,13.9-17,28.2-17c14.3,0,21.7,9.1,28.2,17
				c6.3,7.7,12.3,15.1,24.1,15.1c11.8,0,17.8-7.3,24.1-15.1c6.5-8,13.9-17,28.2-17c14.3,0,21.7,9.1,28.2,17
				c6.3,7.7,12.3,15.1,24.1,15.1c11.8,0,17.8-7.3,24.1-15.1c6.5-8,13.9-17,28.2-17c14.3,0,21.7,9.1,28.2,17
				c6.3,7.7,12.3,15.1,24.1,15.1c11.8,0,17.8-7.3,24.1-15.1c6.5-8,13.9-17,28.2-17c1.5,0,2.7,1.2,2.7,2.7c0,1.5-1.2,2.7-2.7,2.7
				c-11.8,0-17.8,7.3-24.1,15.1C556.6,914.5,549.2,923.6,534.9,923.6z"/>
		</g>
	</g>
	<g>
		<g>
			<path class="st1" d="M534.9,982.2c-14.3,0-21.7-9.1-28.2-17c-6.3-7.7-12.3-15.1-24.1-15.1c-11.8,0-17.8,7.3-24.1,15.1
				c-6.5,8-13.9,17-28.2,17c-14.3,0-21.7-9.1-28.2-17c-6.3-7.7-12.3-15.1-24.1-15.1c-11.8,0-17.8,7.3-24.1,15.1
				c-6.5,8-13.9,17-28.2,17c-14.3,0-21.7-9.1-28.2-17c-6.3-7.7-12.3-15.1-24.1-15.1c-11.8,0-17.8,7.3-24.1,15.1
				c-6.5,8-13.9,17-28.2,17c-14.3,0-21.7-9.1-28.2-17c-6.3-7.7-12.3-15.1-24.1-15.1c-1.5,0-2.7-1.2-2.7-2.7c0-1.5,1.2-2.7,2.7-2.7
				c14.3,0,21.7,9.1,28.2,17c6.3,7.7,12.3,15.1,24.1,15.1c11.8,0,17.8-7.3,24.1-15.1c6.5-8,13.9-17,28.2-17c14.3,0,21.7,9.1,28.2,17
				c6.3,7.7,12.3,15.1,24.1,15.1c11.8,0,17.8-7.3,24.1-15.1c6.5-8,13.9-17,28.2-17c14.3,0,21.7,9.1,28.2,17
				c6.3,7.7,12.3,15.1,24.1,15.1c11.8,0,17.8-7.3,24.1-15.1c6.5-8,13.9-17,28.2-17c14.3,0,21.7,9.1,28.2,17
				c6.3,7.7,12.3,15.1,24.1,15.1c11.8,0,17.8-7.3,24.1-15.1c6.5-8,13.9-17,28.2-17c1.5,0,2.7,1.2,2.7,2.7c0,1.5-1.2,2.7-2.7,2.7
				c-11.8,0-17.8,7.3-24.1,15.1C556.6,973.1,549.2,982.2,534.9,982.2z"/>
		</g>
	</g>
	<g>
		<g>
			<path class="st1" d="M534.9,1040.8c-14.3,0-21.7-9.1-28.2-17c-6.3-7.7-12.3-15.1-24.1-15.1c-11.8,0-17.8,7.3-24.1,15.1
				c-6.5,8-13.9,17-28.2,17c-14.3,0-21.7-9.1-28.2-17c-6.3-7.7-12.3-15.1-24.1-15.1c-11.8,0-17.8,7.3-24.1,15.1
				c-6.5,8-13.9,17-28.2,17c-14.3,0-21.7-9.1-28.2-17c-6.3-7.7-12.3-15.1-24.1-15.1c-11.8,0-17.8,7.3-24.1,15.1
				c-6.5,8-13.9,17-28.2,17c-14.3,0-21.7-9.1-28.2-17c-6.3-7.7-12.3-15.1-24.1-15.1c-1.5,0-2.7-1.2-2.7-2.7c0-1.5,1.2-2.7,2.7-2.7
				c14.3,0,21.7,9.1,28.2,17c6.3,7.7,12.3,15.1,24.1,15.1c11.8,0,17.8-7.3,24.1-15.1c6.5-8,13.9-17,28.2-17c14.3,0,21.7,9.1,28.2,17
				c6.3,7.7,12.3,15.1,24.1,15.1c11.8,0,17.8-7.3,24.1-15.1c6.5-8,13.9-17,28.2-17c14.3,0,21.7,9.1,28.2,17
				c6.3,7.7,12.3,15.1,24.1,15.1c11.8,0,17.8-7.3,24.1-15.1c6.5-8,13.9-17,28.2-17c14.3,0,21.7,9.1,28.2,17
				c6.3,7.7,12.3,15.1,24.1,15.1c11.8,0,17.8-7.3,24.1-15.1c6.5-8,13.9-17,28.2-17c1.5,0,2.7,1.2,2.7,2.7c0,1.5-1.2,2.7-2.7,2.7
				c-11.8,0-17.8,7.3-24.1,15.1C556.6,1031.7,549.2,1040.8,534.9,1040.8z"/>
		</g>
	</g>
</g>
<g>
	<path class="st3" d="M934.4,1159.9c-2.2,0-4.1-1.4-4.7-3.4l-22.5-67.2l-47.8,52.2c-1.5,1.6-3.8,2.1-5.7,1.2c-2-0.9-3.1-2.9-2.9-5
		l6.8-70.5l-65,28.3c-2,0.9-4.3,0.4-5.7-1.2c-1.4-1.6-1.7-3.9-0.6-5.8l34.9-61.7l-70.8-0.6c-2.2,0-4-1.4-4.7-3.5
		c-0.7-2,0.1-4.3,1.8-5.6l57-42.1l-64.5-29.4c-2-0.9-3.1-2.9-2.9-5.1c0.2-2.1,1.8-3.9,3.9-4.4l69.2-15.3l-47-53
		c-1.4-1.6-1.7-4-0.6-5.8c1.1-1.9,3.2-2.8,5.3-2.4l69.4,14.1l-21.3-67.6c-0.6-2.1,0.1-4.3,1.8-5.5c1.7-1.3,4.1-1.3,5.8,0l57.7,41.2
		l8-70.4c0.2-2.1,1.8-3.9,3.9-4.3c2.1-0.5,4.3,0.5,5.3,2.4l35.9,61l35.9-61c1.1-1.9,3.2-2.8,5.3-2.4c2.1,0.4,3.7,2.2,3.9,4.3l8,70.4
		l57.7-41.2c1.7-1.2,4.1-1.2,5.8,0c1.7,1.3,2.5,3.5,1.8,5.5l-21.3,67.6l69.4-14.1c2.1-0.4,4.3,0.5,5.3,2.4c1.1,1.9,0.8,4.2-0.6,5.8
		l-47,53l69.2,15.3c2.1,0.5,3.7,2.2,3.9,4.4c0.2,2.1-0.9,4.2-2.9,5.1l-64.5,29.4l57,42.1c1.7,1.3,2.4,3.5,1.8,5.6s-2.6,3.4-4.7,3.5
		l-70.8,0.6l34.9,61.7c1.1,1.9,0.8,4.2-0.6,5.8c-1.4,1.6-3.7,2.1-5.7,1.2l-65-28.3l6.8,70.5c0.2,2.1-1,4.2-2.9,5
		c-2,0.9-4.3,0.4-5.7-1.2l-47.8-52.2l-22.5,67.2C938.5,1158.6,936.6,1159.9,934.4,1159.9z M909.3,1074.7c0.3,0,0.7,0,1,0.1
		c1.7,0.4,3.1,1.6,3.7,3.3l20.4,61.1l20.4-61.1c0.6-1.7,2-2.9,3.7-3.3c1.7-0.4,3.5,0.2,4.7,1.5l43.5,47.5l-6.2-64.1
		c-0.2-1.8,0.6-3.5,2-4.5c1.4-1,3.3-1.2,4.9-0.5l59,25.7l-31.7-56c-0.9-1.5-0.9-3.4,0-5c0.9-1.5,2.5-2.5,4.3-2.5l64.4-0.5
		l-51.8-38.3c-1.4-1.1-2.2-2.8-2-4.5c0.2-1.8,1.3-3.3,2.9-4l58.6-26.7l-62.9-13.9c-1.7-0.4-3.1-1.7-3.7-3.3c-0.5-1.7-0.2-3.5,1-4.9
		l42.7-48.2l-63.1,12.8c-1.7,0.4-3.5-0.2-4.7-1.6s-1.6-3.2-1.1-4.9l19.4-61.4l-52.4,37.4c-1.4,1-3.3,1.2-4.9,0.5
		c-1.6-0.7-2.7-2.2-2.9-4l-7.3-64l-32.7,55.5c-0.9,1.5-2.5,2.5-4.3,2.5s-3.4-0.9-4.3-2.5l-32.7-55.5l-7.3,64c-0.2,1.8-1.3,3.3-2.9,4
		c-1.6,0.7-3.5,0.5-4.9-0.5l-52.4-37.4l19.4,61.4c0.5,1.7,0.1,3.5-1.1,4.9c-1.2,1.3-3,1.9-4.7,1.6l-63.1-12.8l42.7,48.2
		c1.2,1.3,1.6,3.2,1,4.9c-0.5,1.7-1.9,3-3.7,3.3l-62.9,13.9l58.6,26.7c1.6,0.7,2.7,2.3,2.9,4c0.2,1.8-0.6,3.5-2,4.5l-51.8,38.3
		l64.4,0.5c1.8,0,3.4,1,4.3,2.5c0.9,1.5,0.9,3.4,0,5l-31.7,56l59-25.7c1.6-0.7,3.5-0.5,4.9,0.5c1.4,1,2.2,2.8,2,4.5l-6.2,64.1
		l43.5-47.5C906.5,1075.3,907.9,1074.7,909.3,1074.7z"/>
</g>
<g>
	<g>
		<path class="st4" d="M1490.8,1136.3c-46.5,0-90.4-8.4-123.4-23.7c-34-15.7-52.7-37-52.7-59.9s18.7-44.2,52.7-59.9
			c33-15.3,76.8-23.7,123.4-23.7c46.5,0,90.4,8.4,123.4,23.7c34,15.7,52.7,37,52.7,59.9s-18.7,44.2-52.7,59.9
			C1581.2,1127.9,1537.3,1136.3,1490.8,1136.3z M1490.8,977.1c-45.4,0-88,8.1-120,22.9c-31,14.3-48.1,33-48.1,52.6
			c0,19.6,17.1,38.3,48.1,52.7c32,14.8,74.6,22.9,120,22.9c45.4,0,88-8.1,120-22.9c31-14.3,48.1-33,48.1-52.7
			c0-19.6-17.1-38.3-48.1-52.6C1578.8,985.2,1536.2,977.1,1490.8,977.1z"/>
	</g>
	<g>
		<path class="st4" d="M1490.8,1048.9c-46.5,0-90.4-8.4-123.4-23.7c-34-15.7-52.7-37-52.7-59.9c0-22.9,18.7-44.2,52.7-59.9
			c33-15.3,76.8-23.7,123.4-23.7c46.5,0,90.4,8.4,123.4,23.7c34,15.7,52.7,37,52.7,59.9c0,22.9-18.7,44.2-52.7,59.9
			C1581.2,1040.5,1537.3,1048.9,1490.8,1048.9z M1490.8,889.7c-45.4,0-88,8.1-120,22.9c-31,14.3-48.1,33-48.1,52.7
			c0,19.6,17.1,38.3,48.1,52.7c32,14.8,74.6,22.9,120,22.9c45.4,0,88-8.1,120-22.9c31-14.3,48.1-33,48.1-52.7
			c0-19.6-17.1-38.3-48.1-52.7C1578.8,897.9,1536.2,889.7,1490.8,889.7z"/>
	</g>
	<g>
		<path class="st4" d="M1490.8,957.8c-46.5,0-90.4-8.4-123.4-23.7c-34-15.7-52.7-37-52.7-59.9c0-22.9,18.7-44.2,52.7-59.9
			c33-15.3,76.8-23.7,123.4-23.7c46.5,0,90.4,8.4,123.4,23.7c34,15.7,52.7,37,52.7,59.9c0,22.9-18.7,44.2-52.7,59.9
			C1581.2,949.4,1537.3,957.8,1490.8,957.8z M1490.8,798.6c-45.4,0-88,8.1-120,22.9c-31,14.3-48.1,33-48.1,52.7
			c0,19.6,17.1,38.3,48.1,52.7c32,14.8,74.6,22.9,120,22.9c45.4,0,88-8.1,120-22.9c31-14.3,48.1-33,48.1-52.7
			c0-19.6-17.1-38.3-48.1-52.7C1578.8,806.8,1536.2,798.6,1490.8,798.6z"/>
	</g>
</g>
<g>
	<path class="st5" d="M2620.7,1158.4h-34.4V1005l-108.5,108.5l-24.3-24.3L2562,980.6h-153.4v-34.4H2562l-108.5-108.5l24.3-24.3
		l108.5,108.5V768.5h34.4v153.4l108.5-108.5l24.3,24.3l-108.5,108.5h153.4v34.4h-153.4l108.5,108.5l-24.3,24.3L2620.7,1005V1158.4z
		 M2594.4,1150.4h18.4V985.7l116.5,116.5l13-13l-116.5-116.5h164.7v-18.4h-164.7l116.5-116.5l-13-13l-116.5,116.5V776.5h-18.4v164.7
		l-116.5-116.5l-13,13l116.5,116.5h-164.7v18.4h164.7l-116.5,116.5l13,13l116.5-116.5V1150.4z"/>
</g>
<g>
	<g>
		<path class="st2" d="M2172,1129.9h-249.7c-2.8,0-5-2.2-5-5c0-62.1,58.2-112.6,129.8-112.6s129.8,50.5,129.8,112.6
			C2177,1127.7,2174.8,1129.9,2172,1129.9z M1927.5,1119.9h239.4c-3.1-54.3-55.6-97.6-119.7-97.6S1930.5,1065.6,1927.5,1119.9z"/>
	</g>
	<g>
		<path class="st2" d="M2172,1022.3h-249.7c-2.8,0-5-2.2-5-5c0-62.1,58.2-112.6,129.8-112.6s129.8,50.5,129.8,112.6
			C2177,1020,2174.8,1022.3,2172,1022.3z M1927.5,1012.3h239.4c-3.1-54.3-55.6-97.6-119.7-97.6S1930.5,958,1927.5,1012.3z"/>
	</g>
	<g>
		<path class="st2" d="M2172,914.6h-249.7c-2.8,0-5-2.2-5-5c0-62.1,58.2-112.6,129.8-112.6S2177,847.5,2177,909.6
			C2177,912.4,2174.8,914.6,2172,914.6z M1927.5,904.6h239.4c-3.1-54.3-55.6-97.6-119.7-97.6S1930.5,850.3,1927.5,904.6z"/>
	</g>
</g>
<g>
	<path class="st1" d="M551.5,1697.3c-0.5,0-1-0.1-1.5-0.3l-172-67.8l-172,67.8c-1.5,0.6-3.2,0.2-4.3-0.9c-1.1-1.1-1.5-2.8-0.9-4.3
		l67.8-172l-67.8-172c-0.6-1.5-0.2-3.2,0.9-4.3c1.1-1.1,2.8-1.5,4.3-0.9l172,67.8l172-67.8c1.5-0.6,3.2-0.2,4.3,0.9
		c1.1,1.1,1.5,2.8,0.9,4.3l-67.8,172l67.8,172c0.6,1.5,0.2,3.2-0.9,4.3C553.6,1696.9,552.6,1697.3,551.5,1697.3z M378,1621
		c0.5,0,1,0.1,1.5,0.3l164.9,65l-65-164.9c-0.4-0.9-0.4-2,0-2.9l65-164.9l-164.9,65c-0.9,0.4-2,0.4-2.9,0l-164.9-65l65,164.9
		c0.4,0.9,0.4,2,0,2.9l-65,164.9l164.9-65C377,1621.1,377.5,1621,378,1621z"/>
</g>
<g>
	<g>
		<path class="st3" d="M934.4,1715.7c-108,0-195.9-87.9-195.9-195.9c0-108,87.9-195.9,195.9-195.9c108,0,195.9,87.9,195.9,195.9
			C1130.3,1627.8,1042.4,1715.7,934.4,1715.7z M934.4,1334c-102.5,0-185.9,83.4-185.9,185.9c0,102.5,83.4,185.9,185.9,185.9
			c102.5,0,185.9-83.4,185.9-185.9C1120.3,1417.3,1036.9,1334,934.4,1334z"/>
	</g>
	<g>
		<ellipse class="st3" cx="876" cy="1476.1" rx="13.2" ry="51.9"/>
	</g>
	<g>
		<ellipse class="st3" cx="992.9" cy="1476.1" rx="13.2" ry="51.9"/>
	</g>
	<g>
		<path class="st3" d="M1054.3,1615.5c-1,0-1.9-0.4-2.6-1.3c-28.2-37-70.9-58.2-117.4-58.2s-89.2,21.2-117.4,58.2
			c-1.1,1.4-3.1,1.7-4.5,0.6c-1.4-1.1-1.7-3.1-0.6-4.5c29.4-38.6,74-60.7,122.5-60.7s93.1,22.1,122.5,60.7c1.1,1.4,0.8,3.4-0.6,4.5
			C1055.7,1615.3,1055,1615.5,1054.3,1615.5z"/>
	</g>
</g>
<g>
	<path class="st4" d="M1676.4,1709.4h-16.8c-2.2,0-4-1.8-4-4c0-8.9-7.2-16.1-16.1-16.1s-16.1,7.2-16.1,16.1c0,2.2-1.8,4-4,4h-9.4
		c-2.2,0-4-1.8-4-4c0-8.9-7.2-16.1-16.1-16.1s-16.1,7.2-16.1,16.1c0,2.2-1.8,4-4,4h-9.4c-2.2,0-4-1.8-4-4c0-8.9-7.2-16.1-16.1-16.1
		s-16.1,7.2-16.1,16.1c0,2.2-1.8,4-4,4h-9.4c-2.2,0-4-1.8-4-4c0-8.9-7.2-16.1-16.1-16.1s-16.1,7.2-16.1,16.1c0,2.2-1.8,4-4,4h-9.4
		c-2.2,0-4-1.8-4-4c0-8.9-7.2-16.1-16.1-16.1c-8.9,0-16.1,7.2-16.1,16.1c0,2.2-1.8,4-4,4h-9.4c-2.2,0-4-1.8-4-4
		c0-8.9-7.2-16.1-16.1-16.1c-8.9,0-16.1,7.2-16.1,16.1c0,2.2-1.8,4-4,4h-9.4c-2.2,0-4-1.8-4-4c0-8.9-7.2-16.1-16.1-16.1
		c-8.9,0-16.1,7.2-16.1,16.1c0,2.2-1.8,4-4,4h-16.8c-2.2,0-4-1.8-4-4v-16.8c0-2.2,1.8-4,4-4c8.9,0,16.1-7.2,16.1-16.1
		s-7.2-16.1-16.1-16.1c-2.2,0-4-1.8-4-4v-9.4c0-2.2,1.8-4,4-4c8.9,0,16.1-7.2,16.1-16.1s-7.2-16.1-16.1-16.1c-2.2,0-4-1.8-4-4v-9.4
		c0-2.2,1.8-4,4-4c8.9,0,16.1-7.2,16.1-16.1s-7.2-16.1-16.1-16.1c-2.2,0-4-1.8-4-4v-9.4c0-2.2,1.8-4,4-4c8.9,0,16.1-7.2,16.1-16.1
		s-7.2-16.1-16.1-16.1c-2.2,0-4-1.8-4-4v-9.4c0-2.2,1.8-4,4-4c8.9,0,16.1-7.2,16.1-16.1s-7.2-16.1-16.1-16.1c-2.2,0-4-1.8-4-4v-9.4
		c0-2.2,1.8-4,4-4c8.9,0,16.1-7.2,16.1-16.1s-7.2-16.1-16.1-16.1c-2.2,0-4-1.8-4-4v-9.4c0-2.2,1.8-4,4-4c8.9,0,16.1-7.2,16.1-16.1
		s-7.2-16.1-16.1-16.1c-2.2,0-4-1.8-4-4v-16.8c0-2.2,1.8-4,4-4h16.8c2.2,0,4,1.8,4,4c0,8.9,7.2,16.1,16.1,16.1
		c8.9,0,16.1-7.2,16.1-16.1c0-2.2,1.8-4,4-4h9.4c2.2,0,4,1.8,4,4c0,8.9,7.2,16.1,16.1,16.1c8.9,0,16.1-7.2,16.1-16.1
		c0-2.2,1.8-4,4-4h9.4c2.2,0,4,1.8,4,4c0,8.9,7.2,16.1,16.1,16.1c8.9,0,16.1-7.2,16.1-16.1c0-2.2,1.8-4,4-4h9.4c2.2,0,4,1.8,4,4
		c0,8.9,7.2,16.1,16.1,16.1s16.1-7.2,16.1-16.1c0-2.2,1.8-4,4-4h9.4c2.2,0,4,1.8,4,4c0,8.9,7.2,16.1,16.1,16.1s16.1-7.2,16.1-16.1
		c0-2.2,1.8-4,4-4h9.4c2.2,0,4,1.8,4,4c0,8.9,7.2,16.1,16.1,16.1s16.1-7.2,16.1-16.1c0-2.2,1.8-4,4-4h9.4c2.2,0,4,1.8,4,4
		c0,8.9,7.2,16.1,16.1,16.1s16.1-7.2,16.1-16.1c0-2.2,1.8-4,4-4h16.8c2.2,0,4,1.8,4,4v16.8c0,2.2-1.8,4-4,4
		c-8.9,0-16.1,7.2-16.1,16.1s7.2,16.1,16.1,16.1c2.2,0,4,1.8,4,4v9.4c0,2.2-1.8,4-4,4c-8.9,0-16.1,7.2-16.1,16.1s7.2,16.1,16.1,16.1
		c2.2,0,4,1.8,4,4v9.4c0,2.2-1.8,4-4,4c-8.9,0-16.1,7.2-16.1,16.1s7.2,16.1,16.1,16.1c2.2,0,4,1.8,4,4v9.4c0,2.2-1.8,4-4,4
		c-8.9,0-16.1,7.2-16.1,16.1s7.2,16.1,16.1,16.1c2.2,0,4,1.8,4,4v9.4c0,2.2-1.8,4-4,4c-8.9,0-16.1,7.2-16.1,16.1s7.2,16.1,16.1,16.1
		c2.2,0,4,1.8,4,4v9.4c0,2.2-1.8,4-4,4c-8.9,0-16.1,7.2-16.1,16.1s7.2,16.1,16.1,16.1c2.2,0,4,1.8,4,4v9.4c0,2.2-1.8,4-4,4
		c-8.9,0-16.1,7.2-16.1,16.1s7.2,16.1,16.1,16.1c2.2,0,4,1.8,4,4v16.8C1680.4,1707.6,1678.6,1709.4,1676.4,1709.4z M1663.2,1701.4
		h9.2v-9.2c-11.4-1.9-20.1-11.8-20.1-23.7s8.7-21.8,20.1-23.7v-2.1c-11.4-1.9-20.1-11.8-20.1-23.7s8.7-21.8,20.1-23.7v-2.1
		c-11.4-1.9-20.1-11.8-20.1-23.7s8.7-21.8,20.1-23.7v-2.1c-11.4-1.9-20.1-11.8-20.1-23.7s8.7-21.8,20.1-23.7v-2.1
		c-11.4-1.9-20.1-11.8-20.1-23.7s8.7-21.8,20.1-23.7v-2.1c-11.4-1.9-20.1-11.8-20.1-23.7s8.7-21.8,20.1-23.7v-2.1
		c-11.4-1.9-20.1-11.8-20.1-23.7s8.7-21.8,20.1-23.7v-9.2h-9.2c-1.9,11.4-11.8,20.1-23.7,20.1s-21.8-8.7-23.7-20.1h-2.1
		c-1.9,11.4-11.8,20.1-23.7,20.1s-21.8-8.7-23.7-20.1h-2.1c-1.9,11.4-11.8,20.1-23.7,20.1s-21.8-8.7-23.7-20.1h-2.1
		c-1.9,11.4-11.8,20.1-23.7,20.1c-11.9,0-21.8-8.7-23.7-20.1h-2.1c-1.9,11.4-11.8,20.1-23.7,20.1s-21.8-8.7-23.7-20.1h-2.1
		c-1.9,11.4-11.8,20.1-23.7,20.1s-21.8-8.7-23.7-20.1h-2.1c-1.9,11.4-11.8,20.1-23.7,20.1s-21.8-8.7-23.7-20.1h-9.2v9.2
		c11.4,1.9,20.1,11.8,20.1,23.7s-8.7,21.8-20.1,23.7v2.1c11.4,1.9,20.1,11.8,20.1,23.7s-8.7,21.8-20.1,23.7v2.1
		c11.4,1.9,20.1,11.8,20.1,23.7s-8.7,21.8-20.1,23.7v2.1c11.4,1.9,20.1,11.8,20.1,23.7s-8.7,21.8-20.1,23.7v2.1
		c11.4,1.9,20.1,11.8,20.1,23.7s-8.7,21.8-20.1,23.7v2.1c11.4,1.9,20.1,11.8,20.1,23.7s-8.7,21.8-20.1,23.7v2.1
		c11.4,1.9,20.1,11.8,20.1,23.7s-8.7,21.8-20.1,23.7v9.2h9.2c1.9-11.4,11.8-20.1,23.7-20.1s21.8,8.7,23.7,20.1h2.1
		c1.9-11.4,11.8-20.1,23.7-20.1s21.8,8.7,23.7,20.1h2.1c1.9-11.4,11.8-20.1,23.7-20.1s21.8,8.7,23.7,20.1h2.1
		c1.9-11.4,11.8-20.1,23.7-20.1c11.9,0,21.8,8.7,23.7,20.1h2.1c1.9-11.4,11.8-20.1,23.7-20.1s21.8,8.7,23.7,20.1h2.1
		c1.9-11.4,11.8-20.1,23.7-20.1s21.8,8.7,23.7,20.1h2.1c1.9-11.4,11.8-20.1,23.7-20.1S1661.3,1690,1663.2,1701.4z"/>
</g>
<g>
	<path class="st2" d="M2047.2,1679.6c-116.1,0-210.6-94.5-210.6-210.6v-1.1c0-0.4,0-0.8,0-1.4c0.3-28.5,11.7-55.2,31.9-75.2
		c20.3-20.1,47.2-31.2,75.8-31.2c48.1,0,89,31.7,102.8,75.3c13.8-43.6,54.7-75.3,102.8-75.3c28.6,0,55.5,11.1,75.8,31.2
		c20.3,20.1,31.6,46.8,31.9,75.2c0,0.5,0,1,0,1.4v1.1C2257.8,1585.1,2163.3,1679.6,2047.2,1679.6z M1944.4,1370.1
		c-53.4,0-97.2,43.4-97.8,96.7c0,0.1,0,0.3,0,0.4c0,0.2,0,0.4,0,0.7v1.1c0,110.6,90,200.6,200.6,200.6c110.6,0,200.6-90,200.6-200.6
		v-1.1c0-0.2,0-0.4,0-0.7c0-0.1,0-0.3,0-0.4c-0.5-53.3-44.4-96.7-97.8-96.7c-53.9,0-97.8,43.9-97.8,97.8c0,2.8-2.2,5-5,5s-5-2.2-5-5
		C2042.2,1413.9,1998.3,1370.1,1944.4,1370.1z"/>
</g>
<g>
	<g>
		<path class="st5" d="M2603.6,1714.7c-107.5,0-194.9-87.4-194.9-194.9s87.4-194.9,194.9-194.9s194.9,87.4,194.9,194.9
			S2711,1714.7,2603.6,1714.7z M2603.6,1333c-103,0-186.9,83.8-186.9,186.9s83.8,186.9,186.9,186.9s186.9-83.8,186.9-186.9
			S2706.6,1333,2603.6,1333z"/>
	</g>
	<g>
		<ellipse class="st5" cx="2545.1" cy="1476.1" rx="13.2" ry="51.9"/>
	</g>
	<g>
		<ellipse class="st5" cx="2662" cy="1476.1" rx="13.2" ry="51.9"/>
	</g>
	<g>
		<path class="st5" d="M2723.5,1561c-1,0-1.9,0.4-2.6,1.3c-28.2,37-70.9,58.2-117.4,58.2s-89.2-21.2-117.4-58.2
			c-1.1-1.4-3.1-1.7-4.5-0.6c-1.4,1.1-1.7,3.1-0.6,4.5c29.4,38.6,74,60.7,122.5,60.7s93.1-22.1,122.5-60.7c1.1-1.4,0.8-3.4-0.6-4.5
			C2724.8,1561.2,2724.1,1561,2723.5,1561z"/>
	</g>
</g>
<g>
	<g>
		<path class="st3" d="M1136.3,2182.1c-2.8,0-5-2.2-5-5c0-108.6-88.3-196.9-196.9-196.9s-196.9,88.3-196.9,196.9c0,2.8-2.2,5-5,5
			c-2.8,0-5-2.2-5-5c0-114.1,92.8-206.9,206.9-206.9c114.1,0,206.9,92.8,206.9,206.9C1141.3,2179.9,1139.1,2182.1,1136.3,2182.1z"/>
	</g>
	<g>
		<path class="st3" d="M1106.3,2182.1c-2.8,0-5-2.2-5-5c0-92-74.9-166.9-166.9-166.9s-166.9,74.9-166.9,166.9c0,2.8-2.2,5-5,5
			c-2.8,0-5-2.2-5-5c0-97.6,79.4-176.9,176.9-176.9c97.6,0,176.9,79.4,176.9,176.9C1111.3,2179.9,1109.1,2182.1,1106.3,2182.1z"/>
	</g>
	<g>
		<path class="st3" d="M1076.4,2182.1c-2.8,0-5-2.2-5-5c0-75.5-61.4-137-137-137c-75.5,0-137,61.4-137,137c0,2.8-2.2,5-5,5
			c-2.8,0-5-2.2-5-5c0-81,65.9-147,147-147c81,0,147,65.9,147,147C1081.4,2179.9,1079.1,2182.1,1076.4,2182.1z"/>
	</g>
	<g>
		<path class="st3" d="M1046.4,2182.1c-2.8,0-5-2.2-5-5c0-59-48-107-107-107s-107,48-107,107c0,2.8-2.2,5-5,5c-2.8,0-5-2.2-5-5
			c0-64.5,52.5-117,117-117c64.5,0,117,52.5,117,117C1051.4,2179.9,1049.2,2182.1,1046.4,2182.1z"/>
	</g>
	<g>
		<path class="st3" d="M1016.5,2182.1c-2.8,0-5-2.2-5-5c0-42.5-34.6-77-77-77c-42.5,0-77,34.6-77,77c0,2.8-2.2,5-5,5s-5-2.2-5-5
			c0-48,39-87,87-87s87,39,87,87C1021.5,2179.9,1019.2,2182.1,1016.5,2182.1z"/>
	</g>
</g>
<g>
	<path class="st4" d="M1631.1,2245.3c-31.7,0-84.7-34.6-140.3-115.7c-60.1,87.7-117.2,121-147.6,115c-11.2-2.2-18.5-9.6-20.8-20.8
		c-6.1-30.4,27.2-87.6,115-147.6c-87.7-60.1-121-117.2-115-147.6c2.2-11.2,9.6-18.5,20.8-20.8c30.4-6.1,87.6,27.2,147.6,115
		c60.1-87.7,117.2-121.1,147.6-115c11.2,2.2,18.5,9.6,20.8,20.8c6.1,30.4-27.2,87.6-115,147.6c87.7,60.1,121,117.2,115,147.6
		c-2.2,11.2-9.6,18.5-20.8,20.8C1636.1,2245.1,1633.7,2245.3,1631.1,2245.3z M1350.7,1915.1c-2.1,0-4.1,0.2-6,0.6
		c-7.9,1.6-12.9,6.6-14.5,14.5c-5.5,27.5,28.6,83.8,116.5,142.8c1.1,0.7,1.8,2,1.8,3.3s-0.7,2.6-1.8,3.3
		c-87.9,58.9-122,115.3-116.5,142.8c1.6,7.9,6.6,12.9,14.5,14.5c27.5,5.5,83.8-28.6,142.8-116.5c0.7-1.1,2-1.8,3.3-1.8
		s2.6,0.7,3.3,1.8c58.9,87.8,115.3,122,142.8,116.5c7.9-1.6,12.9-6.6,14.5-14.5c5.5-27.5-28.6-83.8-116.5-142.8
		c-1.1-0.7-1.8-2-1.8-3.3s0.7-2.6,1.8-3.3c87.8-58.9,122-115.3,116.5-142.8c-1.6-7.9-6.6-12.9-14.5-14.5
		c-27.5-5.5-83.8,28.6-142.8,116.5c-0.7,1.1-2,1.8-3.3,1.8s-2.6-0.7-3.3-1.8C1432.6,1950.3,1379.9,1915.1,1350.7,1915.1z"/>
</g>
<g>
	<path class="st1" d="M472.5,2255.5c-1.8,0-3.7,0-5.5-0.1c-28.2-1.4-58.9-13.4-88.9-34.6c-30,21.2-60.7,33.2-88.9,34.6
		c-26.7,1.3-50.4-7-66.8-23.4s-24.7-40.2-23.4-66.8c1.4-28.2,13.4-58.9,34.6-88.9c-21.2-30-33.2-60.7-34.6-88.9
		c-1.3-26.7,7-50.4,23.4-66.8c16.4-16.4,40.2-24.7,66.8-23.4c28.2,1.4,58.9,13.4,88.9,34.6c30-21.2,60.7-33.2,88.9-34.6
		c26.7-1.3,50.4,7,66.8,23.4c16.4,16.4,24.7,40.1,23.4,66.8c-1.4,28.2-13.4,58.9-34.6,88.9c21.2,30,33.2,60.7,34.6,88.9
		c1.3,26.7-7,50.4-23.4,66.8C518.5,2247.2,496.9,2255.5,472.5,2255.5z M378,2211.8c0.8,0,1.6,0.3,2.3,0.8
		c29.5,21.4,59.6,33.4,87,34.8c24.4,1.2,46-6.3,60.8-21.1c14.8-14.8,22.3-36.4,21.1-60.8c-1.4-27.4-13.4-57.5-34.8-87
		c-1-1.4-1-3.3,0-4.7c21.4-29.5,33.4-59.6,34.8-87c1.2-24.4-6.3-46-21.1-60.8s-36.4-22.3-60.8-21.1c-27.4,1.4-57.5,13.4-87,34.8
		c-1.4,1-3.3,1-4.7,0c-29.5-21.4-59.6-33.4-87-34.8c-24.4-1.2-46,6.3-60.8,21.1c-14.8,14.8-22.3,36.4-21.1,60.8
		c1.4,27.4,13.4,57.5,34.8,87c1,1.4,1,3.3,0,4.7c-21.4,29.5-33.4,59.6-34.8,87c-1.2,24.4,6.3,46,21.1,60.8
		c14.8,14.8,36.4,22.3,60.8,21.1c27.4-1.4,57.5-13.4,87-34.8C376.4,2212.1,377.2,2211.8,378,2211.8z"/>
</g>
<g>
	<g>
		<path class="st2" d="M2047.2,2265.8c-104.5,0-189.6-85-189.6-189.6s85-189.6,189.6-189.6s189.6,85,189.6,189.6
			S2151.7,2265.8,2047.2,2265.8z M2047.2,1896.6c-99,0-179.6,80.6-179.6,179.6s80.6,179.6,179.6,179.6s179.6-80.6,179.6-179.6
			S2146.2,1896.6,2047.2,1896.6z"/>
	</g>
	<g>
		<path class="st2" d="M2047.2,2232.6c-86.2,0-156.4-70.2-156.4-156.4c0-86.2,70.2-156.4,156.4-156.4c86.2,0,156.4,70.2,156.4,156.4
			C2203.6,2162.4,2133.4,2232.6,2047.2,2232.6z M2047.2,1929.8c-80.7,0-146.4,65.7-146.4,146.4s65.7,146.4,146.4,146.4
			s146.4-65.7,146.4-146.4S2127.9,1929.8,2047.2,1929.8z"/>
	</g>
	<g>
		<path class="st2" d="M2047.2,2199.4c-67.9,0-123.2-55.3-123.2-123.2s55.3-123.2,123.2-123.2s123.2,55.3,123.2,123.2
			S2115.1,2199.4,2047.2,2199.4z M2047.2,1963c-62.4,0-113.2,50.8-113.2,113.2s50.8,113.2,113.2,113.2s113.2-50.8,113.2-113.2
			S2109.6,1963,2047.2,1963z"/>
	</g>
	<g>
		<path class="st2" d="M2047.2,2166.3c-49.7,0-90.1-40.4-90.1-90.1s40.4-90.1,90.1-90.1s90.1,40.4,90.1,90.1
			S2096.8,2166.3,2047.2,2166.3z M2047.2,1996.1c-44.1,0-80.1,35.9-80.1,80.1s35.9,80.1,80.1,80.1s80.1-35.9,80.1-80.1
			S2091.3,1996.1,2047.2,1996.1z"/>
	</g>
	<g>
		<path class="st2" d="M2047.2,2133.1c-31.4,0-56.9-25.5-56.9-56.9s25.5-56.9,56.9-56.9s56.9,25.5,56.9,56.9
			S2078.5,2133.1,2047.2,2133.1z M2047.2,2029.3c-25.9,0-46.9,21-46.9,46.9s21,46.9,46.9,46.9s46.9-21,46.9-46.9
			S2073,2029.3,2047.2,2029.3z"/>
	</g>
</g>
<g>
	<g>
		<g>
			<path class="st5" d="M2656.2,2027.4c-1,0-1.9-0.3-2.8-0.8l-49.8-30.4l-49.8,30.4c-1.7,1-3.9,1-5.6,0l-49.8-30.4l-49.8,30.4
				c-1.7,1-3.9,1-5.6,0l-52.6-32.1c-2.5-1.5-3.3-4.8-1.8-7.4c1.5-2.5,4.8-3.3,7.4-1.8l49.8,30.4l49.8-30.4c1.7-1,3.9-1,5.6,0
				l49.8,30.4l49.8-30.4c1.7-1,3.9-1,5.6,0l49.8,30.4l49.8-30.4c1.7-1,3.9-1,5.6,0l49.9,30.4l49.9-30.4c2.5-1.5,5.8-0.7,7.4,1.8
				c1.5,2.5,0.7,5.8-1.8,7.4l-52.6,32.1c-1.7,1-3.9,1-5.6,0l-49.9-30.4l-49.8,30.4C2658.1,2027.2,2657.1,2027.4,2656.2,2027.4z"/>
		</g>
	</g>
	<g>
		<g>
			<path class="st5" d="M2656.2,2097.6c-1,0-1.9-0.3-2.8-0.8l-49.8-30.4l-49.8,30.4c-1.7,1-3.9,1-5.6,0l-49.8-30.4l-49.8,30.4
				c-1.7,1-3.9,1-5.6,0l-52.6-32.1c-2.5-1.5-3.3-4.8-1.8-7.4c1.5-2.5,4.8-3.3,7.4-1.8l49.8,30.4l49.8-30.4c1.7-1,3.9-1,5.6,0
				l49.8,30.4l49.8-30.4c1.7-1,3.9-1,5.6,0l49.8,30.4l49.8-30.4c1.7-1,3.9-1,5.6,0l49.9,30.4l49.9-30.4c2.5-1.5,5.8-0.7,7.4,1.8
				c1.5,2.5,0.7,5.8-1.8,7.4l-52.6,32.1c-1.7,1-3.9,1-5.6,0l-49.9-30.4l-49.8,30.4C2658.1,2097.3,2657.1,2097.6,2656.2,2097.6z"/>
		</g>
	</g>
	<g>
		<g>
			<path class="st5" d="M2656.2,2167.8c-1,0-1.9-0.3-2.8-0.8l-49.8-30.4l-49.8,30.4c-1.7,1-3.9,1-5.6,0l-49.8-30.4l-49.8,30.4
				c-1.7,1-3.9,1-5.6,0l-52.6-32.1c-2.5-1.5-3.3-4.8-1.8-7.4c1.5-2.5,4.8-3.3,7.4-1.8l49.8,30.4l49.8-30.4c1.7-1,3.9-1,5.6,0
				l49.8,30.4l49.8-30.4c1.7-1,3.9-1,5.6,0l49.8,30.4l49.8-30.4c1.7-1,3.9-1,5.6,0l49.9,30.4l49.9-30.4c2.5-1.5,5.8-0.7,7.4,1.8
				c1.5,2.5,0.7,5.8-1.8,7.4l-52.6,32.1c-1.7,1-3.9,1-5.6,0l-49.9-30.4L2659,2167C2658.1,2167.5,2657.1,2167.8,2656.2,2167.8z"/>
		</g>
	</g>
</g>
<g>
	<g>
		<path class="st1" d="M540.5,2799.1h-325c-2.2,0-4-1.8-4-4c0-91.8,74.7-166.5,166.5-166.5c91.8,0,166.5,74.7,166.5,166.5
			C544.5,2797.3,542.7,2799.1,540.5,2799.1z M219.6,2791.1h316.9c-2.1-85.5-72.4-154.5-158.4-154.5
			C292,2636.6,221.7,2705.5,219.6,2791.1z"/>
	</g>
	<g>
		<path class="st1" d="M378,2636.6c-91.8,0-166.5-74.7-166.5-166.5c0-2.2,1.8-4,4-4h325c2.2,0,4,1.8,4,4
			C544.5,2561.9,469.8,2636.6,378,2636.6z M219.6,2474.1c2.1,85.5,72.4,154.5,158.4,154.5c86,0,156.3-68.9,158.4-154.5H219.6z"/>
	</g>
</g>
<g>
	<path class="st3" d="M1095.4,2798.5c-87.3,0-169.4-34-231.2-95.7c-61.7-61.7-95.7-143.8-95.7-231.2c0-2.8,2.2-5,5-5
		c87.3,0,169.4,34,231.2,95.7c61.7,61.7,95.7,143.8,95.7,231.2C1100.4,2796.3,1098.1,2798.5,1095.4,2798.5z M778.5,2476.7
		c2.7,170.7,141.1,309.1,311.8,311.8C1087.7,2617.8,949.3,2479.3,778.5,2476.7z"/>
</g>
<g>
	<path class="st4" d="M1512.5,2821.7c-6.5,0-12.1-3.9-14.5-10.1c-1.4-3.6-4.6-4.9-7.2-4.9c-2.6,0-5.8,1.3-7.2,4.9
		c-2.6,6.9-9.3,10.8-16.6,9.9c-7.3-0.9-12.8-6.4-13.6-13.7c-0.5-3.9-3.3-5.9-5.7-6.6c-2.5-0.6-5.9-0.2-8.2,3
		c-4.3,6-11.7,8.2-18.6,5.5c-6.8-2.7-10.8-9.4-9.8-16.7c0.5-3.9-1.7-6.5-3.9-7.8c-2.2-1.2-5.7-1.7-8.7,0.9c-5.6,4.7-13.4,5-19.3,0.7
		c-5.9-4.3-8.1-11.8-5.3-18.6c1.5-3.6,0-6.8-1.9-8.5c-1.9-1.7-5.1-3-8.6-1.3c-6.6,3.2-14.2,1.5-18.9-4.1c-4.7-5.7-4.9-13.4-0.5-19.3
		c2.3-3.1,1.7-6.5,0.3-8.7c-1.4-2.2-4.2-4.2-8-3.4c-7.2,1.4-14.2-2.1-17.3-8.7c-3.1-6.7-1.4-14.2,4.3-18.9c3-2.5,3.3-5.9,2.5-8.3
		c-0.8-2.4-3-5.1-6.9-5.3c-7.3-0.4-13.2-5.5-14.6-12.7c-1.4-7.2,2.2-14.1,8.9-17.2c3.5-1.6,4.6-4.9,4.5-7.5
		c-0.2-2.5-1.7-5.7-5.4-6.9c-7-2.2-11.4-8.6-11-16c0.5-7.3,5.6-13.1,12.9-14.5c3.8-0.7,5.7-3.6,6.2-6.1c0.5-2.5-0.2-5.9-3.5-8
		c-6.2-3.9-8.9-11.2-6.6-18.2c2.3-7,8.7-11.3,16.1-10.8c3.9,0.3,6.4-2.1,7.5-4.4s1.3-5.8-1.4-8.6c-5.1-5.3-5.9-13-1.9-19.3
		c3.9-6.2,11.3-8.8,18.2-6.5c3.7,1.2,6.7-0.4,8.4-2.4c1.6-2,2.7-5.3,0.8-8.7c-3.6-6.4-2.4-14.1,2.9-19.1c5.4-5,13.1-5.7,19.3-1.7
		c3.3,2.1,6.6,1.3,8.7-0.2c2.1-1.5,3.9-4.4,2.9-8.2c-1.9-7.1,1.2-14.3,7.6-17.8c6.4-3.5,14.1-2.3,19.1,3.1c2.6,2.9,6.1,2.9,8.5,1.9
		c2.4-0.9,4.9-3.3,4.9-7.2c-0.1-7.4,4.7-13.5,11.8-15.3c7.1-1.8,14.2,1.3,17.7,7.8c1.8,3.4,5.2,4.3,7.7,4c2.5-0.3,5.6-2,6.5-5.8
		c1.8-7.1,7.9-11.9,15.2-11.9c0,0,0,0,0,0c7.4,0,13.5,4.8,15.2,11.9v0c0.9,3.8,4,5.5,6.5,5.8c2.5,0.3,5.9-0.6,7.7-4
		c3.5-6.5,10.6-9.6,17.7-7.8c7.1,1.8,11.9,8,11.8,15.3c0,3.9,2.5,6.3,4.9,7.2c2.4,0.9,5.8,0.9,8.5-1.9c5-5.4,12.7-6.7,19.1-3.1
		c6.4,3.5,9.5,10.7,7.6,17.8c-1,3.8,0.8,6.7,2.9,8.2c2.1,1.5,5.4,2.3,8.7,0.2c6.2-4,13.9-3.3,19.3,1.7c5.4,5,6.5,12.7,2.9,19.1
		c-1.9,3.4-0.8,6.7,0.8,8.7c1.6,2,4.7,3.6,8.4,2.4c7-2.3,14.3,0.3,18.2,6.5c3.9,6.2,3.2,13.9-1.9,19.3c-2.7,2.8-2.5,6.3-1.4,8.6
		s3.6,4.7,7.5,4.4c7.3-0.5,13.8,3.8,16.1,10.8c2.3,7-0.4,14.3-6.6,18.2c-3.3,2.1-4,5.5-3.5,8c0.5,2.5,2.4,5.4,6.2,6.1
		c7.2,1.3,12.4,7.1,12.9,14.5c0.5,7.3-3.9,13.7-11,16c-3.7,1.2-5.2,4.3-5.4,6.9c-0.2,2.5,0.9,5.8,4.5,7.5c6.7,3.1,10.2,10,8.9,17.2
		c-1.4,7.2-7.2,12.3-14.6,12.7c-3.9,0.2-6.1,2.9-6.9,5.3c-0.8,2.4-0.6,5.9,2.5,8.3c5.7,4.6,7.4,12.2,4.3,18.9
		c-3.1,6.7-10.1,10.1-17.3,8.7c-3.8-0.8-6.6,1.3-8,3.4c-1.4,2.2-2,5.6,0.3,8.7c4.4,5.9,4.2,13.7-0.5,19.3
		c-4.7,5.7-12.3,7.3-18.9,4.1c-3.5-1.7-6.7-0.4-8.6,1.3c-1.9,1.7-3.3,4.9-1.9,8.5c2.8,6.8,0.6,14.3-5.3,18.6
		c-5.9,4.3-13.7,4-19.3-0.7c-3-2.5-6.4-2.1-8.7-0.9c-2.2,1.2-4.4,3.9-3.9,7.8c1,7.3-2.9,14-9.8,16.7c-6.8,2.7-14.3,0.5-18.6-5.5
		c-2.3-3.2-5.7-3.6-8.2-3c-2.5,0.6-5.3,2.7-5.7,6.6c-0.9,7.3-6.3,12.8-13.6,13.7C1513.9,2821.6,1513.2,2821.7,1512.5,2821.7z
		 M1490.8,2798.7c6.5,0,12.3,3.9,14.6,10.1c1.6,4.1,5.3,5.2,8.1,4.9c2.9-0.4,6.2-2.3,6.7-6.7c0.8-6.5,5.3-11.8,11.7-13.4
		c6.3-1.6,12.9,0.8,16.7,6.1c2.6,3.6,6.4,3.8,9.1,2.7c2.7-1.1,5.4-3.8,4.8-8.2c-0.9-6.5,2.3-12.7,8-15.9c5.7-3.2,12.7-2.5,17.7,1.8
		c3.4,2.9,7.1,2.1,9.5,0.3c2.4-1.7,4.3-5,2.6-9.1c-2.5-6.1-1-12.9,3.8-17.4c4.8-4.5,11.7-5.5,17.6-2.7c4,1.9,7.4,0.2,9.3-2
		c1.9-2.2,2.9-5.9,0.3-9.5c-3.9-5.3-4.1-12.2-0.6-17.7c3.5-5.5,9.9-8.3,16.3-7c4.4,0.9,7.2-1.6,8.5-4.3c1.2-2.6,1.3-6.4-2.1-9.2
		c-5.1-4.1-7.1-10.8-5-17c2-6.2,7.6-10.5,14.1-10.8c4.4-0.2,6.6-3.4,7.1-6.2c0.5-2.9-0.3-6.6-4.3-8.4c-5.9-2.7-9.5-8.7-9.1-15.2
		c0.4-6.5,4.7-12,11-14c4.2-1.3,5.6-4.9,5.4-7.8c-0.2-2.9-1.9-6.3-6.3-7.1c-6.4-1.2-11.4-6.1-12.6-12.5s1.6-12.8,7.1-16.3
		c3.8-2.3,4.2-6.1,3.3-8.9c-0.9-2.8-3.4-5.6-7.9-5.3c-6.5,0.5-12.5-3-15.3-9c-2.8-5.9-1.7-12.8,2.9-17.5c3.1-3.2,2.5-7,0.9-9.4
		s-4.7-4.6-8.9-3.2c-6.2,2.1-12.9,0.2-17.1-4.9c-4.2-5-4.8-12-1.6-17.7c2.2-3.9,0.7-7.4-1.4-9.4c-2.1-2-5.7-3.3-9.4-0.8
		c-5.5,3.6-12.5,3.4-17.8-0.5c-5.3-3.8-7.6-10.4-5.9-16.7c1.1-4.3-1.2-7.3-3.7-8.7c-2.6-1.4-6.4-1.7-9.4,1.5
		c-4.4,4.8-11.2,6.4-17.3,4c-6.1-2.4-10-8.2-9.9-14.7c0-4.4-3-6.8-5.8-7.5c-2.8-0.7-6.6-0.1-8.7,3.8c-3.1,5.8-9.3,9-15.8,8.1
		c-6.5-0.8-11.7-5.5-13.3-11.8c0,0,0,0,0,0c-1.1-4.3-4.6-5.8-7.5-5.8c-2.9,0-6.4,1.5-7.5,5.8c-1.6,6.4-6.8,11-13.3,11.8
		c-6.5,0.8-12.7-2.4-15.8-8.1c-2.1-3.9-5.9-4.5-8.7-3.8c-2.8,0.7-5.8,3.1-5.8,7.5c0.1,6.5-3.8,12.3-9.9,14.7
		c-6.1,2.4-12.9,0.9-17.3-4c-3-3.3-6.8-2.9-9.4-1.5c-2.6,1.4-4.9,4.4-3.7,8.7c1.7,6.3-0.6,12.9-5.9,16.7c-5.3,3.8-12.3,4-17.8,0.5
		c-3.7-2.4-7.3-1.1-9.4,0.8c-2.1,2-3.6,5.5-1.4,9.4c3.2,5.7,2.6,12.6-1.6,17.7c-4.2,5-10.9,7-17.1,4.9c-4.2-1.4-7.4,0.7-8.9,3.2
		s-2.1,6.2,0.9,9.4c4.5,4.7,5.6,11.6,2.9,17.5c-2.8,5.9-8.8,9.4-15.3,9c-4.4-0.3-7,2.5-7.9,5.3c-0.9,2.8-0.5,6.6,3.3,8.9
		c5.6,3.5,8.4,9.8,7.1,16.3s-6.2,11.3-12.6,12.5c-4.4,0.8-6.1,4.2-6.3,7.1s1.1,6.5,5.4,7.8c6.2,2,10.5,7.5,11,14
		c0.4,6.5-3.2,12.5-9.1,15.2c-4,1.9-4.9,5.6-4.3,8.4c0.5,2.9,2.7,6,7.1,6.2c6.5,0.3,12.1,4.6,14.1,10.8c2,6.2,0,12.9-5,17
		c-3.4,2.8-3.4,6.6-2.1,9.2c1.2,2.6,4.1,5.1,8.5,4.3c6.4-1.3,12.8,1.5,16.3,7c3.5,5.5,3.3,12.5-0.6,17.7c-2.6,3.6-1.6,7.2,0.3,9.5
		c1.9,2.2,5.3,4,9.3,2c5.9-2.8,12.8-1.8,17.6,2.7c4.8,4.5,6.3,11.3,3.8,17.4c-1.7,4.1,0.2,7.4,2.6,9.1c2.4,1.7,6.1,2.5,9.5-0.3
		c5-4.2,11.9-4.9,17.7-1.8c5.7,3.2,8.9,9.4,8,15.9c-0.6,4.4,2.1,7.1,4.8,8.2c2.7,1.1,6.5,0.9,9.1-2.7c3.8-5.3,10.3-7.7,16.7-6.1
		c6.3,1.6,10.9,6.9,11.7,13.4c0.5,4.4,3.8,6.4,6.7,6.7c2.9,0.4,6.5-0.7,8.1-4.9C1478.5,2802.6,1484.3,2798.7,1490.8,2798.7z"/>
</g>
<g>
	<path class="st2" d="M2223.3,2813.7H1871c-2.8,0-5-2.2-5-5v-352.3c0-2.8,2.2-5,5-5h117.4c2.8,0,5,2.2,5,5v112.4h112.4
		c2.8,0,5,2.2,5,5v112.4h112.4c2.8,0,5,2.2,5,5v117.4C2228.3,2811.5,2226.1,2813.7,2223.3,2813.7z M1876,2803.7h342.3v-107.4h-112.4
		c-2.8,0-5-2.2-5-5v-112.4h-112.4c-2.8,0-5-2.2-5-5v-112.4H1876V2803.7z"/>
</g>
<g>
	<g>
		<path class="st5" d="M2462.2,2530c-21.4,0-38.8-17.4-38.8-38.8c0-21.4,17.4-38.8,38.8-38.8c21.4,0,38.8,17.4,38.8,38.8
			C2501,2512.6,2483.6,2530,2462.2,2530z M2462.2,2460.4c-17,0-30.8,13.8-30.8,30.8c0,17,13.8,30.8,30.8,30.8
			c17,0,30.8-13.8,30.8-30.8C2493,2474.2,2479.2,2460.4,2462.2,2460.4z"/>
	</g>
	<g>
		<path class="st5" d="M2650.7,2530c-21.4,0-38.8-17.4-38.8-38.8c0-21.4,17.4-38.8,38.8-38.8c21.4,0,38.8,17.4,38.8,38.8
			C2689.5,2512.6,2672.1,2530,2650.7,2530z M2650.7,2460.4c-17,0-30.8,13.8-30.8,30.8c0,17,13.8,30.8,30.8,30.8
			c17,0,30.8-13.8,30.8-30.8C2681.5,2474.2,2667.7,2460.4,2650.7,2460.4z"/>
	</g>
	<g>
		<path class="st5" d="M2462.2,2718.5c-21.4,0-38.8-17.4-38.8-38.8c0-21.4,17.4-38.8,38.8-38.8c21.4,0,38.8,17.4,38.8,38.8
			C2501,2701.1,2483.6,2718.5,2462.2,2718.5z M2462.2,2648.9c-17,0-30.8,13.8-30.8,30.8c0,17,13.8,30.8,30.8,30.8
			c17,0,30.8-13.8,30.8-30.8C2493,2662.7,2479.2,2648.9,2462.2,2648.9z"/>
	</g>
	<g>
		<path class="st5" d="M2650.7,2718.5c-21.4,0-38.8-17.4-38.8-38.8c0-21.4,17.4-38.8,38.8-38.8c21.4,0,38.8,17.4,38.8,38.8
			C2689.5,2701.1,2672.1,2718.5,2650.7,2718.5z M2650.7,2648.9c-17,0-30.8,13.8-30.8,30.8c0,17,13.8,30.8,30.8,30.8
			c17,0,30.8-13.8,30.8-30.8C2681.5,2662.7,2667.7,2648.9,2650.7,2648.9z"/>
	</g>
	<g>
		<path class="st5" d="M2556.4,2624.2c-21.4,0-38.8-17.4-38.8-38.8c0-21.4,17.4-38.8,38.8-38.8c21.4,0,38.8,17.4,38.8,38.8
			C2595.2,2606.8,2577.8,2624.2,2556.4,2624.2z M2556.4,2554.7c-17,0-30.8,13.8-30.8,30.8c0,17,13.8,30.8,30.8,30.8
			c17,0,30.8-13.8,30.8-30.8C2587.2,2568.5,2573.4,2554.7,2556.4,2554.7z"/>
	</g>
	<g>
		<path class="st5" d="M2744.9,2624.2c-21.4,0-38.8-17.4-38.8-38.8c0-21.4,17.4-38.8,38.8-38.8s38.8,17.4,38.8,38.8
			C2783.7,2606.8,2766.3,2624.2,2744.9,2624.2z M2744.9,2554.7c-17,0-30.8,13.8-30.8,30.8c0,17,13.8,30.8,30.8,30.8
			s30.8-13.8,30.8-30.8C2775.7,2568.5,2761.9,2554.7,2744.9,2554.7z"/>
	</g>
	<g>
		<path class="st5" d="M2556.4,2812.7c-21.4,0-38.8-17.4-38.8-38.8s17.4-38.8,38.8-38.8c21.4,0,38.8,17.4,38.8,38.8
			S2577.8,2812.7,2556.4,2812.7z M2556.4,2743.2c-17,0-30.8,13.8-30.8,30.8s13.8,30.8,30.8,30.8c17,0,30.8-13.8,30.8-30.8
			S2573.4,2743.2,2556.4,2743.2z"/>
	</g>
	<g>
		<path class="st5" d="M2744.9,2812.7c-21.4,0-38.8-17.4-38.8-38.8s17.4-38.8,38.8-38.8s38.8,17.4,38.8,38.8
			S2766.3,2812.7,2744.9,2812.7z M2744.9,2743.2c-17,0-30.8,13.8-30.8,30.8s13.8,30.8,30.8,30.8s30.8-13.8,30.8-30.8
			S2761.9,2743.2,2744.9,2743.2z"/>
	</g>
</g>
<g>
	<g>
		<path class="st1" d="M378,3193c-0.1,0-0.2,0-0.3,0l-64.6-5.6c-57.4-5-102.7-50.3-107.6-107.6l-5.6-64.6c-0.1-1.2,0.3-2.3,1.2-3.2
			c0.8-0.8,2-1.3,3.2-1.2l64.6,5.6c57.4,5,102.7,50.3,107.6,107.6l5.6,64.6c0.1,1.2-0.3,2.3-1.2,3.2
			C380.1,3192.5,379.1,3193,378,3193z M208.2,3019.1l5.2,59.9c4.6,53.5,46.9,95.7,100.4,100.4l59.9,5.2l-5.2-59.9
			c-4.6-53.5-46.9-95.7-100.4-100.4L208.2,3019.1z"/>
	</g>
	<g>
		<path class="st1" d="M378,3193c-1.1,0-2.1-0.4-2.8-1.2c-0.8-0.8-1.3-2-1.2-3.2l5.6-64.6c5-57.4,50.3-102.7,107.6-107.6l64.6-5.6
			c1.2-0.1,2.3,0.3,3.2,1.2c0.8,0.8,1.3,2,1.2,3.2l-5.6,64.6c-5,57.4-50.3,102.7-107.6,107.6l-64.6,5.6
			C378.3,3193,378.2,3193,378,3193z M547.9,3019.1l-59.9,5.2c-53.5,4.6-95.7,46.9-100.4,100.4l-5.2,59.9l59.9-5.2
			c53.5-4.6,95.7-46.9,100.4-100.4L547.9,3019.1z"/>
	</g>
	<g>
		<path class="st1" d="M203.8,3367.2c-1.1,0-2.1-0.4-2.8-1.2c-0.8-0.8-1.3-2-1.2-3.2l5.6-64.6c5-57.4,50.3-102.7,107.6-107.6
			l64.6-5.6c1.2-0.1,2.3,0.3,3.2,1.2c0.8,0.8,1.3,2,1.2,3.2l-5.6,64.6c-5,57.4-50.3,102.7-107.6,107.6l-64.6,5.6
			C204,3367.2,203.9,3367.2,203.8,3367.2z M373.6,3193.4l-59.9,5.2c-53.5,4.6-95.7,46.9-100.4,100.4l-5.2,59.9l59.9-5.2
			c53.5-4.6,95.7-46.9,100.4-100.4L373.6,3193.4z"/>
	</g>
	<g>
		<path class="st1" d="M552.3,3367.2c-0.1,0-0.2,0-0.3,0l-64.6-5.6c-57.4-5-102.7-50.3-107.6-107.6l-5.6-64.6
			c-0.1-1.2,0.3-2.3,1.2-3.2c0.8-0.8,2-1.3,3.2-1.2l64.6,5.6c57.4,5,102.7,50.3,107.6,107.6l5.6,64.6c0.1,1.2-0.3,2.3-1.2,3.2
			C554.4,3366.8,553.3,3367.2,552.3,3367.2z M382.4,3193.4l5.2,59.9c4.6,53.5,46.9,95.7,100.4,100.4l59.9,5.2l-5.2-59.9
			c-4.6-53.5-46.9-95.7-100.4-100.4L382.4,3193.4z"/>
	</g>
</g>
<g>
	<g>
		<path class="st1" d="M484.8,3905.7c-14.7,0-31.9-3.7-50.9-11.2c-39.3-15.5-82.3-45.4-121-84c-38.7-38.7-68.5-81.6-84-121
			c-15.9-40.4-14.9-72.5,2.9-90.3c17.8-17.8,49.9-18.9,90.3-2.9c39.3,15.5,82.3,45.4,121,84s68.5,81.6,84,121
			c15.9,40.4,14.9,72.5-2.9,90.3C514.8,3901,501.4,3905.7,484.8,3905.7z M271.2,3592.9c-14.3,0-25.8,4-33.7,11.9
			c-15.4,15.4-15.8,44.5-1.1,81.7c15.1,38.3,44.3,80.3,82.3,118.3c37.9,37.9,79.9,67.1,118.3,82.3c37.3,14.7,66.3,14.3,81.7-1.1
			c15.4-15.4,15.8-44.5,1.1-81.7c-15.1-38.3-44.3-80.3-82.3-118.3c-37.9-37.9-79.9-67.1-118.3-82.3
			C301.1,3596.5,284.9,3592.9,271.2,3592.9z"/>
	</g>
	<g>
		<path class="st1" d="M463.5,3874.5c-11.9,0-25.7-3-41.1-9.1c-31.6-12.5-66.1-36.4-97.1-67.5c-31-31-55-65.5-67.5-97.1
			c-12.9-32.7-12-58.6,2.5-73.2c14.5-14.5,40.5-15.4,73.2-2.5c31.6,12.5,66.1,36.4,97.1,67.5c31,31,55,65.5,67.5,97.1
			c12.9,32.7,12,58.6-2.5,73.2C487.9,3870.7,477,3874.5,463.5,3874.5z M292.6,3624.2c-11.3,0-20.5,3.1-26.6,9.1
			c-11.9,11.9-12.2,35.5-0.7,64.6c12.1,30.6,35.4,64.1,65.7,94.4c30.3,30.3,63.8,53.6,94.4,65.7c29.1,11.5,52.6,11.2,64.6-0.7
			c11.9-11.9,12.2-35.5,0.7-64.6c-12.1-30.6-35.4-64.1-65.7-94.4c-30.3-30.3-63.8-53.6-94.4-65.7
			C316.4,3627,303.5,3624.2,292.6,3624.2z"/>
	</g>
	<g>
		<path class="st1" d="M443.3,3844.9c-9.2,0-19.9-2.3-31.7-7c-24.2-9.6-50.7-27.9-74.5-51.7c-23.8-23.8-42.2-50.2-51.7-74.5
			c-10-25.3-9.2-45.5,2.1-56.9c22.9-22.9,80.6-1.1,131.4,49.6l0,0c50.7,50.7,72.5,108.4,49.6,131.4
			C462.5,3841.9,453.9,3844.9,443.3,3844.9z M312.7,3653.7c-8.2,0-14.9,2.2-19.5,6.8c-8.8,8.8-9,26.4-0.3,48.3
			c9.2,23.2,26.9,48.7,49.9,71.8c23,23,48.5,40.8,71.8,49.9c21.8,8.6,39.4,8.5,48.3-0.3c19.1-19.1-3.6-74.1-49.6-120.1
			C378.4,3675.2,338.3,3653.7,312.7,3653.7z"/>
	</g>
	<g>
		<path class="st1" d="M423.1,3815.3c-6.5,0-14.1-1.6-22.3-4.9c-16.9-6.7-35.3-19.4-51.9-36c-16.5-16.5-29.3-35-36-51.9
			c-7.1-18-6.5-32.4,1.7-40.6c8.2-8.2,22.6-8.8,40.6-1.7c16.9,6.7,35.3,19.4,51.9,36l0,0c35.5,35.5,50.6,76.1,34.2,92.5
			C437,3813.1,430.7,3815.3,423.1,3815.3z M333,3683.4c-5.5,0-9.9,1.4-12.7,4.3c-5.7,5.7-5.7,17.4,0,32
			c6.3,15.9,18.4,33.3,34.2,49.1c34.5,34.5,69.8,45.6,81.1,34.2c11.3-11.3,0.3-46.6-34.2-81.1C375.7,3696.1,349.4,3683.4,333,3683.4
			z"/>
	</g>
	<g>
		<path class="st1" d="M403.7,3787c-11.9,0-28.3-8.6-43.5-23.8c-21.3-21.3-29.7-45-19.5-55.2c10.2-10.2,33.9-1.8,55.2,19.5l0,0
			c21.3,21.3,29.7,45,19.5,55.2C412.5,3785.6,408.5,3787,403.7,3787z M352.2,3711.7c-2.6,0-4.6,0.6-5.9,1.9
			c-5.7,5.7,1.4,25.7,19.5,43.9c18.1,18.1,38.1,25.3,43.9,19.5c5.7-5.7-1.4-25.7-19.5-43.9C376.2,3719.1,361,3711.7,352.2,3711.7z"
			/>
	</g>
</g>
<g>
	<g>
		<path class="st5" d="M2711.1,3341.8c-14.3,0-31.4-4.1-50.7-12.3c-37-15.8-77.9-45-115.2-82.3c-37.2-37.2-66.5-78.1-82.3-115.2
			c-16.3-38.2-16.4-68-0.4-84.1c16-16,45.9-15.9,84.1,0.4c37,15.8,77.9,45,115.2,82.3c37.2,37.2,66.5,78.1,82.3,115.2
			c16.3,38.2,16.4,68,0.4,84.1C2736.6,3337.9,2725.2,3341.8,2711.1,3341.8z M2496,3044.1c-11.9,0-21.4,3.2-27.8,9.5
			c-13.4,13.4-12.6,40.8,2.1,75.3c15.4,36.1,44,76.1,80.6,112.7s76.6,65.2,112.7,80.6c34.5,14.7,61.9,15.5,75.3,2.1
			c13.4-13.4,12.6-40.8-2.1-75.3c-15.4-36.1-44-76.1-80.6-112.7c-36.5-36.5-76.6-65.2-112.7-80.6
			C2525.4,3048,2509.2,3044.1,2496,3044.1z"/>
	</g>
	<g>
		<path class="st5" d="M2496,3341.8c-14.1,0-25.4-4-33.4-11.9c-16-16-15.9-45.9,0.4-84.1c15.8-37,45-77.9,82.3-115.2l2.8,2.8
			l-2.8-2.8c37.2-37.2,78.1-66.5,115.2-82.3c38.2-16.3,68-16.4,84.1-0.4c16,16,15.9,45.9-0.4,84.1c-15.8,37-45,77.9-82.3,115.2
			s-78.1,66.5-115.2,82.3C2527.4,3337.7,2510.3,3341.8,2496,3341.8z M2711.1,3044.1c-13.2,0-29.4,3.9-47.5,11.6
			c-36.1,15.4-76.1,44-112.7,80.6s-65.2,76.6-80.6,112.7c-14.7,34.5-15.5,61.9-2.1,75.3c13.4,13.4,40.8,12.6,75.3-2.1
			c36.1-15.4,76.1-44,112.7-80.6c36.5-36.5,65.2-76.6,80.6-112.7c14.7-34.5,15.5-61.9,2.1-75.3
			C2732.5,3047.3,2723,3044.1,2711.1,3044.1z"/>
	</g>
</g>
<g>
	<g>
		<path class="st2" d="M2208.1,3140.3h-214.6c-2.8,0-5-2.2-5-5c0-61.9,50.4-112.3,112.3-112.3c61.9,0,112.3,50.4,112.3,112.3
			C2213.1,3138.1,2210.9,3140.3,2208.1,3140.3z M1998.6,3130.3H2203c-2.6-54.1-47.4-97.3-102.2-97.3S2001.3,3076.2,1998.6,3130.3z"
			/>
	</g>
	<g>
		<path class="st2" d="M2100.8,3354.9c-2.8,0-5-2.2-5-5v-214.6c0-2.8,2.2-5,5-5c61.9,0,112.3,50.4,112.3,112.3
			C2213.1,3304.5,2162.7,3354.9,2100.8,3354.9z M2105.8,3140.4v204.4c54.1-2.6,97.3-47.4,97.3-102.2S2159.9,3143,2105.8,3140.4z"/>
	</g>
	<g>
		<path class="st2" d="M1993.5,3354.9c-61.9,0-112.3-50.4-112.3-112.3c0-2.8,2.2-5,5-5h214.6c2.8,0,5,2.2,5,5
			C2105.8,3304.5,2055.4,3354.9,1993.5,3354.9z M1891.3,3247.6c2.6,54.1,47.4,97.3,102.2,97.3s99.6-43.2,102.2-97.3H1891.3z"/>
	</g>
	<g>
		<path class="st2" d="M1993.5,3247.6c-61.9,0-112.3-50.4-112.3-112.3c0-61.9,50.4-112.3,112.3-112.3c2.8,0,5,2.2,5,5v214.6
			C1998.5,3245.4,1996.3,3247.6,1993.5,3247.6z M1988.5,3033.1c-54.1,2.6-97.3,47.4-97.3,102.2s43.2,99.6,97.3,102.2V3033.1z"/>
	</g>
</g>
<g>
	<g>
		<path class="st4" d="M1622.5,3353.9c-8.9,0-17.2-3.5-23.5-9.7l-263.5-263.5c-6.3-6.3-9.7-14.6-9.7-23.5c0-8.9,3.5-17.2,9.7-23.5
			c6.3-6.3,14.6-9.7,23.5-9.7s17.2,3.5,23.5,9.7l263.5,263.5c13,13,13,34,0,47C1639.7,3350.5,1631.4,3353.9,1622.5,3353.9z
			 M1359.1,3032c-6.7,0-13.1,2.6-17.8,7.4c-4.8,4.8-7.4,11.1-7.4,17.8c0,6.7,2.6,13.1,7.4,17.8l263.5,263.5
			c4.8,4.8,11.1,7.4,17.8,7.4s13.1-2.6,17.8-7.4c9.8-9.8,9.8-25.8,0-35.7l-263.5-263.5C1372.1,3034.6,1365.8,3032,1359.1,3032z"/>
	</g>
	<g>
		<path class="st4" d="M1359.1,3353.9c-8.5,0-17-3.2-23.5-9.7c-13-13-13-34,0-47l263.5-263.5c6.3-6.3,14.6-9.7,23.5-9.7
			s17.2,3.5,23.5,9.7c13,13,13,34,0,47l-263.5,263.5C1376.1,3350.7,1367.6,3353.9,1359.1,3353.9z M1622.5,3032
			c-6.7,0-13.1,2.6-17.8,7.4l-263.5,263.5c-9.8,9.8-9.8,25.8,0,35.7c9.8,9.8,25.8,9.8,35.7,0l263.5-263.5c9.8-9.8,9.8-25.8,0-35.7
			C1635.6,3034.6,1629.3,3032,1622.5,3032z"/>
	</g>
</g>
<g>
	<path class="st3" d="M934.4,3961c-9.7,0-19.4-3.5-27.6-10.4c-24-20.2-36.4-68.7-7.1-145.1c-41.2,50.9-80.3,69.8-109.4,69.8
		c-7.3,0-13.9-1.2-19.8-3.3c-20.3-7.4-31.4-26.6-27.6-47.9c5.4-30.9,41.2-65.9,122.2-78.7c-80.9-12.8-116.7-47.8-122.2-78.7
		c-3.7-21.3,7.4-40.5,27.6-47.9c29.5-10.7,77.7,2.8,129.2,66.5c-29.4-76.5-17-125,7.1-145.1c16.5-13.9,38.8-13.9,55.3,0
		c24,20.2,36.4,68.7,7.1,145.1c51.5-63.7,99.7-77.2,129.2-66.5c20.3,7.4,31.4,26.6,27.6,47.9c-5.4,30.9-41.2,65.9-122.2,78.7
		c80.9,12.8,116.7,47.8,122.2,78.7c3.7,21.3-7.4,40.5-27.6,47.9c-29.5,10.7-77.7-2.8-129.2-66.5c29.4,76.5,17,125-7.1,145.1
		C953.8,3957.5,944.1,3961,934.4,3961z M934.4,3755.5c-25.7,46.2-40,88.8-41.7,123.7c-1.3,28.5,6.1,51.7,20.4,63.8
		c12.9,10.8,29.6,10.8,42.4,0c14.3-12,21.8-35.3,20.4-63.8C974.4,3844.3,960.1,3801.7,934.4,3755.5z M943.2,3750.4
		c27.2,45.3,56.9,79.1,86.3,97.9c24,15.4,47.9,20.6,65.5,14.2c15.8-5.8,24.1-20.2,21.2-36.8c-3.2-18.4-19.7-36.5-45-49.6
		C1040.1,3760.1,996,3751.3,943.2,3750.4z M925.6,3750.4c-52.8,0.9-96.9,9.7-127.9,25.7c-25.4,13.1-41.8,31.2-45,49.6
		c-2.9,16.6,5.4,31,21.2,36.8c17.6,6.4,41.4,1.2,65.5-14.2C868.7,3829.5,898.5,3795.7,925.6,3750.4z M1078.7,3625.5
		c-14.8,0-32,5.8-49.3,16.9c-29.4,18.8-59.1,52.6-86.3,97.9c52.8-0.9,96.9-9.7,127.9-25.7c25.4-13.1,41.8-31.2,45-49.6
		c2.9-16.6-5.4-31-21.2-36.8C1090,3626.4,1084.5,3625.5,1078.7,3625.5z M790.1,3625.5c-5.8,0-11.2,0.9-16.2,2.7
		c-15.8,5.8-24.1,20.2-21.2,36.8c3.2,18.4,19.7,36.5,45,49.6c31,16,75.1,24.9,127.9,25.7c-27.2-45.3-56.9-79.1-86.3-97.9
		C822.1,3631.3,804.9,3625.5,790.1,3625.5z M934.4,3539.7c-7.4,0-14.8,2.7-21.2,8.1c-14.3,12-21.8,35.3-20.4,63.8
		c1.6,34.9,16,77.5,41.7,123.7c25.7-46.2,40-88.8,41.7-123.7c1.3-28.5-6.1-51.7-20.4-63.8C949.2,3542.4,941.8,3539.7,934.4,3539.7z"
		/>
</g>
<g>
	<g>
		<path class="st4" d="M1675.5,3813.6h-413.2c-2.2,0-4-1.8-4-4v-83.6c0-2.2,1.8-4,4-4h413.2c2.2,0,4,1.8,4,4v83.6
			C1679.5,3811.8,1677.7,3813.6,1675.5,3813.6z M1266.3,3805.6h405.2v-75.6h-405.2V3805.6z"/>
	</g>
	<g>
		<path class="st4" d="M1719.3,3768.8h-413.2c-2.2,0-4-1.8-4-4v-83.6c0-2.2,1.8-4,4-4h413.2c2.2,0,4,1.8,4,4v83.6
			C1723.3,3767,1721.5,3768.8,1719.3,3768.8z M1310.1,3760.8h405.2v-75.6h-405.2V3760.8z"/>
	</g>
</g>
<g>
	<path class="st2" d="M2190.5,3887.4h-259c-2.8,0-5-2.2-5-5v-274.1c0-2.8,2.2-5,5-5c70.6,0,137,27.5,187,77.4s77.4,116.3,77.4,187
		c0,4.8-0.1,9.9-0.4,15C2195.4,3885.3,2193.2,3887.4,2190.5,3887.4z M1936.6,3877.4h249.2c0.1-3.3,0.2-6.6,0.2-9.7
		c0-138.6-111.4-251.7-249.4-254.3V3877.4z"/>
</g>
<g>
	<g>
		<path class="st5" d="M2656.7,3919.7h-106.3V3571h106.3V3919.7z M2558.4,3911.7h90.3V3579h-90.3V3911.7z"/>
	</g>
	<g>
		<path class="st5" d="M2777.9,3798.5h-348.7v-106.3h348.7V3798.5z M2437.2,3790.5h332.7v-90.3h-332.7V3790.5z"/>
	</g>
	<g>
		<path class="st5" d="M2689.3,3906.2l-2.8-2.8l-243.7-243.7l75.1-75.1l2.8,2.8l243.7,243.7L2689.3,3906.2z M2454,3659.6
			l235.3,235.3l63.8-63.8l-235.3-235.3L2454,3659.6z"/>
	</g>
	<g>
		<path class="st5" d="M2517.8,3906.2l-75.1-75.1l2.8-2.8l243.7-243.7l75.1,75.1l-2.8,2.8L2517.8,3906.2z M2454,3831.1l63.8,63.8
			l235.3-235.3l-63.8-63.8L2454,3831.1z"/>
	</g>
</g>
<g>
	<path class="st1" d="M427.2,4476.1h-98.3c-2.2,0-4-1.8-4-4V4430l-29.8,29.8c-0.8,0.8-1.8,1.2-2.8,1.2s-2.1-0.4-2.8-1.2l-69.5-69.5
		c-1.6-1.6-1.6-4.1,0-5.7l82.9-82.9l-82.9-82.9c-1.6-1.6-1.6-4.1,0-5.7l69.5-69.5c0.8-0.8,1.8-1.2,2.8-1.2s2.1,0.4,2.8,1.2
		l29.8,29.8v-42.1c0-2.2,1.8-4,4-4h98.3c2.2,0,4,1.8,4,4v42.1l29.8-29.8c0.8-0.8,1.8-1.2,2.8-1.2l0,0c1.1,0,2.1,0.4,2.8,1.2
		l69.5,69.5c1.6,1.6,1.6,4.1,0,5.7l-82.9,82.9l82.9,82.9c1.6,1.6,1.6,4.1,0,5.7l-69.5,69.5c-0.8,0.8-1.8,1.2-2.8,1.2l0,0
		c-1.1,0-2.1-0.4-2.8-1.2l-29.8-29.8v42.1C431.2,4474.3,429.4,4476.1,427.2,4476.1z M332.9,4468.1h90.3v-47.7c0-1.6,1-3.1,2.5-3.7
		c1.5-0.6,3.2-0.3,4.4,0.9l33.8,33.8l63.8-63.8l-82.9-82.9c-1.6-1.6-1.6-4.1,0-5.7l82.9-82.9l-63.8-63.8l-33.8,33.8
		c-1.1,1.1-2.9,1.5-4.4,0.9c-1.5-0.6-2.5-2.1-2.5-3.7v-47.7h-90.3v47.7c0,1.6-1,3.1-2.5,3.7c-1.5,0.6-3.2,0.3-4.4-0.9l-33.8-33.8
		l-63.8,63.8l82.9,82.9c1.6,1.6,1.6,4.1,0,5.7l-82.9,82.9l63.8,63.8l33.8-33.8c1.1-1.1,2.9-1.5,4.4-0.9c1.5,0.6,2.5,2.1,2.5,3.7
		V4468.1z"/>
</g>
<g>
	<g>
		<path class="st3" d="M934.4,4453.5c-98.8,0-179.3-80.4-179.3-179.3S835.6,4095,934.4,4095s179.3,80.4,179.3,179.3
			S1033.3,4453.5,934.4,4453.5z M934.4,4105c-93.3,0-169.3,75.9-169.3,169.3s75.9,169.3,169.3,169.3c93.3,0,169.3-75.9,169.3-169.3
			S1027.7,4105,934.4,4105z"/>
	</g>
	<g>
		<path class="st3" d="M934.4,4508.4c-98.8,0-179.3-80.4-179.3-179.3s80.4-179.3,179.3-179.3s179.3,80.4,179.3,179.3
			S1033.3,4508.4,934.4,4508.4z M934.4,4159.9c-93.3,0-169.3,75.9-169.3,169.3s75.9,169.3,169.3,169.3
			c93.3,0,169.3-75.9,169.3-169.3S1027.7,4159.9,934.4,4159.9z"/>
	</g>
</g>
<g>
	<path class="st4" d="M1490.8,4506.3c-8.6,0-17.7-6-18.2-17.3c-0.3-6.2-4.9-9.1-8.7-9.6c-3.8-0.6-9,0.8-11.2,6.6
		c-3.9,10.7-14.3,13.7-22.5,11.2c-8.2-2.5-15.1-10.9-12.3-21.9c1.5-6-2-10.1-5.5-11.8c-3.5-1.7-8.9-1.9-12.6,3
		c-6.9,9.1-17.7,8.9-24.8,4.1c-7.1-4.9-11.2-14.9-5.3-24.6c3.2-5.3,1.1-10.2-1.8-12.9c-2.8-2.6-7.9-4.4-13-0.8
		c-9.3,6.7-19.5,3.3-24.9-3.4c-5.4-6.7-6.4-17.5,2.2-25.1c4.6-4.1,4-9.5,2.1-12.8c-1.9-3.4-6.3-6.6-12.1-4.6
		c-10.8,3.6-19.7-2.6-22.8-10.6c-3.2-8-0.9-18.6,9.5-23.3c5.6-2.5,6.6-7.9,5.8-11.6c-0.9-3.8-4.1-8.1-10.3-8
		c-11.4,0.3-18-8.3-18.7-16.9c-0.6-8.6,4.6-18.1,15.9-19.5c6.1-0.8,8.7-5.5,8.9-9.4s-1.5-9-7.4-10.6c-11-3.1-14.8-13.2-12.9-21.6
		c1.9-8.4,9.7-15.9,21-13.9c6.1,1.1,9.9-2.7,11.3-6.3c1.4-3.6,1.2-9-4-12.4c-9.6-6.2-10.2-17-5.9-24.5c4.3-7.5,14-12.3,24.1-7.1
		c5.5,2.8,10.3,0.3,12.7-2.7c2.4-3,3.8-8.2-0.2-13c-7.3-8.7-4.8-19.2,1.6-25.1c6.3-5.9,17-7.6,25.2,0.3c4.4,4.3,9.7,3.3,12.9,1.1
		c3.2-2.2,6.1-6.7,3.7-12.5c-4.4-10.5,1.1-19.8,8.9-23.5c7.8-3.7,18.5-2.3,23.9,7.7c3,5.4,8.3,6,12,4.9c3.7-1.1,7.8-4.7,7.2-10.8
		c-1.1-11.3,6.9-18.6,15.4-19.9c8.5-1.3,18.4,3.3,20.6,14.4c1.2,6.1,6.2,8.2,10,8.2s8.8-2.2,10-8.2l0,0
		c2.3-11.2,12.1-15.7,20.6-14.4c8.5,1.3,16.6,8.5,15.4,19.9c-0.6,6.2,3.5,9.7,7.2,10.8c3.7,1.1,9.1,0.5,12-4.9
		c5.4-10,16.2-11.5,23.9-7.7c7.8,3.7,13.3,13,8.9,23.5c-2.4,5.7,0.5,10.3,3.7,12.5c3.2,2.2,8.5,3.2,12.9-1.1
		c8.2-8,18.8-6.2,25.2-0.3c6.3,5.9,8.9,16.4,1.6,25.1c-4,4.7-2.6,10-0.2,13c2.4,3,7.2,5.6,12.7,2.7c10.1-5.2,19.8-0.4,24.1,7.1
		c4.3,7.5,3.7,18.3-5.9,24.5c-5.2,3.4-5.4,8.8-4,12.4c1.4,3.6,5.2,7.4,11.3,6.3c11.2-2,19,5.5,21,13.9c1.9,8.4-1.9,18.5-12.9,21.6
		c-6,1.7-7.7,6.8-7.4,10.6s2.8,8.6,8.9,9.4c11.3,1.4,16.6,10.9,15.9,19.5c-0.6,8.5-7,16.9-18.1,16.9c-0.2,0-0.4,0-0.6,0
		c-6.2-0.2-9.4,4.2-10.3,8c-0.9,3.8,0.1,9.1,5.8,11.6c10.4,4.7,12.6,15.3,9.5,23.3s-12,14.3-22.8,10.6c-5.9-2-10.2,1.2-12.1,4.6
		c-1.9,3.4-2.5,8.7,2.1,12.8c8.6,7.5,7.6,18.3,2.2,25.1c-5.4,6.7-15.7,10.1-24.9,3.4c-5-3.6-10.1-1.8-13,0.8
		c-2.8,2.6-5,7.6-1.8,12.9c6,9.7,1.8,19.7-5.3,24.6c-7.1,4.9-18,5-24.8-4.1c-3.7-4.9-9.1-4.7-12.6-3c-3.5,1.7-7,5.8-5.5,11.8
		c2.8,11-4.1,19.4-12.3,21.9c-8.3,2.5-18.6-0.5-22.5-11.2c-2.1-5.8-7.3-7.2-11.2-6.6c-3.8,0.6-8.4,3.4-8.7,9.6
		C1508.5,4500.4,1499.4,4506.3,1490.8,4506.3z M1462.3,4471.3c0.9,0,1.9,0.1,2.8,0.2c7.4,1.1,15,6.8,15.5,17.1
		c0.3,6.7,5.4,9.7,10.2,9.7c4.9,0,9.9-3,10.2-9.7c0.5-10.3,8.2-16,15.5-17.1c7.4-1.1,16.3,2.1,19.9,11.8c2.3,6.3,8,7.7,12.7,6.3
		c4.6-1.4,8.6-5.8,6.9-12.3c-2.5-10,3.1-17.7,9.8-21c6.7-3.2,16.2-2.8,22.5,5.4c4.1,5.4,9.9,5,13.9,2.3c4-2.7,6.5-8.1,3-13.8
		c-5.4-8.8-2.3-17.8,3.2-22.9c5.4-5.1,14.7-7.5,23.1-1.4c5.5,3.9,11,1.9,14-1.9c3-3.8,3.8-9.6-1.2-14.1c-7.7-6.8-7.5-16.4-3.7-22.8
		c3.7-6.4,11.8-11.5,21.6-8.2c6.4,2.1,11-1.4,12.8-6c1.8-4.5,0.8-10.3-5.3-13.1c-9.4-4.2-11.9-13.5-10.3-20.7
		c1.7-7.2,7.9-14.4,18.3-14.2c6.7,0.2,10.1-4.6,10.5-9.5c0.4-4.8-2.3-10.1-8.9-10.9c-10.2-1.3-15.4-9.3-15.9-16.7
		s3.3-16.1,13.3-18.9c6.5-1.8,8.3-7.4,7.2-12.1c-1.1-4.7-5.1-9-11.8-7.8c-10.2,1.8-17.4-4.4-20.2-11.3c-2.7-6.9-1.6-16.4,7.1-22
		c5.7-3.7,5.7-9.5,3.3-13.7c-2.4-4.2-7.6-7.1-13.6-4c-9.2,4.7-18,1-22.6-4.9c-4.6-5.8-6.3-15.2,0.3-23.1c4.3-5.2,2.7-10.8-0.9-14.1
		c-3.6-3.3-9.3-4.5-14.1,0.2c-7.4,7.2-16.9,6.2-23,2c-6.1-4.2-10.5-12.7-6.5-22.2c2.6-6.2-0.6-11.1-5-13.2
		c-4.4-2.1-10.2-1.6-13.4,4.3c-4.9,9.1-14.3,10.9-21.4,8.7c-7.1-2.2-13.8-9-12.8-19.3c0.7-6.7-3.9-10.4-8.7-11.2
		c-4.8-0.7-10.2,1.5-11.6,8.1l0,0c-2,10.1-10.5,14.6-17.9,14.6l0,0c-7.4,0-15.8-4.5-17.9-14.6c-1.3-6.6-6.8-8.8-11.6-8.1
		c-4.8,0.7-9.3,4.5-8.7,11.2c1,10.3-5.7,17.1-12.8,19.3c-7.1,2.2-16.5,0.3-21.4-8.7c-3.2-5.9-9.1-6.4-13.4-4.3
		c-4.4,2.1-7.6,7-5,13.2c4,9.5-0.4,18-6.5,22.2c-6.1,4.2-15.6,5.2-23-2c-4.8-4.7-10.6-3.5-14.1-0.2c-3.6,3.3-5.2,8.9-0.9,14.1
		c6.6,7.9,4.9,17.3,0.3,23.1c-4.6,5.8-13.4,9.6-22.6,4.9c-6-3.1-11.1-0.2-13.6,4c-2.4,4.2-2.3,10.1,3.3,13.7
		c8.7,5.6,9.8,15.1,7.1,22c-2.7,6.9-10,13.1-20.2,11.3c-6.6-1.2-10.7,3.1-11.8,7.8c-1.1,4.7,0.7,10.3,7.2,12.1
		c9.9,2.8,13.8,11.5,13.3,18.9c-0.6,7.4-5.7,15.5-15.9,16.7c-6.7,0.8-9.3,6.1-8.9,10.9c0.4,4.8,3.7,9.6,10.5,9.5c0.2,0,0.4,0,0.5,0
		c10,0,16.1,7.1,17.7,14.2c1.7,7.2-0.9,16.5-10.3,20.7c-6.1,2.8-7.1,8.6-5.3,13.1c1.8,4.5,6.4,8.1,12.8,6c9.8-3.3,17.9,1.7,21.6,8.2
		c3.7,6.4,4,16-3.7,22.8c-5.1,4.5-4.3,10.3-1.2,14.1c3,3.8,8.5,5.9,14,1.9c8.4-6,17.6-3.6,23.1,1.4c5.4,5.1,8.5,14.1,3.2,22.9
		c-3.5,5.7-1,11.1,3,13.8c4,2.7,9.9,3.1,13.9-2.3c6.2-8.2,15.8-8.7,22.5-5.4c6.7,3.2,12.3,11,9.8,21c-1.7,6.5,2.3,10.9,6.9,12.3
		c4.6,1.4,10.4,0,12.7-6.3C1448.3,4474.8,1455.6,4471.3,1462.3,4471.3z M1504.8,4112.5L1504.8,4112.5L1504.8,4112.5z"/>
</g>
<g>
	<path class="st2" d="M2185.1,4491.9c-16.2,0-34.5-5.2-54-15.5c-27.7-14.6-55.9-38.2-83.9-70.2c-27.9,32-56.1,55.6-83.9,70.2
		c-26,13.7-49.9,18.4-69.3,13.8c-18.4-4.4-30.9-16.9-35.3-35.3c-4.6-19.4,0.1-43.3,13.8-69.3c14.6-27.7,38.2-55.9,70.2-83.9
		c-32-27.9-55.6-56.1-70.2-83.9c-13.7-26-18.4-49.9-13.8-69.3c4.4-18.4,16.9-30.9,35.3-35.3c19.4-4.6,43.3,0.1,69.3,13.8
		c27.7,14.6,55.9,38.2,83.9,70.2c27.9-32,56.1-55.6,83.9-70.2c26-13.7,49.9-18.4,69.3-13.8c18.4,4.4,30.9,16.9,35.3,35.3
		c4.6,19.4-0.1,43.3-13.8,69.3c-14.6,27.7-38.2,55.9-70.2,83.9c32,27.9,55.6,56.1,70.2,83.9c13.7,26,18.4,49.9,13.8,69.3
		c-4.4,18.4-16.9,30.9-35.3,35.3C2195.5,4491.3,2190.4,4491.9,2185.1,4491.9z M2047.2,4393.5c1.5,0,2.9,0.6,3.8,1.8
		c62.8,73.7,117.1,92.3,147,85.2c14.7-3.5,24.4-13.2,27.9-27.9c7.2-29.9-11.4-84.2-85.2-147c-1.1-0.9-1.8-2.3-1.8-3.8
		s0.6-2.9,1.8-3.8c73.7-62.8,92.3-117.1,85.2-147c-3.5-14.7-13.2-24.4-27.9-27.9c-29.9-7.2-84.2,11.4-147,85.2
		c-0.9,1.1-2.3,1.8-3.8,1.8s-2.9-0.6-3.8-1.8c-62.8-73.7-117.1-92.3-147-85.2c-14.7,3.5-24.4,13.2-27.9,27.9
		c-7.2,29.9,11.4,84.2,85.2,147c1.1,0.9,1.8,2.3,1.8,3.8s-0.6,2.9-1.8,3.8c-73.7,62.8-92.3,117.1-85.2,147
		c3.5,14.7,13.2,24.4,27.9,27.9c29.9,7.2,84.2-11.4,147-85.2C2044.3,4394.2,2045.7,4393.5,2047.2,4393.5z"/>
</g>
<g>
	<path class="st1" d="M378,5054.5c-2,0-3.7-1.4-4-3.4l-11.3-72.9l-29.1,67.8c-0.8,1.8-2.8,2.8-4.7,2.3c-1.9-0.5-3.2-2.3-3-4.3
		l7.2-73.4l-45,58.4c-1.2,1.6-3.4,2-5.1,1.1c-1.7-1-2.5-3-1.8-4.9l25.2-69.3l-58.2,45.4c-1.6,1.2-3.8,1.1-5.2-0.2
		c-1.4-1.4-1.7-3.5-0.6-5.2l41.7-60.9l-67.6,29.5c-1.8,0.8-3.9,0.1-5-1.5c-1.1-1.7-0.7-3.9,0.7-5.2l55.5-48.6L195,4921
		c-1.9,0.3-3.8-0.8-4.4-2.7c-0.6-1.9,0.2-3.9,2-4.8l65.8-33.3l-73.5-6.7c-2-0.2-3.5-1.8-3.6-3.7c-0.1-2,1.2-3.7,3.1-4.2l72.1-15.9
		l-69.5-24.8c-1.9-0.7-3-2.6-2.6-4.5c0.4-1.9,2.1-3.3,4.1-3.2l73.7,2.6l-61.2-41.3c-1.6-1.1-2.2-3.2-1.4-5c0.8-1.8,2.9-2.7,4.7-2.1
		l70.8,20.8l-49-55.2c-1.3-1.5-1.3-3.7-0.1-5.2c1.3-1.5,3.4-1.9,5.1-0.9l63.4,37.8l-33.7-65.6c-0.9-1.8-0.4-3.9,1.2-5.1
		c1.6-1.2,3.8-1,5.2,0.4l52,52.3l-16.3-72c-0.4-1.9,0.6-3.9,2.4-4.6c1.8-0.7,3.9,0,4.9,1.7l37.4,63.6l2.1-73.8
		c0.1-2,1.5-3.6,3.5-3.9c2-0.2,3.8,1,4.3,2.9l20.4,70.9l20.4-70.9c0.5-1.9,2.4-3.1,4.3-2.9c2,0.2,3.4,1.9,3.5,3.9l2.1,73.8
		l37.4-63.6c1-1.7,3.1-2.4,4.9-1.7c1.8,0.7,2.9,2.7,2.4,4.6l-16.3,72l52-52.3c1.4-1.4,3.6-1.6,5.2-0.4c1.6,1.2,2.1,3.3,1.2,5.1
		l-33.7,65.6l63.4-37.8c1.7-1,3.9-0.6,5.1,0.9c1.3,1.5,1.2,3.7-0.1,5.2l-49,55.2l70.8-20.8c1.9-0.6,3.9,0.3,4.7,2.1
		c0.8,1.8,0.3,3.9-1.4,5l-61.2,41.3l73.7-2.6c2,0,3.7,1.3,4.1,3.2c0.4,1.9-0.7,3.9-2.6,4.5l-69.5,24.8l72.1,15.9
		c1.9,0.4,3.3,2.2,3.1,4.2c-0.1,2-1.7,3.6-3.6,3.7l-73.5,6.7l65.8,33.3c1.8,0.9,2.6,2.9,2,4.8c-0.6,1.9-2.5,3-4.4,2.7l-72.8-11.8
		l55.5,48.6c1.5,1.3,1.8,3.5,0.7,5.2c-1.1,1.7-3.2,2.3-5,1.5l-67.6-29.5l41.7,60.9c1.1,1.6,0.9,3.8-0.6,5.2
		c-1.4,1.3-3.6,1.5-5.2,0.2l-58.2-45.4l25.2,69.3c0.7,1.9-0.1,3.9-1.8,4.9c-1.7,1-3.9,0.5-5.1-1.1l-45-58.4l7.2,73.4
		c0.2,2-1.1,3.8-3,4.3c-1.9,0.5-3.9-0.5-4.7-2.3l-29.1-67.8l-11.3,72.9C381.7,5053,380,5054.5,378,5054.5z M364.6,4959.8
		c0.2,0,0.3,0,0.5,0c1.8,0.2,3.2,1.6,3.5,3.4l9.5,61.2l9.5-61.2c0.3-1.8,1.7-3.1,3.5-3.4c1.8-0.2,3.5,0.8,4.2,2.4l24.4,56.9l-6-61.6
		c-0.2-1.8,0.8-3.5,2.5-4.1c1.7-0.7,3.6-0.1,4.6,1.3l37.8,49.1l-21.2-58.2c-0.6-1.7,0-3.6,1.4-4.6c1.4-1,3.4-1,4.8,0.1l48.8,38.1
		l-35-51.1c-1-1.5-0.9-3.4,0.2-4.8c1.1-1.4,3-1.8,4.7-1.1l56.8,24.8l-46.6-40.8c-1.3-1.2-1.7-3.1-1-4.7c0.8-1.6,2.5-2.5,4.3-2.2
		l61.1,9.9l-55.3-27.9c-1.6-0.8-2.5-2.6-2.1-4.3c0.3-1.8,1.8-3.1,3.6-3.2l61.7-5.6l-60.5-13.3c-1.7-0.4-3-1.9-3.1-3.7
		c-0.1-1.8,1-3.4,2.6-4l58.3-20.8l-61.9,2.1c-1.8,0-3.4-1.1-3.9-2.8c-0.6-1.7,0.1-3.6,1.6-4.6l51.3-34.6l-59.4,17.5
		c-1.7,0.5-3.5-0.2-4.5-1.7c-1-1.5-0.8-3.5,0.4-4.8l41.1-46.3l-53.2,31.7c-1.5,0.9-3.5,0.7-4.8-0.5c-1.3-1.2-1.6-3.2-0.8-4.7
		l28.3-55.1l-43.7,43.9c-1.3,1.3-3.2,1.5-4.8,0.7c-1.6-0.9-2.4-2.7-2-4.4l13.7-60.4l-31.4,53.4c-0.9,1.5-2.7,2.3-4.4,1.8
		c-1.7-0.4-3-2-3-3.8l-1.7-61.9l-17.1,59.5c-0.5,1.7-2.1,2.9-3.8,2.9c-1.8,0-3.4-1.2-3.8-2.9l-17.1-59.5l-1.7,61.9
		c-0.1,1.8-1.3,3.3-3,3.8c-1.7,0.4-3.5-0.3-4.4-1.8l-31.4-53.4l13.7,60.4c0.4,1.7-0.4,3.5-2,4.4c-1.6,0.9-3.5,0.6-4.8-0.7
		l-43.7-43.9l28.3,55.1c0.8,1.6,0.5,3.5-0.8,4.7c-1.3,1.2-3.3,1.4-4.8,0.5l-53.2-31.7l41.1,46.3c1.2,1.3,1.3,3.3,0.4,4.8
		c-1,1.5-2.8,2.2-4.5,1.7l-59.4-17.5l51.3,34.6c1.5,1,2.1,2.9,1.6,4.6c-0.6,1.7-2.2,2.8-3.9,2.8L214,4826l58.3,20.8
		c1.7,0.6,2.8,2.2,2.6,4c-0.1,1.8-1.4,3.3-3.1,3.7l-60.5,13.3l61.7,5.6c1.8,0.2,3.2,1.5,3.6,3.2c0.3,1.8-0.5,3.5-2.1,4.3l-55.3,27.9
		l61.1-9.9c1.8-0.3,3.5,0.6,4.3,2.2c0.8,1.6,0.4,3.5-1,4.7l-46.6,40.8l56.8-24.8c1.6-0.7,3.5-0.3,4.7,1.1c1.1,1.4,1.2,3.3,0.2,4.8
		l-35,51.1l48.8-38.1c1.4-1.1,3.4-1.1,4.8-0.1c1.4,1,2,2.9,1.4,4.6l-21.2,58.2l37.8-49.1c1.1-1.4,3-1.9,4.6-1.3
		c1.7,0.7,2.7,2.3,2.5,4.1l-6,61.6l24.4-56.9C361.6,4960.7,363,4959.8,364.6,4959.8z"/>
</g>
<g>
	<path class="st3" d="M943.9,5042.1c-22.4,0-43-7.8-56.6-21.4c-11.2-11.2-22.8-31.5-14.6-64.4c4.1-16.5,12.8-34.2,25.9-53
		c-12.9,9-25.2,15.9-37.1,20.7c-23.3,9.4-44,10.6-61.5,3.3c-24.4-10.1-40.2-37.3-40.2-69.3c0-31.9,15.8-59.1,40.2-69.3
		c17.4-7.2,38.1-6.1,61.5,3.3c11.8,4.8,24.2,11.7,37.1,20.7c-13.1-18.8-21.8-36.5-25.9-53c-8.2-33,3.4-53.2,14.6-64.4
		c28.6-28.6,84.6-28.6,113.2,0c11.2,11.2,22.8,31.5,14.6,64.4c-4.1,16.5-12.8,34.2-25.9,53c12.9-9,25.2-15.9,37.1-20.7
		c23.3-9.4,44-10.6,61.5-3.3c24.4,10.1,40.2,37.3,40.2,69.3c0,31.9-15.8,59.1-40.2,69.3c-17.5,7.2-38.1,6.1-61.5-3.3
		c-11.8-4.8-24.2-11.7-37.1-20.7c13.1,18.8,21.8,36.5,25.9,53c8.2,33-3.4,53.2-14.6,64.4C986.9,5034.3,966.3,5042.1,943.9,5042.1z
		 M943.9,4865.2c-33.9,34.6-54.6,66.1-61.5,93.6c-5.6,22.5-1.5,41.5,11.9,54.9c24.5,24.5,74.5,24.5,99,0
		c13.4-13.4,17.6-32.4,11.9-54.9C998.5,4931.3,977.8,4899.8,943.9,4865.2z M951,4858.1c71.7,70.2,113.9,67.9,132.9,60
		c20.7-8.6,34.1-32.1,34.1-60c0-27.9-13.4-51.4-34.1-60C1064.9,4790.2,1022.7,4787.8,951,4858.1z M824.5,4794.2
		c-8.6,0-15.4,1.7-20.6,3.8c-20.7,8.6-34.1,32.1-34.1,60c0,27.9,13.4,51.4,34.1,60c18.9,7.8,61.2,10.2,132.9-60
		C884.5,4806.8,847.9,4794.2,824.5,4794.2z M943.9,4684.1c-18.6,0-37.2,6.1-49.5,18.4c-13.4,13.4-17.6,32.4-11.9,54.9
		c6.9,27.5,27.5,59,61.5,93.6c33.9-34.6,54.6-66.1,61.5-93.6c5.6-22.5,1.5-41.5-11.9-54.9C981.2,4690.2,962.5,4684.1,943.9,4684.1z"
		/>
</g>
<g>
	<path class="st4" d="M1473,5037.5c-1.8,0-4.1-0.7-6.4-2.9c-10.2-10-17.1-51.5-6.6-100.3c-26.3,42.4-60.1,67.4-74.4,67.5
		c0,0-0.1,0-0.1,0c-5.4,0-7.6-3.1-8.4-5c-3.6-8.4,5.6-24.7,19-42.3c-15,11.8-29,20.4-38,20.4c-1.5,0-2.8-0.2-4-0.7
		c-1.9-0.8-5.1-2.9-5.1-8.4c-0.1-14.3,24.3-48.5,66.2-75.5c-48.6,11.4-90.2,5.1-100.4-4.9c-3.9-3.9-3.2-7.6-2.5-9.5
		c3.4-8.5,21.4-13.5,43.4-16.5c-22-2.6-40.1-7.4-43.6-15.8c-0.8-1.9-1.6-5.6,2.3-9.6c10-10.2,51.5-17.1,100.3-6.6
		c-42.4-26.3-67.4-60.1-67.5-74.4c0-5.5,3.1-7.7,5-8.5c8.4-3.6,24.7,5.6,42.3,19c-13.7-17.4-23.1-33.5-19.7-42
		c0.8-1.9,2.9-5.1,8.4-5.1c0,0,0.1,0,0.1,0c14.4,0,48.5,24.4,75.4,66.2c-11.4-48.6-5.1-90.2,4.9-100.4c3.9-3.9,7.6-3.2,9.5-2.5
		c8.5,3.4,13.5,21.4,16.5,43.4c2.6-22,7.4-40.1,15.8-43.6c1.9-0.8,5.6-1.6,9.6,2.3c10.2,10,17.1,51.5,6.6,100.3
		c26.3-42.4,60.1-67.4,74.4-67.5c0,0,0.1,0,0.1,0c5.4,0,7.6,3.1,8.4,5c3.6,8.4-5.6,24.7-19,42.3c17.4-13.7,33.5-23.1,42-19.7
		c1.9,0.8,5.1,2.9,5.1,8.4c0.1,14.3-24.3,48.5-66.2,75.5c48.6-11.4,90.2-5.1,100.4,4.9c3.9,3.9,3.2,7.6,2.5,9.5
		c-3.4,8.5-21.4,13.5-43.4,16.5c22,2.6,40.1,7.4,43.6,15.8c0.8,1.9,1.6,5.6-2.3,9.6c-10,10.2-51.5,17.1-100.3,6.6
		c42.4,26.3,67.4,60.1,67.5,74.4c0,5.5-3.1,7.7-5,8.5c-8.4,3.6-24.7-5.6-42.3-19c13.7,17.4,23.1,33.5,19.7,42
		c-0.8,1.9-2.9,5.1-8.4,5.1c0,0-0.1,0-0.1,0c-14.4,0-48.5-24.4-75.4-66.2c11.4,48.6,5.1,90.2-4.9,100.4c-3.9,3.9-7.6,3.2-9.5,2.5
		c-8.5-3.4-13.5-21.4-16.5-43.4c-2.6,22-7.4,40.1-15.8,43.6C1475.3,5037.2,1474.3,5037.5,1473,5037.5z M1478.7,4896.6
		c0,0.4-0.1,0.9-0.3,1.3c-24.9,61.7-17.1,121.7-7,131.7c1.2,1.2,1.7,0.9,1.9,0.8c5.3-2.2,15.1-27.3,14.5-105.9c0,0,0,0,0,0
		c0-1.9,1.5-3.5,3.5-3.5c0,0,0,0,0,0c1.9,0,3.5,1.5,3.5,3.5c0.7,78.6,10.9,103.5,16.2,105.6c0.2,0.1,0.8,0.3,1.9-0.9
		c9.9-10.1,16.8-70.3-9.2-131.5c-0.2-0.4-0.3-0.9-0.3-1.4c0-1.4,0.8-2.7,2.1-3.2c1.8-0.8,3.8,0.1,4.6,1.9
		c25.9,61.2,73.8,98.1,88.1,98.1c0,0,0,0,0.1,0c1.7,0,1.9-0.5,2-0.8c2.2-5.3-8.6-30-64.6-85.1c-0.7-0.7-1-1.6-1-2.5
		c0-0.9,0.3-1.8,1-2.5c1.4-1.4,3.6-1.4,4.9,0c56,55.1,80.9,65.4,86.1,63.2c0.2-0.1,0.7-0.3,0.7-2c-0.1-14.2-37.8-61.5-99.5-86.5
		c-1.4-0.6-2.2-1.9-2.2-3.2c0-0.4,0.1-0.9,0.3-1.3c0.7-1.8,2.8-2.7,4.6-1.9c61.7,25,121.7,17.1,131.7,7c1.2-1.2,0.9-1.7,0.8-1.9
		c-2.2-5.3-27.3-15.1-105.9-14.5c0,0,0,0,0,0c-1.9,0-3.5-1.5-3.5-3.5c0,0,0,0,0,0c0-1.9,1.5-3.5,3.5-3.5
		c78.6-0.7,103.5-10.9,105.6-16.2c0.1-0.2,0.3-0.8-0.9-1.9c-10.1-9.9-70.3-16.8-131.5,9.2c-1.8,0.8-3.8-0.1-4.6-1.9
		c-0.2-0.4-0.3-0.9-0.3-1.4c0-1.4,0.8-2.7,2.1-3.2c61.3-26,98.2-74,98.1-88.1c0-1.7-0.5-1.9-0.8-2c-5.3-2.2-30,8.6-85.1,64.6
		c-1.4,1.4-3.6,1.4-4.9,0c-0.7-0.7-1-1.6-1-2.5c0-0.9,0.3-1.8,1-2.5c55.1-56,65.5-80.9,63.2-86.1c-0.1-0.2-0.3-0.7-2-0.7
		c-14.2,0.1-61.5,37.8-86.5,99.5c-0.7,1.8-2.8,2.7-4.6,1.9c-1.4-0.6-2.2-1.9-2.2-3.2c0-0.4,0.1-0.9,0.3-1.3
		c24.9-61.7,17.1-121.7,7-131.7c-1.2-1.2-1.7-0.9-1.9-0.8c-5.3,2.2-15.1,27.3-14.5,105.9c0,0,0,0,0,0c0,1.9-1.5,3.5-3.5,3.5
		c0,0,0,0,0,0c-1.9,0-3.5-1.5-3.5-3.5c-0.7-78.6-10.9-103.5-16.2-105.6c-0.2-0.1-0.8-0.3-1.9,0.9c-9.9,10.1-16.8,70.3,9.2,131.5
		c0.2,0.4,0.3,0.9,0.3,1.4c0,1.4-0.8,2.7-2.1,3.2c-1.8,0.8-3.8-0.1-4.6-1.9c-25.9-61.2-73.8-98.1-88.1-98.1c0,0,0,0-0.1,0
		c-1.7,0-1.9,0.5-2,0.8c-2.2,5.3,8.6,30,64.6,85.1c0.7,0.7,1,1.6,1,2.5c0,0.9-0.3,1.8-1,2.5c-1.4,1.4-3.6,1.4-4.9,0
		c-56-55.1-80.9-65.4-86.1-63.2c-0.2,0.1-0.7,0.3-0.7,2c0.1,14.2,37.8,61.5,99.5,86.5c1.4,0.6,2.2,1.9,2.2,3.2
		c0,0.4-0.1,0.9-0.3,1.3c-0.7,1.8-2.8,2.7-4.6,1.9c-61.7-25-121.7-17.1-131.7-7c-1.2,1.2-0.9,1.7-0.8,1.9
		c2.2,5.3,27.2,15.1,105.9,14.5c0,0,0,0,0,0c1.9,0,3.5,1.5,3.5,3.5c0,0,0,0,0,0c0,1.9-1.5,3.5-3.5,3.5
		c-78.6,0.7-103.5,10.9-105.6,16.2c-0.1,0.2-0.3,0.8,0.9,1.9c10.1,9.9,70.3,16.8,131.5-9.2c1.8-0.8,3.8,0.1,4.6,1.9
		c0.2,0.4,0.3,0.9,0.3,1.4c0,1.4-0.8,2.7-2.1,3.2c-61.3,26-98.2,74-98.1,88.1c0,1.7,0.5,1.9,0.8,2c5.3,2.2,30-8.6,85.1-64.6
		c1.4-1.4,3.6-1.4,4.9,0c0.7,0.7,1,1.6,1,2.5c0,0.9-0.3,1.8-1,2.5c-55.1,56-65.5,80.9-63.2,86.1c0.1,0.2,0.3,0.7,1.9,0.7
		c0,0,0,0,0.1,0c14.2-0.1,61.5-37.8,86.5-99.5c0.7-1.8,2.8-2.7,4.6-1.9C1477.9,4893.9,1478.7,4895.2,1478.7,4896.6z"/>
</g>
<g>
	<g>
		<path class="st2" d="M2047.2,5073c-24.6,0-47.5-22.6-64.6-63.7c-16.8-40.4-26-94.1-26-151.1s9.2-110.7,26-151.1
			c17-41.1,40-63.7,64.6-63.7s47.5,22.6,64.6,63.7c16.8,40.4,26,94.1,26,151.1s-9.2,110.7-26,151.1
			C2094.7,5050.3,2071.8,5073,2047.2,5073z M2047.2,4648.2c-22.4,0-43.7,21.5-59.9,60.7c-16.5,39.8-25.6,92.8-25.6,149.2
			s9.1,109.4,25.6,149.2c16.2,39.1,37.5,60.7,59.9,60.7s43.7-21.5,59.9-60.7c16.5-39.8,25.6-92.8,25.6-149.2s-9.1-109.4-25.6-149.2
			C2090.9,4669.8,2069.6,4648.2,2047.2,4648.2z"/>
	</g>
	<g>
		<path class="st2" d="M2047.2,4948.6c-57.1,0-110.7-9.2-151.1-26c-41.1-17-63.7-40-63.7-64.6s22.6-47.5,63.7-64.6
			c40.4-16.8,94.1-26,151.1-26s110.7,9.2,151.1,26c41.1,17,63.7,40,63.7,64.6s-22.6,47.5-63.7,64.6
			C2157.9,4939.4,2104.2,4948.6,2047.2,4948.6z M2047.2,4772.5c-56.4,0-109.4,9.1-149.2,25.6c-39.1,16.2-60.7,37.5-60.7,59.9
			c0,22.4,21.5,43.7,60.7,59.9c39.8,16.5,92.8,25.6,149.2,25.6s109.4-9.1,149.2-25.6c39.1-16.2,60.7-37.5,60.7-59.9
			c0-22.4-21.5-43.7-60.7-59.9C2156.6,4781.6,2103.6,4772.5,2047.2,4772.5z"/>
	</g>
	<g>
		<path class="st2" d="M2125.6,5053.8c-19.1,0-42.1-10.8-66.9-31.8c-33.4-28.3-66.1-71.8-92.1-122.6s-42.4-102.7-45.9-146.3
			c-3.6-44.4,6.5-75,28.3-86.2c21.9-11.2,52.6-1.6,86.5,27.2c33.4,28.3,66.1,71.8,92.1,122.6s42.4,102.7,45.9,146.3
			c3.6,44.4-6.5,75-28.3,86.2C2139.3,5052.3,2132.7,5053.8,2125.6,5053.8z M1968.8,4667.3c-6.4,0-12.2,1.3-17.5,4
			c-20,10.2-29.1,39.1-25.6,81.3c3.5,43,19.6,94.3,45.4,144.4c25.8,50.2,58,93.2,90.9,121.1c32.3,27.4,61.1,36.8,81,26.6
			c20-10.2,29.1-39.1,25.6-81.3c-3.5-43-19.6-94.3-45.4-144.4l0,0c-25.8-50.2-58-93.2-90.9-121.1
			C2008.6,4677.8,1986.7,4667.3,1968.8,4667.3z"/>
	</g>
	<g>
		<path class="st2" d="M2171.2,4991.3c-7.9,0-16.4-0.6-25.4-1.8c-43.4-5.7-94.5-24.5-143.9-53.1c-49.4-28.5-91.3-63.4-117.9-98.1
			c-27.1-35.3-35.2-66.5-22.9-87.8c12.3-21.3,43.4-29.8,87.5-24c43.4,5.7,94.5,24.5,143.9,53.1c49.4,28.5,91.3,63.4,117.9,98.1
			c27.1,35.3,35.2,66.5,22.9,87.8C2223.5,4982.5,2201.8,4991.3,2171.2,4991.3z M1923,4729.8c-28.7,0-48.8,8-57.6,23.3
			c-11.2,19.4-3.2,48.6,22.6,82.2c26.2,34.2,67.6,68.6,116.4,96.8c48.9,28.2,99.3,46.8,142,52.4c42,5.5,71.3-2.1,82.5-21.6
			s3.2-48.6-22.6-82.2c-26.2-34.2-67.6-68.6-116.4-96.8l0,0c-48.9-28.2-99.3-46.8-142-52.4C1939,4730.4,1930.7,4729.8,1923,4729.8z"
			/>
	</g>
	<g>
		<path class="st2" d="M1968.7,5053.8c-7.1,0-13.7-1.5-19.7-4.6c-21.9-11.2-31.9-41.8-28.3-86.2c3.5-43.6,19.8-95.6,45.9-146.3
			l2.2,1.1l-2.2-1.1c26-50.8,58.8-94.3,92.1-122.6c33.9-28.8,64.7-38.5,86.5-27.2c21.9,11.2,31.9,41.8,28.3,86.2
			c-3.5,43.6-19.8,95.6-45.9,146.3s-58.8,94.3-92.1,122.6C2010.9,5043,1987.9,5053.8,1968.7,5053.8z M2125.5,4667.3
			c-17.9,0-39.7,10.4-63.5,30.6c-32.9,27.9-65.2,70.9-90.9,121.1l0,0c-25.8,50.2-41.9,101.5-45.4,144.4
			c-3.4,42.2,5.7,71.1,25.6,81.3c20,10.2,48.7,0.8,81-26.6c32.9-27.9,65.2-70.9,90.9-121.1c25.8-50.2,41.9-101.5,45.4-144.4
			c3.4-42.2-5.7-71.1-25.6-81.3C2137.8,4668.7,2131.9,4667.3,2125.5,4667.3z"/>
	</g>
	<g>
		<path class="st2" d="M1923.2,4991.3c-30.7,0-52.3-8.9-62.1-25.8c-12.3-21.3-4.2-52.5,22.9-87.8c26.6-34.7,68.5-69.5,117.9-98.1
			l0,0c49.4-28.5,100.5-47.4,143.9-53.1c44.1-5.8,75.2,2.7,87.5,24c12.3,21.3,4.2,52.5-22.9,87.8c-26.6,34.7-68.5,69.5-117.9,98.1
			c-49.4,28.5-100.5,47.4-143.9,53.1C1939.5,4990.8,1931.1,4991.3,1923.2,4991.3z M2171.3,4729.8c-7.7,0-16,0.6-24.9,1.7
			c-42.7,5.6-93.2,24.2-142,52.4l0,0c-48.9,28.2-90.2,62.6-116.4,96.8c-25.8,33.6-33.8,62.8-22.6,82.2s40.5,27.1,82.5,21.6
			c42.7-5.6,93.2-24.2,142-52.4c48.9-28.2,90.2-62.6,116.4-96.8c25.8-33.6,33.8-62.8,22.6-82.2
			C2220.1,4737.8,2200,4729.8,2171.3,4729.8z"/>
	</g>
</g>
<g>
	<path class="st5" d="M2603.6,5118.1l-4-35c-3.1-26.9-6.1-51.2-8.7-72.6c-7.7-62.2-12.9-103.6-9.1-130.7c-6.3,0.9-13.4,1.3-21.3,1.3
		c-26.2,0-61.7-4.4-109.4-10.4c-21.4-2.7-45.7-5.7-72.6-8.7l-35-4l35-4c26.9-3.1,51.2-6.1,72.6-8.7c62.2-7.7,103.6-12.9,130.7-9.1
		c-3.8-27.1,1.3-68.5,9.1-130.7c2.7-21.4,5.7-45.7,8.7-72.6l4-35l4,35c3.1,26.9,6.1,51.2,8.7,72.6c7.7,62.2,12.9,103.6,9.1,130.7
		c27.1-3.8,68.5,1.3,130.7,9.1c21.4,2.7,45.7,5.7,72.6,8.7l35,4l-35,4c-26.9,3.1-51.2,6.1-72.6,8.7c-62.2,7.7-103.6,12.9-130.7,9.1
		c3.8,27.1-1.3,68.5-9.1,130.7c-2.7,21.4-5.7,45.7-8.7,72.6L2603.6,5118.1z M2590,4878.3c-4.4,25.3,0.7,66.9,8.8,131.3
		c1.5,12,3.1,25,4.8,38.8c1.7-13.8,3.3-26.8,4.8-38.8c8-64.4,13.2-105.9,8.8-131.3c-5.1-1.2-9.6-2.9-13.5-5.1
		C2599.6,4875.4,2595.1,4877.1,2590,4878.3z M2413.2,4858.1c13.8,1.7,26.8,3.3,38.8,4.8c64.4,8,105.9,13.2,131.3,8.8
		c1.2-5.1,2.9-9.6,5.1-13.5c-2.2-3.9-3.9-8.4-5.1-13.5c-25.3-4.4-66.9,0.7-131.3,8.8C2440,4854.8,2427.1,4856.4,2413.2,4858.1z
		 M2623.8,4871.6c25.3,4.4,66.9-0.7,131.3-8.8c12-1.5,25-3.1,38.8-4.8c-13.8-1.7-26.8-3.3-38.8-4.8c-64.4-8-105.9-13.2-131.3-8.8
		c-1.2,5.1-2.9,9.6-5.1,13.5C2620.9,4862,2622.5,4866.5,2623.8,4871.6z M2593.7,4865.5c-0.6,1.3-1.1,2.6-1.5,4c1.4-0.5,2.7-1,4-1.5
		c-0.4-0.4-0.9-0.8-1.3-1.2S2594.1,4865.9,2593.7,4865.5z M2610.9,4868c1.3,0.6,2.6,1.1,4,1.5c-0.5-1.4-1-2.7-1.5-4
		c-0.4,0.4-0.8,0.9-1.2,1.3C2611.8,4867.2,2611.4,4867.6,2610.9,4868z M2597.9,4858.1c0.8,1.1,1.7,2.1,2.6,3s1.9,1.8,3,2.6
		c1.1-0.8,2.1-1.7,3-2.6s1.8-1.9,2.6-3c-0.8-1.1-1.7-2.1-2.6-3s-1.9-1.8-3-2.6c-1.1,0.8-2.1,1.7-3,2.6S2598.8,4857,2597.9,4858.1z
		 M2592.2,4846.7c0.5,1.4,1,2.7,1.5,4c0.4-0.4,0.8-0.9,1.2-1.3c0.4-0.4,0.8-0.8,1.3-1.2C2594.9,4847.7,2593.6,4847.2,2592.2,4846.7z
		 M2610.9,4848.2c0.4,0.4,0.9,0.8,1.3,1.2c0.4,0.4,0.8,0.8,1.2,1.3c0.6-1.3,1.1-2.6,1.5-4
		C2613.5,4847.2,2612.2,4847.7,2610.9,4848.2z M2590,4837.9c5.1,1.2,9.6,2.9,13.5,5.1c3.9-2.2,8.4-3.9,13.5-5.1
		c4.4-25.3-0.7-66.9-8.8-131.3c-1.5-12-3.1-25-4.8-38.8c-1.7,13.8-3.3,26.8-4.8,38.8C2590.7,4771,2585.6,4812.5,2590,4837.9z"/>
</g>
<g>
	<path class="st1" d="M378,5609.8c-39,0-75.7-20.5-103.1-57.7c-27.2-36.8-42.2-85.7-42.2-137.7s15-100.9,42.2-137.7
		c27.5-37.2,64.1-57.7,103.1-57.7c39,0,75.7,20.5,103.1,57.7c27.2,36.8,42.2,85.7,42.2,137.7s-15,100.9-42.2,137.7
		C453.7,5589.4,417.1,5609.8,378,5609.8z M378,5227.1c-75.7,0-137.3,84.1-137.3,187.4c0,103.3,61.6,187.4,137.3,187.4
		c75.7,0,137.3-84.1,137.3-187.4C515.3,5311.2,453.7,5227.1,378,5227.1z"/>
</g>
<g>
	<path class="st3" d="M1005.3,5612.8H863.6v-10c0.1,0,8.9-2.8,16.7-54c5.5-36.1,8.6-83.8,8.6-134.3c0-50.5-3-98.2-8.6-134.3
		c-7.8-51.2-16.6-54-16.7-54l0-10h141.7v10c-0.1,0-8.9,2.8-16.7,54c-5.5,36.1-8.6,83.8-8.6,134.3c0,50.5,3,98.2,8.6,134.3
		c7.8,51.2,16.6,54,16.7,54L1005.3,5612.8z M876.3,5602.8h116.3c-4.6-8.4-9.4-23.6-13.6-50.8c-5.8-36.8-8.9-85.6-8.9-137.4
		s3.2-100.7,8.9-137.4c4.3-27.2,9-42.4,13.6-50.8H876.3c4.6,8.4,9.4,23.6,13.6,50.8c5.8,36.8,8.9,85.6,8.9,137.4
		s-3.2,100.7-8.9,137.4C885.6,5579.1,880.9,5594.4,876.3,5602.8z"/>
</g>
<g>
	<path class="st4" d="M1569.5,5611.3c-32.9,0-65.5-13.7-97.5-27.1c-55.8-23.4-108.4-45.5-161.9-0.6l-6.6,5.5v-342.5l1.4-1.2
		c57.2-48.1,114.6-23.9,170.1-0.6c55.8,23.4,108.4,45.5,161.9,0.6l6.6-5.5v342.5l-1.4,1.2
		C1617.9,5603.9,1593.6,5611.3,1569.5,5611.3z M1377.6,5549.7c32.9,0,65.5,13.7,97.5,27.1c55.3,23.2,107.5,45.1,160.5,1.8v-321.9
		c-22.1,16.4-44.1,22.6-66.1,22.6c-32.9,0-65.5-13.7-97.5-27.1c-55.3-23.2-107.5-45.1-160.5-1.8v321.9
		C1333.6,5555.8,1355.7,5549.7,1377.6,5549.7z"/>
</g>
<g>
	<path class="st2" d="M2215,5587.3c-0.1,0-0.2,0-0.4,0l-179.5-13.2c-38.2-2.8-74.1-19.3-101.2-46.3s-43.5-63-46.3-101.2l-13.2-179.5
		c-0.1-1.5,0.4-2.9,1.5-3.9c1-1,2.4-1.6,3.9-1.5l179.5,13.2c38.2,2.8,74.1,19.3,101.2,46.3c27.1,27.1,43.5,63,46.3,101.2l13.2,179.5
		c0.1,1.5-0.4,2.9-1.5,3.9C2217.6,5586.8,2216.3,5587.3,2215,5587.3z M1884.8,5252.1l12.8,173.8c5.4,73.4,64.9,132.9,138.3,138.3
		l0,0l173.8,12.8l-12.8-173.8c-5.4-73.4-64.9-132.9-138.3-138.3L1884.8,5252.1z"/>
</g>
<g>
	<path class="st5" d="M2547.1,4307H2660c0.8,0,1.5,0,2.3-0.1c1.3-0.1,2.5-0.2,3.7-0.4c0.5-0.1,1.1-0.2,1.6-0.3
		c1.9-0.4,3.7-0.8,5.6-1.5c1.4-0.5,2.8-1.1,4.2-1.7c0,0,0,0,0,0c14-6.7,23.1-21,23.1-36.5c0-15.5-9.1-29.8-23.1-36.5
		c-5.4-2.6-11.3-3.9-17.4-3.9h-112.9c-16.5,0-29.9-13.4-29.9-29.9c0-16.5,13.4-29.9,29.9-29.9H2660c1.5,0,3-0.1,4.5-0.2
		c0.8-0.1,1.6-0.2,2.5-0.4c3.6-0.6,7.1-1.7,10.4-3.3c14-6.7,23.1-21,23.1-36.5c0-22.3-18.1-40.5-40.5-40.5h-118.6
		c-1.9,0-3.5,1.6-3.5,3.5v3.6c0,1.9,1.6,3.5,3.5,3.5H2660c16.5,0,29.9,13.4,29.9,29.9s-13.4,29.9-29.9,29.9h-112.9
		c-1.7,0-3.3,0.1-4.9,0.3c-3.6,0.4-7.1,1.3-10.4,2.7c-0.7,0.3-1.4,0.6-2.1,0.9c0,0,0,0,0,0c-14,6.7-23.1,21-23.1,36.5
		c0,15.5,9.1,29.8,23.1,36.5c5.4,2.6,11.3,3.9,17.4,3.9H2660c16.5,0,29.9,13.4,29.9,29.9s-13.4,29.9-29.9,29.9h-112.9
		c-0.8,0-1.5,0-2.3,0.1c-1.8,0.1-3.6,0.3-5.4,0.7c-1.6,0.3-3.2,0.7-4.7,1.2c-1.7,0.5-3.4,1.2-5,2c0,0,0,0,0,0
		c-14,6.7-23.1,21-23.1,36.5c0,15.5,9.1,29.9,23.1,36.5c5.4,2.6,11.3,3.9,17.4,3.9H2660c16.5,0,29.9,13.4,29.9,29.9
		s-13.4,29.9-29.9,29.9h-112.9c-1.5,0-3,0.1-4.5,0.2c-0.8,0.1-1.6,0.2-2.5,0.4c-3.6,0.6-7.1,1.7-10.4,3.3c-14,6.7-23.1,21-23.1,36.5
		c0,22.3,18.1,40.5,40.5,40.5h115.6c1.9,0,3.5-1.6,3.5-3.5v-3.6c0-1.9-1.6-3.5-3.5-3.5h-115.6c-16.5,0-29.9-13.4-29.9-29.9
		c0-16.5,13.4-29.9,29.9-29.9H2660c1.5,0,3-0.1,4.5-0.2c4.5-0.5,8.8-1.7,12.8-3.7c0,0,0,0,0,0c0,0,0,0,0,0s0,0,0,0
		c14-6.7,23.1-21,23.1-36.5c0-15.5-9.1-29.9-23.1-36.5c-5.4-2.6-11.3-3.9-17.4-3.9h-112.9c-16.5,0-29.9-13.4-29.9-29.9
		C2517.2,4320.4,2530.6,4307,2547.1,4307z"/>
</g>
<g>
	<path class="st3" d="M903.9,3378.2c-0.2,0-0.3,0-0.5-0.1l-12.4-2.6c-0.6-0.1-1.2-0.5-1.6-1.1c-0.4-0.6-0.5-1.2-0.4-1.9l27.1-130.5
		l-64.4,115.8c-0.3,0.6-0.9,1-1.5,1.2c-0.6,0.2-1.3,0.1-1.9-0.2l-11.1-6.2c-1.2-0.7-1.6-2.2-1-3.4l61.7-110.9l-89.8,86
		c-1,1-2.6,0.9-3.5-0.1l-8.8-9.2c-0.5-0.5-0.7-1.1-0.7-1.8c0-0.7,0.3-1.3,0.8-1.8l90.1-86.3l-111.9,56.9c-0.6,0.3-1.3,0.4-1.9,0.1
		c-0.6-0.2-1.2-0.7-1.5-1.2l-5.7-11.3c-0.6-1.2-0.1-2.7,1.1-3.4l112.7-57.3l-127,22.7c-0.7,0.1-1.3,0-1.9-0.4c-0.5-0.4-0.9-1-1-1.6
		l-2.2-12.5c-0.2-1.4,0.7-2.7,2-2.9l123.5-22.1l-124.5-14.3c-1.4-0.2-2.4-1.4-2.2-2.8l1.4-12.6c0.1-0.7,0.4-1.3,0.9-1.7
		c0.5-0.4,1.2-0.6,1.8-0.5l124.2,14.2l-113.5-50.7c-0.6-0.3-1.1-0.8-1.3-1.4c-0.2-0.6-0.2-1.3,0.1-1.9l5.2-11.6
		c0.6-1.3,2-1.8,3.3-1.3l114.2,51.1l-95.7-80.1c-0.5-0.4-0.8-1-0.9-1.7c-0.1-0.7,0.1-1.3,0.6-1.8l8.1-9.7c0.9-1.1,2.5-1.2,3.5-0.3
		l97.3,81.4l-68.4-103.9c-0.4-0.6-0.5-1.2-0.4-1.9c0.1-0.6,0.5-1.2,1.1-1.6l10.6-7c1.2-0.8,2.7-0.4,3.5,0.7l68.5,104.2l-37.9-120.4
		c-0.2-0.6-0.1-1.3,0.2-1.9c0.3-0.6,0.8-1,1.5-1.2l12.1-3.8c1.3-0.4,2.7,0.3,3.1,1.6l37.7,119.7v-129c0-1.4,1.1-2.5,2.5-2.5h12.7
		c1.4,0,2.5,1.1,2.5,2.5v133l49-122.3c0.2-0.6,0.7-1.1,1.3-1.4c0.6-0.3,1.3-0.3,1.9,0l11.8,4.7c1.3,0.5,1.9,2,1.4,3.3l-46.9,117.1
		l76.3-98.7c0.8-1.1,2.4-1.3,3.5-0.5l10,7.8c0.5,0.4,0.9,1,1,1.7c0.1,0.7-0.1,1.3-0.5,1.8l-76.1,98.4l103.2-73.8
		c0.5-0.4,1.2-0.5,1.9-0.4c0.7,0.1,1.2,0.5,1.6,1l7.4,10.3c0.8,1.1,0.5,2.7-0.6,3.5l-101.5,72.6l117.8-42.2c0.6-0.2,1.3-0.2,1.9,0.1
		c0.6,0.3,1.1,0.8,1.3,1.4l4.3,11.9c0.5,1.3-0.2,2.7-1.5,3.2l-117,42l124.9-4.7c1.4-0.1,2.5,1,2.6,2.4l0.5,12.7
		c0,0.7-0.2,1.3-0.7,1.8s-1.1,0.8-1.7,0.8l-125.2,4.7l121.5,31.4c1.3,0.3,2.1,1.7,1.8,3l-3.2,12.3c-0.2,0.6-0.6,1.2-1.2,1.5
		c-0.6,0.3-1.3,0.4-1.9,0.3l-124.9-32.3l108.1,65.7c1.2,0.7,1.6,2.3,0.8,3.4l-6.6,10.8c-0.3,0.6-0.9,1-1.5,1.1
		c-0.6,0.2-1.3,0.1-1.9-0.3l-107.3-65.2l83.3,92.9c0.9,1,0.8,2.6-0.2,3.5l-9.4,8.5c-0.5,0.4-1.1,0.7-1.8,0.6c-0.7,0-1.3-0.3-1.7-0.8
		l-83-92.6l53.1,115.2c0.3,0.6,0.3,1.3,0.1,1.9c-0.2,0.6-0.7,1.1-1.3,1.4l-11.5,5.3c-1.3,0.6-2.7,0-3.3-1.2l-52.5-113.9l15.9,123.2
		c0.2,1.4-0.8,2.6-2.2,2.8l-12.6,1.6c-0.7,0.1-1.3-0.1-1.8-0.5c-0.5-0.4-0.9-1-1-1.7l-16.3-125.7l-26.8,129.2
		C906.1,3377.4,905.1,3378.2,903.9,3378.2z M894.5,3371.2l7.5,1.6l29.3-141.4c0.2-1.2,1.3-2,2.5-2c1.2,0,2.2,1,2.4,2.2l17.8,137.9
		l7.6-1L944,3231.6c-0.2-1.2,0.6-2.4,1.8-2.7c1.2-0.3,2.4,0.2,3,1.4l58.3,126.5l7-3.2l-59-128c-0.5-1.1-0.1-2.5,0.9-3.1
		c1-0.7,2.4-0.5,3.2,0.4l92.4,103.1l5.7-5.1l-92.9-103.6c-0.8-0.9-0.9-2.3-0.1-3.3c0.8-1,2.2-1.2,3.2-0.5l119.6,72.7l4-6.6
		l-120.4-73.2c-1.1-0.6-1.5-2-1-3.1c0.5-1.1,1.7-1.8,2.9-1.4l138.9,35.9l1.9-7.4l-135.6-35.1c-1.2-0.3-2-1.5-1.9-2.7
		c0.1-1.2,1.2-2.2,2.4-2.2l139.8-5.3l-0.3-7.7l-138.6,5.3c-1.2,0-2.3-0.8-2.5-2c-0.2-1.2,0.4-2.4,1.6-2.8l129.9-46.6l-2.6-7.2
		l-132.3,47.5c-1.2,0.4-2.5-0.1-3.1-1.2c-0.6-1.1-0.3-2.5,0.8-3.2l114.1-81.6l-4.5-6.2l-115,82.3c-1,0.7-2.4,0.6-3.3-0.3
		c-0.9-0.9-0.9-2.3-0.2-3.3l85-109.9l-6.1-4.7l-85.7,110.9c-0.8,1-2.1,1.3-3.2,0.6c-1.1-0.6-1.5-1.9-1.1-3.1l52.6-131.5l-7.1-2.9
		l-52.9,132c-0.4,1.1-1.6,1.8-2.8,1.5c-1.2-0.2-2-1.3-2-2.5v-143.5h-7.7v142.8c0,1.2-0.9,2.3-2.1,2.5c-1.2,0.2-2.4-0.5-2.8-1.7
		l-41.8-132.8l-7.3,2.3l42.5,135.1c0.4,1.2-0.2,2.5-1.3,3c-1.1,0.5-2.5,0.2-3.2-0.9l-77-117.1l-6.4,4.2l76.4,116.1
		c0.7,1,0.5,2.4-0.4,3.2c-0.9,0.8-2.3,0.8-3.3,0.1l-108.4-90.8l-4.9,5.9l107.6,90.1c1,0.8,1.2,2.2,0.5,3.2c-0.7,1.1-2,1.5-3.1,1
		l-128.3-57.4l-3.1,7l126,56.3c1.1,0.5,1.7,1.8,1.4,2.9c-0.3,1.2-1.5,2-2.7,1.8l-137.8-15.8l-0.9,7.6l139,15.9
		c1.2,0.1,2.2,1.2,2.2,2.4c0,1.2-0.8,2.3-2.1,2.5L752.1,3219l1.4,7.6l141.2-25.3c1.2-0.2,2.4,0.5,2.8,1.7c0.4,1.2-0.1,2.5-1.2,3
		l-125.6,63.8l3.5,6.8l124.7-63.4c1.1-0.6,2.5-0.2,3.2,0.8c0.7,1,0.6,2.4-0.3,3.3l-100.5,96.3l5.3,5.5l99.9-95.8
		c0.9-0.9,2.3-0.9,3.3-0.2c1,0.8,1.3,2.1,0.7,3.2l-68.5,123.2l6.7,3.7l71.1-127.9c0.6-1.1,1.9-1.6,3.1-1.1c1.2,0.4,1.8,1.6,1.6,2.9
		L894.5,3371.2z"/>
</g>
<g>
	<path class="st5" d="M2595.6,5596.6c-1.6,0-3.2-0.6-4.5-1.7c-1.5-1.3-2.3-3.2-2.2-5.2l3.8-107.1l-43.4,75.6
		c-2.3,3.6-10.9,15.6-26.6,17.3c-5.3,0.6-10.7-0.1-15.9-2c-1.8-0.7-3.3-2.1-3.9-4c-0.7-1.9-0.5-3.9,0.5-5.6l52.6-91.5l-78.8,38.8
		c-2.8,1.2-17.4,7.1-31.8-0.5c-4.7-2.5-8.8-6-12-10.5c-1.1-1.6-1.5-3.6-1-5.5c0.5-1.9,1.8-3.5,3.5-4.4l105-51.8l-85.5-0.2
		c-3-0.1-18.7-1.4-28.3-14.5c-3.2-4.3-5.2-9.3-6.1-14.8c-0.3-1.9,0.2-3.9,1.5-5.4c1.3-1.5,3.1-2.4,5.1-2.4c0,0,0,0,0,0l102.4,0.2
		l-69.6-46.8c-2.5-1.8-14.8-11.6-15.4-27.8c-0.2-5.3,0.8-10.6,3.1-15.7c0.8-1.8,2.4-3.1,4.2-3.6c1.9-0.5,3.9-0.2,5.6,0.9l84.6,57
		l-42-63.1c-2.2-3.7-9.1-16.7-3.7-31.6c1.8-5,4.8-9.5,8.9-13.3c1.4-1.3,3.4-2,5.3-1.8c2,0.2,3.7,1.3,4.8,2.9l55.1,82.7l0-74.6
		c0.2-4.3,1.7-19,14.5-28.3c4.3-3.2,9.3-5.2,14.8-6.1c1.9-0.3,3.9,0.2,5.4,1.5c1.5,1.3,2.4,3.1,2.4,5.1v99.1l44.4-69.7
		c2.4-3.5,11.6-15.1,27.4-16.1c5.3-0.4,10.6,0.6,15.7,2.7c1.8,0.8,3.2,2.3,3.7,4.1c0.6,1.9,0.3,3.9-0.7,5.6l-55.8,87.7l73.1-41.8
		c2.7-1.4,16.9-8.1,31.8-1.5c4.9,2.2,9.1,5.5,12.6,9.8c1.2,1.5,1.7,3.5,1.4,5.4c-0.4,1.9-1.5,3.6-3.3,4.6l-89.9,51.4l83.6,0.8
		c3,0.1,18.7,1.5,28.2,14.7v0c3.1,4.4,5.1,9.3,6,14.8c0.3,1.9-0.3,3.9-1.5,5.4c-1.3,1.5-3.1,2.3-5.1,2.3c0,0,0,0-0.1,0l-97.4-0.9
		l65.6,43.3c3.5,2.5,14.9,11.9,15.7,27.7c0.3,5.3-0.7,10.6-3,15.7c-0.8,1.8-2.3,3.1-4.2,3.7c-1.9,0.5-3.9,0.2-5.6-0.8l-93.6-61.8
		l41.9,83.1c1.8,3.9,7,17.7-0.2,31.8c-2.4,4.8-5.9,8.8-10.4,12.1c-1.6,1.2-3.6,1.6-5.5,1.1c-1.9-0.5-3.5-1.7-4.4-3.5l-48.3-95.8
		l-3.2,89.1c-0.3,4.3-2.4,18.9-15.5,27.8c-4.4,3-9.5,4.9-15,5.6C2596.2,5596.5,2595.9,5596.6,2595.6,5596.6z M2602,5450.6
		l-4.9,137.8c3.6-0.7,7-2,9.9-4c10.3-7,11.8-19.1,12-21.7l4.3-120l61.6,122.2c2.9-2.3,5.1-5.1,6.7-8.3c5.6-11.1,1.1-22.4,0-24.8
		l-55.4-109.7l117.4,77.5c1.3-3.5,1.9-7,1.7-10.6c-0.6-12.4-10.2-20-12.3-21.5l-88.1-58.1l122.9,1.2c-0.8-3.6-2.2-6.9-4.3-9.8v0
		c-7.2-10.1-19.4-11.3-22-11.4l-112.9-1.1l114.2-65.2c-2.5-2.7-5.4-4.8-8.7-6.3c-11.3-5.1-22.4,0.1-24.7,1.2l-101,57.7l72.3-113.6
		c-3.5-1.3-7-1.8-10.6-1.5c-12.4,0.8-19.8,10.5-21.3,12.6l-59,92.7v-124.9c-3.6,0.8-6.9,2.3-9.8,4.4c-10,7.3-11.1,19.5-11.2,22.1
		v100.7l-68.9-103.3c-2.5,2.7-4.5,5.7-5.7,9.1c-4.3,11.7,1.6,22.4,2.9,24.6l64.4,96.6l-116.9-78.7c-1.3,3.4-1.9,7-1.8,10.6
		c0.5,12.4,10,20.1,12.1,21.6l91.2,61.4l-127.1-0.3c0.8,3.6,2.3,6.9,4.4,9.8c7.3,10,19.5,11.1,22.1,11.2l119.4,0.2l-134.2,66.1
		c2.3,2.9,5.1,5.2,8.3,6.8c11,5.8,22.4,1.3,24.8,0.3l102.2-50.3l-64.8,112.9c3.5,1.1,7.1,1.4,10.7,1.1c12.3-1.4,19.3-11.4,20.7-13.6
		L2602,5450.6z"/>
</g>
</svg>
