<?xml version="1.0" encoding="utf-8"?>
<!-- Generator: Adobe Illustrator 24.0.0, SVG Export Plug-In . SVG Version: 6.00 Build 0)  -->
<svg version="1.1" id="Layer_1" xmlns="http://www.w3.org/2000/svg" xmlns:xlink="http://www.w3.org/1999/xlink" x="0px" y="0px"
	 viewBox="0 0 3000 5800" style="enable-background:new 0 0 3000 5800;" xml:space="preserve">
<style type="text/css">
	.st0{fill:#FFFFFF;}
	.st1{fill:#780AE9;}
	.st2{fill:#EA83EC;}
	.st3{fill:#F8572B;}
	.st4{fill:#00B775;}
	.st5{fill:#FFC803;}
</style>
<rect class="st0" width="3000" height="5800"/>
<g>
	
		<ellipse transform="matrix(0.7071 -0.7071 0.7071 0.7071 -185.3445 397.1049)" class="st1" cx="386.7" cy="422.3" rx="230.5" ry="230.5"/>
</g>
<g>
	
		<ellipse transform="matrix(0.7071 -0.7071 0.7071 0.7071 305.6038 1582.3589)" class="st2" cx="2062.9" cy="422.3" rx="194.9" ry="194.9"/>
</g>
<g>
	<g>
		<polygon class="st3" points="950.1,408.5 916.3,622.1 990.2,622.1 		"/>
	</g>
	<g>
		<polygon class="st3" points="950.2,408.5 1062.5,593.4 1118.9,545.5 		"/>
	</g>
	<g>
		<polygon class="st3" points="950.1,408.5 1154.7,478.8 1167.5,405.9 		"/>
	</g>
	<g>
		<polygon class="st3" points="950.1,408.4 1151.3,329 1113.8,265.3 		"/>
	</g>
	<g>
		<polygon class="st3" points="950.1,408.4 1049.5,216.3 979.2,193 		"/>
	</g>
	<g>
		<polygon class="st3" points="950.1,408.5 837.8,593.4 781.4,545.5 		"/>
	</g>
	<g>
		<polygon class="st3" points="950.1,408.5 745.6,478.8 732.8,405.9 		"/>
	</g>
	<g>
		<polygon class="st3" points="950.1,408.4 748.9,329 786.5,265.3 		"/>
	</g>
	<g>
		<polygon class="st3" points="950.1,408.4 850.8,216.3 921,193 		"/>
	</g>
</g>
<g>
	<path class="st4" d="M1506.5,407.6c0-85,62.8-155.7,144.4-168c-28.2-16.1-60.8-25.2-95.6-25.2c-106.8,0-193.3,86.5-193.3,193.3
		s86.5,193.3,193.3,193.3c34.8,0,67.4-9.2,95.6-25.2C1569.3,563.3,1506.5,492.6,1506.5,407.6z"/>
</g>
<g>
	<path class="st5" d="M2746.2,577.8h-253.8V364.2c0-70.1,56.8-126.9,126.9-126.9h0c70.1,0,126.9,56.8,126.9,126.9V577.8z"/>
</g>
<g>
	<g>
		<g>
			<path class="st1" d="M550.6,924.1c-14.3,0-21.7-9.1-28.2-17c-6.3-7.7-12.3-15.1-24.1-15.1c-11.8,0-17.8,7.3-24.1,15.1
				c-6.5,8-13.9,17-28.2,17c-14.3,0-21.7-9.1-28.2-17c-6.3-7.7-12.3-15.1-24.1-15.1c-11.8,0-17.8,7.3-24.1,15.1
				c-6.5,8-13.9,17-28.2,17c-14.3,0-21.7-9.1-28.2-17c-6.3-7.7-12.3-15.1-24.1-15.1c-11.8,0-17.8,7.3-24.1,15.1
				c-6.5,8-13.9,17-28.2,17c-14.3,0-21.7-9.1-28.2-17c-6.3-7.7-12.3-15.1-24.1-15.1c-1.5,0-2.7-1.2-2.7-2.7c0-1.5,1.2-2.7,2.7-2.7
				c14.3,0,21.7,9.1,28.2,17c6.3,7.7,12.3,15.1,24.1,15.1c11.8,0,17.8-7.3,24.1-15.1c6.5-8,13.9-17,28.2-17c14.3,0,21.7,9.1,28.2,17
				c6.3,7.7,12.3,15.1,24.1,15.1c11.8,0,17.8-7.3,24.1-15.1c6.5-8,13.9-17,28.2-17c14.3,0,21.7,9.1,28.2,17
				c6.3,7.7,12.3,15.1,24.1,15.1c11.8,0,17.8-7.3,24.1-15.1c6.5-8,13.9-17,28.2-17c14.3,0,21.7,9.1,28.2,17
				c6.3,7.7,12.3,15.1,24.1,15.1c11.8,0,17.8-7.3,24.1-15.1c6.5-8,13.9-17,28.2-17c1.5,0,2.7,1.2,2.7,2.7c0,1.5-1.2,2.7-2.7,2.7
				c-11.8,0-17.8,7.3-24.1,15.1C572.3,915,564.9,924.1,550.6,924.1z"/>
		</g>
	</g>
	<g>
		<g>
			<path class="st1" d="M550.6,982.7c-14.3,0-21.7-9.1-28.2-17c-6.3-7.7-12.3-15.1-24.1-15.1c-11.8,0-17.8,7.3-24.1,15.1
				c-6.5,8-13.9,17-28.2,17c-14.3,0-21.7-9.1-28.2-17c-6.3-7.7-12.3-15.1-24.1-15.1c-11.8,0-17.8,7.3-24.1,15.1
				c-6.5,8-13.9,17-28.2,17c-14.3,0-21.7-9.1-28.2-17c-6.3-7.7-12.3-15.1-24.1-15.1c-11.8,0-17.8,7.3-24.1,15.1
				c-6.5,8-13.9,17-28.2,17c-14.3,0-21.7-9.1-28.2-17c-6.3-7.7-12.3-15.1-24.1-15.1c-1.5,0-2.7-1.2-2.7-2.7c0-1.5,1.2-2.7,2.7-2.7
				c14.3,0,21.7,9.1,28.2,17c6.3,7.7,12.3,15.1,24.1,15.1c11.8,0,17.8-7.3,24.1-15.1c6.5-8,13.9-17,28.2-17c14.3,0,21.7,9.1,28.2,17
				c6.3,7.7,12.3,15.1,24.1,15.1c11.8,0,17.8-7.3,24.1-15.1c6.5-8,13.9-17,28.2-17c14.3,0,21.7,9.1,28.2,17
				c6.3,7.7,12.3,15.1,24.1,15.1c11.8,0,17.8-7.3,24.1-15.1c6.5-8,13.9-17,28.2-17c14.3,0,21.7,9.1,28.2,17
				c6.3,7.7,12.3,15.1,24.1,15.1c11.8,0,17.8-7.3,24.1-15.1c6.5-8,13.9-17,28.2-17c1.5,0,2.7,1.2,2.7,2.7c0,1.5-1.2,2.7-2.7,2.7
				c-11.8,0-17.8,7.3-24.1,15.1C572.3,973.6,564.9,982.7,550.6,982.7z"/>
		</g>
	</g>
	<g>
		<g>
			<path class="st1" d="M550.6,1041.3c-14.3,0-21.7-9.1-28.2-17c-6.3-7.7-12.3-15.1-24.1-15.1c-11.8,0-17.8,7.3-24.1,15.1
				c-6.5,8-13.9,17-28.2,17c-14.3,0-21.7-9.1-28.2-17c-6.3-7.7-12.3-15.1-24.1-15.1c-11.8,0-17.8,7.3-24.1,15.1
				c-6.5,8-13.9,17-28.2,17c-14.3,0-21.7-9.1-28.2-17c-6.3-7.7-12.3-15.1-24.1-15.1c-11.8,0-17.8,7.3-24.1,15.1
				c-6.5,8-13.9,17-28.2,17c-14.3,0-21.7-9.1-28.2-17c-6.3-7.7-12.3-15.1-24.1-15.1c-1.5,0-2.7-1.2-2.7-2.7c0-1.5,1.2-2.7,2.7-2.7
				c14.3,0,21.7,9.1,28.2,17c6.3,7.7,12.3,15.1,24.1,15.1c11.8,0,17.8-7.3,24.1-15.1c6.5-8,13.9-17,28.2-17c14.3,0,21.7,9.1,28.2,17
				c6.3,7.7,12.3,15.1,24.1,15.1c11.8,0,17.8-7.3,24.1-15.1c6.5-8,13.9-17,28.2-17c14.3,0,21.7,9.1,28.2,17
				c6.3,7.7,12.3,15.1,24.1,15.1c11.8,0,17.8-7.3,24.1-15.1c6.5-8,13.9-17,28.2-17c14.3,0,21.7,9.1,28.2,17
				c6.3,7.7,12.3,15.1,24.1,15.1c11.8,0,17.8-7.3,24.1-15.1c6.5-8,13.9-17,28.2-17c1.5,0,2.7,1.2,2.7,2.7c0,1.5-1.2,2.7-2.7,2.7
				c-11.8,0-17.8,7.3-24.1,15.1C572.3,1032.2,564.9,1041.3,550.6,1041.3z"/>
		</g>
	</g>
</g>
<g>
	<polygon class="st3" points="950.1,840.8 990.4,772.5 999.3,851.3 1063.9,805.2 1040,880.9 1117.8,865 1065.2,924.4 1142.7,941.6 
		1070.5,974.5 1134.2,1021.7 1054.9,1022.3 1094,1091.4 1021.2,1059.7 1028.9,1138.7 975.3,1080.2 950.1,1155.4 925,1080.2 
		871.4,1138.7 879,1059.7 806.3,1091.4 845.3,1022.3 766,1021.7 829.8,974.5 757.6,941.6 835,924.4 782.5,865 860.2,880.9 
		836.3,805.2 900.9,851.3 909.9,772.5 	"/>
</g>
<g>
	<g>
		<ellipse class="st4" cx="1506.5" cy="1053.2" rx="172.1" ry="79.6"/>
	</g>
	<g>
		<ellipse class="st4" cx="1506.5" cy="965.8" rx="172.1" ry="79.6"/>
	</g>
	<g>
		<ellipse class="st4" cx="1506.5" cy="874.7" rx="172.1" ry="79.6"/>
	</g>
</g>
<g>
	<polygon class="st5" points="2810.2,950.8 2651.1,950.8 2763.6,838.3 2744.9,819.6 2632.5,932.1 2632.5,773 2606.1,773 
		2606.1,932.1 2493.6,819.6 2474.9,838.3 2587.4,950.8 2428.3,950.8 2428.3,977.1 2587.4,977.1 2474.9,1089.6 2493.6,1108.3 
		2606.1,995.8 2606.1,1154.9 2632.5,1154.9 2632.5,995.8 2744.9,1108.3 2763.6,1089.6 2651.1,977.1 2810.2,977.1 	"/>
</g>
<g>
	<g>
		<path class="st2" d="M2187.7,1125.4c0-59.4-55.9-107.6-124.8-107.6c-68.9,0-124.8,48.2-124.8,107.6H2187.7z"/>
	</g>
	<g>
		<path class="st2" d="M2187.7,1017.8c0-59.4-55.9-107.6-124.8-107.6c-68.9,0-124.8,48.2-124.8,107.6H2187.7z"/>
	</g>
	<g>
		<path class="st2" d="M2187.7,910.1c0-59.4-55.9-107.6-124.8-107.6c-68.9,0-124.8,48.2-124.8,107.6H2187.7z"/>
	</g>
</g>
<g>
	<polygon class="st1" points="393.7,1415.2 567.3,1346.8 498.9,1520.3 567.3,1693.8 393.7,1625.5 220.2,1693.8 288.6,1520.3 
		220.2,1346.8 	"/>
</g>
<g>
	<g>
		<circle class="st3" cx="950.1" cy="1520.3" r="190.9"/>
	</g>
	<g>
		<ellipse class="st0" cx="891.7" cy="1476.6" rx="13.2" ry="51.9"/>
	</g>
	<g>
		<ellipse class="st0" cx="1008.6" cy="1476.6" rx="13.2" ry="51.9"/>
	</g>
	<g>
		<path class="st0" d="M1070,1616c-1,0-1.9-0.4-2.6-1.3c-28.2-37-70.9-58.2-117.4-58.2c-46.4,0-89.2,21.2-117.4,58.2
			c-1.1,1.4-3.1,1.7-4.5,0.6c-1.4-1.1-1.7-3.1-0.6-4.5c29.4-38.6,74-60.7,122.5-60.7s93.1,22.1,122.5,60.7c1.1,1.4,0.8,3.4-0.6,4.5
			C1071.4,1615.8,1070.7,1616,1070,1616z"/>
	</g>
</g>
<g>
	<path class="st4" d="M1672,1669c0-11.1,9-20.1,20.1-20.1v-9.4c-11.1,0-20.1-9-20.1-20.1c0-11.1,9-20.1,20.1-20.1v-9.4
		c-11.1,0-20.1-9-20.1-20.1s9-20.1,20.1-20.1v-9.4c-11.1,0-20.1-9-20.1-20.1c0-11.1,9-20.1,20.1-20.1v-9.4c-11.1,0-20.1-9-20.1-20.1
		s9-20.1,20.1-20.1v-9.4c-11.1,0-20.1-9-20.1-20.1s9-20.1,20.1-20.1v-9.4c-11.1,0-20.1-9-20.1-20.1s9-20.1,20.1-20.1v-16.8h-16.8
		c0,11.1-9,20.1-20.1,20.1c-11.1,0-20.1-9-20.1-20.1h-9.4c0,11.1-9,20.1-20.1,20.1s-20.1-9-20.1-20.1h-9.4c0,11.1-9,20.1-20.1,20.1
		c-11.1,0-20.1-9-20.1-20.1h-9.4c0,11.1-9,20.1-20.1,20.1c-11.1,0-20.1-9-20.1-20.1h-9.4c0,11.1-9,20.1-20.1,20.1s-20.1-9-20.1-20.1
		h-9.4c0,11.1-9,20.1-20.1,20.1s-20.1-9-20.1-20.1h-9.4c0,11.1-9,20.1-20.1,20.1c-11.1,0-20.1-9-20.1-20.1h-16.8v16.8
		c11.1,0,20.1,9,20.1,20.1s-9,20.1-20.1,20.1v9.4c11.1,0,20.1,9,20.1,20.1s-9,20.1-20.1,20.1v9.4c11.1,0,20.1,9,20.1,20.1
		s-9,20.1-20.1,20.1v9.4c11.1,0,20.1,9,20.1,20.1c0,11.1-9,20.1-20.1,20.1v9.4c11.1,0,20.1,9,20.1,20.1s-9,20.1-20.1,20.1v9.4
		c11.1,0,20.1,9,20.1,20.1c0,11.1-9,20.1-20.1,20.1v9.4c11.1,0,20.1,9,20.1,20.1c0,11.1-9,20.1-20.1,20.1v16.8h16.8
		c0-11.1,9-20.1,20.1-20.1c11.1,0,20.1,9,20.1,20.1h9.4c0-11.1,9-20.1,20.1-20.1s20.1,9,20.1,20.1h9.4c0-11.1,9-20.1,20.1-20.1
		s20.1,9,20.1,20.1h9.4c0-11.1,9-20.1,20.1-20.1c11.1,0,20.1,9,20.1,20.1h9.4c0-11.1,9-20.1,20.1-20.1c11.1,0,20.1,9,20.1,20.1h9.4
		c0-11.1,9-20.1,20.1-20.1s20.1,9,20.1,20.1h9.4c0-11.1,9-20.1,20.1-20.1c11.1,0,20.1,9,20.1,20.1h16.8v-16.8
		C1681,1689.1,1672,1680.1,1672,1669z"/>
</g>
<g>
	<path class="st2" d="M2268.4,1467.2c-0.6-56.3-46.4-101.7-102.8-101.7c-56.7,0-102.8,46-102.8,102.8c0-56.8-46.1-102.8-102.8-102.8
		c-56.4,0-102.2,45.4-102.8,101.7c0,0.4,0,0.7,0,1.1v0.4v0.7c0,113.5,92,205.6,205.6,205.6c113.5,0,205.6-92.1,205.6-205.6v-0.7
		v-0.4C2268.5,1468,2268.5,1467.6,2268.4,1467.2z"/>
</g>
<g>
	<g>
		<circle class="st5" cx="2619.3" cy="1520.3" r="190.9"/>
	</g>
	<g>
		<ellipse class="st0" cx="2560.8" cy="1476.6" rx="13.2" ry="51.9"/>
	</g>
	<g>
		<ellipse class="st0" cx="2677.7" cy="1476.6" rx="13.2" ry="51.9"/>
	</g>
	<g>
		<path class="st0" d="M2739.2,1561.5c-1,0-1.9,0.4-2.6,1.3c-28.2,37-70.9,58.2-117.4,58.2c-46.4,0-89.2-21.2-117.4-58.2
			c-1.1-1.4-3.1-1.7-4.5-0.6c-1.4,1.1-1.7,3.1-0.6,4.5c29.4,38.6,74,60.7,122.5,60.7s93.1-22.1,122.5-60.7c1.1-1.4,0.8-3.4-0.6-4.5
			C2740.5,1561.7,2739.8,1561.5,2739.2,1561.5z"/>
	</g>
</g>
<g>
	<g>
		<path class="st3" d="M1152,2182.6c-2.8,0-5-2.2-5-5c0-108.6-88.3-196.9-196.9-196.9s-196.9,88.3-196.9,196.9c0,2.8-2.2,5-5,5
			c-2.8,0-5-2.2-5-5c0-114.1,92.8-206.9,206.9-206.9c114.1,0,206.9,92.8,206.9,206.9C1157,2180.4,1154.8,2182.6,1152,2182.6z"/>
	</g>
	<g>
		<path class="st3" d="M1122,2182.6c-2.8,0-5-2.2-5-5c0-92-74.9-166.9-166.9-166.9s-166.9,74.9-166.9,166.9c0,2.8-2.2,5-5,5
			c-2.8,0-5-2.2-5-5c0-97.6,79.4-176.9,176.9-176.9c97.6,0,176.9,79.4,176.9,176.9C1127,2180.4,1124.8,2182.6,1122,2182.6z"/>
	</g>
	<g>
		<path class="st3" d="M1092.1,2182.6c-2.8,0-5-2.2-5-5c0-75.5-61.4-137-137-137c-75.5,0-137,61.4-137,137c0,2.8-2.2,5-5,5
			c-2.8,0-5-2.2-5-5c0-81,65.9-147,147-147c81,0,147,65.9,147,147C1097.1,2180.4,1094.8,2182.6,1092.1,2182.6z"/>
	</g>
	<g>
		<path class="st3" d="M1062.1,2182.6c-2.8,0-5-2.2-5-5c0-59-48-107-107-107c-59,0-107,48-107,107c0,2.8-2.2,5-5,5c-2.8,0-5-2.2-5-5
			c0-64.5,52.5-117,117-117c64.5,0,117,52.5,117,117C1067.1,2180.4,1064.9,2182.6,1062.1,2182.6z"/>
	</g>
	<g>
		<path class="st3" d="M1032.2,2182.6c-2.8,0-5-2.2-5-5c0-42.5-34.6-77-77-77c-42.5,0-77,34.6-77,77c0,2.8-2.2,5-5,5
			c-2.8,0-5-2.2-5-5c0-48,39-87,87-87c48,0,87,39,87,87C1037.2,2180.4,1034.9,2182.6,1032.2,2182.6z"/>
	</g>
</g>
<g>
	<circle class="st4" cx="1506.5" cy="2076.7" r="46.3"/>
</g>
<g>
	
		<ellipse transform="matrix(0.7071 -0.7071 0.7071 0.7071 -1353.1262 886.6724)" class="st1" cx="393.7" cy="2076.7" rx="139.6" ry="139.6"/>
</g>
<g>
	<g>
		<path class="st2" d="M2062.9,2266.3c-104.5,0-189.6-85-189.6-189.6c0-104.5,85-189.6,189.6-189.6s189.6,85,189.6,189.6
			C2252.4,2181.2,2167.4,2266.3,2062.9,2266.3z M2062.9,1897.1c-99,0-179.6,80.6-179.6,179.6c0,99,80.6,179.6,179.6,179.6
			s179.6-80.6,179.6-179.6C2242.4,1977.7,2161.9,1897.1,2062.9,1897.1z"/>
	</g>
	<g>
		<path class="st2" d="M2062.9,2233.1c-86.2,0-156.4-70.2-156.4-156.4c0-86.2,70.2-156.4,156.4-156.4c86.2,0,156.4,70.2,156.4,156.4
			C2219.3,2162.9,2149.1,2233.1,2062.9,2233.1z M2062.9,1930.3c-80.7,0-146.4,65.7-146.4,146.4c0,80.7,65.7,146.4,146.4,146.4
			s146.4-65.7,146.4-146.4C2209.3,1996,2143.6,1930.3,2062.9,1930.3z"/>
	</g>
	<g>
		<path class="st2" d="M2062.9,2199.9c-67.9,0-123.2-55.3-123.2-123.2c0-67.9,55.3-123.2,123.2-123.2s123.2,55.3,123.2,123.2
			C2186.1,2144.7,2130.8,2199.9,2062.9,2199.9z M2062.9,1963.5c-62.4,0-113.2,50.8-113.2,113.2c0,62.4,50.8,113.2,113.2,113.2
			s113.2-50.8,113.2-113.2C2176.1,2014.3,2125.3,1963.5,2062.9,1963.5z"/>
	</g>
	<g>
		<path class="st2" d="M2062.9,2166.8c-49.7,0-90.1-40.4-90.1-90.1c0-49.7,40.4-90.1,90.1-90.1s90.1,40.4,90.1,90.1
			C2152.9,2126.4,2112.5,2166.8,2062.9,2166.8z M2062.9,1996.6c-44.1,0-80.1,35.9-80.1,80.1c0,44.1,35.9,80.1,80.1,80.1
			s80.1-35.9,80.1-80.1C2142.9,2032.6,2107,1996.6,2062.9,1996.6z"/>
	</g>
	<g>
		<path class="st2" d="M2062.9,2133.6c-31.4,0-56.9-25.5-56.9-56.9c0-31.4,25.5-56.9,56.9-56.9s56.9,25.5,56.9,56.9
			C2119.8,2108.1,2094.2,2133.6,2062.9,2133.6z M2062.9,2029.8c-25.9,0-46.9,21-46.9,46.9s21,46.9,46.9,46.9s46.9-21,46.9-46.9
			S2088.7,2029.8,2062.9,2029.8z"/>
	</g>
</g>
<g>
	<g>
		<g>
			<path class="st5" d="M2671.9,2027.9c-1,0-1.9-0.3-2.8-0.8l-49.8-30.4l-49.8,30.4c-1.7,1-3.9,1-5.6,0l-49.8-30.4l-49.8,30.4
				c-1.7,1-3.9,1-5.6,0l-52.6-32.1c-2.5-1.5-3.3-4.8-1.8-7.4c1.5-2.5,4.8-3.3,7.4-1.8l49.8,30.4l49.8-30.4c1.7-1,3.9-1,5.6,0
				l49.8,30.4l49.8-30.4c1.7-1,3.9-1,5.6,0l49.8,30.4l49.8-30.4c1.7-1,3.9-1,5.6,0l49.9,30.4l49.9-30.4c2.5-1.5,5.8-0.7,7.4,1.8
				c1.5,2.5,0.7,5.8-1.8,7.4l-52.6,32.1c-1.7,1-3.9,1-5.6,0l-49.9-30.4l-49.8,30.4C2673.8,2027.7,2672.8,2027.9,2671.9,2027.9z"/>
		</g>
	</g>
	<g>
		<g>
			<path class="st5" d="M2671.9,2098.1c-1,0-1.9-0.3-2.8-0.8l-49.8-30.4l-49.8,30.4c-1.7,1-3.9,1-5.6,0l-49.8-30.4l-49.8,30.4
				c-1.7,1-3.9,1-5.6,0l-52.6-32.1c-2.5-1.5-3.3-4.8-1.8-7.4c1.5-2.5,4.8-3.3,7.4-1.8l49.8,30.4l49.8-30.4c1.7-1,3.9-1,5.6,0
				l49.8,30.4l49.8-30.4c1.7-1,3.9-1,5.6,0l49.8,30.4l49.8-30.4c1.7-1,3.9-1,5.6,0l49.9,30.4l49.9-30.4c2.5-1.5,5.8-0.7,7.4,1.8
				c1.5,2.5,0.7,5.8-1.8,7.4l-52.6,32.1c-1.7,1-3.9,1-5.6,0l-49.9-30.4l-49.8,30.4C2673.8,2097.8,2672.8,2098.1,2671.9,2098.1z"/>
		</g>
	</g>
	<g>
		<g>
			<path class="st5" d="M2671.9,2168.3c-1,0-1.9-0.3-2.8-0.8l-49.8-30.4l-49.8,30.4c-1.7,1-3.9,1-5.6,0l-49.8-30.4l-49.8,30.4
				c-1.7,1-3.9,1-5.6,0l-52.6-32.1c-2.5-1.5-3.3-4.8-1.8-7.4c1.5-2.5,4.8-3.3,7.4-1.8l49.8,30.4l49.8-30.4c1.7-1,3.9-1,5.6,0
				l49.8,30.4l49.8-30.4c1.7-1,3.9-1,5.6,0l49.8,30.4l49.8-30.4c1.7-1,3.9-1,5.6,0l49.9,30.4l49.9-30.4c2.5-1.5,5.8-0.7,7.4,1.8
				c1.5,2.5,0.7,5.8-1.8,7.4l-52.6,32.1c-1.7,1-3.9,1-5.6,0l-49.9-30.4l-49.8,30.4C2673.8,2168,2672.8,2168.3,2671.9,2168.3z"/>
		</g>
	</g>
</g>
<g>
	<g>
		<path class="st1" d="M556.2,2795.6c0-89.7-72.7-162.5-162.5-162.5c-89.7,0-162.5,72.7-162.5,162.5H556.2z"/>
	</g>
	<g>
		<path class="st1" d="M556.2,2470.6c0,89.7-72.7,162.5-162.5,162.5c-89.7,0-162.5-72.7-162.5-162.5H556.2z"/>
	</g>
</g>
<g>
	<path class="st3" d="M1111.1,2794L1111.1,2794c-177.8,0-321.9-144.1-321.9-321.9v0h0C967,2472.1,1111.1,2616.3,1111.1,2794
		L1111.1,2794z"/>
</g>
<g>
	<path class="st4" d="M1517.9,2456.9L1517.9,2456.9c2.6,10.4,16.6,12.2,21.6,2.7l0,0c5.8-10.8,22.1-6.6,22,5.6l0,0
		c-0.1,10.7,13,15.9,20.3,8l0,0c8.3-9,23-0.9,19.9,10.9l0,0c-2.8,10.3,8.7,18.6,17.7,12.8h0c10.2-6.6,22.5,4.9,16.5,15.5l0,0
		c-5.2,9.3,3.8,20.2,13.9,16.8h0c11.6-3.9,20.6,10.3,12.2,19.2l0,0c-7.4,7.7-1.4,20.5,9.3,19.7h0c12.2-0.9,17.4,15.1,7,21.6l0,0
		c-9.1,5.6-6.4,19.5,4.1,21.4l0,0c12,2.2,13.1,19,1.4,22.7h0c-10.2,3.2-11.1,17.3-1.4,21.8l0,0c11.1,5.1,7.9,21.6-4.3,22.3l0,0
		c-10.7,0.6-15.1,14-6.7,20.8h0c9.5,7.7,2.3,22.9-9.7,20.5l0,0c-10.5-2.1-18.1,9.8-11.7,18.4h0c7.3,9.8-3.5,22.8-14.5,17.5h0
		c-9.6-4.6-19.9,5-15.9,14.9l0,0c4.6,11.3-9,21.2-18.4,13.3h0c-8.2-6.9-20.6-0.1-19.1,10.5l0,0c1.6,12.1-14,18.3-21.1,8.4l0,0
		c-6.2-8.7-19.9-5.2-21.1,5.4l0,0c-1.4,12.1-18.1,14.2-22.5,2.8l0,0c-3.8-10-18-10-21.8,0l0,0c-4.4,11.4-21.1,9.3-22.5-2.8l0,0
		c-1.2-10.6-14.9-14.1-21.1-5.4v0c-7.1,9.9-22.8,3.7-21.1-8.4l0,0c1.4-10.6-10.9-17.4-19.1-10.5h0c-9.3,7.9-23-2-18.4-13.3l0,0
		c4-9.9-6.3-19.6-15.9-14.9h0c-11,5.3-21.7-7.7-14.5-17.5l0,0c6.4-8.6-1.2-20.5-11.7-18.4h0c-12,2.4-19.1-12.8-9.7-20.5l0,0
		c8.3-6.7,3.9-20.2-6.7-20.8h0c-12.2-0.7-15.3-17.2-4.3-22.3h0c9.7-4.5,8.8-18.6-1.4-21.8h0c-11.6-3.7-10.6-20.5,1.4-22.7l0,0
		c10.5-1.9,13.2-15.8,4.1-21.4h0c-10.4-6.4-5.2-22.5,7-21.6h0c10.7,0.8,16.7-12,9.3-19.7l0,0c-8.4-8.8,0.6-23,12.2-19.2h0
		c10.1,3.4,19.2-7.5,13.9-16.8l0,0c-6-10.6,6.3-22.2,16.5-15.5h0c9,5.8,20.4-2.5,17.7-12.8l0,0c-3.1-11.8,11.6-19.9,19.9-10.9l0,0
		c7.3,7.9,20.4,2.7,20.3-8l0,0c-0.1-12.2,16.2-16.4,22-5.6l0,0c5.1,9.4,19.1,7.7,21.6-2.7l0,0
		C1498.1,2445,1514.9,2445,1517.9,2456.9z"/>
</g>
<g>
	<polygon class="st2" points="2121.6,2691.8 2121.6,2574.4 2004.2,2574.4 2004.2,2456.9 1886.7,2456.9 1886.7,2809.2 2004.2,2809.2 
		2121.6,2809.2 2239,2809.2 2239,2691.8 	"/>
</g>
<g>
	<g>
		<circle class="st5" cx="2477.9" cy="2491.7" r="34.8"/>
	</g>
	<g>
		<circle class="st5" cx="2666.4" cy="2491.7" r="34.8"/>
	</g>
	<g>
		
			<ellipse transform="matrix(0.9239 -0.3827 0.3827 0.9239 -837.053 1152.2618)" class="st5" cx="2477.9" cy="2680.2" rx="34.8" ry="34.8"/>
	</g>
	<g>
		
			<ellipse transform="matrix(0.2298 -0.9732 0.9732 0.2298 -554.736 4659.4746)" class="st5" cx="2666.4" cy="2680.2" rx="34.8" ry="34.8"/>
	</g>
	<g>
		<circle class="st5" cx="2572.1" cy="2586" r="34.8"/>
	</g>
	<g>
		<circle class="st5" cx="2760.6" cy="2586" r="34.8"/>
	</g>
	<g>
		
			<ellipse transform="matrix(0.1602 -0.9871 0.9871 0.1602 -578.5109 4868.9556)" class="st5" cx="2572.1" cy="2774.5" rx="34.8" ry="34.8"/>
	</g>
	<g>
		
			<ellipse transform="matrix(0.1602 -0.9871 0.9871 0.1602 -420.205 5055.022)" class="st5" cx="2760.6" cy="2774.5" rx="34.8" ry="34.8"/>
	</g>
</g>
<g>
	<g>
		<path class="st1" d="M393.7,3189.5l-64.6-5.6c-55.3-4.8-99.2-48.7-104-104l-5.6-64.6l64.6,5.6c55.3,4.8,99.2,48.7,104,104
			L393.7,3189.5z"/>
	</g>
	<g>
		<path class="st1" d="M568,3015.2l-64.6,5.6c-55.3,4.8-99.2,48.7-104,104l-5.6,64.6l64.6-5.6c55.3-4.8,99.2-48.7,104-104
			L568,3015.2z"/>
	</g>
	<g>
		<path class="st1" d="M393.7,3189.5l-64.6,5.6c-55.3,4.8-99.2,48.7-104,104l-5.6,64.6l64.6-5.6c55.3-4.8,99.2-48.7,104-104
			L393.7,3189.5z"/>
	</g>
	<g>
		<path class="st1" d="M568,3363.7l-64.6-5.6c-55.3-4.8-99.2-48.7-104-104l-5.6-64.6l64.6,5.6c55.3,4.8,99.2,48.7,104,104
			L568,3363.7z"/>
	</g>
</g>
<g>
	<g>
		<path class="st1" d="M500.5,3906.2c-14.7,0-31.9-3.7-50.9-11.2c-39.3-15.5-82.3-45.4-121-84c-38.7-38.7-68.5-81.6-84-121
			c-15.9-40.4-14.9-72.5,2.9-90.3c17.8-17.8,49.9-18.9,90.3-2.9c39.3,15.5,82.3,45.4,121,84c38.7,38.7,68.5,81.6,84,121
			c15.9,40.4,14.9,72.5-2.9,90.3C530.5,3901.5,517.1,3906.2,500.5,3906.2z M286.9,3593.4c-14.3,0-25.8,4-33.7,11.9
			c-15.4,15.4-15.8,44.5-1.1,81.7c15.1,38.3,44.3,80.3,82.3,118.3c37.9,37.9,79.9,67.1,118.3,82.3c37.3,14.7,66.3,14.3,81.7-1.1
			c15.4-15.4,15.8-44.5,1.1-81.7c-15.1-38.3-44.3-80.3-82.3-118.3c-37.9-37.9-79.9-67.1-118.3-82.3
			C316.8,3597,300.6,3593.4,286.9,3593.4z"/>
	</g>
	<g>
		<path class="st1" d="M479.3,3875c-11.9,0-25.7-3-41-9.1c-31.6-12.5-66.1-36.4-97.1-67.5c-31-31-55-65.5-67.5-97.1
			c-12.9-32.7-12-58.6,2.5-73.2c14.5-14.5,40.5-15.4,73.2-2.5c31.6,12.5,66.1,36.4,97.1,67.5c31,31,55,65.5,67.5,97.1
			c12.9,32.7,12,58.6-2.5,73.2C503.7,3871.2,492.7,3875,479.3,3875z M308.3,3624.7c-11.3,0-20.5,3.1-26.6,9.1
			c-11.9,11.9-12.2,35.5-0.7,64.6c12.1,30.6,35.4,64.1,65.7,94.4c30.3,30.3,63.8,53.6,94.4,65.7c29.1,11.5,52.6,11.2,64.6-0.7
			c11.9-11.9,12.2-35.5,0.7-64.6c-12.1-30.6-35.4-64.1-65.7-94.4c-30.3-30.3-63.8-53.6-94.4-65.7
			C332.1,3627.5,319.2,3624.7,308.3,3624.7z"/>
	</g>
	<g>
		<path class="st1" d="M459,3845.4c-9.2,0-19.9-2.3-31.7-7c-24.2-9.6-50.7-27.9-74.5-51.7s-42.2-50.2-51.7-74.5
			c-10-25.3-9.2-45.5,2.1-56.9c22.9-22.9,80.6-1.1,131.4,49.6l0,0c50.7,50.7,72.5,108.4,49.6,131.4
			C478.2,3842.4,469.6,3845.4,459,3845.4z M328.4,3654.2c-8.2,0-14.9,2.2-19.5,6.8c-8.8,8.8-9,26.4-0.3,48.3
			c9.2,23.2,26.9,48.7,49.9,71.8c46,46,101,68.7,120.1,49.6s-3.6-74.1-49.6-120.1l0,0C394.1,3675.7,354,3654.2,328.4,3654.2z"/>
	</g>
	<g>
		<path class="st1" d="M438.8,3815.8c-6.5,0-14.1-1.6-22.3-4.9c-16.9-6.7-35.3-19.4-51.9-36c-35.5-35.5-50.6-76.1-34.2-92.5
			c8.2-8.2,22.6-8.8,40.6-1.7c16.9,6.7,35.3,19.4,51.9,36l0,0c35.5,35.5,50.6,76.1,34.2,92.5
			C452.7,3813.6,446.4,3815.8,438.8,3815.8z M348.7,3683.9c-5.4,0-9.8,1.4-12.6,4.3c-11.3,11.3-0.3,46.6,34.2,81.1
			c34.5,34.5,69.8,45.6,81.1,34.2c11.3-11.3,0.3-46.6-34.2-81.1c-15.8-15.8-33.2-27.9-49.1-34.2
			C360.7,3685.3,354.2,3683.9,348.7,3683.9z"/>
	</g>
	<g>
		<path class="st1" d="M419.4,3787.5c-11.9,0-28.3-8.6-43.5-23.8c-21.3-21.3-29.7-45-19.5-55.2c10.2-10.2,33.9-1.8,55.2,19.5
			c9.6,9.6,17,20.3,20.9,30.2c4.3,10.9,3.8,19.8-1.4,25C428.2,3786.1,424.2,3787.5,419.4,3787.5z M367.9,3712.2
			c-2.6,0-4.6,0.6-5.9,1.9c-5.7,5.7,1.4,25.7,19.5,43.9c18.1,18.1,38.1,25.3,43.9,19.5c2.7-2.7,2.6-8.9-0.4-16.4
			c-3.5-8.9-10.3-18.6-19.1-27.5C391.9,3719.6,376.7,3712.2,367.9,3712.2z"/>
	</g>
</g>
<g>
	<g>
		<path class="st5" d="M2726.8,3342.3c-14.3,0-31.4-4.1-50.7-12.3c-37-15.8-77.9-45-115.2-82.3c-37.2-37.2-66.5-78.1-82.3-115.2
			c-16.3-38.2-16.4-68-0.4-84.1c16-16,45.9-15.9,84.1,0.4c37,15.8,77.9,45,115.2,82.3l0,0c37.2,37.2,66.5,78.1,82.3,115.2
			c16.3,38.2,16.4,68,0.4,84.1C2752.3,3338.4,2740.9,3342.3,2726.8,3342.3z M2511.7,3044.6c-11.9,0-21.4,3.2-27.8,9.5
			c-13.4,13.4-12.6,40.8,2.1,75.3c15.4,36.1,44,76.1,80.6,112.7c36.5,36.5,76.6,65.2,112.7,80.6c34.5,14.7,61.9,15.5,75.3,2.1
			c13.4-13.4,12.6-40.8-2.1-75.3c-15.4-36.1-44-76.1-80.6-112.7c-36.5-36.5-76.6-65.2-112.7-80.6
			C2541.1,3048.5,2524.9,3044.6,2511.7,3044.6z"/>
	</g>
	<g>
		<path class="st5" d="M2511.7,3342.3c-14.1,0-25.4-4-33.4-11.9c-16-16-15.9-45.9,0.4-84.1c15.8-37,45-77.9,82.3-115.2l2.8,2.8
			l-2.8-2.8c37.2-37.2,78.1-66.5,115.2-82.3c38.2-16.3,68-16.4,84.1-0.4c16,16,15.9,45.9-0.4,84.1c-15.8,37-45,77.9-82.3,115.2
			c-37.2,37.2-78.1,66.5-115.2,82.3C2543.1,3338.2,2526,3342.3,2511.7,3342.3z M2726.8,3044.6c-13.2,0-29.4,3.9-47.5,11.6
			c-36.1,15.4-76.1,44-112.7,80.6s-65.2,76.6-80.6,112.7c-14.7,34.5-15.5,61.9-2.1,75.3c13.4,13.4,40.8,12.6,75.3-2.1
			c36.1-15.4,76.1-44,112.7-80.6c36.5-36.5,65.2-76.6,80.6-112.7c14.7-34.5,15.5-61.9,2.1-75.3
			C2748.2,3047.8,2738.7,3044.6,2726.8,3044.6z"/>
	</g>
</g>
<g>
	<g>
		<path class="st2" d="M2223.8,3135.8c0-59.3-48-107.3-107.3-107.3s-107.3,48-107.3,107.3H2223.8z"/>
	</g>
	<g>
		<path class="st2" d="M2116.5,3350.4c59.3,0,107.3-48,107.3-107.3c0-59.3-48-107.3-107.3-107.3V3350.4z"/>
	</g>
	<g>
		<path class="st2" d="M1901.9,3243.1c0,59.3,48,107.3,107.3,107.3c59.3,0,107.3-48,107.3-107.3H1901.9z"/>
	</g>
	<g>
		<path class="st2" d="M2009.2,3028.5c-59.3,0-107.3,48-107.3,107.3s48,107.3,107.3,107.3V3028.5z"/>
	</g>
</g>
<g>
	<g>
		<path class="st4" d="M1658.9,3341.9L1658.9,3341.9c-11.4,11.4-29.9,11.4-41.3,0l-263.5-263.5c-11.4-11.4-11.4-29.9,0-41.3l0,0
			c11.4-11.4,29.9-11.4,41.3,0l263.5,263.5C1670.3,3311.9,1670.3,3330.4,1658.9,3341.9z"/>
	</g>
	<g>
		<path class="st4" d="M1658.9,3037.1L1658.9,3037.1c-11.4-11.4-29.9-11.4-41.3,0l-263.5,263.5c-11.4,11.4-11.4,29.9,0,41.3h0
			c11.4,11.4,29.9,11.4,41.3,0l263.5-263.5C1670.3,3067,1670.3,3048.5,1658.9,3037.1z"/>
	</g>
</g>
<g>
	<path class="st3" d="M950.1,3745.8C1112.3,3464.9,787.9,3464.9,950.1,3745.8C787.9,3464.9,625.7,3745.8,950.1,3745.8
		C625.7,3745.8,787.9,4026.8,950.1,3745.8C787.9,4026.8,1112.3,4026.8,950.1,3745.8C1112.3,4026.8,1274.5,3745.8,950.1,3745.8
		C1274.5,3745.8,1112.3,3464.9,950.1,3745.8z"/>
</g>
<g>
	<g>
		<path class="st4" d="M1691.2,3814.1H1278c-2.2,0-4-1.8-4-4v-83.6c0-2.2,1.8-4,4-4h413.2c2.2,0,4,1.8,4,4v83.6
			C1695.2,3812.3,1693.4,3814.1,1691.2,3814.1z M1282,3806.1h405.2v-75.6H1282V3806.1z"/>
	</g>
	<g>
		<path class="st4" d="M1735,3769.3h-413.2c-2.2,0-4-1.8-4-4v-83.6c0-2.2,1.8-4,4-4H1735c2.2,0,4,1.8,4,4v83.6
			C1739,3767.5,1737.2,3769.3,1735,3769.3z M1325.8,3761.3H1731v-75.6h-405.2V3761.3z"/>
	</g>
</g>
<g>
	<path class="st2" d="M2206.2,3882.9c0.3-4.9,0.4-9.8,0.4-14.7c0-143.3-116.1-259.4-259.4-259.4v274.1H2206.2z"/>
</g>
<g>
	<g>
		<rect x="2570.1" y="3575.5" class="st5" width="98.3" height="340.7"/>
	</g>
	<g>
		<rect x="2448.9" y="3696.7" class="st5" width="340.7" height="98.3"/>
	</g>
	<g>
		
			<rect x="2570.1" y="3575.5" transform="matrix(0.7071 -0.7071 0.7071 0.7071 -1881.5439 2949.2205)" class="st5" width="98.3" height="340.7"/>
	</g>
	<g>
		
			<rect x="2448.9" y="3696.7" transform="matrix(0.7071 -0.7071 0.7071 0.7071 -1881.545 2949.2271)" class="st5" width="340.7" height="98.3"/>
	</g>
</g>
<g>
	<path class="st1" d="M442.9,4476.6h-98.3c-2.2,0-4-1.8-4-4v-42.1l-29.8,29.8c-0.8,0.8-1.8,1.2-2.8,1.2c-1.1,0-2.1-0.4-2.8-1.2
		l-69.5-69.5c-1.6-1.6-1.6-4.1,0-5.7l82.9-82.9l-82.9-82.9c-1.6-1.6-1.6-4.1,0-5.7l69.5-69.5c1.6-1.6,4.1-1.6,5.7,0l29.8,29.8v-42.1
		c0-2.2,1.8-4,4-4h98.3c2.2,0,4,1.8,4,4v42.1l29.8-29.8c1.6-1.6,4.1-1.6,5.7,0l69.5,69.5c1.6,1.6,1.6,4.1,0,5.7l-82.9,82.9
		l82.9,82.9c1.6,1.6,1.6,4.1,0,5.7l-69.5,69.5c-0.8,0.8-1.8,1.2-2.8,1.2l0,0c-1.1,0-2.1-0.4-2.8-1.2l-29.8-29.8v42.1
		C446.9,4474.8,445.1,4476.6,442.9,4476.6z M348.6,4468.6h90.3v-47.7c0-1.6,1-3.1,2.5-3.7c1.5-0.6,3.2-0.3,4.4,0.9l33.8,33.8
		l63.8-63.8l-82.9-82.9c-1.6-1.6-1.6-4.1,0-5.7l82.9-82.9l-63.8-63.8l-33.8,33.8c-1.1,1.1-2.9,1.5-4.4,0.9c-1.5-0.6-2.5-2.1-2.5-3.7
		v-47.7h-90.3v47.7c0,1.6-1,3.1-2.5,3.7c-1.5,0.6-3.2,0.3-4.4-0.9l-33.8-33.8l-63.8,63.8l82.9,82.9c1.6,1.6,1.6,4.1,0,5.7
		l-82.9,82.9l63.8,63.8l33.8-33.8c1.1-1.1,2.9-1.5,4.4-0.9c1.5,0.6,2.5,2.1,2.5,3.7V4468.6z"/>
</g>
<g>
	<g>
		<circle class="st3" cx="950.1" cy="4274.8" r="174.3"/>
	</g>
	<g>
		<path class="st3" d="M950.1,4507.9c-98.3,0-178.3-80-178.3-178.3s80-178.3,178.3-178.3s178.3,80,178.3,178.3
			S1048.4,4507.9,950.1,4507.9z M950.1,4159.4c-93.9,0-170.3,76.4-170.3,170.3s76.4,170.3,170.3,170.3
			c93.9,0,170.3-76.4,170.3-170.3S1044,4159.4,950.1,4159.4z"/>
	</g>
</g>
<g>
	<path class="st4" d="M1520.5,4113L1520.5,4113c3.6-17.7,30-13.7,28.1,4.2l0,0c-1.6,15.5,19.3,21.9,26.7,8.2l0,0
		c8.6-15.9,32.7-4.3,25.6,12.3l0,0c-6,14.3,12,26.6,23.1,15.7l0,0c12.9-12.6,32.5,5.5,20.9,19.4l0,0c-10,11.9,3.6,28.9,17.4,21.8h0
		c16.1-8.3,29.4,14.8,14.2,24.6l0,0c-13.1,8.4-5.1,28.7,10.2,26h0c17.8-3.1,23.7,22.9,6.3,27.7h0c-15,4.2-13.3,25.9,2.1,27.9h0
		c17.9,2.2,15.9,28.8-2.1,28.4h0c-15.5-0.4-20.4,20.8-6.2,27.2h0c16.5,7.4,6.7,32.3-10.4,26.5h0c-14.7-5-25.6,13.9-14,24.2h0
		c13.6,12-3.1,32.8-17.7,22.3l0,0c-12.6-9.1-28.6,5.7-20.5,19l0,0c9.4,15.4-12.6,30.5-23.5,16l0,0c-9.4-12.4-29-2.9-25.2,12.1v0
		c4.5,17.5-21,25.4-27.2,8.4l0,0c-5.3-14.6-26.9-11.4-27.6,4.2v0c-0.9,18.1-27.6,18.1-28.5,0v0c-0.8-15.5-22.3-18.8-27.6-4.2l0,0
		c-6.2,17-31.7,9.1-27.2-8.4l0,0c3.8-15.1-15.8-24.5-25.2-12.1l0,0c-10.9,14.4-33-0.6-23.5-16l0,0c8.1-13.3-7.9-28.1-20.5-19l0,0
		c-14.7,10.6-31.3-10.3-17.7-22.3h0c11.7-10.3,0.8-29.1-14-24.2h0c-17.1,5.8-26.9-19.1-10.4-26.5h0c14.2-6.4,9.3-27.6-6.2-27.2h0
		c-18.1,0.5-20.1-26.1-2.1-28.4h0c15.4-1.9,17.1-23.7,2.1-27.9h0c-17.4-4.9-11.5-30.9,6.3-27.7h0c15.3,2.7,23.3-17.6,10.2-26l0,0
		c-15.2-9.8-1.9-32.9,14.2-24.6h0c13.8,7.1,27.4-9.9,17.4-21.8l0,0c-11.6-13.8,7.9-32,20.9-19.4l0,0c11.1,10.9,29.1-1.4,23.1-15.7
		l0,0c-7-16.7,17-28.2,25.6-12.3l0,0c7.4,13.7,28.2,7.2,26.7-8.2v0c-1.8-18,24.6-22,28.1-4.2l0,0
		C1495.6,4128.3,1517.4,4128.3,1520.5,4113z"/>
</g>
<g>
	<circle class="st2" cx="2062.9" cy="4302.2" r="96.8"/>
</g>
<g>
	<polygon class="st1" points="393.7,4750.5 418,4666.2 420.4,4753.9 464.8,4678.3 445.4,4763.8 507.3,4701.6 467.2,4779.6 
		542.6,4734.7 484.3,4800.3 568.5,4775.6 495.8,4824.7 583.5,4821.6 500.8,4851.1 586.5,4870 499.1,4877.9 577.4,4917.5 
		490.8,4903.5 556.8,4961.3 476.4,4926.2 525.9,4998.6 456.8,4944.6 486.8,5027.1 433.2,4957.6 441.8,5044.9 407.2,4964.3 
		393.7,5051 380.3,4964.3 345.7,5044.9 354.2,4957.6 300.7,5027.1 330.7,4944.6 261.5,4998.6 311.1,4926.2 230.7,4961.3 
		296.7,4903.5 210.1,4917.5 288.4,4877.9 201,4870 286.7,4851.1 204,4821.6 291.7,4824.7 219,4775.6 303.2,4800.3 244.9,4734.7 
		320.3,4779.6 280.2,4701.6 342.1,4763.8 322.7,4678.3 367.1,4753.9 369.5,4666.2 	"/>
</g>
<g>
	<path class="st3" d="M959.6,4858.6C1198.3,5097.3,720.9,5097.3,959.6,4858.6C720.9,5097.3,720.9,4619.9,959.6,4858.6
		C720.9,4619.9,1198.3,4619.9,959.6,4858.6C1198.3,4619.9,1198.3,5097.3,959.6,4858.6z"/>
</g>
<g>
	<path class="st4" d="M1490.3,4820.4c-48.6-114.6,14-227.4,15.7-28.2c-1.7-199.2,62.8-87.5,16.1,27.9c46.7-115.4,170.7-150.9,31-8.9
		c139.7-142,106.3-17.5-8.4,31.1c114.6-48.6,227.4,14,28.2,15.7c199.2-1.7,87.5,62.8-27.9,16.1c115.4,46.7,150.9,170.7,8.9,31
		c142,139.7,17.5,106.3-31.1-8.4c48.6,114.6-14,227.4-15.7,28.2c1.7,199.2-62.8,87.5-16.1-27.9c-46.7,115.4-170.7,150.9-31,8.9
		c-139.7,142-106.3,17.5,8.4-31.1c-114.6,48.6-227.4-14-28.2-15.7c-199.2,1.7-87.5-62.8,27.9-16.1c-115.4-46.7-150.9-170.7-8.9-31
		C1317.1,4672.3,1441.7,4705.7,1490.3,4820.4z"/>
</g>
<g>
	<g>
		<path class="st2" d="M2062.9,5073c-24.4,0-47.1-22.5-64.1-63.4c-16.7-40.4-25.9-94-25.9-150.9c0-57,9.2-110.6,25.9-150.9
			c17-40.9,39.7-63.4,64.1-63.4s47.1,22.5,64.1,63.4c16.7,40.4,25.9,94,25.9,150.9c0,57-9.2,110.6-25.9,150.9
			C2110,5050.4,2087.3,5073,2062.9,5073z M2062.9,4648.2c-22.7,0-44.1,21.7-60.4,61c-16.5,39.9-25.6,92.9-25.6,149.4
			s9.1,109.5,25.6,149.4c16.3,39.3,37.8,61,60.4,61s44.1-21.7,60.4-61c16.5-39.9,25.6-92.9,25.6-149.4s-9.1-109.5-25.6-149.4
			C2107,4669.9,2085.5,4648.2,2062.9,4648.2z"/>
	</g>
	<g>
		<path class="st2" d="M2062.9,4948.6c-57,0-110.6-9.2-150.9-25.9c-40.9-17-63.4-39.7-63.4-64.1s22.5-47.1,63.4-64.1
			c40.4-16.7,94-25.9,150.9-25.9s110.6,9.2,150.9,25.9c40.9,17,63.4,39.7,63.4,64.1s-22.5,47.1-63.4,64.1
			C2173.5,4939.4,2119.9,4948.6,2062.9,4948.6z M2062.9,4772.5c-56.5,0-109.5,9.1-149.4,25.6c-39.3,16.3-61,37.8-61,60.4
			s21.7,44.1,61,60.4c39.9,16.5,92.9,25.6,149.4,25.6s109.5-9.1,149.4-25.6c39.3-16.3,61-37.8,61-60.4s-21.7-44.1-61-60.4
			C2172.4,4781.7,2119.4,4772.5,2062.9,4772.5z"/>
	</g>
	<g>
		<path class="st2" d="M2141.3,5053.8c-19,0-41.9-10.8-66.5-31.7c-33.3-28.3-66-71.7-92-122.4c-26-50.7-42.3-102.6-45.8-146.1
			c-3.6-44.1,6.4-74.6,28.1-85.7c21.7-11.1,52.2-1.5,86,27.2c33.3,28.3,66,71.7,92,122.4c26,50.7,42.3,102.6,45.8,146.1
			c3.6,44.1-6.4,74.6-28.1,85.7C2154.9,5052.3,2148.4,5053.8,2141.3,5053.8z M1984.5,4667.3c-6.5,0-12.4,1.3-17.7,4.1
			c-20.2,10.3-29.4,39.4-25.9,81.8c3.5,43,19.6,94.4,45.4,144.6c25.8,50.2,58.1,93.3,91,121.2c23.9,20.3,45.9,30.7,63.9,30.7
			c6.5,0,12.4-1.3,17.7-4.1c20.2-10.3,29.4-39.4,25.9-81.8c-3.5-43-19.6-94.4-45.4-144.6s-58.1-93.3-91-121.2
			C2024.5,4677.8,2002.5,4667.3,1984.5,4667.3z"/>
	</g>
	<g>
		<path class="st2" d="M2186.9,4991.3c-7.9,0-16.3-0.6-25.3-1.8c-43.3-5.7-94.3-24.5-143.7-53c-49.4-28.5-91.2-63.3-117.8-97.9
			c-26.9-35.1-35.1-66.1-22.9-87.2c12.2-21.1,43.1-29.6,87-23.8c43.3,5.7,94.3,24.5,143.7,53c49.4,28.5,91.2,63.3,117.8,97.9
			c27,35.1,35.1,66.1,22.9,87.2C2238.9,4982.6,2217.3,4991.3,2186.9,4991.3z M1938.7,4729.8c-28.9,0-49.1,8.1-58.1,23.6
			c-11.3,19.6-3.3,49,22.6,82.8c26.3,34.3,67.7,68.7,116.6,96.9c48.9,28.2,99.4,46.9,142.2,52.5c42.2,5.5,71.7-2.2,83-21.8
			c11.3-19.6,3.3-49-22.6-82.8c-26.3-34.3-67.7-68.7-116.6-96.9s-99.4-46.9-142.2-52.5C1954.8,4730.4,1946.5,4729.8,1938.7,4729.8z"
			/>
	</g>
	<g>
		<path class="st2" d="M1984.5,5053.8c-7.1,0-13.6-1.5-19.5-4.5c-21.7-11.1-31.7-41.6-28.1-85.7c3.5-43.5,19.8-95.4,45.8-146.1
			l1.8,0.9l-1.8-0.9c26-50.7,58.7-94.2,92-122.4c33.8-28.7,64.3-38.3,86-27.2c21.7,11.1,31.7,41.6,28.1,85.7
			c-3.5,43.5-19.8,95.4-45.8,146.1c-26,50.7-58.7,94.2-92,122.4C2026.4,5043,2003.5,5053.8,1984.5,5053.8z M2141.2,4667.3
			c-18,0-40,10.5-63.9,30.7c-32.9,27.9-65.2,71-91,121.2s-41.9,101.6-45.4,144.6c-3.5,42.4,5.7,71.5,25.9,81.8
			c20.2,10.3,49.1,0.9,81.6-26.7c32.9-27.9,65.2-71,91-121.2s41.9-101.6,45.4-144.6c3.5-42.4-5.7-71.5-25.9-81.8
			C2153.6,4668.7,2147.7,4667.3,2141.2,4667.3z"/>
	</g>
	<g>
		<path class="st2" d="M1938.9,4991.3c-30.5,0-52-8.8-61.7-25.6c-12.2-21.1-4.1-52.1,22.9-87.2c26.6-34.7,68.4-69.4,117.8-97.9
			l1,1.7l-1-1.7c49.4-28.5,100.4-47.3,143.7-53c43.9-5.8,74.8,2.7,87,23.8c12.2,21.1,4.1,52.1-22.9,87.2
			c-26.6,34.7-68.4,69.4-117.8,97.9c-49.4,28.5-100.4,47.3-143.7,53C1955.2,4990.8,1946.7,4991.3,1938.9,4991.3z M2187,4729.8
			c-7.7,0-16,0.6-24.9,1.7c-42.8,5.6-93.3,24.3-142.2,52.5c-48.9,28.2-90.3,62.7-116.6,96.9c-25.9,33.8-33.9,63.2-22.6,82.8
			c11.3,19.6,40.8,27.4,83,21.8c42.8-5.6,93.3-24.3,142.2-52.5s90.3-62.7,116.6-96.9c25.9-33.8,33.9-63.2,22.6-82.8
			C2236.1,4737.9,2215.9,4729.8,2187,4729.8z"/>
	</g>
</g>
<g>
	<circle class="st5" cx="2619.3" cy="4858.6" r="224.6"/>
</g>
<g>
	<ellipse class="st1" cx="393.7" cy="5415" rx="141.3" ry="191.4"/>
</g>
<g>
	<path class="st3" d="M990.7,5415c0-106.7,13.5-193.3,30.3-193.3H879.3c16.7,0,30.3,86.5,30.3,193.3s-13.5,193.3-30.3,193.3H1021
		C1004.3,5608.3,990.7,5521.7,990.7,5415z"/>
</g>
<g>
	<path class="st4" d="M1655.3,5581c-110.7,93-221.4-93-332,0c0-110.7,0-221.4,0-332c110.7-93,221.4,93,332,0
		C1655.3,5359.6,1655.3,5470.3,1655.3,5581z"/>
</g>
<g>
	<path class="st2" d="M2051.2,5569.6l179.5,13.2l-13.2-179.5c-5.6-76.5-66.4-137.2-142.9-142.9l-179.5-13.2l13.2,179.5
		C1913.9,5503.1,1974.7,5563.9,2051.2,5569.6z"/>
</g>
<g>
	<g>
		<path class="st5" d="M2675.7,4230.1c5.7,0,11,1.3,15.8,3.6h-128.8c-5.7,0-11-1.3-15.9-3.6c-12.5-5.9-21.1-18.7-21.1-33.4
			c0-14.7,8.6-27.4,21.1-33.4c4.8-2.3,10.2-3.6,15.8-3.6h128.8c-4.8,2.3-10.2,3.6-15.8,3.6h-112.9c-18.4,0-33.4,15-33.4,33.4
			c0,18.4,15,33.4,33.4,33.4H2675.7z"/>
	</g>
	<g>
		<path class="st5" d="M2712.7,4267c0,14.7-8.6,27.4-21.1,33.4c-4.8,2.3-10.2,3.6-15.9,3.6h-128.8c4.8-2.3,10.2-3.6,15.9-3.6h112.9
			c18.4,0,33.4-15,33.4-33.4c0-18.4-15-33.4-33.4-33.4h-112.9c-5.7,0-11-1.3-15.9-3.6h128.8c5.7,0,11,1.3,15.8,3.6
			C2704,4239.6,2712.7,4252.3,2712.7,4267z"/>
	</g>
	<g>
		<path class="st5" d="M2675.7,4370.8c5.7,0,11,1.3,15.9,3.6h-128.8c-5.7,0-11-1.3-15.9-3.6c-12.5-5.9-21.1-18.7-21.1-33.4
			s8.6-27.4,21.1-33.4c4.8-2.3,10.2-3.6,15.9-3.6h128.8c-4.8,2.3-10.2,3.6-15.9,3.6h-112.9c-18.4,0-33.4,15-33.4,33.4
			s15,33.4,33.4,33.4H2675.7z"/>
	</g>
	<g>
		<path class="st5" d="M2712.7,4407.7c0,14.7-8.6,27.4-21.1,33.4c-4.8,2.3-10.2,3.6-15.8,3.6h-128.8c4.8-2.3,10.2-3.6,15.9-3.6
			h112.9c18.4,0,33.4-15,33.4-33.4c0-18.4-15-33.4-33.4-33.4h-112.9c-5.7,0-11-1.3-15.9-3.6h128.8c5.7,0,11,1.3,15.9,3.6
			C2704,4380.3,2712.7,4393,2712.7,4407.7z"/>
	</g>
	<g>
		<path class="st5" d="M2562.8,4511.4c-18.4,0-33.4-15-33.4-33.4c0-18.4,15-33.4,33.4-33.4h112.9c5.7,0,11-1.3,15.8-3.6h-128.8
			c-5.7,0-11,1.3-15.9,3.6c-12.5,5.9-21.1,18.7-21.1,33.4c0,20.4,16.6,37,37,37h115.6v-3.6H2562.8z"/>
	</g>
	<g>
		<path class="st5" d="M2675.7,4089.4h-118.6v3.6h118.6c18.4,0,33.4,15,33.4,33.4s-15,33.4-33.4,33.4h-112.9c-5.7,0-11,1.3-15.8,3.6
			h128.8c5.7,0,11-1.3,15.8-3.6c12.5-5.9,21.1-18.7,21.1-33.4C2712.7,4106,2696.1,4089.4,2675.7,4089.4z"/>
	</g>
</g>
<g>
	<polygon class="st3" points="1136.5,3187.8 1136,3175.1 995,3180.5 1127.2,3133.1 1122.9,3121.1 988.2,3169.4 1104.4,3086.3 
		1097,3076 980,3159.7 1066.5,3047.8 1056.4,3040.1 969.2,3152.9 1022.8,3019.1 1011,3014.4 957.2,3148.7 957.2,3002.7 
		944.6,3002.7 944.6,3148 902,3012.8 889.9,3016.6 933.2,3154.1 854.8,3034.9 844.2,3041.9 921.9,3160 811.6,3067.7 803.5,3077.4 
		913,3169.1 782.4,3110.7 777.2,3122.3 905.4,3179.6 765.2,3163.6 763.8,3176.2 905.2,3192.3 764.9,3217.4 767.1,3229.9 
		910.8,3204.2 783,3269.2 788.7,3280.5 915.7,3216 813.4,3314 822.2,3323.1 923.9,3225.6 854.2,3351 865.3,3357.2 937.6,3227.1 
		907.2,3373.6 919.6,3376.2 949.5,3232.4 967.6,3372.8 980.2,3371.2 962.2,3231.8 1021.5,3360.6 1033,3355.3 973,3225 
		1067.1,3329.9 1076.5,3321.4 981.9,3215.9 1103.6,3289.9 1110.2,3279.1 987.7,3204.6 1129,3241.2 1132.2,3228.9 994.2,3193.2 	"/>
</g>
<g>
	<path class="st5" d="M2792.5,5398.8c-8.6-12-23-13-25.1-13.1l-98.2-1L2772,5326c1.4-0.8,1.8-2.7,0.8-4c-2.3-2.8-5.9-6.3-11.2-8.6
		c-13.5-6-26.4,0.4-28.3,1.4l-87,49.7l64.5-101.4c0.9-1.4,0.3-3.2-1.2-3.9c-3.3-1.4-8.1-2.8-13.9-2.4c-14.8,1-23.2,12.7-24.4,14.4
		l-51.6,81.1v-112.8c0-1.6-1.5-2.9-3.1-2.6c-3.5,0.6-8.4,2-13,5.4c-11.9,8.7-12.7,23.2-12.8,25.2v87.6l-62.5-93.7
		c-0.9-1.4-2.8-1.6-4-0.5c-2.6,2.4-5.8,6.3-7.8,11.8c-5.1,13.9,2.2,26.3,3.3,28.1l53.2,79.8l-101.4-68.3c-1.4-0.9-3.2-0.4-3.9,1.1
		c-1.5,3.2-3,8-2.8,13.9c0.6,14.8,12.1,23.5,13.8,24.7l80.3,54.1l-115.5-0.2c-1.6,0-2.9,1.5-2.6,3.1c0.6,3.5,2,8.4,5.4,13.1
		c8.7,12,23.1,12.8,25.2,12.9l102.4,0.2l-120.4,59.3c-1.5,0.7-2,2.6-1,3.9c2.1,2.9,5.5,6.6,10.6,9.3c13.1,6.9,26.4,1.2,28.3,0.3
		l90.5-44.6l-59.1,102.9c-0.8,1.4-0.2,3.3,1.4,3.8c3.3,1.2,8.2,2.4,14,1.8c14.7-1.6,22.6-13.7,23.7-15.5l51.4-89.4l-4.4,123.2
		c-0.1,1.6,1.4,3,3,2.8c3.5-0.5,8.4-1.7,13.2-5c12.3-8.3,13.6-22.7,13.7-24.8l3.7-104.5l55.3,109.7c0.7,1.5,2.6,1.9,3.9,1
		c2.9-2.1,6.6-5.5,9.2-10.7c6.7-13.2,0.9-26.4,0.1-28.3l-48.6-96.4l106.2,70.1c1.4,0.9,3.2,0.4,3.9-1.1c1.4-3.3,2.9-8.1,2.7-13.9
		c-0.7-14.8-12.3-23.4-14-24.6l-76.8-50.7l110.9,1.1c1.6,0,2.9-1.4,2.7-3.1C2797.3,5408.4,2795.9,5403.5,2792.5,5398.8z"/>
</g>
</svg>
