<?xml version="1.0" encoding="UTF-8"?>
<svg xmlns="http://www.w3.org/2000/svg" version="1.1" viewBox="0 0 4000 4000">
  <!-- Generator: Adobe Illustrator 29.3.1, SVG Export Plug-In . SVG Version: 2.1.0 Build 151)  -->
  <defs>
    <style>
      .st0 {
        opacity: .3;
      }

      .st0, .st1 {
        fill: #6e1224;
      }

      .st2 {
        fill: #e3aa7b;
      }

      .st3 {
        fill: #ffc5b6;
      }

      .st4 {
        fill: #fff;
      }

      .st5 {
        opacity: .2;
      }

      .st6 {
        fill: #e4716b;
      }

      .st7 {
        opacity: .1;
      }

      .st8 {
        fill: #7a283f;
      }

      .st9 {
        fill: #eb5e30;
      }

      .st10 {
        opacity: .5;
      }

      .st11 {
        fill: #ffedb2;
      }
    </style>
  </defs>
  <g id="BACKGROUND">
    <rect class="st6" width="4000" height="4000"/>
  </g>
  <g id="DESIGN">
    <path class="st0" d="M3034.2,3180.5c51.7,100.7-2103.9,100.7-2052.1,0-51.7-100.6,2103.9-100.6,2052.1,0Z"/>
    <g>
      <g>
        <path class="st8" d="M2490.6,1171.8c49.5,4.8,99.5-31.8,132.6-89.3,19.1-34.3,49.7-50.9,76.6-65.6,19.9-10.8,38.6-21.1,50.3-36.9,13.4-18.2,15.4-40.5,6.2-70.2-56.3-182.5-245-51.6-299.2,38.8-15.3,23.2-26.3,46.5-32.7,69.1-19.3,57.4,4.5,147.8,66.2,154Z"/>
        <path class="st8" d="M2500,1182.4c-3.6,0-7.2-.2-10.7-.7-68.3-6.6-95.8-104.2-74.4-167.4,7-24.1,17.9-47.2,34.6-72.4,73.7-115.6,263.8-215,316.7-34.1,20,61.8-12.3,93.6-62.3,118.2-25.8,14-55,30.3-72.4,62.1-26.9,48.5-77.6,93.8-131.5,94.2ZM2653.9,827.8c-121.7,7.3-251.6,162.5-221.6,270.2,10,37.7,31.2,60.4,59.5,63.9,45.5,4.3,91.9-30.8,122.7-84.2,20.5-36.8,52.4-54.2,80.6-69.5,18.9-10.3,36.7-20,47-34,11.5-15.7,13-34.6,4.7-61.3-14.2-45.6-37.4-73.2-69.1-81.9-7.8-2.1-15.7-3.1-23.7-3.1Z"/>
      </g>
      <g>
        <path class="st8" d="M3439.8,1068c-9.7-25-34.9-42.6-65-24.4-12.7,7.3-45.9,26.9-79.7,46.9-28.6-37.1-85.3-70.3-125.9-47.4,0,0-202.2,112-202.2,112-13.2,7.1-23,18.2-29.4,32-14.5,33.5-11.1,68.6.2,104.5-39.5,17.2-96.6,46.9-142.8,71.3-42.4-80.7-123.7-113.5-209.4-79.4-13.1,5-26,10.3-38.8,15.8-10.6-47.6-38.3-77.6-80.7-87.1-67.6-15.2-101.1,15.5-130.8,42.5-36.4,36.9-83.6,55.6-103.1-5.4,16.5-37.7,33.6-76.7,41.7-116.9,15.9-74.8-9.1-143.8-73.9-178.1-143.7-65.3-332.5,47.8-416.2,170.6-12.8-32.7-42.8-57.3-77.4-54.8-69.5,2.7-114.6,69.3-120.6,178.3-1,50.3-37.8,96.6-84.1,120-9.8-17.2-14.5-40.9-13.4-68.7.8-20.7-12.8-37.4-34-41.5-29.5-5.8-67,13-102.8,51.4-45.6,49-87.7,126.7-125.1,230.9-84.8,241.3-104.6,445.7-45.1,675.3-38.1,22.9-117.7,69.5-197.4,116.1l-35.8-99.5-104.4,28.7c-4.7,1.3-8.8,4.6-10.9,9-21.4,5.4-68.5,17.2-90.8,23.8-5,1.5-9.4,2.9-11.1,8.1-1,3.1-1.1,3.2,4.8,30.3l-73.1,36.3c-4.7,2.4-8.2,6.6-9.5,11.8-1.3,5.1-.4,10.6,2.6,14.9l59.8,87.1c-27.9,14.1-67.6,34-83.5,41.6-6.3,3-14.5,5.2-23.1,7.5-26.4,6.3-56.3,17.7-50.4,50.2,5,27.6,25.7,49.7,51.7,50.1,13.2,0,25.6-6.4,35.2-18.4,22.9-28.6,38-31.6,63-42.8,17.1-7.7,38-19.3,49.8-26l14.6,21.2c4.1,6,12.3,7.4,18.2,3.5l23.6-15.9c15.9,24.6,43.9,32.2,70.9,23.4,16.7-5.3,30.7-16.3,42-28.9,59,33,180.8,102.1,243.8,132.3,11.4,4.9,15.6,7.9,22.7,5.3,3-1.3,5.2-4,5.9-7.2,1.5-6.5,29.2-197.3,43.1-292.7,68.7,165.6,178.9,265.8,354.5,325.8,54,140.5,101.7,258.6,125.4,311.3-53.6,20.8-205.9,77.2-173.4,147.7,10.9,19,36.2,21.2,39,21.4.2.2,343.9-1.7,344.2-1.6,9.8,0,18.7-4.6,24.4-12.6s7.3-17.8,4.2-27.1l-127.3-389.4c4.8.5,9.5.9,14,1.3,79.6,143,150.8,273.7,222.9,400.5,5.7,8.7,13.4,16.7,23.2,21,9.3,4.3,19.5,5.5,29.3,5.7,42.3-.5,86.1-2.4,126.6-3.3,65-2,125.6-3.8,181.1-5.5,9.1,0,16.6-8.3,15.6-17.3-.2-2.7-1.4-5.4-2.7-7.8-17.7-35.8-45.2-66.2-78.1-87.7-38.1-25-83.5-37-128.7-34.5l-157.1-284.1c170.9-36.6,326.9-131.5,443.8-260.3-8.6,31.1-17.8,62.8-26.4,93.2-2.6,10.1,3.2,14.6,10.4,20.2,27.1,22.1,55.5,45.2,81.9,66.7,5,4.3,12.2,4.2,17.4.5,2.5-1.5,5.1-3,7.6-4.4,36-21.6,76-43.8,109.8-65.3,5.9-6-.6-14.4-2.3-21-2.5-6.7-4.9-13.3-7.2-19.6-1.1-2.6-2.1-4.6-4.2-6.1h0l-14.4-33c-1.1-2.5-3-4.5-5.2-5.9h0s0,0,0,0h0l-14.3-27.4-.3-.5c-3.7-6.4-12.7-8.5-18.9-4.4,0,0-16.5,10.7-16.5,10.7,0-.6.2-1.2.3-1.8-5.1-4-12.3-9.6-20.4-15.9,82.2-48.7,170.7-107.5,252.5-165.8,12.9-9.7,34.7-20.4,26.4-40.2-2-4.5-5.1-7.8-8.1-11.3-44.6-52-91.2-106.1-141.4-164.1,59.6-192.2,122.9-465.7,72.8-658.6,43.8-26,100.5-57.9,119.2-61.8,13.7-2.8,24.5-7,33.3-11.6,30.3,37.6,81.1,71.9,127.1,48.8,2.5-1.2,199.7-110.8,202.3-112.1,45.2-23.3,45.5-94.9,27.5-141,35.9-19.6,64.7-35.1,71.9-38.4,42.8-19.3,38.8-42.1,35.1-51ZM2697.8,2227.4c.6-1.2,1.1-2.4,1.7-3.6,16.4,18.6,32.7,37.1,49,55.5-42.5,28.9-86.2,58.1-127.1,85.7,28.4-43,53.8-88.8,76.5-137.6ZM1117.5,2512.2c-42.5-24.8-84.8-52.2-118.7-90.1,44.1-25.9,116.1-68.4,166.2-98l-47.5,188.1Z"/>
        <path class="st8" d="M1589.1,3201.9c-35.5-1.3-70.8-32.5-45.3-81,12.7-36.3,116.7-86.8,165.9-103.8-25.3-57.4-70.2-169.3-119.6-297.7-157.1-53.7-277.6-151.9-341.8-299.4-36.9,253.6-38.1,258.9-38.5,260.6-1.9,9.2-10.7,16.1-20.1,16-5.9,0-12-2.3-22.5-7.2-64.8-31.3-172.6-92.6-237.7-128.9-31.1,32.6-85,43.8-117,6.5l-15.8,10.6c-3.8,2.6-8.3,3.9-12.9,3.9-15.7,0-20.7-12.9-28.5-23.7-16.6,9.3-35.9,19.4-53.5,26.7-18.4,7.8-30.5,12.9-48.4,35.2-35.4,44.7-96.2,15.8-104.5-36.3-6.6-38.3,25.7-54.4,57.6-61.5,8.2-2.2,15.9-4.3,21.4-6.9,14.4-6.9,48.6-24,73.1-36.3l-53.4-77.7c-9.8-13.5-4.4-34.2,10.7-41.3,0,0,66.2-32.9,66.2-32.9-4.7-21.8-4.6-22.8-2.9-28,5.2-14.1,18.2-14,29.8-17.9,17-4.7,57.2-14.9,75.3-19.5,3.6-4.8,8.8-8.3,14.6-9.9l104.4-28.7c5-1.4,10.3,1.3,12.1,6.3l31.7,88.2c83.3-48.7,146.6-85.9,180.5-106.1-57.6-229.2-37.3-433.2,47.3-673.9,37.8-105.5,80.6-184.4,127.2-234.4,38.2-41,79-60.8,112-54.4,26.2,5.1,43.1,25.9,42,51.7-.8,21.1,1.8,39.7,7.7,54.3,40.3-23.6,68.3-62.7,69.8-106.5,3-55.3,16.2-101.6,38.2-134.1,38.6-62,133.2-77.2,171.3-8.2,89.8-120.3,275.7-226.1,419.3-160.2,68.8,36.3,95.9,109.9,79.1,189-8.1,40-24.5,78.3-40.8,115.3,17.7,50,55.7,26.7,85.6-2.4,29.9-27.3,67-61.2,139.7-44.9,42.7,9.6,72,38.2,85.3,83.1,96.8-46.1,188.3-30.9,245.2,64,43.4-22.9,90.7-47.3,126.7-63.5-9.7-35.6-11.7-70.3,2.9-103.2,7.3-15.7,18.5-28.4,33.6-36.5,0-.1,202.2-112,202.3-112.1,41.7-24.1,101.3,5.5,132.8,43.3,38-22.5,62.4-36.8,72.6-42.7,15.7-9,30.7-11.2,44.8-6.4,19.8,6.7,30,25.2,34.4,35.7,3.8,9.1,12,40.5-40.2,64-5.7,2.6-27.2,14-63.8,34,17.1,49.2,12.3,121.3-34.8,145-4.6,2.4-197.5,109.6-202.4,112.1-47.4,24.6-101.4-6.9-134.5-45.2-8.8,3.9-18.2,6.9-28.6,9-13,2.7-53.7,23.8-109.6,56.7,46.8,190.2-14.6,461.7-73.1,651.6,49,56.6,95.1,110.1,140.2,162.8,5,5.6,9.2,13.1,9.7,20.6,1.5,14.9-9.3,26.8-20.4,34.2-8.9,6.4-18.1,12.9-27,19.2-73.4,51.8-149.9,102.6-225.6,148.1l4.4,3.4,9.1-5.9c10.7-7.2,26.5-3.6,32.9,7.6.2.3.4.7.6,1l13.2,25.3c2.8,2.3,5,5.1,6.5,8.4.2.3,13.5,30.8,13.6,31.2,5.4,5,9.7,21.8,12.6,28.4,2.6,7.7,7.6,16.6,4.3,24.8-1.6,4.5-5.3,8.1-9.3,10.5-32.2,19-73,43.1-106.8,63-1,.5-8.9,5.3-9.8,5.7-4.2,2.3-8.9,3.3-13.7,2.8-4.7-.5-9.2-2.4-13-5.5-14.8-11.8-39.7-32.4-54.8-44.6-9.1-7.2-23.1-19-32.3-26.4-1.6-1.4-2.9-2.7-4-4-5-6.1-6.6-14.6-4.4-22.3l15.6-54.9c-111.1,113-253.5,195.4-408.2,231.4l147.7,267.1c39.1-1,77.9,8.1,112.5,26.9,22.8,12.4,43.5,28.7,61,47.8,14.4,15.7,27.1,34.3,36.5,53.3,1.4,2.7,2.7,5.5,3.3,8.3,3.7,15.4-8.7,31.1-24.6,31.3-91.5,2.6-212.9,6.9-308.4,8.8-12.1-.2-22.9-1.9-33.2-6.6-11.4-5.1-20.4-14-27.3-24.6-68.5-120-135.1-242.7-205.7-369.3l113.8,348.2c4,12.4,2,25.5-5.6,36.1-7.6,10.6-19.5,16.7-32.5,16.7,0,0-343.9,1.6-343.9,1.6ZM1243.2,2375.7c3.9,0,7.5,2.3,9.1,5.9,67.9,163.5,175.4,261.1,348.7,320.5,2.8,1,5,3.1,6.1,5.9,52.9,137.6,100.9,256.7,125.2,310.7,2.5,5.1-.4,11.7-5.7,13.5-8.5,3.1-38.9,14.4-71.6,30-72.3,35-110.7,66.9-96.5,103.4,8.5,14.7,30.1,16.3,31.1,16.3,0,0,343.4-1.6,343.4-1.6,6.6,0,12.5-3.1,16.4-8.4,3.8-5.3,4.9-11.9,2.8-18.2l-127.3-389.4c-2.3-6.5,3.5-14,10.5-13.1,5.4.5,9.8.9,13.9,1.3,3.3.3,6.3,2.2,7.9,5.1,71.1,128.5,141.4,255.2,209,376.4,6.7,11.4,12.4,24.4,21.9,33.6,9.8,9.4,22.2,11.8,35.9,12,95.1-2.1,216.1-6.1,307.2-8.8,4.5,0,7.5-4.9,5.1-8.8,0,0,0-.1,0-.2l-.8-1.6s0,0,0-.1c-8.6-17.4-20.2-34.4-33.3-48.7-11.6-12.7-25.1-24.2-39.4-33.9-35.2-23.6-77.4-35.6-119.6-34.3-1.4,0-3.2,0-4.7.2-3.9.3-7.6-1.7-9.5-5.1l-157.1-284.1c-1.5-2.8-1.7-6.1-.4-9,1.3-2.9,3.9-5,7-5.7,7.8-1.7,15.5-3.5,23-5.4,160-39.1,305.4-130.7,415.6-251.9,6.6-7.2,19.8-1.2,17,9.5-6.2,22.1-19.8,70.4-26.4,93.2-.4,1.6-.3,3.1.8,4.4,9.3,8.1,24,19.7,33.4,27.4,0,0,30.4,24.7,30.4,24.7,8.3,6.8,16.5,13.4,24.5,19.9.8.6,1.5,1,2.2,1,1.1.2,2.3-.5,3.2-1.1l8.2-4.8c33.9-19.9,74.8-44.1,107.1-63.2-.9-2.7-3-8.4-4-11-.4-.7-7.5-21.3-8.1-21.2-1.4-1-2.5-2.4-3.2-4l-14.5-33.1c-.2-.5-.7-1-1.3-1.3-1.5-1-2.8-2.3-3.6-3.9l-14.3-27.5c-.5-.7-1.3-1.3-2.1-1.5-.9-.2-1.9,0-2.7.5l-16.5,10.7c-5.2,3.6-13,.9-14.9-5.1l-16.9-13.2c-2.6-2-4-5.2-3.8-8.5.2-3.3,2.1-6.3,4.9-8,15.2-8.9,32.9-19.7,52.8-32.1,66.7-41.6,134-86.9,199-133.2,4.6-3.2,9.2-6.6,13.8-9.9,7.1-5,14.2-12.5,7.4-21.2-3-3.9-6.6-7.8-9.7-11.6-43.1-50.3-89-103.6-136.4-158.3-2.3-2.7-3-6.4-1.9-9.7,36.1-110,57.5-208.1,77.3-334.8,18.3-127.6,19.8-221.5-4.6-318-1.2-4.3.7-8.9,4.5-11.2,44.5-26.4,101.8-58.7,122.3-63,11.5-2.4,21.5-5.9,30.6-10.7,4.2-2.2,9.5-1.2,12.5,2.6,22.6,27.8,54.5,52.2,88.5,52.6,10.2,0,19.7-2.5,28.1-7.4.1,0,200.2-110.9,200.3-111,19.5-10.4,31.3-32.6,33.2-62.4,1.3-21.9-2.5-43.6-10.4-66.4-1.7-4.6.3-9.8,4.6-12.1,42.2-23,65.9-35.7,72.6-38.7,24.9-11.2,35.5-24.7,30-38-3.1-7.3-10-20.3-22.3-24.4-8.4-2.8-17.9-1.2-28.4,4.8-10.8,6.2-37.6,22-79.6,46.9-4.2,2.5-9.7,1.6-12.8-2.3-13-15.8-27.9-28.8-43.1-37.7-25.8-15-50.8-17.6-70.3-7.2,0,0-202.2,112-202.2,112.1-14.8,7.8-24.6,22.5-29.2,38.6-7.8,28.4-4.6,55.9,4.9,85.9,1.6,4.9-.8,10.3-5.5,12.3-38.4,16.7-93.4,45.3-142.1,71-4.8,2.5-10.8.8-13.4-4-40.2-76.4-116-107.1-197.1-74.9-12.3,4.6-25.2,9.9-38.3,15.7-2.7,1.2-5.9,1.1-8.5-.2-2.7-1.4-4.6-3.8-5.2-6.7-9.8-44.1-34.4-70.9-73.1-79.5-62.5-14-92.6,13.5-121.8,40.2-19.5,17.8-38,34.7-64.8,36.6-29,2-45.5-18.9-54.5-46.3-.8-2.3-.6-4.9.3-7.1,31.6-69,68.3-162.3,26.6-230.2-26.9-47.1-75.3-68.5-130.4-69.9-118.5-3.9-260.4,84.2-327.1,185.4-2.1,3-5.6,4.7-9.3,4.3-3.6-.4-6.8-2.7-8.2-6.1-11.4-29.2-37.2-51-67.8-48.7-63.8,2.5-105.3,65.6-111,168.9-2.4,44.4-23.3,81.6-61.9,110.8-8.4,6.4-17.7,12.2-27.5,17.5-4.8,2.6-10.7.8-13.4-3.9-10.8-18.9-15.9-44.5-14.7-74,.6-15.8-9.5-28.1-25.9-31.3-25.7-5-60.7,13.1-93.6,48.4-136.2,158.3-214.3,492.1-200.3,692.6,3.5,68.4,14.4,137.1,32.4,204.2,1.2,4.3-.7,8.9-4.5,11.2-44.8,26.8-143,84.3-197.5,116.2-5.1,3.2-12.6.5-14.5-5.2,0,0-32.7-90.8-32.7-90.8l-95.5,26.3c-1.9.5-3.6,1.9-4.6,3.6-1.3,2.7-3.7,4.7-6.6,5.4-24.7,6.5-70.8,17.2-94.9,25.3.2,2.6,2.2,11.7,5.1,25.1,1,4.5-1.2,9-5.3,11.1l-73.1,36.3c-4.4,2.1-6,8.1-3.1,12,0,0,59.8,87.1,59.8,87.1,3.4,4.8,1.6,12.1-3.7,14.6-24.1,12.1-66.9,33.7-83.7,41.7-7.2,3.4-15.7,5.7-24.8,8.1-21,5.5-48.1,12.6-43.1,38.8,5.2,34.9,45,58.4,69.2,27.2,21.1-26.3,36.5-32.8,56.2-41.2,19.4-7.9,42.7-20.5,59.4-30.1,4.5-2.6,10.3-1.3,13.2,3l14.6,21.2c.9,1.3,3,1.8,4.4.8l23.6-15.9c4.6-3.1,10.8-1.9,13.9,2.7,4.5,6.7,9.6,12,16.4,16.1,16.5,10,38.6,7.3,55.1-1.8,9.4-5.1,17.8-12.3,25-20.2,3.1-4,8.6-5.3,13-2.8,63.7,35.6,177.9,100.4,243.1,132,3.9,1.7,11.7,5.6,14.4,5.3,1.5-3.7,7-45.5,43.2-292.2.7-4.9,5-8.6,9.9-8.6ZM740.7,2305.2s0,0,0,0t0,0ZM842.1,2274.5s0,0,0,0c0,0,0,0,0,0ZM1117.5,2522.2c-1.7,0-3.5-.5-5-1.4-6.9-4-17.3-10.1-28.5-17.2-30.3-18.8-63.6-43.7-86.9-68.7-1.9-2.1-3.8-4.1-5.7-6.2-4.2-4.5-3-12.3,2.4-15.3,45.8-26.9,124.1-73.1,166.1-98,3.5-2.1,7.8-1.8,11.1.6,3.2,2.4,4.7,6.5,3.7,10.5l-47.5,188.1c-1,4.4-5.2,7.6-9.7,7.6ZM1014.7,2424.4c26.2,27.3,63.2,52.8,96.5,72.4l38.3-151.9c-39.9,23.5-95.6,56.4-134.8,79.5ZM2621.4,2375c-7.7.2-12.8-9.1-8.3-15.5,27.9-42.2,53.4-88.1,75.8-136.3,1.8-4.5,4-8.6,9.3-9.3,3.3-.5,6.7.7,8.9,3.3l49,55.5h0c4,4.3,3.1,11.9-1.9,15-42.7,28.8-86.2,58-127.1,85.6-1.7,1.1-3.6,1.7-5.6,1.7ZM2702.1,2241.8c-14.6,30.6-30.4,60.2-47.2,88.5,25.7-17.3,52.1-35.1,78.6-53l-31.4-35.6ZM2743.9,2288.1s0,0,0,0c0,0,0,0,0,0ZM2743.5,2287.9c.1,0,.2.1.4.2-.1,0-.2-.1-.4-.2ZM2743.5,2287.9s0,0,0,0c0,0,0,0,0,0ZM2743.4,2287.9s0,0,0,0c0,0,0,0,0,0Z"/>
      </g>
      <g>
        <path class="st8" d="M1641.4,1005.2c21.7,10.2,43.5,5.9,64.3-8.4,49.7-33.8,98.1-145,31.1-182.5-84.4-41.9-178.9,148.5-95.4,190.9Z"/>
        <path class="st8" d="M1665.4,1020.8c-9.9,0-19.4-2.2-28.4-6.6h0c-50.5-25-43.7-92.6-19.8-140,13.2-26.7,31.5-48.7,51.5-61.9,48.1-34.2,109.7-2,110.4,56.8,2.1,61.3-46.6,149.4-113.8,151.7ZM1711.6,818.1c-63.8.2-131.8,142.9-65.8,178.1,41.3,18.4,79-23.9,97.6-61,22.9-43.4,27.3-113.2-31.8-117.1Z"/>
      </g>
    </g>
    <path class="st2" d="M3421.4,1075.7c3.6,8.6-11.1,18.9-24.9,25.1-7.5,3.4-35.9,18.6-71.3,38-5.1-11.1-11.3-22.1-18.1-32.1,33.1-19.6,65.3-38.5,77.7-45.7,18.9-11.5,30.2-.5,36.5,14.8Z"/>
    <path class="st4" d="M3315.1,1167.1c13.4,36.9,15.5,94.9-19.2,113.6,0,0-159.8,88.5-159.8,88.5,25.2-81.1-37.3-196.8-118.7-219.1l161.3-89.4c16.4-8.7,37.9-6.2,60.6,7,35.4,20.8,62.5,60.2,75.8,99.3Z"/>
    <path class="st4" d="M3099.6,1248.5c25.8,45,40.3,136.5-19.8,148.9-31.5,4.6-65.8-20.7-86.9-46.7,20.2-17.9,34-24.1,72.7-44.5.2,3.6.2,7.4,0,11-.7,13.1-3.2,21.6-.6,23.1.6.3,1.5.1,2.5-.5,2.4-1.6,4.2-3.9,5.9-6.5,10.4-16.7,11.6-38.5,6.1-57.2-5.7-19.8-20.4-37.1-38.8-46.4,0,0,0,0,0,0-9.8-4.9-20.9-8-31.8-7.4-3.1.4-9.2.6-10.2,3.8,0,3,8.6,4.9,20.4,10.8,2.9,1.4,6,3.2,8.8,5-15.4,13.9-41.9,32.3-71.3,42.1-12.7-36.2-13.9-93.2,20-111.2,46.6-22,101.1,32.8,123.1,75.6Z"/>
    <path class="st2" d="M3061.9,1285.3c0,0,0,.2,0,.3-35.9,18.8-61.1,30.8-80.9,49-4.8,3.7-10.2,7.4-16.9,10.7-6.9,3.3-15.1,6.3-25.4,8.4-21.9,4.5-79.2,36.8-121.1,61.6-4-12.2-8.5-23.7-13.5-34.4,45.7-24.1,102.3-53.6,140.9-70.5,6.8-3,13-5.5,18.5-7.6,33.9-11.5,63.3-32.6,80-48,8.4,8.4,14.8,19.3,18.3,30.6Z"/>
    <path class="st9" d="M2737.2,915.7c30.1,86.9-87.1,71.6-131.5,157-28.2,50.5-75.6,83.8-112.7,79.2-24.3-3-42-22.6-51-56.6-11-41.3-.4-86.8,31.5-135.4,24.6-37.3,52.5-61.7,53-62.2,35.8-32,169.8-125.3,210.7,17.9Z"/>
    <path class="st9" d="M2681.4,2535.2l10.5,24.1c-22,13-49.5,29.4-68.5,41.1,1.8-10.4,3.8-21.8,5.8-33.5l52.1-31.7Z"/>
    <path class="st9" d="M2662.8,2502.7l8.1,15.5-37.2,22.6c1.2-7.2,2.4-14.1,3.6-21.5l25.6-16.6Z"/>
    <path class="st9" d="M2622,2499.2c-.3,2.3-.6,4.5-.9,6.7h0c0,0,0,.1,0,.1-4.7,34.3-9.7,71.6-13.6,104.4-9.1,5.8-13.7,9.1-13.4,9.7,3.7,0,20.4-9.3,28.2-13.1,23.3-12,53.4-28.2,79-42.1,3-1.6,4.7-3,5.7,1.6,1.7,5.4,3.5,10.6,5.3,16.1.9,2.6,1.8,5.2,2.6,7.9.7,1.9.6,2.5-1.5,3.4-29.4,16.2-59,32.8-88.9,49.5-5.5,3.1-11,6.2-16.7,9.4-2.5,1.4-5,2.8-7.5,4.2-.4.2-.8.4-1.2.3-14.9-11.6-29.4-24.8-45.1-37.7-12.9-10.9-26.3-22.1-39.3-33.1-.5-.3-.7-1-.4-1.5,5.4-18.2,11-36.8,16.7-55.9,7.1-24.3,14.8-49.9,21.5-75.1,3.1-11.6,8.6-23.2,17.1-31.7,0,0,0,0,0,0,0,0,0,0,0,0,64.1-42.6,127-84.5,192.4-128.2,7.4-3.8,11.9-11.7,8-19.8-.8-2.3-3.9-5-5.3-6.9-18.7-21.2-37.3-42.5-56.2-63.8,12.4-28.3,24-57.7,34.8-88.3,48.6,55.8,93.5,107.1,137.5,157.1,1.3,1.5,2.7,3,3.2,4.7,0,.6-.1.9-.5,1.6-1.6,2.7-5.4,5.5-8.2,7.5-44.5,33-96,70-138.8,99.9-42.7,29.9-83.9,57.9-121.6,83.7-10.4,7.1-43,29.4-41.5,30.6.6.9,11.2-4.4,30.3-15.3,5.3,3.9,13.8,10.5,18.4,13.6v.3Z"/>
    <path class="st9" d="M2462,1231.8c35.9,8.1,58.1,33.6,66.4,76-70.6,31.7-156.5,84.5-222.5,102.8-41.6,11.2-71.2,6.5-93-14.6-27-26.2-13.1-69.9,8.8-121.3,10.9,21.5,31.7,36.5,56.7,34.2,77.6-9.7,86.5-100.4,183.7-77Z"/>
    <path class="st9" d="M2432.5,3163.7c.2,1.6-1.2,3.1-2.8,2.9-89.8,1.5-196.7,3.3-292.9,5.2-11.7.2-24.1.6-34.8-4.2-6.6-3-11.6-8.6-15.5-14.7-68.8-123.3-137.5-250.3-214.3-388.6,34.4,2,53,2.3,73.7,2,4.2,0,47.8.3,113.9-12.6l156,282.1c-18.6,2.8-34.8,7.5-51.7,14.8-6.6,3-18.4,8.6-22.5,12.7.2.3,2.3-.4,6.3-2,3.3-1.4,8.2-3.3,12.2-4.8,59.4-22.8,129.5-19.9,185.3,12.5,37.6,21.7,68.9,54.9,87,94.9Z"/>
    <path class="st11" d="M2235.2,2197.8c8.4,311-273.4,488.2-574.9,413.2-286.5-60.7-431.1-404.8-430.8-604.1l15.5-12.7,74,16.9,74.2,274.7,135.1-65.8,200.8,252.5,209.8-261.6,211.8,85.4,65.7-134.4,17.8,11.6c.5,7.8.8,15.9,1,24.3Z"/>
    <path class="st11" d="M2214.9,2072.1l-10.1,68.1-63.9,130.6-208.3-84-203.4,253.7-195.2-245.5-127.8,62.2-71-263-82.9-18.9-3.5-30c19.5-30,51.3-28.3,80.6-10.6,19.8,11.8,40,31,58.3,55.6,102.4,127.1,311.1,172.4,464.3,119.9,24.6-8.6,47.7-19.6,69.3-33.1,52.1-32.6,95.6-54.3,132.9-66.4,78.4-24.6,131.7-11.5,160.8,61.4Z"/>
    <path class="st9" d="M1942.6,3156.8c2.3,6.4-2.9,13.7-9.7,13.5,0,0-343,1.6-343,1.6-22.1-2.9-31.3-14.2-19.2-37.6,18.2-36.3,120.8-79.1,161-93.3,29.2,55.2-43.9-148.6-109.5-321.4,59.4,19,134.5,33.3,190.4,39.4l130.1,397.9Z"/>
    <path class="st4" d="M1899.7,1820c19.9,41-79.1,114.6-116,136.3-18.3,5-38.8,14.5-54.1,25.5-14.9,4.3-20.6,2.4-21.3,1.4-3.9-46.4,159.8-203.6,191.4-163.1Z"/>
    <path class="st9" d="M1758.6,1119c6.4,10.3,10,21,11.8,27.2-45.1,70-104.2,164.6-137,202.8-29.5,35.5-52.1,50.6-75.4,50.6s-32.3-5.1-43.4-15.1c51.3-27.1,89.9-78.9,91.5-134.8,5.4-97.6,43.3-157.2,101.4-159.4,21.4-.8,38.6,8.8,51.1,28.7Z"/>
    <path class="st9" d="M1727.8,832.2c56.3,31.1-8.3,159.5-62.2,158.6-21.3-.5-35.1-16.1-36.3-39.9-2.6-39.1,23.6-92.1,56.1-113.6,14.4-9.3,28-12.2,42.5-5.1Z"/>
    <path class="st4" d="M1567.7,1952.8c6.9,23.6,3.6,31.4,2.4,32.1-1,.6-6.3.9-17.6-5.4-52.3-29-137.6-135.5-137.6-182.2.2-14.3,8-18,17.2-18.5,14.2,0,30.9,13,40.8,21.9,35.5,31,81.4,104.8,94.8,152.1Z"/>
    <path class="st9" d="M1207.8,2298.9c6.2,17.4,13,34.7,20.3,52.1-13.1,90.1-38.8,266.7-45.8,312.4-34.8-15.7-154.8-82.1-242.1-131.3,14.5-22.4-14.5,4-20.7,8.5-5.4,4.1-10.7,8-16.7,11.5-23.3,14-55.5,17.1-71.5-9.6l18-12.1-6.3-20.2c22.3.9,47.6-9.5,66.7-19.8,14.2,15.6,36.9,24,57,20.7,5.6-.7,17.3-4.5,17.2-8.3-.4-1.4-3.5-1.6-8.5-2-16.7-.5-37-6.7-49.3-20.8,7.6-5.3,18.5-15.2,22.4-20.2,6.1-7.4,5.1-8.4-2.7-3-18.8,13.5-44,27.4-67.8,33.7-18.7,5.1-41.7,10.1-55.7-7.3-9.5-11.2-14.5-28.4-17.9-43.2-2.2-10.8-6.6-26.2,1.3-35.3,5.2-4.9,11.5-5.8,19.4-7.3,20.4-3.6,41.9-7.4,62.8-11.1,8-1.4,16.1-2.9,24-4.3,10.2-1.6,19.3-4.6,28.5-.8,10.5,5.4,16.5,18.8,23.9,28.3,8.2,11.3,17.3,21.8,27,31.7,36.2,36.3,79.1,61.8,123.5,83.2,11.4,5.5,24.5,11.3,35.4,15.8,16.4,6.7,25.8,9.7,26.4,8.5.6-2.8-30.7-19.7-40.8-25.8l53.7-212.8c7.2-4.3,13.5-7.9,18.5-10.9Z"/>
    <path class="st2" d="M1198.7,2272.6c.8,2.3,1.6,4.7,2.4,7-61.5,36.3-154.2,91-215.1,126.9-9.6-11.8-15.7-25.5-27.1-36.4,72.9-42.5,166.3-97.2,228.4-134.1,3.6,12.2,7.4,24.5,11.4,36.6Z"/>
    <path class="st9" d="M936,2256.8l30.8,85.6c-6.6,3.9-13.2,7.7-19.8,11.5-23.9-63.3-37.6-61.9-18.5,5.4-16.1,1.2-31.4,5.1-47.2,7.6l-29.2-87.1,83.9-23.1Z"/>
    <path class="st9" d="M834.5,2290.6l26.9,80c-13.6,2.5-26.9,4.9-40,7.4-5.7,1.1-12,2.4-18.5,5.4-21.5,9.8-23.2,32.5-18.3,53,2.4,10.6,5.2,20.9,9.2,31l-7.6-1c-12.3-54.9-29-129.9-34-154.3,14.7-4.2,49.1-13.1,82.4-21.5Z"/>
    <path class="st9" d="M819.5,2502.5l6.1,19.6c-10.7,7.2-29.3,19.7-40,26.9-29.5-42.9-82.3-119.8-112.1-163.2l66.8-33.2c6.5,29.9,28.9,130,29.3,131.6l35.9,4.9c3.9,5.2,8.5,9.9,14,13.4Z"/>
    <path class="st2" d="M727.2,2499.3l19.9,28.9c-11.7,6.6-31.1,17.3-46.6,24.3-26.8,12-43.9,15.7-70.4,48.6-19,24.4-47.5,3.6-51.5-22.6-6.9-23.7,41.5-25.6,62.4-36.2,16.5-7.8,58.2-28.8,86.3-43Z"/>
    <path class="st9" d="M2811.5,1471.1c34.8,168.4-24.5,441.9-76.1,604.8-36.4,113.5-90.7,227.5-159.9,320.2-5.8,3.9-11.6,7.8-17.4,11.8-11.1,10.3-18,24.1-22.3,38.2-189.4,223.3-450.9,327-708.2,294.4-198.8-23.6-411.9-85.6-524.4-279.9-20.5-37.3-38.7-74.7-54.5-112.1h0c-108.1-257.7-106.3-510.6-3-800.9,42.8-114.9,109-258.7,198.7-270,13.7-.4,25.2,8.2,24.3,21.6-.8,39.3,5.3,69.1,27.1,94.8,15.5,17.1,36.5,25.8,62.3,25.8,29.9,0,57-17.3,90.8-57.8,35.6-41.6,97.7-141.9,143-211.9h0c77.1-134.8,345.7-285.6,449.6-129.9,39.8,69.1,3.6,151.4-27.2,221.6-13.8,31.5-28.2,64.3-33.6,91.9-15.2,60.6,31.2,103.7,85.4,102.8,73.3.4,183.5-71.2,265.4-108,69.8-33.4,139.6-61.2,203.1-9.7,43.5,35.3,66.5,97,77.1,152.3ZM2217.3,2394.9c48.9-100.5,66.2-341.5-42-401.9-75.8-40.9-187.4,18.8-264.8,67.2-78.2,48.9-179.8,63.8-285.9,41.9-94.1-19.5-178.9-66.9-221.1-123.7-33.1-43.6-79.3-85-130.4-74.7-73.3,20-72.8,135.7-49.9,225.4,43.8,208.3,202.6,456.9,432.6,501.4,218.9,53.8,468.1-19.3,561.4-235.6ZM1900.1,1883.6c29.2-38,25-61.6,16.3-74.7-5.3-8-15.6-17.1-35-15.6-58.2,4.7-162.2,108.2-187.2,163.4-10.1,22.5-9,40.2,10.9,46.5-7.4,7.7-16.1,20.7-18.7,28-2,5.1-2.2,8.3-1,9,2.4,1.3,9.7-7.2,23-18.9,7.9-7,17.4-14.3,26.5-20.2,19.9-13.2,43.4-23.5,65.9-30.1,17.3-5.3,34.2-8.2,51.3-12.4,10.4-2.7,10.5-5.7-.3-7.8-7-1.3-14.4-1.6-21.7-1.5,29.1-21.4,53.7-44.4,70-65.7ZM1655.4,1776.1c11.6-55.5,40-129.3,18.5-101-7.6,11-13.3,23.5-19,36.3-8.1,19.8-14,38-19,60.4-7,32.6-11.2,72.5-2.8,104.3,3.6,11.4,6.6,11,7.8-.7.7-5.6,1.4-13.6,2.4-23.4,2.6-25.4,6.7-50.8,12.2-75.9ZM1580.7,2001.9c46.2-36.8-65-194.6-94.4-216-35.5-32.1-59.4-29.8-73.1-22.3-53.6,34.6,23.4,133.8,68.3,182.3-13.4-3.4-24.5-4.7-36.6-4-4.9.2-15.2,1.4-16.1,4.7,0,2.9,10.2,5,25.5,9.2,23.3,6.2,49.7,18.2,69.5,34.4,11.3,8.7,23.3,20.8,31.7,30.3,10.6,12,16.7,20.1,19.2,19,4.3-1.5-4.5-24-12.3-34.8,6.3,1.2,13.1.6,18.3-2.8Z"/>
    <g class="st10">
      <path class="st1" d="M2440.3,1114.8s126.5,0,170.2-124.6c43.7-124.6,126.5-105.1,126.5-105.1,0,0,40.9,73.5.9,96.7-40,23.2-78.1,36.3-134.8,112.5-56.7,76.2-146,104.1-162.7,20.5Z"/>
    </g>
    <g class="st10">
      <path class="st1" d="M2216.6,1249.8s18,75.4,79.6,42.3c61.7-33.1,76.1-80,144.8-70.8,68.7,9.2,89.8,47.6,94.4,93.4,0,0-144.7,92.7-235.8,108.3s-195.2-33.8-144.4-167.2c50.8-133.4,71.6-251.2,48.1-286.3,0,0,84.6,54.7,64.4,143.1-20.2,88.5-51.2,137.3-51.2,137.3Z"/>
    </g>
    <g class="st10">
      <path class="st1" d="M1500.6,1379.2c158.2-72.8,54.9-242.4,179.2-287.4,61-22.7,93.2,19.4,97.1,59.9,0,0-115.6,207.4-185.9,250.2-48.3,29.4-90.4-22.7-90.4-22.7Z"/>
    </g>
    <g class="st10">
      <path class="st1" d="M1636.4,985.9s24.7,9.2,43.2-43.5c18.5-52.7-6.7-116.8,43.6-121.2,50.3-4.4,40.9,74.8,3.7,130.6-37.3,55.7-79.3,52.5-90.5,34.1Z"/>
    </g>
    <g class="st10">
      <path class="st1" d="M3404,1047.7c-17.4-2.5-113.8,59.8-113.8,59.8l-41.5-38.1-202.5,104.9c38.1,18.2,57.3,81.7,57.3,81.7-15.8-21.6-42.3-12.4-62.2-9.1-19.9,3.3-26.5,28.2-26.5,28.2,0,0-9.1,34-87.1,72.2-78,38.1-137.5,30.9-137.5,30.9-58.4-146.5-209.5-80.4-209.5-80.4,0,0,147.5-30.2,16.8,636.9-130.7,667-517.3,804.7-517.3,804.7,161.2-27,372.3-168.2,463.4-288.7l-19.2,85.2s64.2,130.8,76.9,128.3c12.7-2.5,122.4-62.6,119.9-75.3-2.5-12.7-35-66.6-43.7-87.1-8.7-20.5-38.4,0-38.4,0l-31.6-22.1s292.4-180.4,284.7-205.1c-7.8-24.7-149.1-170.1-149.1-170.1,25-88.6,65-314.1,83.5-402.1,18.5-88-12.3-264-12.3-264l87.8-58.9,75.9-19.5c.1.4,79.2,59.1,115.6,43.2,37-16.3,192.1-96.8,223.5-132.1,31.4-35.3,5.6-119.7,5.6-119.7,0,0,61-21.4,87.5-46.3,26.5-24.9,11.3-54.6-6.2-57.1ZM2757.2,2273.2c.7,16.8-155.5,115-155.5,115l91.5-176s63.3,44.2,64,61Z"/>
    </g>
    <g class="st10">
      <path class="st1" d="M1170,2350.7s24.1,23.3,20.8,145.2-47.8,162.7-48.5,164.1c-.7,1.5,42.3,11.7,42.3,11.7l52.9-320.3-26.6-60.2-37.6,20.8-3.3,38.7Z"/>
    </g>
    <g class="st10">
      <path class="st1" d="M783.4,2559.4l4.2-76.6,21,.3,25.8,17.8s26.8,4.5,59.1-9.7l32.3-14.2,22.6-20s-4.5,27.5,6.8,44.6c0,0-67.8,2.6-90.5,30-22.6,27.5-16.2,37.8-16.2,37.8,0,0-34.6-33.6-33.9-32.3.6,1.3-31.3,22.3-31.3,22.3Z"/>
    </g>
    <g class="st10">
      <path class="st1" d="M879,2266.4s13.6-9.2,32,22.3l18.4,31.5,9.2,47.5-35.4,9.7c80.9,43,48.5,101,199.7,135.2,0,0-97.4-64.9-117.3-91.6l228.3-133.8-22.8-62.5c-11.2,36.3-143.8,185.5-214.7,120.2.5,1.9-33.9-98.4-33.9-98.4l-63.5,19.9Z"/>
    </g>
    <g class="st10">
      <path class="st1" d="M823.6,2390.2c0,1-14.6-99.2-14.6-99.2,0,0,29.7-15.6,31.1-15.1s29.7,97.8,29.7,97.8l-46.2,16.5Z"/>
    </g>
    <g class="st10">
      <path class="st1" d="M576.6,2595.9s24.3,15.8,46.9-17.1c22.6-32.8,116.4-76.3,116.4-76.3,0,0,25.2,32.8,23.4,32.8s-92.9,26.9-116.8,61.8c-23.9,35-55.4,30.7-69.9-1.3Z"/>
    </g>
    <g class="st10">
      <polygon class="st1" points="1643.2 2801.6 1884.5 2955.5 1821.1 2748.1 1611.2 2709.3 1643.2 2801.6"/>
    </g>
    <g class="st10">
      <path class="st1" d="M1881.4,2805.3l261.6,256.7s21.6-14.9,71.7-22.8c50.2-7.9,126.9,45.2,152.2,77.5,25.3,32.3-31.1,58.1-31.1,58.1,0,0,107.4,10,106.2-10.8-1.2-20.7-54.3-86.7-103.3-107.4-48.9-20.7-108.6-20.3-108.6-20.3l-167.1-294.8s-63,12-115.3,13.3c-52.2,1.2-92.5.4-92.5.4l26.2,50.2Z"/>
    </g>
    <g class="st10">
      <path class="st1" d="M1788.5,2114.8c-1.9.2,119.4,1.3,225.9-55.8,106.5-57.1,131.6,86.6,130.3,157.9-1.3,71.2-177.8-5.8-177.8-5.8,145.8,94,200.8,125.6,134.8,315.1,1.9,1.3,120-97.5,138-238.1,18-140.5-16-256.7-66.7-285.6-50.7-28.9-161.7-3.9-213,44.3-51.3,48.1-131.6,62.9-171.3,68Z"/>
    </g>
    <g class="st10">
      <path class="st1" d="M1421.9,1776.8s30.5,17.8,92.1,108.7c61.6,91,47.7,109.3,47.7,109.3,78.3-7.7-96.6-260.3-139.8-218Z"/>
    </g>
    <g class="st10">
      <path class="st1" d="M1727.1,1923.3s66-69.3,119.8-72.7c53.8-3.3,30,46.6-32.7,101l12.8.6s152-91,97.6-155.3c-60.7-71.9-197.5,126.5-197.5,126.5Z"/>
    </g>
    <g class="st10">
      <path class="st1" d="M1555.2,2000.8s9.5,13,35.6,8.9c26.1-4.1,3.6-103.1-82.4-183.7,0,0,42.1,74.1,59.3,118.5s13,53.3-12.4,56.3Z"/>
    </g>
    <g class="st10">
      <path class="st1" d="M1637.6,1882.9c-39.3-62.3-26.1-170.5,42.1-212.1-46.8,81.5-37.7,132.3-42.1,212.1Z"/>
    </g>
    <g class="st7">
      <path class="st1" d="M2387,2145c87.8,79.1,193.3-374.8,108.3-538.8-84.9-164-196.2,459.7-108.3,538.8Z"/>
    </g>
    <g class="st7">
      <path class="st1" d="M2129.1,1758.7c-21.1,29.5-65.4,27-83.8-4.3-19.7-33.5-53.2-64-107.4-47.3-105.4,32.4-256.9-83.8-192-197.4,64.9-113.6,262.3-187.9,369.1-27,79,119.1,61.8,209.2,14.1,276Z"/>
    </g>
    <g class="st7">
      <path class="st1" d="M2017.6,2668.3c-20.3,32.4,85.2,71.7,158.2-55.4,73-127.1-137.9,23-158.2,55.4Z"/>
    </g>
    <g class="st7">
      <path class="st1" d="M2151.4,1009.5c-32.4,0-81.1,33.8-64.9,62.2,16.2,28.4,51.4,75.7-2.7,181.2-54.1,105.4,33.8,32.4,66.2-64.9,32.4-97.3,33.8-178.5,1.4-178.5Z"/>
    </g>
    <g class="st7">
      <path class="st1" d="M1988,1967.6s44.5-60.7,32.5-116.4c-12-55.6-65,.9-62.5,49.6,2.6,48.8-40.2,77.9-47.9,112.1-7.7,34.2,54.8-5.1,77.9-45.3Z"/>
    </g>
    <g class="st7">
      <path class="st1" d="M2247.4,2445.3c3.6,70.5,141.1-36.2,135.7-142.9-5.4-106.7-139.3,72.4-135.7,142.9Z"/>
    </g>
    <g class="st7">
      <path class="st1" d="M1776.7,2949c5.8,16.3,29.7,77.9,63.4,84.8,38.9,8,11-69.8-30.9-94.7-41.9-24.9-33.4,7.4-32.5,9.9Z"/>
    </g>
    <g class="st7">
      <path class="st1" d="M2229.8,3064.6c-56.8,6-14,59.8,42.9,74.7,56.8,14.9,14-80.7-42.9-74.7Z"/>
    </g>
    <g class="st5">
      <path class="st4" d="M2432.8,1088.2c168.8-48.6,104.7-179.8,273.4-238.8-104-99.1-309.8,154.4-273.4,238.8Z"/>
    </g>
    <g class="st5">
      <path class="st4" d="M2834.4,1357.4s52.3-5.1,84.4-16.9c32.1-11.8,94.5-74.3,94.5-74.3l26.2-27s38.8-15.2,64.1-.8c0,0-31.2-55.7-54-64.1-22.8-8.4-25.3-9.3-25.3-9.3l214.3-105.5s-19.4-27.8-88.6,9.3c-69.2,37.1-172.1,90.3-189.9,108.9-17.7,18.6-19.4,86.1-10.1,115.6l-115.6,64.1Z"/>
    </g>
    <g class="st5">
      <path class="st4" d="M819.8,2389.9c-8.5,1.3-16.1,3.6-22.3,7,1.5-29.7-8.2-98.6-8.2-98.6l-47.8,10.2,5.6,31.5s-70.2,31.5-80.4,41.2c-10.2,9.7,61.6,108.9,61.6,108.9,0,0-138.9,57.5-151.6,66.6-12.7,9.2-3.6,31-3.6,31,0,0,23.4,1.5,52.4-25.9,29-27.5,111.9-64.1,111.9-64.1l39.7,46.8c3.9,7.1-80.7-172.1-17.3-145,0,0,11.7,69.7,18.8,75.8,5,4.3,15.9,1.6,22-.4,7.2,7.6,13.6,11.6,13.6,11.6l23.4,13.7s67.2-25.4,72.7-74.8c5.6-49.3-64.1-39.7-90.6-35.6Z"/>
    </g>
    <g class="st5">
      <polygon class="st4" points="871.7 2264.2 921.5 2371.5 874.7 2375.6 842.7 2276.9 871.7 2264.2"/>
    </g>
    <g class="st5">
      <path class="st4" d="M995.8,2344.1c77.4-4.8,126.1-38.1,165.8-102.3l-165.8,102.3Z"/>
    </g>
    <g class="st5">
      <path class="st4" d="M944.9,2543c83.7-19.5,179.1,17.8,201.5,109.4l-201.5-109.4Z"/>
    </g>
    <g class="st5">
      <path class="st4" d="M1169.3,2376.6c0,1.5,5.1,169.9,5.1,169.9l-46.8-25.4,41.7-144.5Z"/>
    </g>
    <g class="st5">
      <path class="st4" d="M1559.9,1419.1s121.6,39.9,273.3-141,287.9-323.9,342.4-321.9c-131.2-59-363.6,96.3-431.9,250-58.4,108.9-147.8,198.4-183.8,213Z"/>
    </g>
    <g class="st5">
      <path class="st4" d="M1867.3,1320.9c-1,95.3,231.5-43.8,224.7-166.3s-223.7,71-224.7,166.3Z"/>
    </g>
    <g class="st5">
      <path class="st4" d="M1629.9,966.8s30.2-13.6,39.9-62.2c9.7-48.6-5.8-73.9-32.1-16.5-26.3,57.4-7.8,78.8-7.8,78.8Z"/>
    </g>
    <g class="st5">
      <path class="st4" d="M1452.2,1891.4s67.1,75,21-23c-46-98-74.3-86.1-63.8-45.4,10.5,40.8,42.7,68.4,42.7,68.4Z"/>
    </g>
    <g class="st5">
      <path class="st4" d="M1754.6,1896c78.1-37.5,153-7.7,20.4,73.6-40.8,25-91.4,40.8-79.6,7.9,11.8-32.9,59.2-81.5,59.2-81.5Z"/>
    </g>
    <g class="st5">
      <path class="st4" d="M1527.3,2672.5s-87.5-69.4-111.5-103.7c-24-34.4,38.9,12.3,141.4,55.1,102.5,42.8,208.1,29.8,249,16.9,0,0-303.7-2.4-433-212.3,0,0-105.5-131.1-137.6-288.9-32.1-157.7.9-212.7,41.3-225.6,40.3-12.8,90.8,30.3,112.8,56.9s81.6,93.5,164.1,119.2c82.5,25.7,16.5-77.9-21.1-109.1-37.6-31.2-128.4-120.1-128.4-180.6s79.8-28.4,116.5,36.7c36.7,65.1,105.5,56.9,28.4-98.1-77-155-69.7-222.8-41.3-266.8,28.4-44-85.3-66-89.9,80.7-4.6,146.7-130.2-25.7-49.5-144.9,80.7-119.2,118.3-47.7,118.3-47.7,0,0,.9-65.2-15.6-83.4-169.1-69.4-307.6,459.5-315.3,614.4-7,306.5,91.6,644.7,371.3,781.5Z"/>
    </g>
    <g class="st5">
      <path class="st4" d="M2236.9,1426.9s64.1,96.2,229.5,27c165.4-69.2,133.3-172.1,21.9-113.1s-213.6,102.7-251.5,86.1Z"/>
    </g>
    <g class="st5">
      <polygon class="st4" points="1335.1 1994.6 1427.2 2259.1 1397.7 2272.1 1335.1 1994.6"/>
    </g>
    <g class="st5">
      <polygon class="st4" points="1534.7 2200.1 1755.6 2418.6 1727.2 2449.3 1534.7 2200.1"/>
    </g>
    <g class="st5">
      <polygon class="st4" points="1730.5 2470.3 1977.2 2217.2 1932.4 2199.6 1730.5 2470.3"/>
    </g>
    <g class="st5">
      <path class="st4" d="M2120.3,1913.8c-4,2.3,134.2-13.1,166.3,138.6,0,0,27.7-252.4-166.3-138.6Z"/>
    </g>
    <g class="st5">
      <path class="st4" d="M1670,2864.9l245.2,315.9s-308.8,7.2-326.7,6.3c-17.9-.9-47.4-30.4-22.4-62.7s162.9-95.8,162.9-95.8l-59.1-163.8Z"/>
    </g>
    <g class="st5">
      <path class="st4" d="M1939.4,2902.5s176.3,155.7,225.5,198.7,139.6,74.3,139.6,74.3c0,0-166.5,6.3-190.6,4.5-24.2-1.8-43-34.9-43-34.9l-131.6-242.6Z"/>
    </g>
    <g class="st5">
      <path class="st4" d="M1723.5,2055.3c9.5,25.1,102.6-13.1,111-56.1,8.4-43-120.5,31-111,56.1Z"/>
    </g>
    <path class="st3" d="M1586.2,1408.5s143.2-44.1,235.8-208.3c92.6-164.2,214.9-239.1,265.6-251.2,0,0-177.4,20.9-264.5,143.2-87.1,122.3-188.4,281-236.9,316.2Z"/>
    <path class="st3" d="M1625.8,945.4s30.3,10.7,37.5-47.7c7.2-58.4-42.2-22.2-37.5,47.7Z"/>
    <path class="st3" d="M2432.5,1073.7c168.2-113.2,95.1-168.4,209.6-243.2,0,0-105.3,20.9-161.5,105.3-56.3,84.4-48.1,137.9-48.1,137.9Z"/>
    <path class="st3" d="M2267.1,1434s66.4,28.6,188.4-35.3c121.9-63.9,94.2-84.1,10.9-47.9-83.2,36.2-199.3,83.2-199.3,83.2Z"/>
    <path class="st3" d="M2085.7,1129.6c-44.9-81.3-298.7,194-194,222.5-2.5-3.2-13.8-26.2,60.1-123.2,73.1-95.9,124.8-99.5,133.9-99.3Z"/>
    <path class="st3" d="M736.9,2489.5s-30.6-69.6-30.6-90.2,44-35.6,44-35.6l21.2,81.3-.6-145.3-29.5,9.5,3.3,38.4s-72.9,31.7-79.1,39c-6.1,7.2,71.3,103,71.3,103Z"/>
    <path class="st3" d="M574.9,2581.4s42.3-25.1,47.3-39.5-61.2,11.1-47.3,39.5Z"/>
    <path class="st3" d="M838.2,2500.1c-16.6-29.5-12.9-92.2,16.1-116.9,0,0-62.9-11.1-64,34-1.1,45.1,20,85.7,47.9,82.9Z"/>
    <polygon class="st3" points="862.7 2267.4 901.7 2372.6 874.4 2372.1 839.3 2274.1 862.7 2267.4"/>
    <path class="st3" d="M1020.8,2329.8s50.7-5,79.1-29.5c28.4-24.5,30.1-43.4-22.8-10.6-52.9,32.8-56.2,40.1-56.2,40.1Z"/>
    <path class="st3" d="M1412.8,2604.4c-239.6-264.6-287.1-758-124.9-1108.8,44.1-114.8,147.6-228.3,182.9-219.5,0,0-60.5-47.9-142.5,82-82,129.9-190.5,378.4-169,638.3,21.4,259.8,142.5,483.1,142.5,483.1,0,0,49.2,80.7,111,124.9Z"/>
    <path class="st3" d="M1591.3,3178.3s-24.5-17.1,33.4-67.5c57.9-50.5,113.8-60.8,113.8-60.8l-9.1-20.3s-97.3,29.4-141.4,71.8c-44.1,42.4-29.8,71.3-19,76.1,10.8,4.8,22.3.8,22.3.8Z"/>
    <path class="st3" d="M1958.2,2937s96.8,151.2,144.2,192.9c47.4,41.7,93.6,51.8,93.6,51.8,0,0-94.9,10.6-112.3-20.6-17.5-31.2-125.5-224.1-125.5-224.1Z"/>
    <g>
      <path class="st8" d="M3439.9,1068c-9.7-25-34.9-42.6-65-24.4-12.7,7.3-45.9,26.9-79.7,46.9-28.6-37.1-85.3-70.3-125.9-47.4,0,0-202.2,112-202.2,112-13.2,7.1-23,18.2-29.4,32-14.5,33.5-11.1,68.6.2,104.5-39.5,17.2-96.6,46.9-142.8,71.3-42.4-80.7-123.7-113.5-209.4-79.4-13.1,5-26,10.3-38.8,15.8-10.6-47.6-38.3-77.6-80.7-87.1-67.6-15.2-101.1,15.5-130.8,42.5-36.4,36.9-83.6,55.6-103.1-5.4,16.5-37.7,33.6-76.7,41.7-116.9,15.9-74.8-9.1-143.8-73.9-178.1-143.7-65.3-332.5,47.8-416.2,170.6-12.8-32.7-42.8-57.3-77.4-54.8-69.5,2.7-114.6,69.3-120.6,178.3-1,50.3-37.8,96.6-84.1,120-9.8-17.2-14.5-40.9-13.4-68.7.8-20.7-12.8-37.4-33.9-41.5-29.5-5.8-67,13-102.8,51.4-45.6,49-87.7,126.7-125.1,230.9-84.8,241.3-104.6,445.7-45.1,675.3-38.2,22.9-117.7,69.5-197.4,116.1l-35.8-99.5-104.4,28.7c-4.7,1.3-8.8,4.6-10.9,9-21.4,5.4-68.5,17.2-90.8,23.8-5,1.5-9.4,2.9-11.1,8.1-1,3.1-1.1,3.2,4.8,30.3l-73.1,36.3c-4.7,2.4-8.2,6.6-9.5,11.8-1.3,5.1-.4,10.6,2.6,14.9l59.8,87.1c-27.9,14.1-67.6,34-83.5,41.6-6.3,3-14.5,5.2-23.1,7.5-26.4,6.3-56.3,17.7-50.4,50.2,5,27.6,25.7,49.7,51.7,50.1,13.2,0,25.6-6.4,35.2-18.4,22.9-28.6,38-31.6,63-42.8,17.1-7.7,38-19.3,49.8-26l14.6,21.2c4.1,6,12.3,7.4,18.2,3.5l23.6-15.9c15.9,24.6,43.9,32.2,70.9,23.4,16.7-5.3,30.7-16.3,42-28.9,59,33,180.8,102.1,243.8,132.3,11.4,4.9,15.6,7.9,22.7,5.3,3-1.3,5.2-4,5.9-7.2,1.5-6.5,29.2-197.3,43.1-292.7,68.7,165.6,178.9,265.8,354.5,325.8,54,140.5,101.7,258.6,125.4,311.3-53.6,20.8-205.9,77.2-173.4,147.7,10.9,19,36.2,21.2,39,21.4.2.2,343.9-1.7,344.2-1.6,9.8,0,18.7-4.6,24.4-12.6s7.3-17.8,4.2-27.1l-127.3-389.4c4.8.5,9.5.9,14,1.3,79.6,143,150.8,273.7,222.9,400.5,5.7,8.7,13.4,16.7,23.2,21,9.3,4.3,19.5,5.5,29.3,5.7,42.3-.5,86.1-2.4,126.6-3.3,65-2,125.6-3.8,181.1-5.5,9.1,0,16.6-8.3,15.6-17.3-.2-2.7-1.4-5.4-2.7-7.8-17.7-35.8-45.2-66.2-78.1-87.7-38.1-25-83.5-37-128.7-34.5l-157.1-284.1c170.9-36.6,326.9-131.5,443.8-260.3-8.6,31.1-17.8,62.8-26.4,93.2-2.6,10.1,3.2,14.6,10.4,20.2,27.1,22.1,55.5,45.2,81.9,66.7,5,4.3,12.2,4.2,17.4.5,2.5-1.5,5.1-3,7.6-4.4,36-21.6,76-43.8,109.8-65.3,5.9-6-.6-14.4-2.3-21-2.5-6.7-4.9-13.3-7.2-19.6-1.1-2.6-2.1-4.6-4.2-6.1l-14.4-33c-1.1-2.5-3-4.5-5.2-5.9h0s0,0,0,0h0l-14.3-27.4-.3-.5c-3.7-6.4-12.7-8.5-18.9-4.4,0,0-16.5,10.7-16.5,10.7,0-.6.2-1.2.3-1.8-5.2-4-12.3-9.6-20.4-15.9,82.2-48.7,170.7-107.5,252.5-165.8,12.9-9.7,34.7-20.4,26.4-40.2-2-4.5-5.1-7.8-8.1-11.3-44.6-52-91.2-106.1-141.4-164.1,59.6-192.2,122.9-465.7,72.8-658.6,43.8-26,100.5-57.9,119.2-61.8,13.7-2.8,24.5-7,33.3-11.6,30.3,37.6,81.1,71.9,127.1,48.8,2.5-1.2,199.7-110.8,202.3-112.1,45.2-23.3,45.5-94.9,27.5-141,35.9-19.6,64.7-35.1,71.9-38.4,42.8-19.3,38.8-42.1,35.1-51ZM2235.9,1293.9c36.5,34.1,85.4,4.1,113.2-24.3,28.5-26.1,55.5-50.7,112.9-37.8,35.8,8.1,58.1,33.6,66.4,76-70.6,31.7-156.5,84.5-222.5,102.8-41.6,11.2-71.2,6.5-93-14.6-27-26.2-13.1-69.9,8.8-121.3,3.9,7.2,8.6,13.9,14.3,19.3ZM1539.7,1368.3c40.9-30.6,63.9-71.6,66.4-118.6,5.4-97.6,43.3-157.2,101.4-159.4,33.2-2.5,55.5,27.4,62.8,55.9-45.1,70-104.2,164.6-137,202.9-29.5,35.5-52.1,50.6-75.4,50.6s-32.3-5.1-43.4-15.1c7.9-4.4,16.4-9.7,25.1-16.2ZM991.2,2351.3c65.1-38.1,143.6-84,196.1-115.3,4.2,14.6,8.8,29.2,13.8,43.7-61.5,36.3-154.2,91-215.1,126.9-9.6-11.8-15.7-25.5-27.1-36.4,10.7-6.2,21.4-12.5,32.3-18.9ZM1117.6,2512.2c-42.5-24.8-84.8-52.2-118.7-90.1,44.1-25.9,116.1-68.4,166.2-98l-47.5,188.1ZM936,2256.8l30.8,85.6c-6.6,3.9-13.2,7.7-19.8,11.5-23.9-63.3-37.6-61.9-18.5,5.4-16.1,1.2-31.4,5.1-47.2,7.6l-29.2-87.1,83.9-23.1ZM834.5,2290.6l26.9,80c-13.6,2.5-26.9,4.9-40,7.4-5.7,1.1-12,2.4-18.5,5.3-21.5,9.8-23.2,32.5-18.3,53,2.4,10.6,5.2,20.9,9.2,31l-7.6-1c-12.3-54.9-29-129.9-34-154.3,14.7-4.2,49.1-13.1,82.4-21.5ZM700.5,2552.5c-3.6,1.6-7.1,3.1-10.5,4.6-58.2,20.9-57.3,60.7-85,54.2-12.8-3.3-23.6-16.8-26.4-32.8-6.9-23.7,41.5-25.6,62.4-36.2,16.5-7.8,58.2-28.8,86.3-43l19.9,28.9c-11.7,6.6-31.1,17.3-46.6,24.3ZM805.4,2535.8l-19.7,13.3c-29.5-42.9-82.3-119.8-112.1-163.2l66.8-33.2c6.5,29.9,28.9,130.1,29.3,131.6l35.9,4.9c3.9,5.2,8.5,9.9,14,13.4l6.1,19.6c-1.9,1.3-17.9,12.1-20.3,13.7ZM1182.3,2663.4c-34.8-15.7-154.8-82.1-242.1-131.3,14.5-22.4-14.5,4-20.7,8.5-5.4,4.1-10.7,8-16.7,11.5-23.3,14-55.5,17.1-71.5-9.5l18-12.1-6.3-20.2c22.3.9,47.6-9.5,66.7-19.8,14.2,15.6,36.9,24,57,20.7,5.6-.7,17.3-4.5,17.2-8.3-.4-1.4-3.5-1.6-8.5-2-16.7-.5-37-6.7-49.3-20.8,7.6-5.3,18.5-15.2,22.4-20.2,6.1-7.4,5.1-8.4-2.7-3-18.8,13.5-44,27.4-67.8,33.7-18.7,5.1-41.7,10.1-55.7-7.3-9.5-11.2-14.5-28.4-17.9-43.2-2.2-10.8-6.6-26.2,1.3-35.3,5.2-4.9,11.5-5.8,19.4-7.3,20.4-3.6,41.9-7.4,62.8-11.1,8-1.4,16.1-2.9,24-4.3,10.2-1.6,19.3-4.6,28.5-.8,10.5,5.4,16.5,18.8,23.9,28.3,8.2,11.3,17.3,21.8,27,31.7,36.2,36.3,79.1,61.8,123.5,83.2,11.4,5.5,24.5,11.3,35.4,15.8,16.4,6.7,25.8,9.7,26.4,8.5.6-2.8-30.7-19.7-40.8-25.8l53.7-212.8c7.2-4.3,13.5-7.9,18.5-10.9,6.2,17.3,13,34.7,20.3,52.1-13.1,90.1-38.8,266.7-45.8,312.4ZM1942.6,3156.8c2.3,6.4-2.9,13.7-9.7,13.5,0,0-343,1.6-343,1.6-22.1-2.9-31.3-14.2-19.2-37.6,18.2-36.3,120.8-79.1,161-93.3,29.2,55.2-43.9-148.6-109.5-321.4,59.4,19,134.5,33.3,190.4,39.4l130,397.9ZM2215.9,3035.7c-18.6,2.8-34.8,7.5-51.6,14.8-6.6,2.9-18.5,8.6-22.5,12.7,2,.3,9.7-3.8,13.7-5,6.5-2.5,13.2-5,20-7,58.4-18,125.1-11.2,177.2,22,34.2,21.8,63,53.1,79.9,90.6.2,1.6-1.2,3.1-2.8,2.9-89.8,1.5-196.7,3.3-292.9,5.2-11.8.2-24.1.6-34.8-4.2-6.6-3-11.6-8.6-15.5-14.7-68.8-123.2-137.5-250.3-214.3-388.6,34.4,2,53,2.3,73.7,2,4.2,0,47.8.3,113.9-12.6l156,282.1ZM2629,2568.4c0-.5.2-1,.2-1.5l52.1-31.7,10.5,24.1c-22,13-49.5,29.4-68.5,41.1,1.8-10,3.6-20.6,5.5-32ZM2662.8,2502.7s8.1,15.5,8.1,15.5l-37.2,22.6c1.2-7.2,2.3-14.1,3.5-21.5l25.6-16.6ZM2873.3,2264c2.5,2.7,5,5.8,7.5,8.5,1.3,1.5,2.7,3,3.2,4.7-.5,3.2-4.6,5.9-7.2,8-4.4,3.3-8.8,6.5-13.2,9.7-63.8,47.1-133.6,96.2-195.3,138.5-27.9,19.1-46.8,31.8-69.9,47.9-16.7,11.7-25.6,18.3-25,19.2.6.9,11.2-4.4,30.3-15.3,5.3,3.9,13.8,10.5,18.4,13.6v.3c-.3,2.3-.6,4.5-.9,6.7h0s0,.1,0,.1c-4.7,34.3-9.7,71.6-13.6,104.4-9.1,5.8-13.7,9.1-13.4,9.7,3.7,0,20.4-9.3,28.2-13.1,19.4-10,44.3-23.4,66.6-35.4,4.6-2.4,9.4-5.1,14.2-7.6,2.5-1.6,3.4,0,3.9,2.5,1.7,5.4,3.5,10.6,5.3,16.1.9,2.6,1.8,5.2,2.6,7.9.7,1.9.6,2.5-1.5,3.4-29.4,16.2-59,32.8-88.9,49.5-5.5,3.1-11,6.2-16.7,9.4-2.5,1.4-5,2.8-7.5,4.2-.4.2-.8.4-1.2.3-14.9-11.6-29.4-24.8-45.1-37.7-12.9-10.9-26.3-22.1-39.3-33.1-.5-.3-.7-1-.4-1.5,5.4-18.2,11-36.8,16.7-55.9,7.1-24.3,14.8-49.9,21.5-75.1,3.1-11.6,8.6-23.2,17.1-31.7,0,0,0,0,0,0,0,0,0,0,0,0,64.1-42.6,127-84.5,192.3-128.2,7.4-3.8,11.9-11.7,8-19.8-.8-2.3-3.9-5-5.3-6.9-18.7-21.2-37.3-42.5-56.2-63.8,12.4-28.3,24-57.7,34.8-88.3,45.6,52.3,89.3,102.3,130,148.6ZM2699.6,2223.7c16.4,18.6,32.7,37.1,49,55.5-42.5,28.9-86.2,58.1-127.1,85.7,29.1-44,55.2-91.3,78.2-141.2ZM2811.5,1471.1c34.8,168.4-24.5,441.9-76.1,604.8-36.4,113.5-90.7,227.5-159.9,320.2-5.8,3.9-11.6,7.8-17.4,11.8-11.1,10.3-18,24.1-22.3,38.2-189.4,223.3-450.9,327-708.2,294.4-198.8-23.6-411.9-85.6-524.4-279.9-20.5-37.3-38.7-74.7-54.5-112.1h0c-108.1-257.7-106.3-510.6-3-800.9,42.8-114.9,109-258.7,198.7-270,13.7-.4,25.2,8.2,24.3,21.6-.8,39.3,5.3,69.1,27.1,94.8,15.5,17.1,36.5,25.8,62.3,25.8,29.9,0,57-17.3,90.8-57.8,35.6-41.6,97.7-141.9,143-211.9h0c77.1-134.8,345.7-285.6,449.6-129.9,39.8,69.1,3.6,151.4-27.2,221.6-13.8,31.5-28.2,64.3-33.6,91.9-15.2,60.6,31.2,103.7,85.4,102.9,73.3.4,183.5-71.2,265.4-108,69.8-33.4,139.6-61.2,203.1-9.7,43.5,35.3,66.5,97,77.1,152.3ZM2964.1,1345.3c-6.9,3.3-15.1,6.3-25.4,8.4-21.9,4.5-79.2,36.8-121.1,61.6-4-12.2-8.5-23.7-13.5-34.4,45.7-24.1,102.3-53.6,140.9-70.5,6.8-3,13-5.5,18.5-7.6,33.9-11.5,63.3-32.6,80-48,8.4,8.5,14.9,19.4,18.4,30.9-35.9,18.8-61.1,30.8-80.9,49-4.8,3.7-10.2,7.4-16.9,10.7ZM3093.2,1393.1c-35.6,16.7-76.2-13.3-100.3-42.4,20.2-17.9,34-24.1,72.7-44.5.2,3.6.2,7.4,0,11-.7,13.1-3.2,21.6-.6,23,.6.3,1.4.2,2.5-.5,2.4-1.6,4.2-3.9,5.9-6.5,10.4-16.7,11.6-38.5,6.1-57.2-5.7-19.8-20.4-37.1-38.8-46.4,0,0,0,0,0,0-9.8-4.9-20.9-8-31.8-7.4-3.1.4-9.2.6-10.2,3.8,0,3,8.6,4.9,20.4,10.8,2.9,1.4,6,3.2,8.8,5-15.4,13.9-41.9,32.3-71.3,42.1-12.7-36.2-13.9-93.2,20-111.2,19.9-9.8,39.6-4.8,60.6,7,48.7,27.1,89.3,103.2,84.6,158.7-1.7,26.5-11.7,45.8-28.6,54.5ZM3324,1226.5c-1.7,26.2-11.6,45.5-28,54.2l-159.8,88.5c25.2-81.1-37.3-196.8-118.7-219.1l161.3-89.4c31.2-17.2,76.3,11.9,99,40.1,28.5,33.7,48.9,82.3,46.2,125.7ZM3396.6,1100.8c-7.5,3.4-35.9,18.6-71.3,38-5.1-11.1-11.3-22.1-18.1-32.1,33.1-19.6,65.3-38.5,77.7-45.7,7.9-4.5,14.7-5.9,20.2-4,8.6,2.9,13.9,13,16.3,18.8,3.6,8.6-11.1,18.9-24.9,25.1Z"/>
      <path class="st8" d="M1641.5,1005.2c21.7,10.2,43.4,5.9,64.3-8.4,49.7-33.8,98.1-145,31.1-182.5-84.4-41.9-178.9,148.5-95.4,190.9ZM1685.4,837.3c9.1-6,17.9-9,26.4-9,83,8.7,12.3,165-46.1,162.5-21.3-.5-35.1-16.1-36.3-39.9-2.6-39.1,23.6-92.1,56.1-113.6Z"/>
      <path class="st8" d="M2490.6,1171.8c49.5,4.8,99.5-31.8,132.6-89.3,19.1-34.3,49.7-50.9,76.6-65.6,19.9-10.8,38.6-21.1,50.3-36.9,13.4-18.2,15.4-40.5,6.2-70.2-56.3-182.5-245-51.6-299.2,38.8-15.3,23.2-26.3,46.5-32.7,69.1-19.3,57.4,4.5,147.8,66.2,154ZM2473.6,960c24.6-37.3,52.5-61.7,53-62.2,35.8-32.1,169.8-125.3,210.7,17.9,30.1,86.9-87.1,71.6-131.5,157-28.2,50.5-75.6,83.8-112.7,79.2-24.3-3-42-22.6-51-56.6-11-41.3-.4-86.9,31.5-135.4Z"/>
      <path class="st8" d="M2232.4,2061.8c-55.8-143.4-220-67.9-321.8-1.6-78.2,48.9-179.8,63.8-285.9,41.9-94.1-19.5-178.9-66.9-221.1-123.7-19.9-26.7-42-47.8-64.1-60.9-60.1-33.9-112.9-15.1-128.8,78-4.6,28.9.2,78.8,12.6,133.6,43.8,208.3,202.6,456.9,432.6,501.4,218.9,53.8,468.1-19.3,561.4-235.6,44.1-92.6,51-241.9,15.1-333.1ZM1277.9,1923.2c41.9-8.1,82.4,31.5,109.6,67.1,102.4,127.1,311.1,172.4,464.3,119.9,24.6-8.6,47.7-19.6,69.3-33.1,52.1-32.6,95.6-54.4,132.9-66.4,78.4-24.6,131.7-11.5,160.8,61.4l-10.1,68.1-63.9,130.6-208.3-84-203.4,253.7-195.2-245.5-127.7,62.2-71-263-82.9-18.9-3.5-30c7.8-11.8,17.6-19.3,29.2-22.1ZM2089.6,2530.9c-108.9,89.2-261.4,117.6-429.4,80.1-286.5-60.7-431.1-404.8-430.8-604.1l15.5-12.7,74,16.9,74.2,274.7,135.1-65.8,200.8,252.5,209.8-261.6,211.8,85.4,65.7-134.4,17.8,11.6c10.3,141.1-41.6,274.4-144.6,357.4Z"/>
      <path class="st8" d="M1685.3,2040.2c2.4,1.3,9.7-7.2,23-18.9,3.3-2.9,7-6,11.1-9.2,14.3-11.1,29.4-20.3,46-28,21.5-9.8,43.3-16,65.7-20.8,5.5-1.7,28.1-4.7,28.9-8.9,0-1.4-2.9-2.6-8.1-3.6-7-1.3-14.4-1.6-21.7-1.5,43.3-30.2,115.3-100.6,86.3-140.4-5.3-8-15.6-17.1-35-15.6-58.2,4.7-162.2,108.2-187.2,163.4-10.1,22.5-9,40.2,10.9,46.5-7.4,7.7-16.1,20.7-18.7,28-2,5.1-2.2,8.3-1,9ZM1712.3,1965.1c15.5-44,153.8-183.3,187.4-145.1,19.8,41-79.1,114.6-116,136.3-18.3,5-38.8,14.5-54.1,25.5-14.9,4.3-20.6,2.4-21.3,1.4-.7-.9-1.4-6.2,4-18Z"/>
      <path class="st8" d="M1456.5,1941.8c-6.4-.4-25.8-.3-27.7,4.7,0,2.9,10.2,5,25.5,9.2,7.6,2.2,16.6,4.9,26.1,8.9,14.2,5.8,30.8,15.3,43.5,25.5,11.3,8.7,23.3,20.8,31.6,30.3,10.6,11.9,16.7,20.1,19.3,19,4.3-1.5-4.5-24-12.3-34.8,6.3,1.2,13.1.6,18.3-2.8,46.2-36.8-65-194.5-94.4-216-35.5-32.1-59.4-29.8-73.1-22.3-53.7,34.5,23.4,133.9,68.3,182.3-9.1-2.4-17.7-3.6-25-4.1ZM1422.8,1781.1c17.1-8.4,37.9,9.2,50,19.6,35.5,31,81.4,104.8,94.8,152.1,6.9,23.6,3.6,31.4,2.4,32.2-46.9-.2-189.9-175.3-147.2-203.8Z"/>
      <path class="st8" d="M1628.6,1843.7c.2,10,2.9,38.7,9.4,40.7,1.3-.3,2.1-3.4,2.8-9,1.4-12.6,3.3-33.7,5.4-48.3,1.4-9.8,3.1-19.7,4.8-29.5,1.4-7.1,2.8-14.4,4.4-21.5,11.7-55.5,40-129.2,18.5-101-7.6,11-13.3,23.5-19,36.3-8.1,19.8-14,38-19,60.4-5.1,23.6-8.1,47.8-7.3,71.9Z"/>
    </g>
  </g>
</svg>