<svg id="Layer_1" data-name="Layer 1" xmlns="http://www.w3.org/2000/svg" viewBox="0 0 300 300"><defs><style>.cls-1{fill:#f8572b;}</style></defs><polygon class="cls-1" points="150 72.3 175.4 29.15 181.06 78.9 221.82 49.82 206.75 97.57 255.81 87.57 222.63 125.07 271.51 135.89 225.95 156.65 266.2 186.42 216.13 186.85 240.8 230.42 194.89 210.44 199.7 260.29 165.88 223.36 150 270.85 134.12 223.36 100.3 260.29 105.11 210.44 59.2 230.42 83.87 186.85 33.8 186.42 74.05 156.65 28.49 135.89 77.37 125.07 44.19 87.57 93.25 97.57 78.18 49.82 118.94 78.9 124.6 29.15 150 72.3"/></svg>