<svg id="Layer_1" data-name="Layer 1" xmlns="http://www.w3.org/2000/svg" viewBox="0 0 300 300"><defs><style>.cls-1{fill:#00b775;}</style></defs><path class="cls-1" d="M158.75,31.47h0c2.24-11.11,18.77-8.62,17.63,2.66h0c-1,9.69,12.07,13.71,16.73,5.16h0c5.41-10,20.47-2.7,16.06,7.73h0c-3.78,9,7.49,16.67,14.46,9.86h0C231.74,49,244,60.34,236.71,69h0c-6.27,7.46,2.24,18.13,10.91,13.68h0c10.08-5.17,18.43,9.3,8.92,15.45h0c-8.19,5.28-3.2,18,6.39,16.29h0c11.15-2,14.87,14.32,4,17.38h0c-9.38,2.64-8.36,16.25,1.31,17.46h0c11.24,1.4,10,18.07-1.34,17.78h0c-9.74-.25-12.77,13.06-3.89,17.06h0c10.33,4.66,4.22,20.21-6.52,16.6h0c-9.23-3.1-16,8.72-8.75,15.16h0c8.5,7.49-1.92,20.56-11.12,13.94h0c-7.9-5.69-17.91,3.59-12.83,11.9h0c5.92,9.67-7.89,19.08-14.73,10h0c-5.88-7.77-18.18-1.85-15.77,7.59h0c2.8,11-13.17,15.91-17,5.26h0c-3.33-9.16-16.82-7.12-17.3,2.61h0c-.56,11.31-17.28,11.31-17.84,0h0c-.48-9.73-14-11.77-17.3-2.61h0c-3.87,10.65-19.84,5.72-17-5.26h0c2.41-9.44-9.89-15.36-15.77-7.59h0c-6.84,9-20.65-.38-14.73-10h0c5.08-8.31-4.93-17.59-12.83-11.9h0c-9.2,6.62-19.62-6.45-11.12-13.94h0c7.3-6.44.48-18.26-8.75-15.16h0c-10.74,3.61-16.85-11.94-6.52-16.6h0c8.88-4,5.85-17.31-3.89-17.06h0c-11.33.29-12.58-16.38-1.34-17.78h0c9.67-1.21,10.69-14.82,1.31-17.46h0c-10.9-3.06-7.18-19.35,4-17.38h0c9.59,1.69,14.58-11,6.39-16.29h0C34,92,42.3,77.52,52.38,82.69h0C61.05,87.14,69.56,76.47,63.29,69h0c-7.28-8.67,5-20,13.08-12.13h0c7,6.81,18.24-.88,14.46-9.86h0c-4.41-10.43,10.65-17.69,16.06-7.73h0c4.66,8.55,17.7,4.53,16.73-5.16h0c-1.14-11.28,15.39-13.77,17.63-2.66h0C143.18,41,156.82,41,158.75,31.47Z"/></svg>