<svg id="Layer_1" data-name="Layer 1" xmlns="http://www.w3.org/2000/svg" viewBox="0 0 300 300"><defs><style>.cls-1{fill:#00b775;}</style></defs><path class="cls-1" d="M157.46,34.15h0A7.68,7.68,0,0,0,171.69,36h0c3.8-7.07,14.53-4.31,14.46,3.71h0a7.68,7.68,0,0,0,13.34,5.28h0c5.44-5.9,15.14-.56,13.07,7.19h0a7.69,7.69,0,0,0,11.61,8.44h0c6.74-4.37,14.81,3.22,10.88,10.21h0a7.69,7.69,0,0,0,9.14,11.06h0c7.61-2.56,13.55,6.8,8,12.6h0a7.69,7.69,0,0,0,6.11,13h0a7.68,7.68,0,0,1,4.61,14.19h0a7.68,7.68,0,0,0,2.69,14.09h0c7.89,1.43,8.59,12.49.93,14.89h0a7.69,7.69,0,0,0-.9,14.32h0c7.3,3.35,5.22,14.23-2.79,14.66h0a7.69,7.69,0,0,0-4.44,13.64h0c6.24,5.06,1.52,15.09-6.35,13.51h0a7.69,7.69,0,0,0-7.69,12.11h0c4.78,6.45-2.28,15-9.51,11.5h0a7.69,7.69,0,0,0-10.46,9.82h0c3,7.43-5.93,13.94-12.07,8.77h0a7.69,7.69,0,0,0-12.57,6.91h0c1.08,7.95-9.22,12-13.88,5.49h0A7.68,7.68,0,0,0,172,264.89h0c-.93,8-11.92,9.36-14.81,1.87h0a7.68,7.68,0,0,0-14.34,0h0c-2.89,7.49-13.88,6.1-14.81-1.87h0a7.68,7.68,0,0,0-13.89-3.57h0c-4.66,6.54-15,2.46-13.88-5.49h0a7.69,7.69,0,0,0-12.57-6.91h0c-6.14,5.17-15.1-1.34-12.07-8.77h0a7.69,7.69,0,0,0-10.46-9.82h0c-7.23,3.48-14.29-5.05-9.51-11.5h0A7.69,7.69,0,0,0,48,206.72h0c-7.87,1.58-12.59-8.45-6.35-13.51h0a7.69,7.69,0,0,0-4.44-13.64h0c-8-.43-10.09-11.31-2.79-14.66h0a7.69,7.69,0,0,0-.9-14.32h0c-7.66-2.4-7-13.46.93-14.89h0a7.68,7.68,0,0,0,2.69-14.09h0a7.68,7.68,0,0,1,4.61-14.19h0a7.69,7.69,0,0,0,6.11-13h0c-5.55-5.8.39-15.16,8-12.6h0A7.69,7.69,0,0,0,65,70.78h0c-3.93-7,4.14-14.58,10.88-10.21h0a7.69,7.69,0,0,0,11.61-8.44h0c-2.07-7.75,7.63-13.09,13.07-7.19h0a7.68,7.68,0,0,0,13.34-5.28h0c-.07-8,10.66-10.78,14.46-3.71h0a7.68,7.68,0,0,0,14.23-1.8h0C144.46,26.36,155.54,26.36,157.46,34.15Z"/></svg>