<svg id="Layer_1" data-name="Layer 1" xmlns="http://www.w3.org/2000/svg" viewBox="0 0 300 300"><defs><style>.cls-1{fill:#780ae9;}</style></defs><path class="cls-1" d="M72.84,31.3l-45.5-4,4,45.5a80.48,80.48,0,0,0,73.2,73.21L150,150l-3.95-45.5A80.48,80.48,0,0,0,72.84,31.3Z"/><path class="cls-1" d="M268.7,72.84l4-45.5-45.5,4A80.48,80.48,0,0,0,154,104.5L150,150l45.5-3.95A80.48,80.48,0,0,0,268.7,72.84Z"/><path class="cls-1" d="M31.3,227.16l-4,45.5,45.5-4a80.48,80.48,0,0,0,73.21-73.2L150,150,104.5,154A80.48,80.48,0,0,0,31.3,227.16Z"/><path class="cls-1" d="M195.5,154,150,150,154,195.5a80.48,80.48,0,0,0,73.21,73.2l45.5,4-4-45.5A80.48,80.48,0,0,0,195.5,154Z"/></svg>