<svg id="Layer_1" data-name="Layer 1" xmlns="http://www.w3.org/2000/svg" viewBox="0 0 300 300"><defs><style>.cls-1{fill:#00b775;}</style></defs><path class="cls-1" d="M138.39,122.62c-34.82-82.13,10-162.92,11.22-20.2-1.19-142.72,45-62.68,11.54,20,33.45-82.69,122.3-108.11,22.21-6.35,100.09-101.76,76.15-12.51-6,22.31,82.13-34.82,162.92,10,20.2,11.22,142.72-1.19,62.68,45-20,11.54,82.69,33.45,108.11,122.3,6.35,22.21,101.76,100.09,12.51,76.15-22.31-6,34.82,82.13-10,162.92-11.22,20.2,1.19,142.72-45,62.68-11.54-20-33.45,82.69-122.3,108.11-22.21,6.35-100.09,101.76-76.15,12.51,6-22.31-82.13,34.82-162.92-10-20.2-11.22-142.72,1.19-62.68-45,20-11.54-82.69-33.45-108.11-122.3-6.35-22.21C14.32,16.55,103.57,40.49,138.39,122.62Z"/></svg>