<svg id="Layer_1" data-name="Layer 1" xmlns="http://www.w3.org/2000/svg" viewBox="0 0 300 300"><defs><style>.cls-1{fill:#ffc803;}</style></defs><path class="cls-1" d="M271.7,138.62c-6.06-8.44-16.18-9.1-17.64-9.17l-69-.68,72.19-41.22a1.88,1.88,0,0,0,.54-2.81,21.72,21.72,0,0,0-7.86-6.07c-9.49-4.24-18.57.3-19.86,1L169,114.56l45.32-71.2a1.87,1.87,0,0,0-.83-2.73,21.52,21.52,0,0,0-9.78-1.7c-10.37.67-16.29,8.92-17.11,10.11l-36.28,57V26.8a1.87,1.87,0,0,0-2.17-1.86,21.66,21.66,0,0,0-9.16,3.81c-8.39,6.14-8.95,16.27-9,17.73V108L86.07,42.23a1.87,1.87,0,0,0-2.84-.35,21.66,21.66,0,0,0-5.51,8.26c-3.57,9.76,1.58,18.5,2.34,19.74l37.36,56L46.2,78a1.87,1.87,0,0,0-2.75.76,21.45,21.45,0,0,0-2,9.73c.4,10.39,8.49,16.52,9.67,17.38l56.42,38-81.14-.16a1.86,1.86,0,0,0-1.86,2.16A21.57,21.57,0,0,0,28.37,155c6.13,8.4,16.26,9,17.71,9l71.92.15L33.47,205.83a1.86,1.86,0,0,0-.7,2.76,21.41,21.41,0,0,0,7.47,6.54c9.21,4.81,18.55.83,19.88.24l63.54-31.31L82.15,256.34a1.87,1.87,0,0,0,1,2.69A21.48,21.48,0,0,0,93,260.29c10.34-1.15,15.87-9.66,16.64-10.89l36.07-62.82-3.1,86.56a1.87,1.87,0,0,0,2.1,1.93,21.62,21.62,0,0,0,9.3-3.48c8.6-5.84,9.53-15.94,9.63-17.39l2.63-73.39,38.87,77.05a1.87,1.87,0,0,0,2.77.69,21.45,21.45,0,0,0,6.47-7.54c4.73-9.26.66-18.55.06-19.88l-34.16-67.7,74.58,49.2a1.86,1.86,0,0,0,2.74-.78,21.41,21.41,0,0,0,1.87-9.75c-.5-10.38-8.65-16.43-9.83-17.28l-54-35.6,77.91.76a1.87,1.87,0,0,0,1.88-2.15A21.59,21.59,0,0,0,271.7,138.62Z"/></svg>