<svg id="Layer_1" data-name="Layer 1" xmlns="http://www.w3.org/2000/svg" viewBox="0 0 300 300"><defs><style>.cls-1{fill:#ea83ec;}</style></defs><path class="cls-1" d="M150,276.43A126.43,126.43,0,1,1,276.43,150,126.58,126.58,0,0,1,150,276.43Zm0-246.19A119.76,119.76,0,1,0,269.76,150,119.89,119.89,0,0,0,150,30.24Z"/><path class="cls-1" d="M150,254.31A104.31,104.31,0,1,1,254.31,150,104.42,104.42,0,0,1,150,254.31Zm0-201.95A97.64,97.64,0,1,0,247.64,150,97.75,97.75,0,0,0,150,52.36Z"/><path class="cls-1" d="M150,232.19A82.19,82.19,0,1,1,232.19,150,82.28,82.28,0,0,1,150,232.19Zm0-157.71A75.52,75.52,0,1,0,225.52,150,75.61,75.61,0,0,0,150,74.48Z"/><path class="cls-1" d="M150,210.07A60.07,60.07,0,1,1,210.06,150,60.13,60.13,0,0,1,150,210.07ZM150,96.6A53.4,53.4,0,1,0,203.4,150,53.47,53.47,0,0,0,150,96.6Z"/><path class="cls-1" d="M150,187.94A37.94,37.94,0,1,1,187.94,150,38,38,0,0,1,150,187.94Zm0-69.21A31.27,31.27,0,1,0,181.27,150,31.31,31.31,0,0,0,150,118.73Z"/></svg>