<svg id="Layer_1" data-name="Layer 1" xmlns="http://www.w3.org/2000/svg" viewBox="0 0 300 300"><defs><style>.cls-1{fill:#f8572b;}</style></defs><path class="cls-1" d="M275.6,215.91a3.11,3.11,0,0,1-3.11-3.11,122.49,122.49,0,0,0-245,0,3.11,3.11,0,0,1-6.22,0,128.71,128.71,0,1,1,257.42,0A3.11,3.11,0,0,1,275.6,215.91Z"/><path class="cls-1" d="M257,215.91a3.11,3.11,0,0,1-3.11-3.11,103.85,103.85,0,1,0-207.7,0,3.11,3.11,0,0,1-6.22,0,110.07,110.07,0,1,1,220.14,0A3.11,3.11,0,0,1,257,215.91Z"/><path class="cls-1" d="M238.32,215.91a3.11,3.11,0,0,1-3.11-3.11,85.21,85.21,0,0,0-170.42,0,3.12,3.12,0,0,1-6.23,0,91.44,91.44,0,0,1,182.88,0A3.12,3.12,0,0,1,238.32,215.91Z"/><path class="cls-1" d="M219.68,215.91a3.11,3.11,0,0,1-3.11-3.11,66.57,66.57,0,1,0-133.14,0,3.12,3.12,0,0,1-6.23,0,72.8,72.8,0,0,1,145.6,0A3.12,3.12,0,0,1,219.68,215.91Z"/><path class="cls-1" d="M201,215.91a3.11,3.11,0,0,1-3.11-3.11,47.93,47.93,0,0,0-95.86,0,3.12,3.12,0,0,1-6.23,0,54.16,54.16,0,0,1,108.32,0A3.12,3.12,0,0,1,201,215.91Z"/></svg>