<svg id="Layer_1" data-name="Layer 1" xmlns="http://www.w3.org/2000/svg" viewBox="0 0 300 300"><defs><style>.cls-1{fill:#00b775;}</style></defs><path class="cls-1" d="M266.77,151.26c0-11.5-7.77-22.15-21-30.9,13.23-8.76,21-19.41,21-30.91,0-29.82-52.28-54-116.77-54S33.23,59.63,33.23,89.45c0,11.5,7.77,22.15,21,30.91-13.23,8.75-21,19.4-21,30.9,0,11,7.05,21.13,19.16,29.64-12.11,8.51-19.16,18.7-19.16,29.65,0,29.82,52.28,54,116.77,54s116.77-24.18,116.77-54c0-11-7-21.14-19.16-29.65C259.72,172.39,266.77,162.21,266.77,151.26Z"/></svg>