<svg id="Layer_1" data-name="Layer 1" xmlns="http://www.w3.org/2000/svg" viewBox="0 0 300 300"><defs><style>.cls-1{fill:#780ae9;}</style></defs><path class="cls-1" d="M231.69,272.66c-11.25,0-24.39-2.86-38.94-8.6-30.09-11.87-62.95-34.7-92.53-64.28S47.81,137.34,36,107.25c-12.2-30.91-11.41-55.44,2.23-69.07S76.34,23.75,107.25,36c30.09,11.86,62.95,34.69,92.53,64.27s52.41,62.44,64.27,92.53c12.2,30.91,11.41,55.44-2.23,69.07C254.61,269,244.34,272.66,231.69,272.66ZM68.31,33.42c-11,0-19.75,3-25.81,9.08-11.8,11.81-12.11,34-.86,62.5,11.57,29.33,33.91,61.45,62.91,90.45s61.12,51.34,90.45,62.91c28.5,11.25,50.69,10.94,62.5-.86s12.11-34,.86-62.5c-11.57-29.33-33.91-61.45-62.91-90.45S134.33,53.21,105,41.64C91.12,36.16,78.73,33.42,68.31,33.42Z"/><path class="cls-1" d="M215.4,248.8c-9.09,0-19.68-2.3-31.4-6.92-24.16-9.53-50.54-27.86-74.28-51.6S67.65,140.16,58.12,116C48.27,91,49,71.14,60.05,60.05s31-11.78,56-1.93c24.16,9.53,50.54,27.86,74.28,51.6s42.07,50.12,51.6,74.28c9.85,25,9.17,44.86-1.92,56C234.06,245.85,225.69,248.8,215.4,248.8ZM84.68,57.37c-8.67,0-15.64,2.34-20.31,7C55.24,73.5,55,91.5,63.81,113.75c9.24,23.4,27.07,49.05,50.24,72.21s48.8,41,72.2,50.23c22.25,8.77,40.25,8.57,49.38-.56s9.33-27.13.56-49.38c-9.24-23.4-27.07-49-50.24-72.2s-48.8-41-72.2-50.24C102.86,59.52,93,57.37,84.68,57.37Z"/><path class="cls-1" d="M199.94,226.17c-7,0-15.21-1.77-24.24-5.34-18.54-7.31-38.77-21.36-57-39.56s-32.25-38.43-39.56-57c-7.64-19.36-7.06-34.81,1.63-43.5,17.53-17.54,61.67-.88,100.47,37.93h0c38.81,38.8,55.47,82.94,37.93,100.47C214.57,223.84,208,226.17,199.94,226.17ZM100,79.94c-6.24,0-11.36,1.66-14.89,5.18-6.76,6.76-6.85,20.23-.26,36.94,7,17.77,20.58,37.27,38.2,54.89,35.16,35.16,77.21,52.53,91.82,37.93s-2.77-56.66-37.93-91.82h0C150.27,96.38,119.62,79.94,100,79.94Z"/><path class="cls-1" d="M184.48,203.54a47.51,47.51,0,0,1-17.08-3.75c-12.92-5.1-27-14.87-39.66-27.53-27.17-27.17-38.68-58.23-26.19-70.71,6.28-6.29,17.31-6.76,31.05-1.34,12.92,5.1,27,14.87,39.66,27.53h0c27.17,27.17,38.68,58.23,26.19,70.71C195.07,201.84,190.31,203.54,184.48,203.54ZM115.54,102.59c-4.16,0-7.48,1.09-9.67,3.28-8.66,8.67-.2,35.67,26.19,62.07s53.4,34.85,62.07,26.19.2-35.67-26.19-62.06C155.86,120,142.52,110.7,130.36,105.9A41.56,41.56,0,0,0,115.54,102.59Z"/><path class="cls-1" d="M169.64,181.87c-9.07,0-21.64-6.61-33.27-18.24-16.3-16.29-22.72-34.44-15-42.21s25.92-1.35,42.21,15c7.35,7.34,13,15.54,16,23.08,3.3,8.36,2.92,15.15-1.06,19.13A12.17,12.17,0,0,1,169.64,181.87Zm-39.37-57.61a6.19,6.19,0,0,0-4.52,1.49c-4.4,4.39,1.06,19.68,14.94,33.56s29.17,19.34,33.56,14.94c2.09-2.08,2-6.78-.31-12.56-2.67-6.77-7.87-14.23-14.63-21C148.57,130,137,124.26,130.27,124.26Z"/></svg>