<svg id="Layer_1" data-name="Layer 1" xmlns="http://www.w3.org/2000/svg" viewBox="0 0 300 300"><defs><style>.cls-1{fill:#ffc803;}</style></defs><path class="cls-1" d="M230.78,150a232.21,232.21,0,0,0,24.47-42.6c12.21-28.58,12.32-50.94.3-62.95s-34.37-11.91-63,.3A232.21,232.21,0,0,0,150,69.22a232.21,232.21,0,0,0-42.6-24.47c-28.58-12.21-50.94-12.32-62.95-.3s-11.91,34.37.3,63A232.21,232.21,0,0,0,69.22,150a232.21,232.21,0,0,0-24.47,42.6c-12.21,28.58-12.32,50.94-.3,63,5.95,6,14.45,8.94,25,8.94,10.72,0,23.55-3.08,38-9.24A232.21,232.21,0,0,0,150,230.78a232.21,232.21,0,0,0,42.6,24.47c14.41,6.16,27.24,9.24,38,9.24,10.54,0,19-3,25-8.94,12-12,11.91-34.37-.3-63A232.21,232.21,0,0,0,230.78,150ZM195,50.26c13.55-5.79,25.66-8.7,35.55-8.7,8.93,0,16.05,2.37,20.81,7.12,10,10,9.44,30.57-1.58,56.36a223.27,223.27,0,0,1-22.68,39.85,352.1,352.1,0,0,0-33.42-38.53,352.1,352.1,0,0,0-38.53-33.42A223.27,223.27,0,0,1,195,50.26ZM223.4,150a343.79,343.79,0,0,1-34,39.4,343.79,343.79,0,0,1-39.4,34,342.94,342.94,0,0,1-39.4-34,343.79,343.79,0,0,1-34-39.4A354.65,354.65,0,0,1,150,76.6a343.79,343.79,0,0,1,39.4,34A344.64,344.64,0,0,1,223.4,150ZM50.26,105c-11-25.79-11.6-46.34-1.58-56.36,4.76-4.75,11.88-7.12,20.81-7.12,9.89,0,22,2.91,35.55,8.7a223.27,223.27,0,0,1,39.85,22.68,360,360,0,0,0-71.95,71.95A223.27,223.27,0,0,1,50.26,105ZM105,249.74c-25.8,11-46.34,11.6-56.36,1.58S39.24,220.75,50.26,195a223.27,223.27,0,0,1,22.68-39.85,352.1,352.1,0,0,0,33.42,38.53,352.1,352.1,0,0,0,38.53,33.42A223.27,223.27,0,0,1,105,249.74Zm146.28,1.58c-10,10-30.57,9.44-56.36-1.58a223.27,223.27,0,0,1-39.85-22.68,352.1,352.1,0,0,0,38.53-33.42,352.1,352.1,0,0,0,33.42-38.53A223.27,223.27,0,0,1,249.74,195C260.76,220.75,261.34,241.3,251.32,251.32Z"/></svg>