<svg id="Layer_1" data-name="Layer 1" xmlns="http://www.w3.org/2000/svg" viewBox="0 0 300 300"><defs><style>.cls-1{fill:#780ae9;}</style></defs><polygon class="cls-1" points="150 79.22 165.86 23.99 167.48 81.43 196.57 31.88 183.86 87.91 224.36 47.16 198.11 98.27 247.47 68.86 209.34 111.84 264.47 95.64 216.84 127.78 274.27 125.8 220.14 145.09 276.26 157.44 219.04 162.67 270.31 188.59 213.59 179.43 256.81 217.29 204.15 194.3 236.6 241.72 191.31 206.36 210.94 260.36 175.87 214.85 181.46 272.03 158.81 219.23 150 276.01 141.19 219.23 118.54 272.03 124.13 214.85 89.06 260.36 108.69 206.36 63.4 241.72 95.85 194.3 43.19 217.29 86.41 179.43 29.68 188.59 80.96 162.67 23.74 157.44 79.86 145.09 25.73 125.8 83.16 127.78 35.53 95.64 90.66 111.84 52.52 68.86 101.89 98.27 75.64 47.16 116.14 87.91 103.43 31.88 132.52 81.43 134.14 23.99 150 79.22"/></svg>