<svg id="Layer_1" data-name="Layer 1" xmlns="http://www.w3.org/2000/svg" viewBox="0 0 300 300"><defs><style>.cls-1{fill:#f8572b;}</style></defs><polygon class="cls-1" points="129.94 277.07 173.76 277.07 150.01 150.55 129.94 277.07"/><polygon class="cls-1" points="216.56 260.02 249.97 231.68 150.03 150.55 216.56 260.02"/><polygon class="cls-1" points="150 150.52 271.14 192.15 278.71 149 150 150.52"/><polygon class="cls-1" points="246.9 65.76 150 150.5 269.16 103.5 246.9 65.76"/><polygon class="cls-1" points="167.24 22.93 150 150.5 208.84 36.71 167.24 22.93"/><polygon class="cls-1" points="50.06 231.68 83.47 260.02 150 150.55 50.06 231.68"/><polygon class="cls-1" points="28.86 192.15 150 150.52 21.29 149 28.86 192.15"/><polygon class="cls-1" points="53.1 65.76 30.84 103.5 150 150.5 53.1 65.76"/><polygon class="cls-1" points="91.16 36.71 150 150.5 132.76 22.93 91.16 36.71"/></svg>