<svg id="Layer_1" data-name="Layer 1" xmlns="http://www.w3.org/2000/svg" viewBox="0 0 300 300"><defs><style>.cls-1{fill:#00b775;}</style></defs><path class="cls-1" d="M277.61,111.9H46.83a2.23,2.23,0,0,0-2.24,2.23v22.79H22.39a2.23,2.23,0,0,0-2.23,2.23v46.72a2.23,2.23,0,0,0,2.23,2.23H253.17a2.23,2.23,0,0,0,2.24-2.23V163.08h22.2a2.23,2.23,0,0,0,2.23-2.23V114.13A2.23,2.23,0,0,0,277.61,111.9Zm-26.67,71.73H24.63V141.38h20v19.47a2.23,2.23,0,0,0,2.24,2.23H250.94Zm0-25H49.06V141.38H250.94Zm24.43,0h-20V139.15a2.23,2.23,0,0,0-2.24-2.23H49.06V116.37H275.37Z"/></svg>