<svg id="Layer_1" data-name="Layer 1" xmlns="http://www.w3.org/2000/svg" viewBox="0 0 300 300"><defs><style>.cls-1{fill:#ea83ec;}</style></defs><path class="cls-1" d="M276,150c0-10.3-6.84-20.11-19.61-28.51,6.86-13.66,7.88-25.58,2.73-34.49-5.55-9.61-17.7-14.76-34.88-15-1.11-17.15-6.84-29-16.71-34.1-8.42-4.32-19.11-3.31-31.11,2.72C168.51,29.77,159.46,24,150,24s-18.51,5.78-26.43,16.62c-12-6-22.69-7-31.11-2.72C82.59,43,76.86,54.84,75.75,72c-17.18.25-29.33,5.4-34.88,15-5.14,8.91-4.13,20.83,2.73,34.49C30.83,129.89,24,139.7,24,150s6.84,20.11,19.61,28.51c-6.86,13.66-7.87,25.58-2.73,34.49,5.55,9.61,17.7,14.74,34.88,15,1.1,17.16,6.84,29,16.71,34.11a24.8,24.8,0,0,0,11.45,2.64c6,0,12.58-1.82,19.65-5.37,7.93,10.85,17,16.63,26.44,16.63s18.51-5.78,26.44-16.63c7.07,3.55,13.69,5.37,19.65,5.37a24.83,24.83,0,0,0,11.45-2.64c9.87-5.07,15.61-17,16.71-34.11,17.18-.26,29.33-5.39,34.88-15,5.15-8.91,4.13-20.83-2.73-34.49C269.17,170.11,276,160.3,276,150ZM257.09,88.17c4.72,8.17,3.72,19.24-2.68,32.06a109.68,109.68,0,0,0-15.69-7.91,165,165,0,0,0-17.25-6A165.69,165.69,0,0,0,224,88.27a116.55,116.55,0,0,0,.34-13.93C240.59,74.6,252,79.33,257.09,88.17ZM222,225.68a116,116,0,0,1-13.73-1c-4.78-.63-9.72-1.54-14.79-2.7a216.12,216.12,0,0,0,5.33-23.12c7.09-1.24,13.9-2.76,20.36-4.54a161.41,161.41,0,0,1,2.49,17.62A116,116,0,0,1,222,225.68ZM78.31,211.92A161.41,161.41,0,0,1,80.8,194.3c6.46,1.78,13.27,3.3,20.36,4.54A216.12,216.12,0,0,0,106.49,222c-5.07,1.16-10,2.07-14.79,2.7a116,116,0,0,1-13.73,1A116,116,0,0,1,78.31,211.92ZM78,74.33a116,116,0,0,1,13.73,1c4.78.63,9.72,1.54,14.79,2.7a216.12,216.12,0,0,0-5.33,23.12c-7.09,1.25-13.9,2.76-20.36,4.54a161.41,161.41,0,0,1-2.49-17.62A115.78,115.78,0,0,1,78,74.33ZM221.69,88.08a161.41,161.41,0,0,1-2.49,17.62c-6.46-1.78-13.27-3.29-20.36-4.54A216.12,216.12,0,0,0,193.51,78c5.07-1.16,10-2.07,14.79-2.7a116,116,0,0,1,13.73-1A115.78,115.78,0,0,1,221.69,88.08ZM200.57,150q0,6.13-.24,12.16-2.54,5.47-5.34,10.93c-2.27,4.44-4.65,8.76-7.08,13q-6.15,4-12.62,7.72-5.89,3.39-11.82,6.47c-4.45.19-8.94.3-13.47.3s-9-.11-13.47-.3q-5.92-3.09-11.82-6.47-6.46-3.75-12.62-7.72c-2.43-4.23-4.81-8.55-7.08-13q-2.81-5.46-5.34-10.93-.24-6-.24-12.16t.24-12.16q2.53-5.47,5.34-10.93c2.27-4.44,4.65-8.76,7.08-13q6.15-4,12.62-7.72,5.89-3.39,11.82-6.47c4.45-.19,8.94-.3,13.47-.3s9,.11,13.47.3q5.92,3.09,11.82,6.47,6.47,3.75,12.62,7.72c2.43,4.23,4.81,8.55,7.08,13q2.81,5.46,5.34,10.93Q200.57,143.87,200.57,150Zm-3.49-24.17c-1.58-3.08-3.21-6.1-4.87-9.09q3.57,2.39,7,4.85c.33,3.34.6,6.71.81,10.13C199.07,129.76,198.09,127.79,197.08,125.83Zm-7.42-13.58q-3.27-5.62-6.69-11c4.71.54,9.33,1.18,13.83,1.94q1.26,7.45,2.1,15.28Q194.39,115.32,189.66,112.25Zm-4.36-2.76q-4.35-2.71-8.84-5.32c-2.47-1.43-5-2.8-7.43-4.14q5.53.34,10.94.9Q182.69,105.12,185.3,109.49ZM164.09,97.41q-5.62-2.91-11.25-5.52,8.17-3.6,16.2-6.52,4.74,6.22,9.26,13Q171.31,97.75,164.09,97.41Zm-5.59-.2c-2.82-.08-5.65-.13-8.5-.13s-5.68,0-8.5.13q4.25-2.11,8.5-4Q154.25,95.1,158.5,97.21Zm-22.59.2q-7.22.33-14.21,1,4.51-6.81,9.26-13.06c5.34,2,10.76,4.13,16.2,6.53Q141.54,94.5,135.91,97.41ZM131,100c-2.48,1.34-5,2.71-7.43,4.14q-4.5,2.6-8.84,5.32,2.61-4.36,5.33-8.56Q125.43,100.38,131,100Zm-20.63,12.22q-4.73,3.06-9.24,6.24.84-7.83,2.1-15.29c4.5-.76,9.12-1.4,13.83-1.94Q113.61,106.62,110.34,112.25Zm-2.55,4.49c-1.66,3-3.29,6-4.87,9.09-1,2-2,3.93-2.94,5.89.21-3.42.48-6.79.81-10.13Q104.23,119.13,107.79,116.74ZM97.34,137.28q-2.22,4.8-4.22,9.61-3-7.69-5.51-15.27,5.13-4.17,10.65-8.21Q97.64,130.25,97.34,137.28Zm-.19,6.15q-.08,3.27-.07,6.57t.07,6.57q-1.44-3.28-2.78-6.57Q95.71,146.72,97.15,143.43Zm.19,19.29q.3,7,.92,13.87-5.52-4-10.65-8.21,2.46-7.56,5.51-15.27Q95.13,157.91,97.34,162.72Zm2.64,5.56c1,2,1.93,3.93,2.94,5.89,1.58,3.08,3.21,6.1,4.87,9.09q-3.57-2.38-7-4.85C100.46,175.07,100.19,171.7,100,168.28Zm10.36,19.47q3.27,5.63,6.69,11c-4.71-.54-9.33-1.18-13.83-1.94q-1.26-7.45-2.1-15.29Q105.62,184.69,110.34,187.75Zm4.36,2.76q4.35,2.72,8.84,5.32c2.47,1.43,5,2.8,7.43,4.14q-5.53-.34-10.94-.9Q117.32,194.89,114.7,190.51Zm21.21,12.08q5.63,2.91,11.25,5.52c-5.44,2.4-10.86,4.58-16.2,6.53q-4.74-6.24-9.26-13.06Q128.69,202.26,135.91,202.59Zm5.59.2c2.82.08,5.65.13,8.5.13s5.68,0,8.5-.13q-4.25,2.11-8.5,4Q145.76,204.9,141.5,202.79Zm22.59-.2q7.22-.33,14.21-1-4.52,6.81-9.26,13-8-2.91-16.2-6.52Q158.47,205.5,164.09,202.59ZM169,200c2.48-1.34,5-2.71,7.43-4.14q4.5-2.6,8.84-5.32-2.61,4.37-5.33,8.56Q174.57,199.63,169,200Zm20.63-12.22q4.72-3.06,9.24-6.23-.84,7.81-2.1,15.28c-4.5.76-9.12,1.4-13.83,1.94Q186.39,193.39,189.66,187.75Zm2.55-4.49c1.66-3,3.29-6,4.87-9.09,1-2,2-3.93,2.94-5.89-.21,3.42-.48,6.79-.81,10.13Q195.77,180.87,192.21,183.26Zm10.45-20.54q2.22-4.8,4.22-9.61,3,7.69,5.52,15.27-5.15,4.17-10.66,8.21Q202.36,169.75,202.66,162.72Zm.19-6.15q.08-3.27.07-6.57t-.07-6.57q1.44,3.28,2.78,6.57Q204.3,153.29,202.85,156.57Zm-.19-19.29q-.3-7-.92-13.87,5.52,4,10.66,8.21-2.47,7.56-5.52,15.27Q204.87,142.09,202.66,137.28Zm-1.21-17q-.85-8.54-2.2-16.66c6.78,1.21,13.31,2.67,19.5,4.38-1.43,6.88-3.29,14-5.57,21.22Q207.54,124.69,201.45,120.29Zm-5.08-19.54q-7.35-1.22-15-2c-3.24-4.93-6.56-9.67-10-14.17,6.76-2.38,13.4-4.37,19.85-5.94A212.35,212.35,0,0,1,196.37,100.75ZM169.86,82.58a205.4,205.4,0,0,0-18.18-20.73q3.4-3.27,6.83-6.19a101.74,101.74,0,0,1,17.2-12,102.39,102.39,0,0,1,9.8,18.55c1.84,4.45,3.53,9.19,5.05,14.16C183.84,78,176.91,80.08,169.86,82.58Zm-2.32.83q-8.68,3.18-17.54,7.18-8.83-4-17.54-7.18A203.52,203.52,0,0,1,150,63.5,203.52,203.52,0,0,1,167.54,83.41Zm-37.4-.83c-7-2.5-14-4.59-20.7-6.24,1.52-5,3.21-9.71,5-14.16a102.39,102.39,0,0,1,9.8-18.55,101.74,101.74,0,0,1,17.2,12q3.42,2.91,6.83,6.19A205.4,205.4,0,0,0,130.14,82.58Zm-1.51,2c-3.4,4.5-6.72,9.24-10,14.17q-7.68.83-15,2a212.35,212.35,0,0,1,5.15-22.15C115.23,80.17,121.87,82.16,128.63,84.54Zm-27.88,19.09q-1.34,8.12-2.2,16.66-6.09,4.38-11.73,8.94C84.54,122,82.68,114.89,81.25,108,87.44,106.3,94,104.84,100.75,103.63ZM84.87,130.81A217.92,217.92,0,0,0,65.93,148.3c-3.54-3.81-6.8-7.64-9.74-11.46a108.18,108.18,0,0,1-9.52-14.53,109.21,109.21,0,0,1,15.51-7.82A165.2,165.2,0,0,1,79,108.66,222.47,222.47,0,0,0,84.87,130.81Zm.78,2.39q2.75,8.33,6.19,16.8-3.44,8.46-6.19,16.8A215.69,215.69,0,0,1,67.56,150,214,214,0,0,1,85.65,133.2Zm-.78,36A222.47,222.47,0,0,0,79,191.34a165.2,165.2,0,0,1-16.81-5.83,109.21,109.21,0,0,1-15.51-7.82,108.18,108.18,0,0,1,9.52-14.53c2.94-3.82,6.2-7.65,9.74-11.46A217.92,217.92,0,0,0,84.87,169.19Zm1.95,1.58q5.64,4.54,11.73,8.94.86,8.53,2.2,16.66C94,195.16,87.44,193.7,81.25,192,82.68,185.11,84.54,178,86.82,170.77Zm16.81,28.48q7.35,1.22,15,2c3.24,4.93,6.56,9.67,10,14.17-6.76,2.38-13.4,4.37-19.85,5.94A212.35,212.35,0,0,1,103.63,199.25Zm26.51,18.17a205.4,205.4,0,0,0,18.18,20.73q-3.4,3.27-6.83,6.19a102.37,102.37,0,0,1-17.19,12,102.21,102.21,0,0,1-9.81-18.56c-1.84-4.45-3.53-9.19-5-14.16C116.16,222,123.09,219.92,130.14,217.42Zm2.32-.83q8.68-3.18,17.54-7.18,8.83,4,17.54,7.18A203.52,203.52,0,0,1,150,236.5,203.52,203.52,0,0,1,132.46,216.59Zm37.4.83c7,2.5,14,4.59,20.7,6.24-1.52,5-3.21,9.71-5.05,14.16a102.39,102.39,0,0,1-9.8,18.55,101.74,101.74,0,0,1-17.2-12q-3.42-2.91-6.83-6.19A205.4,205.4,0,0,0,169.86,217.42Zm1.51-2c3.4-4.5,6.72-9.24,10-14.17q7.68-.82,15-2a212.35,212.35,0,0,1-5.15,22.15C184.77,219.83,178.13,217.84,171.37,215.46Zm27.88-19.09q1.33-8.12,2.2-16.66,6.09-4.38,11.73-8.94c2.28,7.24,4.14,14.34,5.57,21.22C212.56,193.7,206,195.16,199.25,196.37Zm15.88-27.18a217.92,217.92,0,0,0,18.94-17.49c3.54,3.81,6.8,7.64,9.74,11.46a108.18,108.18,0,0,1,9.52,14.53,109.21,109.21,0,0,1-15.51,7.82A165.2,165.2,0,0,1,221,191.34,222.47,222.47,0,0,0,215.13,169.19Zm-.78-2.39q-2.74-8.33-6.19-16.8,3.43-8.46,6.19-16.8A214,214,0,0,1,232.44,150,214,214,0,0,1,214.35,166.8Zm.78-36A222.47,222.47,0,0,0,221,108.66a165.2,165.2,0,0,1,16.81,5.83,109.21,109.21,0,0,1,15.51,7.82,108.18,108.18,0,0,1-9.52,14.53c-2.94,3.82-6.2,7.65-9.74,11.46A217.92,217.92,0,0,0,215.13,130.81ZM196.05,37.59A22.47,22.47,0,0,1,206.46,40c9.09,4.66,14.38,15.8,15.44,32A114.5,114.5,0,0,0,208,73c-4.9.64-10,1.58-15.15,2.78-1.56-5.1-3.28-10-5.17-14.51a104.87,104.87,0,0,0-9.88-18.73C184.4,39.27,190.55,37.59,196.05,37.59ZM150,26.34c8.62,0,16.94,5.34,24.34,15.37A104.77,104.77,0,0,0,157,53.86q-3.51,3-7,6.34-3.48-3.35-7-6.34a104.77,104.77,0,0,0-17.35-12.15C133.06,31.68,141.38,26.34,150,26.34ZM93.54,40A22.47,22.47,0,0,1,104,37.59c5.5,0,11.65,1.68,18.25,5a104.87,104.87,0,0,0-9.88,18.73c-1.89,4.56-3.61,9.41-5.17,14.51C102,74.59,96.9,73.65,92,73a114.5,114.5,0,0,0-13.9-1C79.16,55.79,84.45,44.65,93.54,40ZM42.91,88.17C48,79.33,59.41,74.6,75.63,74.34A116.55,116.55,0,0,0,76,88.27a165.69,165.69,0,0,0,2.56,18.08,165,165,0,0,0-17.25,6,109.68,109.68,0,0,0-15.69,7.91C39.19,107.41,38.19,96.34,42.91,88.17ZM26.34,150c0-9.44,6.4-18.52,18.36-26.42a109.07,109.07,0,0,0,9.63,14.69c3,3.92,6.34,7.83,10,11.73-3.64,3.9-7,7.81-10,11.73a109.07,109.07,0,0,0-9.63,14.69C32.74,168.52,26.34,159.44,26.34,150Zm16.57,61.83c-4.72-8.17-3.72-19.24,2.68-32.06a109.68,109.68,0,0,0,15.69,7.91,165,165,0,0,0,17.25,6A165.69,165.69,0,0,0,76,211.73a116.76,116.76,0,0,0-.34,13.94C59.41,225.41,48,220.67,42.91,211.83ZM93.54,260c-9.09-4.66-14.38-15.81-15.44-32A114.39,114.39,0,0,0,92,227c4.9-.64,10-1.58,15.15-2.78,1.56,5.1,3.28,9.95,5.17,14.51a104.23,104.23,0,0,0,9.89,18.73C111.05,263,101.21,264,93.54,260ZM150,273.66c-8.62,0-16.94-5.34-24.34-15.38A103.58,103.58,0,0,0,143,246.13c2.34-2,4.67-4.1,7-6.33,2.32,2.23,4.65,4.35,7,6.33a103.58,103.58,0,0,0,17.35,12.15C166.94,268.32,158.62,273.66,150,273.66ZM206.46,260a22.47,22.47,0,0,1-10.41,2.4c-5.5,0-11.65-1.68-18.25-5a104.87,104.87,0,0,0,9.88-18.73c1.89-4.56,3.61-9.41,5.17-14.51,5.19,1.2,10.25,2.14,15.15,2.78a114.39,114.39,0,0,0,13.9,1C220.84,244.2,215.55,255.35,206.46,260Zm50.63-48.18c-5.11,8.84-16.5,13.58-32.72,13.84a116.76,116.76,0,0,0-.34-13.94,165.69,165.69,0,0,0-2.56-18.08,165,165,0,0,0,17.25-6,109.68,109.68,0,0,0,15.69-7.91C260.81,192.59,261.81,203.66,257.09,211.83Zm-1.79-35.41a109.07,109.07,0,0,0-9.63-14.69c-3-3.92-6.34-7.83-10-11.73,3.64-3.9,7-7.81,10-11.73a109.07,109.07,0,0,0,9.63-14.69c12,7.9,18.36,17,18.36,26.42S267.26,168.52,255.3,176.42Z"/></svg>