<svg id="Layer_1" data-name="Layer 1" xmlns="http://www.w3.org/2000/svg" viewBox="0 0 300 300"><defs><style>.cls-1{fill:#780ae9;}</style></defs><path class="cls-1" d="M184.84,273.63H115.16a2.83,2.83,0,0,1-2.83-2.83V241L91.22,262.06a2.84,2.84,0,0,1-4,0L38,212.79a2.83,2.83,0,0,1,0-4L96.72,150,38,91.22a2.83,2.83,0,0,1,0-4L87.21,38a2.83,2.83,0,0,1,4,0l21.11,21.1V29.2a2.83,2.83,0,0,1,2.83-2.83h69.68a2.83,2.83,0,0,1,2.83,2.83V59.05L208.78,38a2.83,2.83,0,0,1,4,0l49.26,49.26a2.83,2.83,0,0,1,0,4L203.28,150l58.77,58.78a2.83,2.83,0,0,1,0,4l-49.26,49.27a2.84,2.84,0,0,1-2,.83h0a2.83,2.83,0,0,1-2-.83L187.67,241V270.8A2.83,2.83,0,0,1,184.84,273.63ZM118,268h64V234.1a2.83,2.83,0,0,1,4.84-2L210.78,256,256,210.78,197.26,152a2.84,2.84,0,0,1,0-4L256,89.22,210.78,44,186.84,67.9a2.83,2.83,0,0,1-4.84-2V32H118V65.9a2.83,2.83,0,0,1-4.84,2L89.22,44,44,89.22,102.74,148a2.84,2.84,0,0,1,0,4L44,210.78,89.22,256l23.94-23.94a2.83,2.83,0,0,1,4.84,2Z"/></svg>