<svg id="Layer_1" data-name="Layer 1" xmlns="http://www.w3.org/2000/svg" viewBox="0 0 300 300"><defs><style>.cls-1{fill:#00b775;}</style></defs><path class="cls-1" d="M254.14,243.56a12.64,12.64,0,0,1,12.63-12.63V225a12.63,12.63,0,1,1,0-25.25v-5.94a12.63,12.63,0,1,1,0-25.25v-5.93a12.63,12.63,0,0,1,0-25.26v-5.93a12.63,12.63,0,1,1,0-25.25v-5.94a12.63,12.63,0,1,1,0-25.25V69.07a12.63,12.63,0,0,1,0-25.26V33.23H256.19a12.63,12.63,0,0,1-25.26,0H225a12.63,12.63,0,1,1-25.25,0h-5.94a12.63,12.63,0,1,1-25.25,0h-5.93a12.63,12.63,0,0,1-25.26,0h-5.93a12.63,12.63,0,1,1-25.25,0h-5.94a12.63,12.63,0,1,1-25.25,0H69.07a12.63,12.63,0,1,1-25.26,0H33.23V43.81a12.63,12.63,0,1,1,0,25.26V75a12.63,12.63,0,1,1,0,25.25v5.94a12.63,12.63,0,1,1,0,25.25v5.93a12.63,12.63,0,1,1,0,25.26v5.93a12.63,12.63,0,1,1,0,25.25v5.94a12.63,12.63,0,1,1,0,25.25v5.93a12.63,12.63,0,1,1,0,25.26v10.58H43.81a12.63,12.63,0,0,1,25.26,0H75a12.63,12.63,0,1,1,25.25,0h5.94a12.63,12.63,0,1,1,25.25,0h5.93a12.63,12.63,0,0,1,25.26,0h5.93a12.63,12.63,0,1,1,25.25,0h5.94a12.63,12.63,0,1,1,25.25,0h5.93a12.63,12.63,0,0,1,25.26,0h10.58V256.19A12.64,12.64,0,0,1,254.14,243.56Z"/></svg>