<svg id="Layer_1" data-name="Layer 1" xmlns="http://www.w3.org/2000/svg" viewBox="0 0 300 300"><defs><style>.cls-1{fill:#f8572b;}</style></defs><polygon class="cls-1" points="275.63 148.88 275.31 140.34 180.22 143.94 269.36 111.98 266.47 103.93 175.69 136.49 253.99 80.48 249.01 73.53 170.14 129.95 228.43 54.53 221.67 49.3 162.88 125.37 198.99 35.19 191.06 32.01 154.8 122.55 154.8 24.14 146.26 24.14 146.26 122.08 117.57 30.92 109.42 33.49 138.58 126.15 85.74 45.84 78.6 50.54 131 130.17 56.63 67.92 51.15 74.47 124.96 136.27 36.92 96.91 33.43 104.71 119.88 143.36 25.34 132.54 24.37 141.03 119.73 151.94 25.15 168.87 26.66 177.28 123.51 159.95 37.35 203.74 41.22 211.36 126.8 167.86 57.85 233.93 63.76 240.1 132.34 174.39 85.34 258.89 92.81 263.05 141.58 175.37 121.08 274.13 129.44 275.86 149.57 178.93 161.81 273.58 170.29 272.49 158.13 178.51 198.12 265.35 205.88 261.77 165.43 173.94 228.82 244.67 235.19 238.97 171.45 167.85 253.49 217.73 257.93 210.43 175.34 160.21 270.6 184.85 272.74 176.57 179.72 152.52 275.63 148.88"/></svg>