<svg id="Layer_1" data-name="Layer 1" xmlns="http://www.w3.org/2000/svg" viewBox="0 0 300 300"><defs><style>.cls-1{fill:#780ae9;}</style></defs><path class="cls-1" d="M237.59,127.72c-8,0-12.13-5.06-15.76-9.52s-6.85-8.41-13.44-8.41-9.92,4.09-13.44,8.41-7.75,9.52-15.76,9.52-12.12-5.06-15.76-9.52-6.85-8.41-13.43-8.41-9.92,4.09-13.44,8.41-7.75,9.52-15.76,9.52-12.12-5.06-15.76-9.52-6.85-8.41-13.43-8.41-9.92,4.09-13.44,8.41-7.75,9.52-15.76,9.52-12.13-5.06-15.76-9.52-6.85-8.41-13.44-8.41a1.5,1.5,0,0,1,0-3c8,0,12.13,5.06,15.76,9.52s6.85,8.41,13.44,8.41,9.92-4.09,13.44-8.41,7.75-9.52,15.76-9.52,12.12,5.06,15.75,9.52,6.85,8.41,13.44,8.41,9.92-4.09,13.44-8.41S142,106.8,150,106.8s12.12,5.06,15.75,9.52,6.85,8.41,13.44,8.41,9.92-4.09,13.44-8.41,7.75-9.52,15.76-9.52,12.12,5.06,15.76,9.52,6.85,8.41,13.44,8.41,9.91-4.09,13.44-8.41,7.75-9.52,15.76-9.52a1.5,1.5,0,0,1,0,3c-6.59,0-9.92,4.09-13.45,8.41S245.6,127.72,237.59,127.72Z"/><path class="cls-1" d="M237.59,160.46c-8,0-12.13-5.06-15.76-9.52s-6.85-8.41-13.44-8.41-9.92,4.09-13.44,8.41-7.75,9.52-15.76,9.52-12.12-5.06-15.76-9.52-6.85-8.41-13.43-8.41-9.92,4.09-13.44,8.41-7.75,9.52-15.76,9.52-12.12-5.06-15.76-9.52-6.85-8.41-13.43-8.41-9.92,4.09-13.44,8.41-7.75,9.52-15.76,9.52-12.13-5.06-15.76-9.52-6.85-8.41-13.44-8.41a1.5,1.5,0,0,1,0-3c8,0,12.13,5.06,15.76,9.52s6.85,8.41,13.44,8.41,9.92-4.09,13.44-8.41,7.75-9.52,15.76-9.52,12.12,5.06,15.75,9.52,6.85,8.41,13.44,8.41,9.92-4.09,13.44-8.41,7.75-9.52,15.76-9.52,12.12,5.06,15.75,9.52,6.85,8.41,13.44,8.41,9.92-4.09,13.44-8.41,7.75-9.52,15.76-9.52,12.12,5.06,15.76,9.52,6.85,8.41,13.44,8.41,9.91-4.09,13.44-8.41,7.75-9.52,15.76-9.52a1.5,1.5,0,0,1,0,3c-6.59,0-9.92,4.09-13.45,8.41S245.6,160.46,237.59,160.46Z"/><path class="cls-1" d="M237.59,193.2c-8,0-12.13-5.06-15.76-9.52s-6.85-8.41-13.44-8.41-9.92,4.09-13.44,8.41-7.75,9.52-15.76,9.52-12.12-5.06-15.76-9.52-6.85-8.41-13.43-8.41-9.92,4.09-13.44,8.41-7.75,9.52-15.76,9.52-12.12-5.06-15.76-9.52-6.85-8.41-13.43-8.41-9.92,4.09-13.44,8.41-7.75,9.52-15.76,9.52-12.13-5.06-15.76-9.52-6.85-8.41-13.44-8.41a1.5,1.5,0,0,1,0-3c8,0,12.13,5.06,15.76,9.52s6.85,8.41,13.44,8.41,9.92-4.09,13.44-8.41,7.75-9.52,15.76-9.52,12.12,5.06,15.75,9.52,6.85,8.41,13.44,8.41,9.92-4.09,13.44-8.41,7.75-9.52,15.76-9.52,12.12,5.06,15.75,9.52,6.85,8.41,13.44,8.41,9.92-4.09,13.44-8.41,7.75-9.52,15.76-9.52,12.12,5.06,15.76,9.52,6.85,8.41,13.44,8.41,9.91-4.09,13.44-8.41,7.75-9.52,15.76-9.52a1.5,1.5,0,0,1,0,3c-6.59,0-9.92,4.09-13.45,8.41S245.6,193.2,237.59,193.2Z"/></svg>