<svg id="Layer_1" data-name="Layer 1" xmlns="http://www.w3.org/2000/svg" viewBox="0 0 300 300"><defs><style>.cls-1{fill:#ffc803;}</style></defs><path class="cls-1" d="M118.46,151h63.08a20.65,20.65,0,0,0,0-41.29H118.46a18.64,18.64,0,0,1,0-37.28h63.08a20.64,20.64,0,1,0,0-41.28H115.29v2h66.25a18.65,18.65,0,0,1,0,37.29H118.46a20.64,20.64,0,0,0,0,41.28h63.08a18.65,18.65,0,0,1,0,37.29H118.46a20.65,20.65,0,0,0,0,41.29h63.08a18.64,18.64,0,1,1,0,37.28H118.46a20.64,20.64,0,1,0,0,41.28H183v-2H118.46a18.65,18.65,0,0,1,0-37.29h63.08a20.34,20.34,0,0,0,8.85-2,20.63,20.63,0,0,0,0-37.28,20.41,20.41,0,0,0-8.86-2H118.46a18.65,18.65,0,0,1,0-37.29Z"/></svg>