<svg id="Layer_1" data-name="Layer 1" xmlns="http://www.w3.org/2000/svg" viewBox="0 0 300 300"><defs><style>.cls-1{fill:#ffc803;}</style></defs><path class="cls-1" d="M179.39,122.77a3,3,0,0,1-1.55-.44l-27.85-17-27.83,17a3,3,0,0,1-3.12,0l-27.83-17-27.85,17a3,3,0,0,1-3.11,0L30.86,104.4A3,3,0,1,1,34,99.3l27.84,17,27.84-17a3,3,0,0,1,3.11,0l27.84,17,27.84-17a3,3,0,0,1,3.11,0l27.84,17,27.84-17a3,3,0,0,1,3.11,0l27.85,17L266,99.3a3,3,0,1,1,3.11,5.1l-29.4,17.93a3,3,0,0,1-3.11,0l-27.84-17-27.84,17A3,3,0,0,1,179.39,122.77Z"/><path class="cls-1" d="M179.39,162a3,3,0,0,1-1.55-.43l-27.85-17-27.83,17a3,3,0,0,1-3.12,0l-27.83-17-27.85,17a3,3,0,0,1-3.11,0L30.86,143.59a3,3,0,1,1,3.11-5.1l27.84,17,27.84-17a3,3,0,0,1,3.11,0l27.84,17,27.84-17a3,3,0,0,1,3.11,0l27.84,17,27.84-17a3,3,0,0,1,3.11,0l27.85,17,27.84-17a3,3,0,1,1,3.11,5.1l-29.4,17.93a3,3,0,0,1-3.11,0l-27.84-17-27.84,17A3,3,0,0,1,179.39,162Z"/><path class="cls-1" d="M179.39,201.14a3,3,0,0,1-1.55-.44l-27.85-17-27.83,17a3,3,0,0,1-3.12,0l-27.83-17-27.85,17a3,3,0,0,1-3.11,0L30.86,182.77a3,3,0,1,1,3.11-5.1l27.84,17,27.84-17a3,3,0,0,1,3.11,0l27.84,17,27.84-17a3,3,0,0,1,3.11,0l27.84,17,27.84-17a3,3,0,0,1,3.11,0l27.85,17,27.84-17a3,3,0,1,1,3.11,5.1l-29.4,17.93a3,3,0,0,1-3.11,0l-27.84-17L181,200.7A3,3,0,0,1,179.39,201.14Z"/></svg>